G04 DipTrace 2.4.0.2*
%INBottomSilk.gbr*%
%MOIN*%
%ADD66C,0.0154*%
%FSLAX44Y44*%
G04*
G70*
G90*
G75*
G01*
%LNBotSilk*%
%LPD*%
X21411Y5612D2*
D66*
X20981D1*
X20838Y5661D1*
X20789Y5709D1*
X20741Y5804D1*
Y5900D1*
X20789Y5995D1*
X20838Y6044D1*
X20981Y6091D1*
X21411D1*
Y5086D1*
X21076Y5612D2*
X20741Y5086D1*
X20433Y5469D2*
X19859D1*
Y5565D1*
X19906Y5661D1*
X19954Y5709D1*
X20050Y5756D1*
X20194D1*
X20289Y5709D1*
X20385Y5612D1*
X20433Y5469D1*
Y5374D1*
X20385Y5230D1*
X20289Y5135D1*
X20194Y5086D1*
X20050D1*
X19954Y5135D1*
X19859Y5230D1*
X19550Y5756D2*
X19263Y5086D1*
X18976Y5756D1*
X17696Y5899D2*
X17599Y5947D1*
X17456Y6090D1*
Y5086D1*
X17099Y5182D2*
X17147Y5134D1*
X17099Y5086D1*
X17051Y5134D1*
X17099Y5182D1*
X16455Y6090D2*
X16598Y6042D1*
X16695Y5899D1*
X16742Y5660D1*
Y5516D1*
X16695Y5277D1*
X16598Y5134D1*
X16455Y5086D1*
X16360D1*
X16216Y5134D1*
X16121Y5277D1*
X16072Y5516D1*
Y5660D1*
X16121Y5899D1*
X16216Y6042D1*
X16360Y6090D1*
X16455D1*
X16121Y5899D2*
X16695Y5277D1*
M02*
