G04 DipTrace 2.4.0.2*
%INBottom.gbr*%
%MOMM*%
%ADD14C,0.203*%
%ADD15C,0.508*%
%ADD16C,1.016*%
%ADD17C,2.032*%
%ADD19C,0.762*%
%ADD21C,1.397*%
%ADD22C,1.27*%
%ADD24C,0.381*%
%ADD25C,2.54*%
%ADD26C,0.4*%
%ADD27C,2.794*%
%ADD28C,0.635*%
%ADD29C,0.457*%
%ADD30O,3.0X2.3*%
%ADD31O,3.6X2.2*%
%ADD33R,1.5X1.5*%
%ADD34C,1.5*%
%ADD36C,1.5*%
%ADD39C,0.8*%
%FSLAX53Y53*%
G04*
G71*
G90*
G75*
G01*
%LNBottom*%
%LPD*%
X15600Y87973D2*
D14*
Y87933D1*
X9317Y81650D1*
X5803D1*
X5587Y81867D1*
X4193D1*
X3730Y81403D1*
Y79350D1*
X5043Y78037D1*
X18140Y87973D2*
X18270D1*
X17365Y87068D1*
X16678D1*
X10197Y80587D1*
X8677D1*
X8465Y80375D1*
Y79442D1*
X8100Y79077D1*
X7440D1*
X7093Y79423D1*
Y80363D1*
X6870Y80587D1*
X5053D1*
X5043Y80577D1*
X36087Y79113D2*
D15*
X29903D1*
X28200Y77410D1*
X2503Y83117D2*
D16*
X1593D1*
X923Y83787D1*
Y87787D1*
X2473Y89337D1*
D17*
X5587D1*
X27513Y67073D2*
D19*
X33987D1*
X36340Y64720D1*
X14567Y71320D2*
D15*
X15947D1*
X17067Y70200D1*
Y61390D1*
X16137Y60460D1*
X14753D1*
X14670Y60543D1*
X14687Y49757D2*
X15647D1*
X17067Y51177D1*
Y61390D1*
X14750Y38920D2*
X16763D1*
X17067Y39223D1*
Y51177D1*
X2503Y85657D2*
D21*
X5043D1*
X13060Y87973D2*
D22*
Y90023D1*
D19*
X15013Y91977D1*
X20107D1*
X22257Y89827D1*
Y77837D1*
X19343Y74923D1*
Y73913D1*
X18067Y72637D1*
Y71437D1*
X18723Y70780D1*
Y67710D1*
X20670Y65763D1*
X21923D1*
X24427Y63260D1*
Y58423D1*
X20785Y54782D1*
X20290Y43990D2*
X21830D1*
X22833Y44993D1*
Y52733D1*
X20785Y54782D1*
X5043Y85657D2*
D22*
X6283D1*
X8217Y87590D1*
Y89303D1*
X9537Y90623D1*
X12329D1*
X13060Y90023D1*
X35894Y55289D2*
D15*
Y55856D1*
X35331Y56419D1*
X28528D1*
X28447Y56500D1*
X39153Y35643D2*
X38960D1*
X30330Y44273D1*
X46053Y58813D2*
D24*
Y59303D1*
X45730Y59627D1*
X38807D1*
X38750Y59570D1*
X66340Y49273D2*
D25*
X42074D1*
D26*
X42027Y49320D1*
X66153Y71217D2*
D27*
X41933D1*
D26*
X41817Y71333D1*
X56251Y55289D2*
D25*
X65324D1*
X66340Y54273D1*
X56251Y43351D2*
Y43797D1*
X65864D1*
X66340Y44273D1*
X56041Y77302D2*
X66153D1*
Y76217D1*
X44643Y40670D2*
D24*
X38270D1*
X56041Y65364D2*
D25*
X66153D1*
Y66217D1*
X66363Y27330D2*
X42050D1*
D26*
X42020Y27300D1*
X56244Y33269D2*
Y33890D1*
D25*
X64804D1*
X66363Y32330D1*
X56244Y21331D2*
D26*
Y20990D1*
D25*
X65023D1*
X66363Y22330D1*
X36947Y18277D2*
D14*
Y29797D1*
X37297Y30147D1*
X7496Y26604D2*
D25*
X31801D1*
D26*
X31857Y26660D1*
X17633Y20691D2*
Y20450D1*
D25*
X8650D1*
X7496Y21604D1*
X17633Y32629D2*
D26*
Y33047D1*
D25*
X8939D1*
X7496Y31604D1*
D39*
X36087Y79113D3*
X28200Y77410D3*
X5587Y89337D3*
D3*
X27513Y67073D3*
X36340Y64720D3*
X35894Y55289D3*
X28447Y56500D3*
X39153Y35643D3*
X30330Y44273D3*
X46053Y58813D3*
X38750Y59570D3*
X44643Y40670D3*
X38270D3*
X36947Y18277D3*
X37297Y30147D3*
X4433Y89343D3*
X3210Y89357D3*
X787Y97704D2*
D28*
X1618D1*
X6101D2*
X67559D1*
X72051D2*
X72877D1*
X787Y97073D2*
X1052D1*
X6666D2*
X66993D1*
X72607D2*
X72881D1*
X7003Y96441D2*
X66656D1*
X7192Y95809D2*
X66477D1*
X7242Y95178D2*
X66418D1*
X7182Y94546D2*
X66487D1*
X6984Y93914D2*
X66676D1*
X787Y93283D2*
X1082D1*
X6636D2*
X67033D1*
X72577D2*
X72872D1*
X787Y92651D2*
X1667D1*
X6051D2*
X67608D1*
X71992D2*
X72877D1*
X787Y92019D2*
X2838D1*
X4880D2*
X68789D1*
X70821D2*
X72877D1*
X787Y91388D2*
X72877D1*
X787Y90756D2*
X1281D1*
X6785D2*
X72877D1*
X7281Y90124D2*
X72877D1*
X7460Y89493D2*
X8910D1*
X12133D2*
X12691D1*
X13433D2*
X15231D1*
X15973D2*
X17771D1*
X18513D2*
X72877D1*
X7400Y88861D2*
X8910D1*
X19475D2*
X72877D1*
X7093Y88229D2*
X8910D1*
X19733D2*
X72877D1*
X6170Y87598D2*
X8910D1*
X19703D2*
X72877D1*
X5932Y86966D2*
X8910D1*
X19386D2*
X72877D1*
X6497Y86334D2*
X12661D1*
X17947D2*
X72877D1*
X6656Y85703D2*
X12036D1*
X16648D2*
X72877D1*
X6537Y85071D2*
X11401D1*
X16022D2*
X34995D1*
X6071Y84439D2*
X10766D1*
X15387D2*
X34876D1*
X6497Y83808D2*
X10141D1*
X14752D2*
X34876D1*
X6656Y83176D2*
X9506D1*
X14127D2*
X34876D1*
X13492Y82544D2*
X34876D1*
X787Y81913D2*
X1023D1*
X12857D2*
X34876D1*
X787Y81281D2*
X1062D1*
X12232D2*
X34876D1*
X11597Y80649D2*
X34866D1*
X787Y80018D2*
X993D1*
X16181D2*
X29300D1*
X787Y79386D2*
X1449D1*
X9424D2*
X10478D1*
X16181D2*
X28625D1*
X787Y78754D2*
X1062D1*
X9117D2*
X10428D1*
X16181D2*
X27990D1*
X6656Y78123D2*
X10647D1*
X16181D2*
X27167D1*
X787Y77491D2*
X993D1*
X6557D2*
X11411D1*
X12639D2*
X12952D1*
X16181D2*
X26938D1*
X29834D2*
X34856D1*
X787Y76859D2*
X1429D1*
X6110D2*
X27067D1*
X29328D2*
X34856D1*
X787Y76228D2*
X1072D1*
X6478D2*
X18555D1*
X20130D2*
X21085D1*
X22690D2*
X27931D1*
X28464D2*
X34856D1*
X6656Y75596D2*
X17920D1*
X23285D2*
X34856D1*
X787Y74964D2*
X983D1*
X6567D2*
X17582D1*
X23444D2*
X34856D1*
X787Y74333D2*
X1419D1*
X6130D2*
X17840D1*
X23325D2*
X34856D1*
X787Y73701D2*
X1082D1*
X6468D2*
X18475D1*
X22819D2*
X34846D1*
X6656Y73069D2*
X19170D1*
X22055D2*
X34846D1*
X787Y72438D2*
X983D1*
X6567D2*
X10885D1*
X13165D2*
X13425D1*
X15705D2*
X19676D1*
X21559D2*
X34846D1*
X787Y71806D2*
X1400D1*
X6140D2*
X10488D1*
X17015D2*
X34846D1*
X787Y71174D2*
X1092D1*
X6458D2*
X10419D1*
X17650D2*
X34846D1*
X6656Y70543D2*
X10627D1*
X18126D2*
X34846D1*
X6567Y69911D2*
X11321D1*
X12738D2*
X13861D1*
X15278D2*
X15806D1*
X18185D2*
X34836D1*
X787Y69279D2*
X1390D1*
X6160D2*
X10994D1*
X18185D2*
X34836D1*
X787Y68648D2*
X1092D1*
X6448D2*
X10597D1*
X18185D2*
X34836D1*
X6646Y68016D2*
X10528D1*
X18185D2*
X26710D1*
X6577Y67384D2*
X10726D1*
X18185D2*
X20261D1*
X21083D2*
X26294D1*
X787Y66753D2*
X1370D1*
X6170D2*
X11421D1*
X12838D2*
X13058D1*
X18185D2*
X19567D1*
X21777D2*
X26294D1*
X787Y66121D2*
X1102D1*
X6448D2*
X15945D1*
X18185D2*
X18991D1*
X22353D2*
X26720D1*
X6646Y65489D2*
X15945D1*
X22382D2*
X33834D1*
X6577Y64858D2*
X15945D1*
X21857D2*
X34469D1*
X787Y64226D2*
X1360D1*
X6190D2*
X15945D1*
X21847D2*
X35104D1*
X37493D2*
X41563D1*
X46135D2*
X47358D1*
X787Y63594D2*
X1112D1*
X6438D2*
X15945D1*
X22184D2*
X35858D1*
X36819D2*
X42397D1*
X45302D2*
X47348D1*
X6646Y62963D2*
X15945D1*
X18185D2*
X19130D1*
X22214D2*
X47348D1*
X6587Y62331D2*
X15945D1*
X18185D2*
X19398D1*
X21936D2*
X47348D1*
X787Y61699D2*
X1350D1*
X6200D2*
X11034D1*
X13224D2*
X13578D1*
X18185D2*
X47338D1*
X787Y61068D2*
X1122D1*
X6428D2*
X10607D1*
X18185D2*
X47338D1*
X6646Y60436D2*
X10518D1*
X18185D2*
X37853D1*
X46364D2*
X47338D1*
X6587Y59804D2*
X10706D1*
X18185D2*
X37505D1*
X46969D2*
X47325D1*
X787Y59173D2*
X1330D1*
X6210D2*
X11341D1*
X12917D2*
X13881D1*
X15457D2*
X15945D1*
X18185D2*
X37555D1*
X787Y58541D2*
X1132D1*
X6418D2*
X11063D1*
X18185D2*
X38071D1*
X39428D2*
X44818D1*
X6646Y57909D2*
X10627D1*
X18185D2*
X45205D1*
X46909D2*
X47324D1*
X6597Y57278D2*
X10538D1*
X18185D2*
X27474D1*
X36005D2*
X47318D1*
X787Y56646D2*
X1320D1*
X6230D2*
X10716D1*
X18185D2*
X27196D1*
X787Y56014D2*
X1132D1*
X6408D2*
X11341D1*
X18185D2*
X19924D1*
X21648D2*
X27286D1*
X6646Y55383D2*
X15945D1*
X18185D2*
X19289D1*
X22283D2*
X27951D1*
X6597Y54751D2*
X15945D1*
X18185D2*
X18604D1*
X22551D2*
X34757D1*
X787Y54119D2*
X1310D1*
X6239D2*
X15945D1*
X22214D2*
X35094D1*
X787Y53488D2*
X15945D1*
X21688D2*
X35094D1*
X787Y52856D2*
X15945D1*
X22214D2*
X35094D1*
X787Y52224D2*
X15945D1*
X18185D2*
X18683D1*
X22353D2*
X35094D1*
X787Y51593D2*
X15925D1*
X18185D2*
X19368D1*
X22204D2*
X35094D1*
X787Y50961D2*
X11103D1*
X13185D2*
X13649D1*
X18185D2*
X19944D1*
X21628D2*
X35094D1*
X787Y50329D2*
X10647D1*
X18185D2*
X35094D1*
X787Y49698D2*
X10538D1*
X18185D2*
X35094D1*
X787Y49066D2*
X10696D1*
X18185D2*
X35094D1*
X787Y48434D2*
X11272D1*
X13016D2*
X13812D1*
X15556D2*
X15945D1*
X18185D2*
X35094D1*
X787Y47803D2*
X11252D1*
X18185D2*
X35094D1*
X787Y47171D2*
X10726D1*
X18185D2*
X35094D1*
X787Y46539D2*
X10597D1*
X18185D2*
X35094D1*
X787Y45908D2*
X10736D1*
X18185D2*
X35094D1*
X787Y45276D2*
X11252D1*
X18185D2*
X19477D1*
X21102D2*
X29607D1*
X31054D2*
X35094D1*
X787Y44644D2*
X15945D1*
X18185D2*
X18852D1*
X21728D2*
X29121D1*
X31530D2*
X35094D1*
X787Y44013D2*
X15945D1*
X22055D2*
X29092D1*
X32145D2*
X35094D1*
X787Y43381D2*
X15945D1*
X21777D2*
X29469D1*
X32780D2*
X35094D1*
X787Y42749D2*
X15945D1*
X21142D2*
X30302D1*
X33406D2*
X35094D1*
X787Y42118D2*
X15945D1*
X21698D2*
X30927D1*
X34041D2*
X35104D1*
X787Y41486D2*
X15945D1*
X21857D2*
X31562D1*
X34676D2*
X37327D1*
X45590D2*
X47308D1*
X787Y40854D2*
X15945D1*
X18185D2*
X18852D1*
X21728D2*
X32197D1*
X35301D2*
X37019D1*
X45897D2*
X47308D1*
X787Y40223D2*
X11312D1*
X13115D2*
X13852D1*
X15655D2*
X15945D1*
X18185D2*
X19368D1*
X21212D2*
X32822D1*
X35936D2*
X37089D1*
X45818D2*
X47308D1*
X787Y39591D2*
X10746D1*
X18185D2*
X33457D1*
X36571D2*
X37684D1*
X38863D2*
X44054D1*
X45232D2*
X47308D1*
X787Y38959D2*
X10597D1*
X18146D2*
X34092D1*
X37196D2*
X47308D1*
X25706Y38328D2*
X34717D1*
X37831D2*
X47308D1*
X25766Y37696D2*
X35352D1*
X38466D2*
X47308D1*
X25756Y37064D2*
X35987D1*
X39091D2*
X47308D1*
X25746Y36433D2*
X36612D1*
X40123D2*
X47308D1*
X25746Y35801D2*
X37247D1*
X40410D2*
X47308D1*
X25736Y35169D2*
X37882D1*
X40321D2*
X47308D1*
X25736Y34538D2*
X38626D1*
X39686D2*
X41871D1*
X46225D2*
X47308D1*
X25726Y33906D2*
X27653D1*
X31997D2*
X36850D1*
X25716Y33274D2*
X27276D1*
X32374D2*
X36811D1*
X25716Y32643D2*
X27157D1*
X32493D2*
X36811D1*
X35678Y32011D2*
X36811D1*
X36561Y31379D2*
X36809D1*
X25756Y21273D2*
X27256D1*
X32394D2*
X35977D1*
X25756Y20641D2*
X27167D1*
X32483D2*
X35977D1*
X25746Y20009D2*
X27286D1*
X32364D2*
X35977D1*
X25746Y19378D2*
X27693D1*
X31957D2*
X35977D1*
X25736Y18746D2*
X35779D1*
X38118D2*
X47358D1*
X25736Y18114D2*
X35690D1*
X38198D2*
X47348D1*
X25726Y17483D2*
X35987D1*
X37910D2*
X47348D1*
X25726Y16851D2*
X47338D1*
X25726Y16219D2*
X47328D1*
X25716Y15588D2*
X47328D1*
X25716Y14956D2*
X47318D1*
X25706Y14324D2*
X47318D1*
X25706Y13693D2*
X47308D1*
X787Y13061D2*
X47765D1*
X787Y12429D2*
X72877D1*
X787Y11798D2*
X72877D1*
X787Y11166D2*
X72877D1*
X787Y10534D2*
X72877D1*
X787Y9903D2*
X72877D1*
X787Y9271D2*
X72877D1*
X787Y8639D2*
X72877D1*
X787Y8008D2*
X72877D1*
X787Y7376D2*
X72877D1*
X787Y6744D2*
X2154D1*
X5565D2*
X68104D1*
X71506D2*
X72877D1*
X787Y6113D2*
X1360D1*
X6359D2*
X67301D1*
X72299D2*
X72877D1*
X6815Y5481D2*
X66844D1*
X7093Y4849D2*
X66566D1*
X7222Y4218D2*
X66437D1*
X7232Y3586D2*
X66428D1*
X7113Y2954D2*
X66547D1*
X6865Y2323D2*
X66795D1*
X787Y1691D2*
X1281D1*
X6438D2*
X67221D1*
X72379D2*
X72877D1*
X787Y1059D2*
X2005D1*
X5704D2*
X67956D1*
X71654D2*
X72877D1*
X72940Y94120D2*
X72752Y93673D1*
X72408Y93140D1*
X71969Y92683D1*
X71451Y92317D1*
X70873Y92056D1*
X70256Y91910D1*
X69622Y91884D1*
X68995Y91979D1*
X68398Y92192D1*
X67852Y92513D1*
X67377Y92933D1*
X66990Y93436D1*
X66706Y94003D1*
X66535Y94613D1*
X66483Y95245D1*
X66552Y95875D1*
X66739Y96481D1*
X67039Y97040D1*
X67439Y97532D1*
X67925Y97939D1*
X68480Y98246D1*
X68711Y98334D1*
X4941Y98336D1*
X5306Y98190D1*
X5847Y97860D1*
X6317Y97434D1*
X6697Y96926D1*
X6973Y96356D1*
X7136Y95743D1*
X7181Y95200D1*
X7120Y94569D1*
X6941Y93961D1*
X6649Y93398D1*
X6256Y92901D1*
X5775Y92487D1*
X5224Y92173D1*
X4624Y91968D1*
X3996Y91882D1*
X3363Y91917D1*
X2748Y92071D1*
X2173Y92339D1*
X1660Y92712D1*
X1228Y93175D1*
X891Y93712D1*
X722Y94125D1*
X724Y89813D1*
X904Y90250D1*
X1087Y90509D1*
X1312Y90733D1*
X1572Y90913D1*
X1860Y91046D1*
X2167Y91127D1*
X2791Y91153D1*
X5587D1*
X5903Y91125D1*
X6209Y91043D1*
X6496Y90909D1*
X6756Y90727D1*
X6980Y90502D1*
X7161Y90242D1*
X7295Y89954D1*
X7376Y89648D1*
X7403Y89332D1*
X7374Y89016D1*
X7291Y88710D1*
X7156Y88423D1*
X6973Y88164D1*
X6748Y87941D1*
X6488Y87760D1*
X6200Y87627D1*
X5893Y87547D1*
X5269Y87521D1*
X2500Y87514D1*
X2227Y87240D1*
X2287Y87207D1*
X4053D1*
Y86848D1*
X4310Y87022D1*
X4603Y87143D1*
X4914Y87201D1*
X5231Y87195D1*
X5540Y87125D1*
X5828Y86993D1*
X6084Y86806D1*
X6296Y86570D1*
X6455Y86296D1*
X6556Y85995D1*
X6593Y85657D1*
X6561Y85341D1*
X6465Y85039D1*
X6310Y84763D1*
X6102Y84524D1*
X5935Y84384D1*
X6174Y84177D1*
X6366Y83924D1*
X6503Y83638D1*
X6579Y83331D1*
X6593Y83117D1*
X6561Y82801D1*
X6480Y82546D1*
X8949Y82552D1*
X12829Y86441D1*
X12522Y86520D1*
X12237Y86660D1*
X12069Y86782D1*
X12070Y86423D1*
X8970D1*
Y89523D1*
X12070D1*
Y89156D1*
X12217Y89274D1*
X12499Y89418D1*
X12805Y89502D1*
X13121Y89522D1*
X13435Y89477D1*
X13733Y89370D1*
X14003Y89204D1*
X14234Y88986D1*
X14330Y88862D1*
X14466Y89030D1*
X14705Y89239D1*
X14981Y89394D1*
X15283Y89491D1*
X15598Y89523D1*
X15913Y89491D1*
X16215Y89396D1*
X16492Y89241D1*
X16731Y89033D1*
X16869Y88852D1*
X17006Y89030D1*
X17245Y89239D1*
X17521Y89394D1*
X17823Y89491D1*
X18138Y89523D1*
X18453Y89491D1*
X18755Y89396D1*
X19032Y89241D1*
X19271Y89033D1*
X19463Y88781D1*
X19600Y88495D1*
X19675Y88187D1*
X19690Y87973D1*
X19658Y87658D1*
X19562Y87356D1*
X19407Y87080D1*
X19198Y86841D1*
X18946Y86649D1*
X18660Y86513D1*
X18352Y86438D1*
X18006Y86432D1*
X17930Y86365D1*
X17653Y86214D1*
X17365Y86167D1*
X17057D1*
X10834Y79949D1*
X10575Y79768D1*
X10197Y79685D1*
X9373D1*
X9367Y79442D1*
X9312Y79131D1*
X9103Y78804D1*
X8738Y78439D1*
X8479Y78258D1*
X8100Y78175D1*
X7440D1*
X7129Y78230D1*
X6802Y78439D1*
X6456Y78786D1*
X6275Y79045D1*
X6192Y79423D1*
Y79532D1*
X5920Y79306D1*
X6174Y79097D1*
X6366Y78844D1*
X6503Y78558D1*
X6579Y78251D1*
X6593Y78037D1*
X6561Y77721D1*
X6465Y77419D1*
X6310Y77143D1*
X6102Y76904D1*
X5935Y76764D1*
X6174Y76557D1*
X6366Y76304D1*
X6503Y76018D1*
X6579Y75711D1*
X6593Y75497D1*
X6561Y75181D1*
X6465Y74879D1*
X6310Y74603D1*
X6102Y74364D1*
X5935Y74224D1*
X6174Y74017D1*
X6366Y73764D1*
X6503Y73478D1*
X6579Y73171D1*
X6593Y72957D1*
X6561Y72641D1*
X6465Y72339D1*
X6310Y72063D1*
X6102Y71824D1*
X5935Y71684D1*
X6174Y71477D1*
X6366Y71224D1*
X6503Y70938D1*
X6579Y70631D1*
X6593Y70417D1*
X6561Y70101D1*
X6465Y69799D1*
X6310Y69523D1*
X6102Y69284D1*
X5935Y69144D1*
X6174Y68937D1*
X6366Y68684D1*
X6503Y68398D1*
X6579Y68091D1*
X6593Y67877D1*
X6561Y67561D1*
X6465Y67259D1*
X6310Y66983D1*
X6102Y66744D1*
X5935Y66604D1*
X6174Y66397D1*
X6366Y66144D1*
X6503Y65858D1*
X6579Y65551D1*
X6593Y65337D1*
X6561Y65021D1*
X6465Y64719D1*
X6310Y64443D1*
X6102Y64204D1*
X5935Y64064D1*
X6174Y63857D1*
X6366Y63604D1*
X6503Y63318D1*
X6579Y63011D1*
X6593Y62797D1*
X6561Y62481D1*
X6465Y62179D1*
X6310Y61903D1*
X6102Y61664D1*
X5935Y61524D1*
X6174Y61317D1*
X6366Y61064D1*
X6503Y60778D1*
X6579Y60471D1*
X6593Y60257D1*
X6561Y59941D1*
X6465Y59639D1*
X6310Y59363D1*
X6102Y59124D1*
X5935Y58984D1*
X6174Y58777D1*
X6366Y58524D1*
X6503Y58238D1*
X6579Y57931D1*
X6593Y57717D1*
X6561Y57401D1*
X6465Y57099D1*
X6310Y56823D1*
X6102Y56584D1*
X5935Y56444D1*
X6174Y56237D1*
X6366Y55984D1*
X6503Y55698D1*
X6579Y55391D1*
X6593Y55177D1*
X6561Y54861D1*
X6465Y54559D1*
X6310Y54283D1*
X6102Y54044D1*
X5849Y53852D1*
X5563Y53716D1*
X5255Y53641D1*
X4938Y53630D1*
X4626Y53684D1*
X4331Y53800D1*
X4066Y53974D1*
X3842Y54198D1*
X3770Y54283D1*
X3562Y54044D1*
X3309Y53852D1*
X3023Y53716D1*
X2715Y53641D1*
X2398Y53630D1*
X2086Y53684D1*
X1791Y53800D1*
X1526Y53974D1*
X1302Y54198D1*
X1128Y54462D1*
X1011Y54757D1*
X957Y55069D1*
X967Y55386D1*
X1042Y55694D1*
X1178Y55981D1*
X1369Y56233D1*
X1617Y56447D1*
X1302Y56738D1*
X1128Y57002D1*
X1011Y57297D1*
X957Y57609D1*
X967Y57926D1*
X1042Y58234D1*
X1178Y58521D1*
X1369Y58773D1*
X1617Y58987D1*
X1302Y59278D1*
X1128Y59542D1*
X1011Y59837D1*
X957Y60149D1*
X967Y60466D1*
X1042Y60774D1*
X1178Y61061D1*
X1369Y61313D1*
X1617Y61527D1*
X1302Y61818D1*
X1128Y62082D1*
X1011Y62377D1*
X957Y62689D1*
X967Y63006D1*
X1042Y63314D1*
X1178Y63601D1*
X1369Y63853D1*
X1617Y64067D1*
X1302Y64358D1*
X1128Y64622D1*
X1011Y64917D1*
X957Y65229D1*
X967Y65546D1*
X1042Y65854D1*
X1178Y66141D1*
X1369Y66393D1*
X1617Y66607D1*
X1302Y66898D1*
X1128Y67162D1*
X1011Y67457D1*
X957Y67769D1*
X967Y68086D1*
X1042Y68394D1*
X1178Y68681D1*
X1369Y68933D1*
X1617Y69147D1*
X1302Y69438D1*
X1128Y69702D1*
X1011Y69997D1*
X957Y70309D1*
X967Y70626D1*
X1042Y70934D1*
X1178Y71221D1*
X1369Y71473D1*
X1617Y71687D1*
X1302Y71978D1*
X1128Y72242D1*
X1011Y72537D1*
X957Y72849D1*
X967Y73166D1*
X1042Y73474D1*
X1178Y73761D1*
X1369Y74013D1*
X1617Y74227D1*
X1302Y74518D1*
X1128Y74782D1*
X1011Y75077D1*
X957Y75389D1*
X967Y75706D1*
X1042Y76014D1*
X1178Y76301D1*
X1369Y76553D1*
X1617Y76767D1*
X1302Y77058D1*
X1128Y77322D1*
X1011Y77617D1*
X957Y77929D1*
X967Y78246D1*
X1042Y78554D1*
X1178Y78841D1*
X1369Y79093D1*
X1617Y79307D1*
X1302Y79598D1*
X1128Y79862D1*
X1011Y80157D1*
X957Y80469D1*
X967Y80786D1*
X1042Y81094D1*
X1178Y81381D1*
X1369Y81633D1*
X1571Y81809D1*
X1190Y81872D1*
X983Y81960D1*
X724Y81826D1*
Y38616D1*
X2576Y38626D1*
X10682D1*
X10674Y39130D1*
X10749Y39438D1*
X10885Y39724D1*
X11076Y39977D1*
X11315Y40185D1*
X11591Y40341D1*
X11893Y40437D1*
X12208Y40470D1*
X12523Y40438D1*
X12825Y40343D1*
X13102Y40188D1*
X13341Y39980D1*
X13479Y39799D1*
X13616Y39977D1*
X13855Y40185D1*
X14131Y40341D1*
X14433Y40437D1*
X14748Y40470D1*
X15063Y40438D1*
X15365Y40343D1*
X15642Y40188D1*
X15887Y39972D1*
X16013Y40176D1*
Y44988D1*
X13200Y44990D1*
Y45357D1*
X13016Y45216D1*
X12730Y45080D1*
X12422Y45004D1*
X12105Y44993D1*
X11793Y45047D1*
X11498Y45163D1*
X11233Y45337D1*
X11008Y45561D1*
X10834Y45826D1*
X10718Y46121D1*
X10664Y46433D1*
X10674Y46750D1*
X10749Y47058D1*
X10885Y47344D1*
X11076Y47597D1*
X11315Y47805D1*
X11591Y47961D1*
X11893Y48057D1*
X12208Y48090D1*
X12523Y48058D1*
X12825Y47963D1*
X13102Y47808D1*
X13199Y47723D1*
X13200Y48090D1*
X16008D1*
X16013Y48778D1*
X15745Y48624D1*
X15492Y48432D1*
X15206Y48296D1*
X14898Y48221D1*
X14582Y48210D1*
X14269Y48264D1*
X13974Y48380D1*
X13709Y48554D1*
X13485Y48778D1*
X13413Y48863D1*
X13205Y48624D1*
X12952Y48432D1*
X12666Y48296D1*
X12358Y48221D1*
X12042Y48210D1*
X11729Y48264D1*
X11434Y48380D1*
X11169Y48554D1*
X10945Y48778D1*
X10771Y49042D1*
X10654Y49337D1*
X10600Y49649D1*
X10611Y49966D1*
X10686Y50274D1*
X10821Y50561D1*
X11013Y50813D1*
X11251Y51022D1*
X11527Y51178D1*
X11829Y51274D1*
X12144Y51307D1*
X12460Y51275D1*
X12762Y51179D1*
X13039Y51024D1*
X13278Y50817D1*
X13416Y50635D1*
X13553Y50813D1*
X13791Y51022D1*
X14067Y51178D1*
X14369Y51274D1*
X14684Y51307D1*
X15000Y51275D1*
X15302Y51179D1*
X15484Y51078D1*
X16017Y51618D1*
X16013Y55830D1*
X13137Y55827D1*
Y56194D1*
X12952Y56052D1*
X12666Y55916D1*
X12358Y55841D1*
X12042Y55830D1*
X11729Y55884D1*
X11434Y56000D1*
X11169Y56174D1*
X10945Y56398D1*
X10771Y56662D1*
X10654Y56957D1*
X10600Y57269D1*
X10611Y57586D1*
X10686Y57894D1*
X10821Y58181D1*
X11013Y58433D1*
X11251Y58642D1*
X11527Y58798D1*
X11829Y58894D1*
X12144Y58927D1*
X12460Y58895D1*
X12762Y58799D1*
X13039Y58644D1*
X13136Y58560D1*
X13137Y58927D1*
X16017D1*
X16013Y59402D1*
X15730Y59406D1*
X15476Y59219D1*
X15190Y59083D1*
X14882Y59008D1*
X14565Y58997D1*
X14253Y59050D1*
X13958Y59167D1*
X13693Y59340D1*
X13468Y59564D1*
X13397Y59650D1*
X13188Y59411D1*
X12936Y59219D1*
X12650Y59083D1*
X12342Y59008D1*
X12025Y58997D1*
X11713Y59050D1*
X11418Y59167D1*
X11153Y59340D1*
X10928Y59564D1*
X10754Y59829D1*
X10638Y60124D1*
X10584Y60436D1*
X10594Y60753D1*
X10669Y61061D1*
X10805Y61347D1*
X10996Y61600D1*
X11235Y61809D1*
X11511Y61964D1*
X11813Y62061D1*
X12128Y62093D1*
X12443Y62061D1*
X12745Y61966D1*
X13022Y61811D1*
X13261Y61603D1*
X13399Y61422D1*
X13536Y61600D1*
X13775Y61809D1*
X14051Y61964D1*
X14353Y62061D1*
X14668Y62093D1*
X14983Y62061D1*
X15285Y61966D1*
X15562Y61811D1*
X15794Y61610D1*
X16016Y61830D1*
X16013Y66619D1*
X13120Y66613D1*
Y66980D1*
X12936Y66839D1*
X12650Y66703D1*
X12342Y66628D1*
X12025Y66617D1*
X11713Y66670D1*
X11418Y66787D1*
X11153Y66960D1*
X10928Y67184D1*
X10754Y67449D1*
X10638Y67744D1*
X10584Y68056D1*
X10594Y68373D1*
X10669Y68681D1*
X10805Y68967D1*
X10996Y69220D1*
X11235Y69429D1*
X11511Y69584D1*
X11813Y69681D1*
X12128Y69713D1*
X12443Y69681D1*
X12745Y69586D1*
X13022Y69431D1*
X13119Y69347D1*
X13120Y69713D1*
X16015D1*
X15872Y69904D1*
X15613Y70163D1*
X15372Y69996D1*
X15086Y69860D1*
X14778Y69784D1*
X14462Y69773D1*
X14149Y69827D1*
X13854Y69943D1*
X13589Y70117D1*
X13365Y70341D1*
X13293Y70426D1*
X13085Y70187D1*
X12832Y69996D1*
X12546Y69860D1*
X12238Y69784D1*
X11922Y69773D1*
X11609Y69827D1*
X11314Y69943D1*
X11049Y70117D1*
X10825Y70341D1*
X10651Y70606D1*
X10534Y70901D1*
X10480Y71213D1*
X10491Y71530D1*
X10566Y71838D1*
X10701Y72124D1*
X10893Y72377D1*
X11131Y72585D1*
X11407Y72741D1*
X11709Y72837D1*
X12024Y72870D1*
X12340Y72838D1*
X12642Y72743D1*
X12919Y72588D1*
X13158Y72380D1*
X13296Y72199D1*
X13433Y72377D1*
X13671Y72585D1*
X13947Y72741D1*
X14249Y72837D1*
X14564Y72870D1*
X14880Y72838D1*
X15182Y72743D1*
X15459Y72588D1*
X15704Y72372D1*
X15947Y72374D1*
X16259Y72327D1*
X16589Y72155D1*
X17590Y71167D1*
X17812Y70945D1*
X18000Y70691D1*
X18112Y70336D1*
X18121Y68930D1*
Y65269D1*
X18222Y65423D1*
X18444Y65649D1*
X18708Y65824D1*
X18994Y65936D1*
X19035Y66079D1*
X19170Y66292D1*
X20201Y67311D1*
X20427Y67425D1*
X20677Y67463D1*
X20926Y67421D1*
X21150Y67304D1*
X21505Y66960D1*
X22218Y66233D1*
X22332Y66007D1*
X22370Y65757D1*
X22328Y65507D1*
X22210Y65283D1*
X21866Y64928D1*
X21444Y64506D1*
X21736Y64279D1*
X21934Y64031D1*
X22076Y63747D1*
X22154Y63440D1*
X22170Y63223D1*
X22137Y62908D1*
X22038Y62607D1*
X21878Y62334D1*
X21664Y62100D1*
X21406Y61916D1*
X21115Y61791D1*
X20804Y61729D1*
X20487Y61734D1*
X20178Y61806D1*
X19891Y61941D1*
X19639Y62133D1*
X19433Y62374D1*
X19283Y62653D1*
X19190Y63006D1*
X18908Y63076D1*
X18621Y63211D1*
X18369Y63403D1*
X18121Y63723D1*
Y54058D1*
X18337Y54441D1*
X18559Y54668D1*
X18823Y54843D1*
X19109Y54955D1*
X19150Y55097D1*
X19285Y55311D1*
X20316Y56330D1*
X20542Y56444D1*
X20792Y56482D1*
X21041Y56440D1*
X21265Y56322D1*
X21620Y55978D1*
X22333Y55251D1*
X22447Y55025D1*
X22485Y54775D1*
X22443Y54526D1*
X22325Y54302D1*
X21981Y53947D1*
X21559Y53524D1*
X21851Y53297D1*
X22049Y53049D1*
X22191Y52766D1*
X22269Y52459D1*
X22285Y52242D1*
X22252Y51927D1*
X22153Y51625D1*
X21993Y51352D1*
X21779Y51118D1*
X21521Y50934D1*
X21230Y50809D1*
X20919Y50748D1*
X20602Y50753D1*
X20293Y50825D1*
X20006Y50959D1*
X19754Y51152D1*
X19548Y51392D1*
X19398Y51671D1*
X19305Y52025D1*
X19023Y52095D1*
X18736Y52229D1*
X18484Y52422D1*
X18278Y52662D1*
X18119Y52970D1*
X18121Y43924D1*
X18328Y44051D1*
X18614Y44163D1*
X18655Y44305D1*
X18790Y44519D1*
X19821Y45538D1*
X20047Y45652D1*
X20297Y45690D1*
X20546Y45648D1*
X20770Y45530D1*
X21125Y45186D1*
X21838Y44459D1*
X21952Y44233D1*
X21990Y43983D1*
X21948Y43734D1*
X21830Y43510D1*
X21486Y43155D1*
X21064Y42732D1*
X21356Y42505D1*
X21554Y42258D1*
X21696Y41974D1*
X21774Y41667D1*
X21790Y41450D1*
X21757Y41135D1*
X21658Y40834D1*
X21498Y40560D1*
X21284Y40326D1*
X21026Y40143D1*
X20735Y40017D1*
X20424Y39956D1*
X20107Y39961D1*
X19798Y40033D1*
X19511Y40168D1*
X19259Y40360D1*
X19053Y40601D1*
X18903Y40880D1*
X18810Y41233D1*
X18528Y41303D1*
X18241Y41438D1*
X18123Y41528D1*
X18121Y39223D1*
X18073Y38911D1*
X17928Y38619D1*
X20991Y38626D1*
X25157D1*
X25457Y38536D1*
X25659Y38287D1*
X25703Y38075D1*
X25645Y32072D1*
X27310Y32066D1*
X27242Y32375D1*
X27226Y32692D1*
X27263Y33007D1*
X27351Y33312D1*
X27490Y33597D1*
X27673Y33855D1*
X27898Y34080D1*
X28156Y34264D1*
X28441Y34402D1*
X28746Y34491D1*
X29125Y34529D1*
X30777Y34512D1*
X31087Y34444D1*
X31381Y34325D1*
X31651Y34159D1*
X31890Y33950D1*
X32091Y33705D1*
X32248Y33429D1*
X32357Y33132D1*
X32415Y32820D1*
X32425Y32629D1*
X32398Y32313D1*
X32327Y32035D1*
X35957Y32009D1*
X36256Y31918D1*
X36457Y31667D1*
X36499Y31459D1*
X36496Y31033D1*
X36743Y31211D1*
X36864Y31255D1*
X36871Y32865D1*
Y33683D1*
X36960Y33983D1*
X37210Y34186D1*
X37424Y34229D1*
X41680Y34171D1*
X41901Y34495D1*
X42125Y34720D1*
X42383Y34904D1*
X42669Y35042D1*
X42973Y35131D1*
X43352Y35169D1*
X45005Y35152D1*
X45314Y35084D1*
X45608Y34965D1*
X45879Y34799D1*
X46117Y34590D1*
X46318Y34345D1*
X46451Y34112D1*
X47375Y34094D1*
X47371Y41706D1*
X45724Y41711D1*
X45435Y41580D1*
X45540Y41468D1*
X45717Y41206D1*
X45820Y40906D1*
X45843Y40670D1*
X45802Y40356D1*
X45679Y40064D1*
X45485Y39814D1*
X45232Y39624D1*
X44938Y39507D1*
X44623Y39470D1*
X44310Y39517D1*
X43982Y39675D1*
X38938Y39679D1*
X38859Y39624D1*
X38565Y39507D1*
X38250Y39470D1*
X37937Y39517D1*
X37647Y39644D1*
X37401Y39843D1*
X37215Y40099D1*
X37102Y40395D1*
X37071Y40710D1*
X37123Y41022D1*
X37255Y41310D1*
X37457Y41553D1*
X37676Y41706D1*
X35700Y41711D1*
X35400Y41800D1*
X35198Y42050D1*
X35154Y42257D1*
Y54351D1*
X35025Y54462D1*
X34839Y54718D1*
X34726Y55014D1*
X34696Y55365D1*
X28832D1*
X28427Y55300D1*
X28114Y55347D1*
X27824Y55474D1*
X27577Y55673D1*
X27391Y55929D1*
X27279Y56225D1*
X27247Y56540D1*
X27299Y56852D1*
X27431Y57140D1*
X27634Y57383D1*
X27893Y57565D1*
X28191Y57673D1*
X28506Y57699D1*
X28818Y57641D1*
X29141Y57472D1*
X35331Y57473D1*
X35644Y57426D1*
X35974Y57254D1*
X36579Y56662D1*
X42040Y56659D1*
X42390Y56924D1*
X42675Y57062D1*
X42980Y57151D1*
X43359Y57189D1*
X45011Y57172D1*
X45321Y57104D1*
X45615Y56985D1*
X45885Y56819D1*
X46072Y56656D1*
X47378Y56659D1*
X47421Y64600D1*
X46293Y64597D1*
X46040Y64187D1*
X45823Y63955D1*
X45571Y63763D1*
X45291Y63615D1*
X44989Y63516D1*
X44547Y63471D1*
X43149Y63464D1*
X42959Y63474D1*
X42647Y63532D1*
X42349Y63641D1*
X42074Y63798D1*
X41828Y63998D1*
X41619Y64237D1*
X41419Y64590D1*
X39397Y64597D1*
X37542D1*
X37498Y64406D1*
X37376Y64114D1*
X37182Y63864D1*
X36929Y63674D1*
X36635Y63557D1*
X36320Y63520D1*
X36007Y63567D1*
X35717Y63694D1*
X35471Y63893D1*
X35280Y64109D1*
X33491Y65898D1*
X29542Y65892D1*
X27726D1*
X27493Y65873D1*
X27180Y65920D1*
X26890Y66048D1*
X26644Y66246D1*
X26458Y66502D1*
X26345Y66798D1*
X26314Y67113D1*
X26366Y67425D1*
X26498Y67713D1*
X26701Y67956D1*
X26960Y68138D1*
X27257Y68246D1*
X27573Y68272D1*
X27831Y68254D1*
X33987D1*
X34300Y68212D1*
X34592Y68088D1*
X34822Y67908D1*
X34899Y67831D1*
X34926Y78053D1*
X31324Y78059D1*
X30342D1*
X29351Y77070D1*
X29236Y76804D1*
X29042Y76554D1*
X28789Y76364D1*
X28495Y76247D1*
X28180Y76210D1*
X27867Y76257D1*
X27577Y76384D1*
X27331Y76583D1*
X27145Y76839D1*
X27032Y77135D1*
X27001Y77450D1*
X27053Y77762D1*
X27185Y78050D1*
X27387Y78293D1*
X27646Y78475D1*
X27842Y78545D1*
X29158Y79859D1*
X29413Y80046D1*
X29767Y80159D1*
X31173Y80167D1*
X34934D1*
X34944Y84738D1*
X35034Y85038D1*
X35284Y85240D1*
X35489Y85283D1*
X72944Y85335D1*
X72936Y87401D1*
Y94099D1*
X70891Y98335D2*
X71249Y98190D1*
X71791Y97861D1*
X72260Y97434D1*
X72640Y96927D1*
X72917Y96356D1*
X72938Y96290D1*
X72936Y98336D1*
X70902D1*
X72939Y2777D2*
X72752Y2329D1*
X72407Y1797D1*
X71968Y1339D1*
X71450Y974D1*
X70900Y724D1*
X72936D1*
Y2758D1*
X68701Y725D2*
X68398Y848D1*
X67851Y1170D1*
X67376Y1590D1*
X66990Y2093D1*
X66706Y2659D1*
X66534Y3270D1*
X66482Y3902D1*
X66552Y4532D1*
X66739Y5138D1*
X67038Y5697D1*
X67438Y6189D1*
X67925Y6596D1*
X68479Y6903D1*
X69082Y7099D1*
X69711Y7177D1*
X70344Y7133D1*
X70957Y6971D1*
X71528Y6695D1*
X72036Y6315D1*
X72462Y5846D1*
X72792Y5305D1*
X72937Y4947D1*
X72936Y12977D1*
X72772Y13054D1*
X47917D1*
X47617Y13144D1*
X47414Y13393D1*
X47371Y13605D1*
X47419Y18873D1*
X44471Y18901D1*
X37913Y18978D1*
X38021Y18812D1*
X38123Y18513D1*
X38147Y18277D1*
X38105Y17963D1*
X37983Y17671D1*
X37788Y17421D1*
X37535Y17231D1*
X37241Y17113D1*
X36927Y17077D1*
X36614Y17124D1*
X36324Y17251D1*
X36077Y17449D1*
X35891Y17706D1*
X35779Y18001D1*
X35747Y18316D1*
X35799Y18629D1*
X35931Y18916D1*
X36052Y19061D1*
X36045Y21680D1*
X35566Y21666D1*
X32143Y21686D1*
X32248Y21491D1*
X32357Y21194D1*
X32415Y20882D1*
X32425Y20691D1*
X32398Y20375D1*
X32320Y20068D1*
X32191Y19778D1*
X32016Y19513D1*
X31799Y19282D1*
X31547Y19089D1*
X31267Y18942D1*
X30965Y18843D1*
X30523Y18797D1*
X29125Y18791D1*
X28935Y18800D1*
X28623Y18858D1*
X28325Y18967D1*
X28050Y19124D1*
X27804Y19325D1*
X27595Y19564D1*
X27429Y19834D1*
X27310Y20128D1*
X27242Y20437D1*
X27226Y20754D1*
X27263Y21069D1*
X27351Y21374D1*
X27530Y21716D1*
X25694Y21724D1*
X25651Y15284D1*
X25639Y13723D1*
X25547Y13423D1*
X25297Y13223D1*
X25092Y13181D1*
X714Y13243D1*
X724Y11024D1*
Y4961D1*
X929Y5425D1*
X1280Y5953D1*
X1725Y6404D1*
X2248Y6763D1*
X2830Y7015D1*
X3449Y7153D1*
X4082Y7170D1*
X4708Y7067D1*
X5303Y6847D1*
X5844Y6518D1*
X6314Y6091D1*
X6694Y5584D1*
X6970Y5013D1*
X7133Y4400D1*
X7178Y3857D1*
X7117Y3226D1*
X6938Y2618D1*
X6646Y2055D1*
X6253Y1558D1*
X5772Y1144D1*
X5221Y830D1*
X4954Y724D1*
X68699D1*
X2754Y725D2*
X2451Y849D1*
X1905Y1170D1*
X1430Y1590D1*
X1043Y2093D1*
X759Y2660D1*
X725Y2763D1*
X724Y724D1*
X2758D1*
X725Y96285D2*
X932Y96767D1*
X1283Y97295D1*
X1728Y97747D1*
X2251Y98105D1*
X2768Y98333D1*
X724Y98336D1*
Y96282D1*
X13334Y80490D2*
X16117D1*
Y77390D1*
X13017D1*
Y77757D1*
X12832Y77616D1*
X12546Y77480D1*
X12238Y77404D1*
X11922Y77393D1*
X11609Y77447D1*
X11314Y77563D1*
X11049Y77737D1*
X10825Y77961D1*
X10651Y78226D1*
X10534Y78521D1*
X10480Y78833D1*
X10491Y79150D1*
X10566Y79458D1*
X10701Y79744D1*
X10893Y79997D1*
X11131Y80205D1*
X11407Y80361D1*
X11709Y80457D1*
X12024Y80490D1*
X12340Y80458D1*
X12642Y80363D1*
X12919Y80208D1*
X13016Y80123D1*
X13017Y80490D1*
X13334D1*
X23350Y74608D2*
X23251Y74307D1*
X23091Y74034D1*
X22877Y73800D1*
X22619Y73616D1*
X22328Y73491D1*
X22104Y73446D1*
X21981Y73037D1*
X21821Y72764D1*
X21607Y72530D1*
X21349Y72346D1*
X21058Y72221D1*
X20747Y72159D1*
X20430Y72164D1*
X20121Y72236D1*
X19835Y72371D1*
X19583Y72563D1*
X19377Y72804D1*
X19226Y73083D1*
X19179Y73244D1*
X19028Y73288D1*
X18814Y73423D1*
X17795Y74454D1*
X17681Y74680D1*
X17643Y74930D1*
X17685Y75179D1*
X17803Y75403D1*
X18147Y75758D1*
X18874Y76471D1*
X19100Y76585D1*
X19350Y76623D1*
X19599Y76581D1*
X19823Y76464D1*
X20178Y76120D1*
X20584Y75713D1*
X20927Y76079D1*
X21191Y76254D1*
X21487Y76370D1*
X21799Y76421D1*
X22116Y76405D1*
X22422Y76323D1*
X22704Y76179D1*
X22950Y75979D1*
X23147Y75731D1*
X23289Y75447D1*
X23368Y75140D1*
X23383Y74923D1*
X23350Y74608D1*
X38208Y34905D2*
X29985Y43128D1*
X29707Y43248D1*
X29461Y43446D1*
X29275Y43702D1*
X29162Y43998D1*
X29131Y44313D1*
X29183Y44625D1*
X29315Y44913D1*
X29517Y45156D1*
X29776Y45338D1*
X30074Y45446D1*
X30390Y45472D1*
X30701Y45415D1*
X30987Y45278D1*
X31226Y45071D1*
X31404Y44809D1*
X31465Y44631D1*
X39249Y36845D1*
X39524Y36785D1*
X39810Y36648D1*
X40050Y36441D1*
X40227Y36179D1*
X40330Y35880D1*
X40353Y35643D1*
X40312Y35330D1*
X40189Y35038D1*
X39995Y34788D1*
X39742Y34597D1*
X39448Y34480D1*
X39133Y34443D1*
X38820Y34490D1*
X38530Y34618D1*
X38243Y34872D1*
X46646Y60112D2*
X46933Y59759D1*
X46883Y59844D1*
X47012Y59547D1*
X47127Y59349D1*
X47230Y59050D1*
X47253Y58813D1*
X47212Y58500D1*
X47089Y58208D1*
X46895Y57958D1*
X46642Y57767D1*
X46348Y57650D1*
X46033Y57613D1*
X45720Y57660D1*
X45430Y57788D1*
X45184Y57986D1*
X44998Y58242D1*
X44885Y58538D1*
X44876Y58627D1*
X43825Y58636D1*
X39509D1*
X39339Y58524D1*
X39045Y58407D1*
X38730Y58370D1*
X38417Y58417D1*
X38127Y58544D1*
X37881Y58743D1*
X37695Y58999D1*
X37582Y59295D1*
X37551Y59610D1*
X37603Y59922D1*
X37735Y60210D1*
X37937Y60453D1*
X38196Y60635D1*
X38494Y60743D1*
X38810Y60769D1*
X39121Y60711D1*
X39326Y60613D1*
X45730Y60617D1*
X46042Y60567D1*
X46384Y60371D1*
X46646Y60112D1*
X18328Y75939D2*
D29*
X19343Y74923D1*
X20359Y75939D2*
X18328Y73908D1*
X19655Y66779D2*
X21685Y64748D1*
Y66779D2*
X20670Y65763D1*
X19770Y55797D2*
X21800Y53766D1*
Y55797D2*
X20785Y54782D1*
X19275Y45005D2*
X21305Y42975D1*
Y45005D2*
X20290Y43990D1*
X4053Y87206D2*
X2503Y85657D1*
X3948Y86752D2*
X6139Y84561D1*
Y86752D2*
X5043Y85657D1*
X11965Y89069D2*
X13060Y87973D1*
X14155Y89069D2*
X11965Y86878D1*
D30*
X66153Y76217D3*
Y71217D3*
Y66217D3*
X66340Y54273D3*
Y49273D3*
Y44273D3*
X66363Y32330D3*
Y27330D3*
Y22330D3*
X7496Y21604D3*
Y26604D3*
Y31604D3*
D31*
X41817Y71333D3*
X43849Y65364D3*
Y77302D3*
X56041D3*
Y65364D3*
X42027Y49320D3*
X44059Y43351D3*
Y55289D3*
X56251D3*
Y43351D3*
X42020Y27300D3*
X44052Y21331D3*
Y33269D3*
X56244D3*
Y21331D3*
X31857Y26660D3*
X29825Y32629D3*
Y20691D3*
X17633D3*
Y32629D3*
D33*
X14567Y78940D3*
D34*
X12027D3*
Y71320D3*
X14567D3*
D33*
X14670Y68163D3*
D34*
X12130D3*
Y60543D3*
X14670D3*
D33*
X14687Y57377D3*
D34*
X12147D3*
Y49757D3*
X14687D3*
D33*
X14750Y46540D3*
D34*
X12210D3*
Y38920D3*
X14750D3*
D21*
X21883Y74923D3*
X20613Y73653D3*
G36*
X19343Y74023D2*
X18443Y74923D1*
X19343Y75823D1*
X20243Y74923D1*
X19343Y74023D1*
G37*
D21*
X20670Y63223D3*
X19400Y64493D3*
G36*
X19770Y65763D2*
X20670Y66663D1*
X21570Y65763D1*
X20670Y64863D1*
X19770Y65763D1*
G37*
D21*
X20785Y52242D3*
X19515Y53512D3*
G36*
X19885Y54782D2*
X20785Y55682D1*
X21685Y54782D1*
X20785Y53882D1*
X19885Y54782D1*
G37*
D21*
X20290Y41450D3*
X19020Y42720D3*
G36*
X19390Y43990D2*
X20290Y44890D1*
X21190Y43990D1*
X20290Y43090D1*
X19390Y43990D1*
G37*
D33*
X2503Y85657D3*
D36*
Y83117D3*
Y80577D3*
Y78037D3*
Y75497D3*
Y72957D3*
Y70417D3*
Y67877D3*
Y65337D3*
Y62797D3*
Y60257D3*
Y57717D3*
Y55177D3*
X5043Y85657D3*
Y83117D3*
Y80577D3*
Y78037D3*
Y75497D3*
Y72957D3*
Y70417D3*
Y67877D3*
Y65337D3*
Y62797D3*
Y60257D3*
Y57717D3*
Y55177D3*
D33*
X10520Y87973D3*
D36*
X13060D3*
X15600D3*
X18140D3*
M02*
