G04 DipTrace 3.0.0.0*
G04 Bottom.gbr*
%MOIN*%
G04 #@! TF.FileFunction,Copper,L2,Bot*
G04 #@! TF.Part,Single*
%AMOUTLINE0*5,1,4,0,0,0.070866,-90.0*%
%AMOUTLINE3*5,1,4,0,0,0.070866,-180.0*%
G04 #@! TA.AperFunction,Conductor*
%ADD14C,0.008*%
%ADD15C,0.02*%
%ADD16C,0.04*%
%ADD17C,0.08*%
%ADD19C,0.03*%
%ADD21C,0.055*%
%ADD22C,0.05*%
%ADD24C,0.015*%
%ADD25C,0.1*%
%ADD26C,0.015748*%
%ADD27C,0.11*%
G04 #@! TA.AperFunction,CopperBalancing*
%ADD28C,0.025*%
%ADD29C,0.017992*%
G04 #@! TA.AperFunction,ComponentPad*
%ADD32O,0.11811X0.090551*%
%ADD33O,0.141732X0.086614*%
%ADD35R,0.059055X0.059055*%
%ADD36C,0.059055*%
%ADD37C,0.059055*%
%ADD38C,0.055118*%
G04 #@! TA.AperFunction,ViaPad*
%ADD44C,0.031496*%
G04 #@! TA.AperFunction,ComponentPad*
%ADD74OUTLINE0*%
%ADD77OUTLINE3*%
%FSLAX26Y26*%
G04*
G70*
G90*
G75*
G01*
G04 Bottom*
%LPD*%
X1007874Y3857218D2*
D14*
Y3855643D1*
X760499Y3608268D1*
X622179D1*
X613649Y3616798D1*
X558793D1*
X540551Y3598557D1*
Y3517717D1*
X592257Y3466011D1*
X1107874Y3857218D2*
X1112992D1*
X1077360Y3821586D1*
X1050326D1*
X795145Y3566404D1*
X735302D1*
X726982Y3558084D1*
Y3521339D1*
X712599Y3506956D1*
X686614D1*
X672966Y3520604D1*
Y3557612D1*
X664173Y3566404D1*
X592651D1*
X592257Y3566011D1*
X1814436Y3508399D2*
D15*
X1570998D1*
X1503937Y3441339D1*
X492257Y3666011D2*
D16*
X456431D1*
X430053Y3692389D1*
Y3849869D1*
X491076Y3910893D1*
D17*
X613649D1*
X1476903Y3034383D2*
D19*
X1731759D1*
X1824410Y2941732D1*
X967192Y3201575D2*
D15*
X1021523D1*
X1065617Y3157481D1*
Y2810630D1*
X1029003Y2774016D1*
X974541D1*
X971260Y2777297D1*
X971916Y2352625D2*
X1009711D1*
X1065617Y2408530D1*
Y2810630D1*
X974410Y1925984D2*
X1053675D1*
X1065617Y1937927D1*
Y2408530D1*
X492257Y3766011D2*
D21*
X592257D1*
X907874Y3857218D2*
D22*
Y3937927D1*
D19*
X984777Y4014830D1*
X1185302D1*
X1269948Y3930184D1*
Y3458137D1*
X1155250Y3343439D1*
Y3303675D1*
X1104987Y3253412D1*
Y3206168D1*
X1130840Y3180315D1*
Y3059449D1*
X1207481Y2982809D1*
X1256824D1*
X1355381Y2884252D1*
Y2693832D1*
X1212008Y2550460D1*
X1192520Y2125591D2*
X1253150D1*
X1292651Y2165092D1*
Y2469816D1*
X1212008Y2550460D1*
X592257Y3766011D2*
D22*
X641076D1*
X717192Y3842126D1*
Y3909580D1*
X769160Y3961549D1*
X879089D1*
X907874Y3937927D1*
X1806864Y2570433D2*
D15*
Y2592743D1*
X1784685Y2614921D1*
X1516837D1*
X1513649Y2618110D1*
X1935171Y1796982D2*
X1927559D1*
X1587795Y2136746D1*
X2206824Y2709187D2*
D24*
Y2728478D1*
X2194095Y2741208D1*
X1921523D1*
X1919292Y2738977D1*
X3005525Y2333583D2*
D25*
X2050145D1*
D26*
X2048294Y2335433D1*
X2998163Y3197520D2*
D27*
X2044607D1*
D26*
X2040026Y3202100D1*
X2608294Y2570433D2*
D25*
X2965525D1*
X3005525Y2530433D1*
X2608294Y2100433D2*
Y2117979D1*
X2986772D1*
X3005525Y2136732D1*
X2600026Y3437100D2*
X2998163D1*
Y3394370D1*
X2151313Y1994882D2*
D24*
X1900394D1*
X2600026Y2967100D2*
D25*
X2998163D1*
Y3000670D1*
X3006431Y1469698D2*
X2049226D1*
D26*
X2048032Y1468504D1*
X2608032Y1703504D2*
Y1727953D1*
D25*
X2945026D1*
X3006431Y1666549D1*
X2608032Y1233504D2*
D26*
Y1220079D1*
D25*
X2953662D1*
X3006431Y1272848D1*
X1848294Y1113255D2*
D14*
Y1566798D1*
X1862074Y1580578D1*
X688832Y1441103D2*
D25*
X1645696D1*
D26*
X1647900Y1443307D1*
X1087900Y1208307D2*
Y1198819D1*
D25*
X734265D1*
X688832Y1244252D1*
X1087900Y1678307D2*
D26*
Y1694751D1*
D25*
X745630D1*
X688832Y1637953D1*
D44*
X1814436Y3508399D3*
X1503937Y3441339D3*
X613649Y3910893D3*
D3*
X1476903Y3034383D3*
X1824410Y2941732D3*
X1806864Y2570433D3*
X1513649Y2618110D3*
X1935171Y1796982D3*
X1587795Y2136746D3*
X2206824Y2709187D3*
X1919292Y2738977D3*
X2151313Y1994882D3*
X1900394D3*
X1848294Y1113255D3*
X1862074Y1580578D3*
X568242Y3911155D3*
X520079Y3911680D3*
X424701Y4240332D2*
D28*
X457397D1*
X633881D2*
X3053490D1*
X3230365D2*
X3262865D1*
X424701Y4215463D2*
X435130D1*
X656146D2*
X3031225D1*
X3252240D2*
X3263033D1*
X669428Y4190595D2*
X3017944D1*
X676849Y4165726D2*
X3010912D1*
X678802Y4140857D2*
X3008568D1*
X676458Y4115988D2*
X3011302D1*
X668646Y4091120D2*
X3018725D1*
X424701Y4066251D2*
X436302D1*
X654974D2*
X3032786D1*
X3251068D2*
X3262685D1*
X424701Y4041382D2*
X459349D1*
X631928D2*
X3055444D1*
X3228021D2*
X3262865D1*
X424701Y4016513D2*
X505444D1*
X585834D2*
X3101928D1*
X3181928D2*
X3262865D1*
X424701Y3991645D2*
X3262865D1*
X424701Y3966776D2*
X444116D1*
X660834D2*
X3262865D1*
X680365Y3941907D2*
X3262865D1*
X687397Y3917038D2*
X744505D1*
X871381D2*
X893334D1*
X922553D2*
X993334D1*
X1022553D2*
X1093334D1*
X1122553D2*
X3262865D1*
X685053Y3892170D2*
X744505D1*
X1160444D2*
X3262865D1*
X672944Y3867301D2*
X744505D1*
X1170600D2*
X3262865D1*
X636616Y3842432D2*
X744505D1*
X1169428D2*
X3262865D1*
X627240Y3817563D2*
X744505D1*
X1156928D2*
X3262865D1*
X649505Y3792694D2*
X892162D1*
X1100286D2*
X3262865D1*
X655756Y3767826D2*
X867553D1*
X1049116D2*
X3262865D1*
X651068Y3742957D2*
X842553D1*
X1024505D2*
X1771458D1*
X632709Y3718088D2*
X817553D1*
X999505D2*
X1766772D1*
X649505Y3693219D2*
X792944D1*
X974505D2*
X1766772D1*
X655756Y3668351D2*
X767944D1*
X949897D2*
X1766772D1*
X924897Y3643482D2*
X1766772D1*
X424701Y3618613D2*
X433958D1*
X899897D2*
X1766772D1*
X424701Y3593744D2*
X435521D1*
X875286D2*
X1766772D1*
X850286Y3568876D2*
X1766381D1*
X424701Y3544007D2*
X432786D1*
X1030756D2*
X1547240D1*
X424701Y3519138D2*
X450756D1*
X764740D2*
X806225D1*
X1030756D2*
X1520677D1*
X424701Y3494269D2*
X435521D1*
X752630D2*
X804272D1*
X1030756D2*
X1495677D1*
X655756Y3469400D2*
X812865D1*
X1030756D2*
X1463256D1*
X424701Y3444532D2*
X432786D1*
X651849D2*
X842944D1*
X891302D2*
X903609D1*
X1030756D2*
X1454272D1*
X1568256D2*
X1765990D1*
X424701Y3419663D2*
X449974D1*
X634272D2*
X1459349D1*
X1548334D2*
X1765990D1*
X424701Y3394794D2*
X435912D1*
X648725D2*
X1124193D1*
X1186225D2*
X1223802D1*
X1287005D2*
X1493334D1*
X1514349D2*
X1765990D1*
X655756Y3369925D2*
X1099193D1*
X1310444D2*
X1765990D1*
X424701Y3345057D2*
X432397D1*
X652240D2*
X1085912D1*
X1316693D2*
X1765990D1*
X424701Y3320188D2*
X449584D1*
X635053D2*
X1096068D1*
X1312005D2*
X1765990D1*
X424701Y3295319D2*
X436302D1*
X648334D2*
X1121068D1*
X1292084D2*
X1765600D1*
X655756Y3270450D2*
X1148412D1*
X1262005D2*
X1765600D1*
X424701Y3245582D2*
X432397D1*
X652240D2*
X822240D1*
X912005D2*
X922240D1*
X1012005D2*
X1168334D1*
X1242474D2*
X1765600D1*
X424701Y3220713D2*
X448802D1*
X635444D2*
X806616D1*
X1063568D2*
X1765600D1*
X424701Y3195844D2*
X436693D1*
X647944D2*
X803881D1*
X1088568D2*
X1765600D1*
X655756Y3170975D2*
X812084D1*
X1107318D2*
X1765600D1*
X652240Y3146107D2*
X839428D1*
X895209D2*
X939428D1*
X995209D2*
X1015990D1*
X1109662D2*
X1765209D1*
X424701Y3121238D2*
X448412D1*
X636225D2*
X826537D1*
X1109662D2*
X1765209D1*
X424701Y3096369D2*
X436693D1*
X647553D2*
X810912D1*
X1109662D2*
X1765209D1*
X655365Y3071500D2*
X808177D1*
X1109662D2*
X1445286D1*
X652630Y3046631D2*
X815990D1*
X1109662D2*
X1191381D1*
X1223725D2*
X1428881D1*
X424701Y3021763D2*
X447630D1*
X636616D2*
X843334D1*
X899116D2*
X907786D1*
X1109662D2*
X1164037D1*
X1251068D2*
X1428881D1*
X424701Y2996894D2*
X437084D1*
X647553D2*
X1021458D1*
X1109662D2*
X1141381D1*
X1273725D2*
X1445677D1*
X655365Y2972025D2*
X1021458D1*
X1274897D2*
X1725756D1*
X652630Y2947156D2*
X1021458D1*
X1254193D2*
X1750756D1*
X424701Y2922288D2*
X447240D1*
X637397D2*
X1021458D1*
X1253802D2*
X1775756D1*
X1869818D2*
X2030053D1*
X2210053D2*
X2258177D1*
X424701Y2897419D2*
X437474D1*
X647162D2*
X1021458D1*
X1267084D2*
X1805444D1*
X1843256D2*
X2062865D1*
X2177240D2*
X2257786D1*
X655365Y2872550D2*
X1021458D1*
X1109662D2*
X1146849D1*
X1268256D2*
X2257786D1*
X653021Y2847681D2*
X1021458D1*
X1109662D2*
X1157397D1*
X1257318D2*
X2257786D1*
X424701Y2822813D2*
X446849D1*
X637786D2*
X828100D1*
X914349D2*
X928273D1*
X1109662D2*
X2257397D1*
X424701Y2797944D2*
X437865D1*
X646772D2*
X811302D1*
X1109662D2*
X2257397D1*
X655365Y2773075D2*
X807786D1*
X1109662D2*
X1883958D1*
X2219037D2*
X2257397D1*
X653021Y2748206D2*
X815209D1*
X1109662D2*
X1870286D1*
X2242865D2*
X2256899D1*
X424701Y2723337D2*
X446068D1*
X638177D2*
X840209D1*
X902240D2*
X940209D1*
X1002240D2*
X1021458D1*
X1109662D2*
X1872240D1*
X424701Y2698469D2*
X438256D1*
X646381D2*
X829272D1*
X1109662D2*
X1892553D1*
X1945990D2*
X2158177D1*
X655365Y2673600D2*
X812084D1*
X1109662D2*
X2173412D1*
X2240521D2*
X2256862D1*
X653412Y2648731D2*
X808568D1*
X1109662D2*
X1475365D1*
X1811225D2*
X2256616D1*
X424701Y2623862D2*
X445677D1*
X638958D2*
X815600D1*
X1109662D2*
X1464428D1*
X424701Y2598994D2*
X438256D1*
X645990D2*
X840209D1*
X1109662D2*
X1178100D1*
X1245990D2*
X1467944D1*
X655365Y2574125D2*
X1021458D1*
X1109662D2*
X1153100D1*
X1270990D2*
X1494116D1*
X653412Y2549256D2*
X1021458D1*
X1109662D2*
X1126146D1*
X1281537D2*
X1762084D1*
X424701Y2524387D2*
X445286D1*
X639349D2*
X1021458D1*
X1268256D2*
X1775365D1*
X424701Y2499519D2*
X1021458D1*
X1247553D2*
X1775365D1*
X424701Y2474650D2*
X1021458D1*
X1268256D2*
X1775365D1*
X424701Y2449781D2*
X1021458D1*
X1109662D2*
X1129272D1*
X1273725D2*
X1775365D1*
X424701Y2424912D2*
X1020677D1*
X1109662D2*
X1156225D1*
X1267865D2*
X1775365D1*
X424701Y2400044D2*
X830834D1*
X912786D2*
X931057D1*
X1109662D2*
X1178881D1*
X1245209D2*
X1775365D1*
X424701Y2375175D2*
X812865D1*
X1109662D2*
X1775365D1*
X424701Y2350306D2*
X808568D1*
X1109662D2*
X1775365D1*
X424701Y2325437D2*
X814818D1*
X1109662D2*
X1775365D1*
X424701Y2300568D2*
X837474D1*
X906146D2*
X937474D1*
X1006146D2*
X1021458D1*
X1109662D2*
X1775365D1*
X424701Y2275700D2*
X836693D1*
X1109662D2*
X1775365D1*
X424701Y2250831D2*
X815990D1*
X1109662D2*
X1775365D1*
X424701Y2225962D2*
X810912D1*
X1109662D2*
X1775365D1*
X424701Y2201093D2*
X816381D1*
X1109662D2*
X1775365D1*
X424701Y2176225D2*
X836693D1*
X1109662D2*
X1160521D1*
X1224505D2*
X1559349D1*
X1616302D2*
X1775365D1*
X424701Y2151356D2*
X1021458D1*
X1109662D2*
X1135912D1*
X1249116D2*
X1540209D1*
X1635053D2*
X1775365D1*
X424701Y2126487D2*
X1021458D1*
X1262005D2*
X1539037D1*
X1659272D2*
X1775365D1*
X424701Y2101618D2*
X1021458D1*
X1251068D2*
X1553881D1*
X1684272D2*
X1775365D1*
X424701Y2076750D2*
X1021458D1*
X1226068D2*
X1586693D1*
X1708881D2*
X1775365D1*
X424701Y2051881D2*
X1021458D1*
X1247944D2*
X1611302D1*
X1733881D2*
X1775756D1*
X424701Y2027012D2*
X1021458D1*
X1254193D2*
X1636302D1*
X1758881D2*
X1863256D1*
X2188568D2*
X2256225D1*
X424701Y2002143D2*
X1021458D1*
X1109662D2*
X1135912D1*
X1249116D2*
X1661302D1*
X1783490D2*
X1851146D1*
X2200677D2*
X2256225D1*
X424701Y1977274D2*
X839037D1*
X910053D2*
X939037D1*
X1010053D2*
X1021458D1*
X1109662D2*
X1156225D1*
X1228802D2*
X1685912D1*
X1808490D2*
X1853881D1*
X2197553D2*
X2256225D1*
X424701Y1952406D2*
X816772D1*
X1109662D2*
X1710912D1*
X1833490D2*
X1877318D1*
X1923725D2*
X2128100D1*
X2174505D2*
X2256225D1*
X424701Y1927537D2*
X810912D1*
X1108100D2*
X1735912D1*
X1858100D2*
X2256225D1*
X1405756Y1902668D2*
X1760521D1*
X1883100D2*
X2256225D1*
X1408100Y1877799D2*
X1785521D1*
X1908100D2*
X2256225D1*
X1407709Y1852931D2*
X1810521D1*
X1932709D2*
X2256225D1*
X1407318Y1828062D2*
X1835130D1*
X1973334D2*
X2256225D1*
X1407318Y1803193D2*
X1860130D1*
X1984662D2*
X2256225D1*
X1406928Y1778324D2*
X1885130D1*
X1981146D2*
X2256225D1*
X1406928Y1753456D2*
X1914428D1*
X1956146D2*
X2042162D1*
X2213568D2*
X2256225D1*
X1406537Y1728587D2*
X1482397D1*
X1653412D2*
X1844505D1*
X1406146Y1703718D2*
X1467553D1*
X1668256D2*
X1842944D1*
X1406146Y1678849D2*
X1462865D1*
X1672944D2*
X1842944D1*
X1798334Y1653981D2*
X1842944D1*
X1833100Y1629112D2*
X1842885D1*
X1407709Y1231211D2*
X1466772D1*
X1669037D2*
X1810130D1*
X1407709Y1206343D2*
X1463256D1*
X1672553D2*
X1810130D1*
X1407318Y1181474D2*
X1467944D1*
X1667865D2*
X1810130D1*
X1407318Y1156605D2*
X1483958D1*
X1651849D2*
X1810130D1*
X1406928Y1131736D2*
X1802318D1*
X1894428D2*
X2258177D1*
X1406928Y1106868D2*
X1798802D1*
X1897553D2*
X2257786D1*
X1406537Y1081999D2*
X1810521D1*
X1886225D2*
X2257786D1*
X1406537Y1057130D2*
X2257397D1*
X1406537Y1032261D2*
X2257005D1*
X1406146Y1007393D2*
X2257005D1*
X1406146Y982524D2*
X2256616D1*
X1405756Y957655D2*
X2256616D1*
X1405756Y932786D2*
X2256225D1*
X424701Y907918D2*
X2274193D1*
X424701Y883049D2*
X3262865D1*
X424701Y858180D2*
X3262865D1*
X424701Y833311D2*
X3262865D1*
X424701Y808442D2*
X3262865D1*
X424701Y783574D2*
X3262865D1*
X424701Y758705D2*
X3262865D1*
X424701Y733836D2*
X3262865D1*
X424701Y708967D2*
X3262865D1*
X424701Y684099D2*
X3262865D1*
X424701Y659230D2*
X478490D1*
X612786D2*
X3074974D1*
X3208881D2*
X3262865D1*
X424701Y634361D2*
X447240D1*
X644037D2*
X3043334D1*
X3240130D2*
X3262865D1*
X662005Y609492D2*
X3025365D1*
X672944Y584624D2*
X3014428D1*
X678021Y559755D2*
X3009349D1*
X678412Y534886D2*
X3008958D1*
X673725Y510017D2*
X3013646D1*
X663958Y485149D2*
X3023412D1*
X424701Y460280D2*
X444116D1*
X647162D2*
X3040209D1*
X3243256D2*
X3262865D1*
X424701Y435411D2*
X472630D1*
X618256D2*
X3069116D1*
X3214740D2*
X3262865D1*
X3265340Y4099226D2*
X3257949Y4081599D1*
X3244402Y4060633D1*
X3227117Y4042624D1*
X3206725Y4028227D1*
X3183967Y4017969D1*
X3159676Y4012223D1*
X3134735Y4011198D1*
X3110054Y4014933D1*
X3086533Y4023289D1*
X3065028Y4035965D1*
X3046324Y4052495D1*
X3031104Y4072280D1*
X3019920Y4094596D1*
X3013181Y4118631D1*
X3011134Y4143509D1*
X3013852Y4168323D1*
X3021236Y4192167D1*
X3033017Y4214173D1*
X3048767Y4233541D1*
X3067910Y4249561D1*
X3089748Y4261651D1*
X3098877Y4265110D1*
X588248Y4265201D1*
X602580Y4259432D1*
X623911Y4246467D1*
X642390Y4229687D1*
X657343Y4209698D1*
X668225Y4187232D1*
X674638Y4163109D1*
X676398Y4141732D1*
X674015Y4116885D1*
X666953Y4092942D1*
X655470Y4070778D1*
X639983Y4051201D1*
X621058Y4034924D1*
X599385Y4022541D1*
X575752Y4014502D1*
X551023Y4011101D1*
X526099Y4012462D1*
X501886Y4018536D1*
X479271Y4029100D1*
X459074Y4043769D1*
X442033Y4062011D1*
X428771Y4083158D1*
X422110Y4099399D1*
X422201Y3929654D1*
X429281Y3946860D1*
X436479Y3957059D1*
X445341Y3965852D1*
X455599Y3972970D1*
X466936Y3978194D1*
X479011Y3981368D1*
X503576Y3982393D1*
X613649D1*
X626086Y3981303D1*
X638142Y3978066D1*
X649453Y3972782D1*
X659672Y3965610D1*
X668488Y3956772D1*
X675631Y3946534D1*
X680886Y3935210D1*
X684091Y3923143D1*
X685149Y3910705D1*
X684025Y3898271D1*
X680757Y3886222D1*
X675444Y3874925D1*
X668246Y3864726D1*
X659383Y3855933D1*
X649126Y3848815D1*
X637789Y3843591D1*
X625714Y3840418D1*
X601149Y3839393D1*
X492137Y3839121D1*
X481365Y3828349D1*
X483730Y3827038D1*
X553285D1*
Y3812898D1*
X563376Y3819772D1*
X574914Y3824523D1*
X587177Y3826827D1*
X599654Y3826588D1*
X611820Y3823818D1*
X623170Y3818630D1*
X633226Y3811243D1*
X641570Y3801965D1*
X647852Y3791184D1*
X651810Y3779349D1*
X653285Y3766011D1*
X652009Y3753597D1*
X648235Y3741704D1*
X642121Y3730827D1*
X633923Y3721420D1*
X627372Y3715924D1*
X636790Y3707739D1*
X644347Y3697809D1*
X649725Y3686549D1*
X652701Y3674431D1*
X653285Y3666011D1*
X652009Y3653597D1*
X648826Y3643562D1*
X746007Y3643768D1*
X898771Y3796873D1*
X886687Y3799987D1*
X875488Y3805492D1*
X868856Y3810307D1*
X868902Y3796191D1*
X746847D1*
Y3918246D1*
X868902D1*
Y3903793D1*
X874689Y3908435D1*
X885801Y3914114D1*
X897835Y3917414D1*
X910288Y3918198D1*
X922641Y3916432D1*
X934376Y3912191D1*
X945003Y3905651D1*
X954078Y3897087D1*
X957857Y3892211D1*
X963225Y3898820D1*
X972620Y3907033D1*
X983490Y3913162D1*
X995378Y3916953D1*
X1007789Y3918246D1*
X1020204Y3916987D1*
X1032103Y3913230D1*
X1042988Y3907131D1*
X1052407Y3898946D1*
X1057837Y3891809D1*
X1063225Y3898820D1*
X1072620Y3907033D1*
X1083490Y3913162D1*
X1095378Y3916953D1*
X1107789Y3918246D1*
X1120204Y3916987D1*
X1132103Y3913230D1*
X1142988Y3907131D1*
X1152407Y3898946D1*
X1159963Y3889016D1*
X1165341Y3877756D1*
X1168318Y3865638D1*
X1168902Y3857218D1*
X1167626Y3844805D1*
X1163852Y3832911D1*
X1157738Y3822034D1*
X1149540Y3812628D1*
X1139599Y3805084D1*
X1128332Y3799722D1*
X1116210Y3796763D1*
X1102587Y3796529D1*
X1099593Y3793911D1*
X1088685Y3787941D1*
X1077360Y3786086D1*
X1065251D1*
X820247Y3541302D1*
X810049Y3534185D1*
X795145Y3530904D1*
X762723D1*
X762482Y3521339D1*
X760303Y3509096D1*
X752084Y3496236D1*
X737701Y3481853D1*
X727503Y3474736D1*
X712599Y3471456D1*
X686614D1*
X674372Y3473634D1*
X661512Y3481853D1*
X647864Y3495502D1*
X640747Y3505700D1*
X637466Y3520604D1*
Y3524900D1*
X626778Y3515999D1*
X636790Y3507739D1*
X644347Y3497809D1*
X649725Y3486549D1*
X652701Y3474431D1*
X653285Y3466011D1*
X652009Y3453597D1*
X648235Y3441704D1*
X642121Y3430827D1*
X633923Y3421420D1*
X627372Y3415924D1*
X636790Y3407739D1*
X644347Y3397809D1*
X649725Y3386549D1*
X652701Y3374431D1*
X653285Y3366011D1*
X652009Y3353597D1*
X648235Y3341704D1*
X642121Y3330827D1*
X633923Y3321420D1*
X627372Y3315924D1*
X636790Y3307739D1*
X644347Y3297809D1*
X649725Y3286549D1*
X652701Y3274431D1*
X653285Y3266011D1*
X652009Y3253597D1*
X648235Y3241704D1*
X642121Y3230827D1*
X633923Y3221420D1*
X627372Y3215924D1*
X636790Y3207739D1*
X644347Y3197809D1*
X649725Y3186549D1*
X652701Y3174431D1*
X653285Y3166011D1*
X652009Y3153597D1*
X648235Y3141704D1*
X642121Y3130827D1*
X633923Y3121420D1*
X627372Y3115924D1*
X636790Y3107739D1*
X644347Y3097809D1*
X649725Y3086549D1*
X652701Y3074431D1*
X653285Y3066011D1*
X652009Y3053597D1*
X648235Y3041704D1*
X642121Y3030827D1*
X633923Y3021420D1*
X627372Y3015924D1*
X636790Y3007739D1*
X644347Y2997809D1*
X649725Y2986549D1*
X652701Y2974431D1*
X653285Y2966011D1*
X652009Y2953597D1*
X648235Y2941704D1*
X642121Y2930827D1*
X633923Y2921420D1*
X627372Y2915924D1*
X636790Y2907739D1*
X644347Y2897809D1*
X649725Y2886549D1*
X652701Y2874431D1*
X653285Y2866011D1*
X652009Y2853597D1*
X648235Y2841704D1*
X642121Y2830827D1*
X633923Y2821420D1*
X627372Y2815924D1*
X636790Y2807739D1*
X644347Y2797809D1*
X649725Y2786549D1*
X652701Y2774431D1*
X653285Y2766011D1*
X652009Y2753597D1*
X648235Y2741704D1*
X642121Y2730827D1*
X633923Y2721420D1*
X627372Y2715924D1*
X636790Y2707739D1*
X644347Y2697809D1*
X649725Y2686549D1*
X652701Y2674431D1*
X653285Y2666011D1*
X652009Y2653597D1*
X648235Y2641704D1*
X642121Y2630827D1*
X633923Y2621420D1*
X627372Y2615924D1*
X636790Y2607739D1*
X644347Y2597809D1*
X649725Y2586549D1*
X652701Y2574431D1*
X653285Y2566011D1*
X652009Y2553597D1*
X648235Y2541704D1*
X642121Y2530827D1*
X633923Y2521420D1*
X623982Y2513877D1*
X612715Y2508515D1*
X600593Y2505555D1*
X588122Y2505124D1*
X575824Y2507238D1*
X564214Y2511809D1*
X553776Y2518645D1*
X544946Y2527462D1*
X542121Y2530827D1*
X533923Y2521420D1*
X523982Y2513877D1*
X512715Y2508515D1*
X500593Y2505555D1*
X488122Y2505124D1*
X475824Y2507238D1*
X464214Y2511809D1*
X453776Y2518645D1*
X444946Y2527462D1*
X438095Y2537891D1*
X433507Y2549495D1*
X431376Y2561790D1*
X431790Y2574261D1*
X434732Y2586387D1*
X440079Y2597663D1*
X447608Y2607613D1*
X457343Y2616017D1*
X444946Y2627462D1*
X438095Y2637891D1*
X433507Y2649495D1*
X431376Y2661790D1*
X431790Y2674261D1*
X434732Y2686387D1*
X440079Y2697663D1*
X447608Y2707613D1*
X457343Y2716017D1*
X444946Y2727462D1*
X438095Y2737891D1*
X433507Y2749495D1*
X431376Y2761790D1*
X431790Y2774261D1*
X434732Y2786387D1*
X440079Y2797663D1*
X447608Y2807613D1*
X457343Y2816017D1*
X444946Y2827462D1*
X438095Y2837891D1*
X433507Y2849495D1*
X431376Y2861790D1*
X431790Y2874261D1*
X434732Y2886387D1*
X440079Y2897663D1*
X447608Y2907613D1*
X457343Y2916017D1*
X444946Y2927462D1*
X438095Y2937891D1*
X433507Y2949495D1*
X431376Y2961790D1*
X431790Y2974261D1*
X434732Y2986387D1*
X440079Y2997663D1*
X447608Y3007613D1*
X457343Y3016017D1*
X444946Y3027462D1*
X438095Y3037891D1*
X433507Y3049495D1*
X431376Y3061790D1*
X431790Y3074261D1*
X434732Y3086387D1*
X440079Y3097663D1*
X447608Y3107613D1*
X457343Y3116017D1*
X444946Y3127462D1*
X438095Y3137891D1*
X433507Y3149495D1*
X431376Y3161790D1*
X431790Y3174261D1*
X434732Y3186387D1*
X440079Y3197663D1*
X447608Y3207613D1*
X457343Y3216017D1*
X444946Y3227462D1*
X438095Y3237891D1*
X433507Y3249495D1*
X431376Y3261790D1*
X431790Y3274261D1*
X434732Y3286387D1*
X440079Y3297663D1*
X447608Y3307613D1*
X457343Y3316017D1*
X444946Y3327462D1*
X438095Y3337891D1*
X433507Y3349495D1*
X431376Y3361790D1*
X431790Y3374261D1*
X434732Y3386387D1*
X440079Y3397663D1*
X447608Y3407613D1*
X457343Y3416017D1*
X444946Y3427462D1*
X438095Y3437891D1*
X433507Y3449495D1*
X431376Y3461790D1*
X431790Y3474261D1*
X434732Y3486387D1*
X440079Y3497663D1*
X447608Y3507613D1*
X457343Y3516017D1*
X444946Y3527462D1*
X438095Y3537891D1*
X433507Y3549495D1*
X431376Y3561790D1*
X431790Y3574261D1*
X434732Y3586387D1*
X440079Y3597663D1*
X447608Y3607613D1*
X455536Y3614542D1*
X440538Y3617024D1*
X432400Y3620461D1*
X422201Y3615201D1*
Y1914029D1*
X495112Y1914414D1*
X814252D1*
X813942Y1934235D1*
X816885Y1946361D1*
X822231Y1957637D1*
X829760Y1967587D1*
X839155Y1975799D1*
X850025Y1981928D1*
X861914Y1985719D1*
X874324Y1987012D1*
X886739Y1985753D1*
X898638Y1981996D1*
X909524Y1975898D1*
X918942Y1967713D1*
X924373Y1960575D1*
X929760Y1967587D1*
X939155Y1975799D1*
X950025Y1981928D1*
X961914Y1985719D1*
X974324Y1987012D1*
X986739Y1985753D1*
X998638Y1981996D1*
X1009524Y1975898D1*
X1019179Y1967402D1*
X1024117Y1975427D1*
Y2164879D1*
X913382Y2164957D1*
Y2179410D1*
X906134Y2173851D1*
X894868Y2168488D1*
X882746Y2165529D1*
X870274Y2165097D1*
X857977Y2167211D1*
X846366Y2171782D1*
X835928Y2178618D1*
X827099Y2187436D1*
X820247Y2197865D1*
X815659Y2209469D1*
X813528Y2221764D1*
X813942Y2234235D1*
X816885Y2246361D1*
X822231Y2257637D1*
X829760Y2267587D1*
X839155Y2275799D1*
X850025Y2281928D1*
X861914Y2285719D1*
X874324Y2287012D1*
X886739Y2285753D1*
X898638Y2281996D1*
X909524Y2275898D1*
X913351Y2272572D1*
X913382Y2287012D1*
X1023929D1*
X1024117Y2314099D1*
X1013582Y2308034D1*
X1003641Y2300491D1*
X992374Y2295129D1*
X980252Y2292170D1*
X967781Y2291738D1*
X955483Y2293852D1*
X943873Y2298423D1*
X933435Y2305259D1*
X924605Y2314076D1*
X921780Y2317441D1*
X913582Y2308034D1*
X903641Y2300491D1*
X892374Y2295129D1*
X880252Y2292170D1*
X867781Y2291738D1*
X855483Y2293852D1*
X843873Y2298423D1*
X833435Y2305259D1*
X824605Y2314076D1*
X817753Y2324505D1*
X813166Y2336109D1*
X811034Y2348404D1*
X811449Y2360876D1*
X814391Y2373002D1*
X819738Y2384277D1*
X827267Y2394227D1*
X836662Y2402440D1*
X847532Y2408568D1*
X859420Y2412360D1*
X871831Y2413652D1*
X884246Y2412394D1*
X896145Y2408637D1*
X907030Y2402538D1*
X916449Y2394353D1*
X921879Y2387215D1*
X927267Y2394227D1*
X936662Y2402440D1*
X947532Y2408568D1*
X959420Y2412360D1*
X971831Y2413652D1*
X984246Y2412394D1*
X996145Y2408637D1*
X1003289Y2404635D1*
X1024285Y2425887D1*
X1024117Y2591734D1*
X910889Y2591597D1*
Y2606050D1*
X903641Y2600491D1*
X892374Y2595129D1*
X880252Y2592170D1*
X867781Y2591738D1*
X855483Y2593852D1*
X843873Y2598423D1*
X833435Y2605259D1*
X824605Y2614076D1*
X817753Y2624505D1*
X813166Y2636109D1*
X811034Y2648404D1*
X811449Y2660876D1*
X814391Y2673002D1*
X819738Y2684277D1*
X827267Y2694227D1*
X836662Y2702440D1*
X847532Y2708568D1*
X859420Y2712360D1*
X871831Y2713652D1*
X884246Y2712394D1*
X896145Y2708637D1*
X907030Y2702538D1*
X910857Y2699213D1*
X910889Y2713652D1*
X1024285D1*
X1024117Y2732358D1*
X1012987Y2732516D1*
X1002984Y2725163D1*
X991718Y2719801D1*
X979596Y2716841D1*
X967125Y2716410D1*
X954827Y2718524D1*
X943217Y2723095D1*
X932778Y2729931D1*
X923949Y2738748D1*
X921124Y2742113D1*
X912925Y2732706D1*
X902984Y2725163D1*
X891718Y2719801D1*
X879596Y2716841D1*
X867125Y2716410D1*
X854827Y2718524D1*
X843217Y2723095D1*
X832778Y2729931D1*
X823949Y2738748D1*
X817097Y2749177D1*
X812509Y2760781D1*
X810378Y2773076D1*
X810793Y2785547D1*
X813735Y2797673D1*
X819082Y2808949D1*
X826610Y2818899D1*
X836005Y2827112D1*
X846876Y2833240D1*
X858764Y2837032D1*
X871175Y2838324D1*
X883589Y2837066D1*
X895488Y2833309D1*
X906374Y2827210D1*
X915793Y2819025D1*
X921223Y2811887D1*
X926610Y2818899D1*
X936005Y2827112D1*
X946876Y2833240D1*
X958764Y2837032D1*
X971175Y2838324D1*
X983589Y2837066D1*
X995488Y2833309D1*
X1006374Y2827210D1*
X1015498Y2819281D1*
X1024240Y2827944D1*
X1024117Y3016490D1*
X910232Y3016269D1*
Y3030722D1*
X902984Y3025163D1*
X891718Y3019801D1*
X879596Y3016841D1*
X867125Y3016410D1*
X854827Y3018524D1*
X843217Y3023095D1*
X832778Y3029931D1*
X823949Y3038748D1*
X817097Y3049177D1*
X812509Y3060781D1*
X810378Y3073076D1*
X810793Y3085547D1*
X813735Y3097673D1*
X819082Y3108949D1*
X826610Y3118899D1*
X836005Y3127112D1*
X846876Y3133240D1*
X858764Y3137032D1*
X871175Y3138324D1*
X883589Y3137066D1*
X895488Y3133309D1*
X906374Y3127210D1*
X910201Y3123885D1*
X910232Y3138324D1*
X1024226D1*
X1018595Y3145814D1*
X1008374Y3156033D1*
X998916Y3149441D1*
X987650Y3144079D1*
X975528Y3141120D1*
X963057Y3140688D1*
X950759Y3142802D1*
X939149Y3147373D1*
X928710Y3154209D1*
X919881Y3163026D1*
X917055Y3166391D1*
X908857Y3156984D1*
X898916Y3149441D1*
X887650Y3144079D1*
X875528Y3141120D1*
X863057Y3140688D1*
X850759Y3142802D1*
X839149Y3147373D1*
X828710Y3154209D1*
X819881Y3163026D1*
X813029Y3173456D1*
X808441Y3185059D1*
X806310Y3197355D1*
X806725Y3209826D1*
X809667Y3221952D1*
X815013Y3233227D1*
X822542Y3243177D1*
X831937Y3251390D1*
X842807Y3257519D1*
X854696Y3261310D1*
X867107Y3262603D1*
X879521Y3261344D1*
X891420Y3257587D1*
X902306Y3251488D1*
X911725Y3243303D1*
X917155Y3236166D1*
X922542Y3243177D1*
X931937Y3251390D1*
X942807Y3257519D1*
X954696Y3261310D1*
X967107Y3262603D1*
X979521Y3261344D1*
X991420Y3257587D1*
X1002306Y3251488D1*
X1011961Y3242992D1*
X1021523Y3243075D1*
X1033835Y3241206D1*
X1046831Y3234465D1*
X1086223Y3195565D1*
X1094962Y3186826D1*
X1102347Y3176798D1*
X1106769Y3162841D1*
X1107117Y3107481D1*
Y2963340D1*
X1111121Y2969398D1*
X1119843Y2978320D1*
X1130243Y2985211D1*
X1141496Y2989622D1*
X1143097Y2995222D1*
X1148419Y3003639D1*
X1189007Y3043756D1*
X1197895Y3048248D1*
X1207740Y3049740D1*
X1217561Y3048086D1*
X1226373Y3043448D1*
X1240361Y3029908D1*
X1268428Y3001282D1*
X1272920Y2992394D1*
X1274412Y2982549D1*
X1272757Y2972729D1*
X1268120Y2963916D1*
X1254580Y2949928D1*
X1237953Y2933301D1*
X1249457Y2924353D1*
X1257248Y2914608D1*
X1262818Y2903442D1*
X1265918Y2891357D1*
X1266540Y2882809D1*
X1265222Y2870402D1*
X1261327Y2858549D1*
X1255029Y2847778D1*
X1246609Y2838571D1*
X1236442Y2831339D1*
X1224983Y2826403D1*
X1212743Y2823984D1*
X1200268Y2824192D1*
X1188116Y2827015D1*
X1176827Y2832328D1*
X1166906Y2839894D1*
X1158795Y2849376D1*
X1152858Y2860349D1*
X1149218Y2874269D1*
X1138116Y2877015D1*
X1126827Y2882328D1*
X1116906Y2889894D1*
X1107126Y2902462D1*
X1107117Y2521958D1*
X1115649Y2537049D1*
X1124370Y2545971D1*
X1134771Y2552862D1*
X1146024Y2557273D1*
X1147625Y2562873D1*
X1152946Y2571290D1*
X1193534Y2611407D1*
X1202423Y2615899D1*
X1212268Y2617391D1*
X1222088Y2615736D1*
X1230900Y2611099D1*
X1244889Y2597559D1*
X1272956Y2568933D1*
X1277448Y2560045D1*
X1278940Y2550200D1*
X1277285Y2540379D1*
X1272647Y2531567D1*
X1259108Y2517579D1*
X1242481Y2500952D1*
X1253984Y2492004D1*
X1261776Y2482259D1*
X1267345Y2471093D1*
X1270445Y2459008D1*
X1271067Y2450460D1*
X1269750Y2438053D1*
X1265855Y2426200D1*
X1259557Y2415429D1*
X1251137Y2406222D1*
X1240970Y2398990D1*
X1229511Y2394054D1*
X1217271Y2391635D1*
X1204795Y2391843D1*
X1192643Y2394666D1*
X1181355Y2399979D1*
X1171433Y2407545D1*
X1163323Y2417026D1*
X1157386Y2428000D1*
X1153746Y2441920D1*
X1142643Y2444666D1*
X1131355Y2449979D1*
X1121433Y2457545D1*
X1113323Y2467026D1*
X1107058Y2479122D1*
X1107117Y2122983D1*
X1115282Y2127994D1*
X1126536Y2132404D1*
X1128137Y2138004D1*
X1133458Y2146421D1*
X1174046Y2186538D1*
X1182935Y2191030D1*
X1192780Y2192523D1*
X1202600Y2190868D1*
X1211412Y2186230D1*
X1225400Y2172691D1*
X1253467Y2144065D1*
X1257960Y2135176D1*
X1259452Y2125331D1*
X1257797Y2115511D1*
X1253159Y2106698D1*
X1239620Y2092710D1*
X1222992Y2076083D1*
X1234496Y2067135D1*
X1242288Y2057390D1*
X1247857Y2046225D1*
X1250957Y2034139D1*
X1251579Y2025591D1*
X1250261Y2013184D1*
X1246366Y2001331D1*
X1240068Y1990561D1*
X1231649Y1981353D1*
X1221482Y1974121D1*
X1210023Y1969185D1*
X1197782Y1966767D1*
X1185307Y1966974D1*
X1173155Y1969797D1*
X1161866Y1975110D1*
X1151945Y1982676D1*
X1143835Y1992158D1*
X1137898Y2003131D1*
X1134257Y2017051D1*
X1123155Y2019797D1*
X1111866Y2025110D1*
X1107215Y2028656D1*
X1107117Y1937927D1*
X1105248Y1925614D1*
X1099546Y1914128D1*
X1220112Y1914414D1*
X1384121D1*
X1395928Y1910881D1*
X1403902Y1901062D1*
X1405620Y1892706D1*
X1403336Y1656389D1*
X1468897Y1656133D1*
X1466204Y1668324D1*
X1465575Y1680793D1*
X1467030Y1693194D1*
X1470528Y1705180D1*
X1475969Y1716416D1*
X1483204Y1726592D1*
X1492030Y1735423D1*
X1502204Y1742663D1*
X1513437Y1748109D1*
X1525421Y1751612D1*
X1540341Y1753114D1*
X1605410Y1752449D1*
X1617603Y1749763D1*
X1629179Y1745084D1*
X1639815Y1738546D1*
X1649217Y1730330D1*
X1657120Y1720664D1*
X1663306Y1709819D1*
X1667601Y1698096D1*
X1669889Y1685822D1*
X1670267Y1678307D1*
X1669225Y1665865D1*
X1666419Y1654904D1*
X1809313Y1653915D1*
X1821099Y1650314D1*
X1829013Y1640448D1*
X1830687Y1632260D1*
X1830565Y1615463D1*
X1840280Y1622499D1*
X1845042Y1624222D1*
X1845306Y1687593D1*
X1845298Y1719811D1*
X1848828Y1731620D1*
X1858645Y1739595D1*
X1867092Y1741314D1*
X2034654Y1739028D1*
X2043335Y1751789D1*
X2052162Y1760620D1*
X2062335Y1767860D1*
X2073568Y1773306D1*
X2085553Y1776809D1*
X2100473Y1778311D1*
X2165541Y1777646D1*
X2177734Y1774960D1*
X2189310Y1770281D1*
X2199946Y1763743D1*
X2209348Y1755526D1*
X2217251Y1745861D1*
X2222470Y1736710D1*
X2258852Y1735966D1*
X2258684Y2035658D1*
X2193856Y2035849D1*
X2182467Y2030711D1*
X2186603Y2026298D1*
X2193589Y2015978D1*
X2197635Y2004189D1*
X2198561Y1994882D1*
X2196916Y1982528D1*
X2192100Y1971033D1*
X2184444Y1961197D1*
X2174483Y1953706D1*
X2162910Y1949079D1*
X2150529Y1947641D1*
X2138204Y1949488D1*
X2125273Y1955718D1*
X1926704Y1955882D1*
X1923565Y1953706D1*
X1911991Y1949079D1*
X1899610Y1947641D1*
X1887285Y1949488D1*
X1875872Y1954496D1*
X1866164Y1962314D1*
X1858839Y1972397D1*
X1854406Y1984045D1*
X1853172Y1996448D1*
X1855225Y2008742D1*
X1860420Y2020070D1*
X1868397Y2029646D1*
X1877007Y2035685D1*
X1799213Y2035849D1*
X1787406Y2039382D1*
X1779432Y2049201D1*
X1777713Y2057349D1*
Y2533521D1*
X1772634Y2537865D1*
X1765309Y2547948D1*
X1760876Y2559596D1*
X1759685Y2573421D1*
X1528826D1*
X1512865Y2570869D1*
X1500540Y2572717D1*
X1489126Y2577725D1*
X1479419Y2585542D1*
X1472093Y2595625D1*
X1467660Y2607273D1*
X1466427Y2619676D1*
X1468479Y2631970D1*
X1473675Y2643298D1*
X1481651Y2652874D1*
X1491855Y2660032D1*
X1503575Y2664272D1*
X1515996Y2665301D1*
X1528253Y2663045D1*
X1540971Y2656391D1*
X1784685Y2656421D1*
X1796998Y2654553D1*
X1809994Y2647811D1*
X1833818Y2624479D1*
X2048822Y2624387D1*
X2062597Y2634789D1*
X2073831Y2640235D1*
X2085815Y2643738D1*
X2100735Y2645240D1*
X2165803Y2644575D1*
X2177996Y2641889D1*
X2189572Y2637210D1*
X2200209Y2630672D1*
X2207554Y2624252D1*
X2258978Y2624387D1*
X2260656Y2936992D1*
X2216268Y2936899D1*
X2206295Y2920740D1*
X2197768Y2911621D1*
X2187841Y2904047D1*
X2176794Y2898231D1*
X2164933Y2894332D1*
X2147517Y2892545D1*
X2092467Y2892293D1*
X2084987Y2892668D1*
X2072711Y2894949D1*
X2060986Y2899239D1*
X2050138Y2905420D1*
X2040469Y2913320D1*
X2032248Y2922717D1*
X2024389Y2936607D1*
X1944784Y2936899D1*
X1871736D1*
X1870013Y2929378D1*
X1865197Y2917883D1*
X1857541Y2908047D1*
X1847580Y2900557D1*
X1836007Y2895929D1*
X1823626Y2894491D1*
X1811301Y2896339D1*
X1799887Y2901347D1*
X1790180Y2909164D1*
X1782691Y2917691D1*
X1712256Y2988125D1*
X1556759Y2987883D1*
X1485274D1*
X1476120Y2987142D1*
X1463794Y2988990D1*
X1452381Y2993998D1*
X1442673Y3001815D1*
X1435348Y3011898D1*
X1430915Y3023546D1*
X1429681Y3035949D1*
X1431734Y3048243D1*
X1436929Y3059571D1*
X1444906Y3069147D1*
X1455109Y3076305D1*
X1466830Y3080545D1*
X1479251Y3081574D1*
X1489403Y3080883D1*
X1731759D1*
X1744109Y3079213D1*
X1755571Y3074323D1*
X1764639Y3067264D1*
X1767677Y3064226D1*
X1768729Y3466659D1*
X1626936Y3466899D1*
X1588264D1*
X1549243Y3427954D1*
X1544725Y3417490D1*
X1537068Y3407654D1*
X1527108Y3400163D1*
X1515534Y3395536D1*
X1503154Y3394097D1*
X1490828Y3395945D1*
X1479415Y3400953D1*
X1469708Y3408771D1*
X1462382Y3418853D1*
X1457949Y3430502D1*
X1456715Y3442904D1*
X1458768Y3455198D1*
X1463963Y3466526D1*
X1471940Y3476103D1*
X1482143Y3483260D1*
X1489835Y3486044D1*
X1541652Y3537744D1*
X1551680Y3545129D1*
X1565637Y3549551D1*
X1620998Y3549899D1*
X1769045D1*
X1769445Y3729849D1*
X1773009Y3741647D1*
X1782851Y3749592D1*
X1790915Y3751290D1*
X3265523Y3753361D1*
X3265201Y3834701D1*
Y4098373D1*
X3184687Y4265167D2*
X3198788Y4259445D1*
X3220118Y4246481D1*
X3238597Y4229700D1*
X3253550Y4209711D1*
X3264432Y4187246D1*
X3265260Y4184641D1*
X3265201Y4265201D1*
X3185122D1*
X3265327Y503032D2*
X3257936Y485404D1*
X3244389Y464439D1*
X3227104Y446429D1*
X3206711Y432033D1*
X3185045Y422205D1*
X3265201Y422201D1*
Y502280D1*
X3098454Y422242D2*
X3086520Y427095D1*
X3065015Y439771D1*
X3046311Y456301D1*
X3031091Y476086D1*
X3019907Y498402D1*
X3013168Y522437D1*
X3011121Y547315D1*
X3013839Y572129D1*
X3021223Y595973D1*
X3033004Y617979D1*
X3048753Y637347D1*
X3067897Y653366D1*
X3089735Y665457D1*
X3113474Y673176D1*
X3138247Y676243D1*
X3163151Y674546D1*
X3187278Y668147D1*
X3209750Y657278D1*
X3229747Y642337D1*
X3246540Y623869D1*
X3259516Y602545D1*
X3265247Y588446D1*
X3265201Y904622D1*
X3258727Y907634D1*
X2280184D1*
X2268377Y911167D1*
X2260403Y920986D1*
X2258685Y929331D1*
X2260589Y1136744D1*
X2144542Y1137852D1*
X1886356Y1140870D1*
X1890571Y1134351D1*
X1894617Y1122562D1*
X1895542Y1113255D1*
X1893898Y1100900D1*
X1889082Y1089406D1*
X1881425Y1079570D1*
X1871465Y1072079D1*
X1859891Y1067452D1*
X1847511Y1066013D1*
X1835185Y1067861D1*
X1823772Y1072869D1*
X1814065Y1080687D1*
X1806739Y1090769D1*
X1802306Y1102418D1*
X1801072Y1114820D1*
X1803125Y1127114D1*
X1808320Y1138442D1*
X1813057Y1144129D1*
X1812794Y1247239D1*
X1793935Y1246685D1*
X1659172Y1247481D1*
X1663306Y1239819D1*
X1667601Y1228096D1*
X1669889Y1215822D1*
X1670267Y1208307D1*
X1669225Y1195865D1*
X1666128Y1183771D1*
X1661063Y1172358D1*
X1654170Y1161948D1*
X1645642Y1152828D1*
X1635715Y1145255D1*
X1624668Y1139439D1*
X1612807Y1135540D1*
X1595391Y1133752D1*
X1540341Y1133500D1*
X1532861Y1133876D1*
X1520586Y1136156D1*
X1508860Y1140446D1*
X1498012Y1146628D1*
X1488343Y1154528D1*
X1480122Y1163924D1*
X1473580Y1174558D1*
X1468897Y1186133D1*
X1466204Y1198324D1*
X1465575Y1210793D1*
X1467030Y1223194D1*
X1470528Y1235180D1*
X1477551Y1248643D1*
X1405271Y1248979D1*
X1403583Y995452D1*
X1403128Y933962D1*
X1399507Y922180D1*
X1389629Y914281D1*
X1381572Y912621D1*
X421810Y915078D1*
X422201Y827701D1*
Y589029D1*
X430274Y607272D1*
X444104Y628053D1*
X461630Y645827D1*
X482214Y659948D1*
X505108Y669898D1*
X529474Y675315D1*
X554427Y676004D1*
X579055Y671937D1*
X602462Y663264D1*
X623793Y650299D1*
X642272Y633519D1*
X657225Y613530D1*
X668107Y591065D1*
X674520Y566941D1*
X676280Y545565D1*
X673897Y520717D1*
X666835Y496774D1*
X655352Y474610D1*
X639865Y455033D1*
X620940Y438756D1*
X599267Y426373D1*
X588732Y422218D1*
X3098373Y422201D1*
X502142Y422255D2*
X490208Y427108D1*
X468702Y439784D1*
X449999Y456314D1*
X434778Y476099D1*
X423595Y498415D1*
X422239Y502491D1*
X422201Y422201D1*
X502280D1*
X422231Y4184446D2*
X430393Y4203440D1*
X444222Y4224221D1*
X461748Y4241995D1*
X482332Y4256116D1*
X502670Y4265097D1*
X422201Y4265201D1*
Y4184341D1*
X918664Y3562603D2*
X1028219D1*
Y3440547D1*
X906164D1*
Y3455000D1*
X898916Y3449441D1*
X887650Y3444079D1*
X875528Y3441120D1*
X863057Y3440688D1*
X850759Y3442802D1*
X839149Y3447373D1*
X828710Y3454209D1*
X819881Y3463026D1*
X813029Y3473456D1*
X808441Y3485059D1*
X806310Y3497355D1*
X806725Y3509826D1*
X809667Y3521952D1*
X815013Y3533227D1*
X822542Y3543177D1*
X831937Y3551390D1*
X842807Y3557519D1*
X854696Y3561310D1*
X867107Y3562603D1*
X879521Y3561344D1*
X891420Y3557587D1*
X902306Y3551488D1*
X906133Y3548163D1*
X906164Y3562603D1*
X918664D1*
X1312991Y3331032D2*
X1309096Y3319179D1*
X1302798Y3308408D1*
X1294378Y3299201D1*
X1284211Y3291969D1*
X1272752Y3287033D1*
X1263954Y3285294D1*
X1259096Y3269179D1*
X1252798Y3258408D1*
X1244378Y3249201D1*
X1234211Y3241969D1*
X1222752Y3237033D1*
X1210512Y3234614D1*
X1198037Y3234822D1*
X1185885Y3237645D1*
X1174596Y3242958D1*
X1164675Y3250524D1*
X1156565Y3260005D1*
X1150628Y3270979D1*
X1148769Y3277341D1*
X1142836Y3279055D1*
X1134419Y3284377D1*
X1094302Y3324965D1*
X1089810Y3333853D1*
X1088318Y3343698D1*
X1089973Y3353519D1*
X1094610Y3362331D1*
X1108150Y3376319D1*
X1136776Y3404386D1*
X1145664Y3408878D1*
X1155509Y3410370D1*
X1165330Y3408715D1*
X1174142Y3404078D1*
X1188130Y3390538D1*
X1204110Y3374541D1*
X1217612Y3388950D1*
X1228012Y3395841D1*
X1239629Y3400394D1*
X1251942Y3402404D1*
X1264403Y3401784D1*
X1276456Y3398559D1*
X1287562Y3392874D1*
X1297226Y3384983D1*
X1305017Y3375238D1*
X1310587Y3364072D1*
X1313687Y3351987D1*
X1314309Y3343439D1*
X1312991Y3331032D1*
X1897939Y1767914D2*
X1574215Y2091635D1*
X1563273Y2096360D1*
X1553566Y2104177D1*
X1546240Y2114260D1*
X1541807Y2125908D1*
X1540574Y2138311D1*
X1542626Y2150605D1*
X1547822Y2161933D1*
X1555798Y2171509D1*
X1566002Y2178667D1*
X1577722Y2182907D1*
X1590143Y2183936D1*
X1602400Y2181680D1*
X1613642Y2176297D1*
X1623086Y2168162D1*
X1630072Y2157841D1*
X1632474Y2150841D1*
X1938929Y1844302D1*
X1949776Y1841916D1*
X1961017Y1836533D1*
X1970461Y1828398D1*
X1977448Y1818078D1*
X1981494Y1806289D1*
X1982419Y1796982D1*
X1980774Y1784628D1*
X1975958Y1773133D1*
X1968302Y1763297D1*
X1958341Y1755806D1*
X1946768Y1751179D1*
X1934387Y1749740D1*
X1922062Y1751588D1*
X1910649Y1756596D1*
X1899339Y1766618D1*
X2230158Y2760298D2*
X2241460Y2746407D1*
X2239500Y2749769D1*
X2244584Y2738080D1*
X2249101Y2730282D1*
X2253147Y2718494D1*
X2254072Y2709187D1*
X2252428Y2696832D1*
X2247612Y2685337D1*
X2239956Y2675502D1*
X2229995Y2668011D1*
X2218421Y2663383D1*
X2206041Y2661945D1*
X2193715Y2663793D1*
X2182302Y2668801D1*
X2172595Y2676618D1*
X2165269Y2686701D1*
X2160836Y2698349D1*
X2160488Y2701837D1*
X2119095Y2702208D1*
X1949173D1*
X1942462Y2697801D1*
X1930889Y2693173D1*
X1918508Y2691735D1*
X1906183Y2693583D1*
X1894769Y2698591D1*
X1885062Y2706408D1*
X1877736Y2716491D1*
X1873303Y2728139D1*
X1872070Y2740542D1*
X1874122Y2752836D1*
X1879318Y2764164D1*
X1887294Y2773740D1*
X1897498Y2780898D1*
X1909218Y2785138D1*
X1921639Y2786167D1*
X1933897Y2783911D1*
X1941977Y2780042D1*
X2194095Y2780208D1*
X2206382Y2778222D1*
X2219844Y2770499D1*
X2230158Y2760298D1*
X1115271Y3383418D2*
D29*
X1155250Y3343439D1*
X1195229Y3383418D2*
X1115271Y3303460D1*
X1167502Y3022788D2*
X1247460Y2942830D1*
Y3022788D2*
X1207481Y2982809D1*
X1172029Y2590439D2*
X1251987Y2510481D1*
Y2590439D2*
X1212008Y2550460D1*
X1152541Y2165570D2*
X1232499Y2085612D1*
Y2165570D2*
X1192520Y2125591D1*
X553251Y3827004D2*
X492257Y3766011D1*
X549139Y3809129D2*
X635376Y3722893D1*
Y3809129D2*
X592257Y3766011D1*
X864756Y3900336D2*
X907874Y3857218D1*
X950992Y3900336D2*
X864756Y3814100D1*
D32*
X2998163Y3394370D3*
Y3197520D3*
Y3000670D3*
X3005525Y2530433D3*
Y2333583D3*
Y2136732D3*
X3006431Y1666549D3*
Y1469698D3*
Y1272848D3*
X688832Y1244252D3*
Y1441103D3*
Y1637953D3*
D33*
X2040026Y3202100D3*
X2120026Y2967100D3*
Y3437100D3*
X2600026D3*
Y2967100D3*
X2048294Y2335433D3*
X2128294Y2100433D3*
Y2570433D3*
X2608294D3*
Y2100433D3*
X2048032Y1468504D3*
X2128032Y1233504D3*
Y1703504D3*
X2608032D3*
Y1233504D3*
X1647900Y1443307D3*
X1567900Y1678307D3*
Y1208307D3*
X1087900D3*
Y1678307D3*
D35*
X492257Y3766011D3*
D36*
Y3666011D3*
Y3566011D3*
Y3466011D3*
Y3366011D3*
Y3266011D3*
Y3166011D3*
Y3066011D3*
Y2966011D3*
Y2866011D3*
Y2766011D3*
Y2666011D3*
Y2566011D3*
X592257Y3766011D3*
Y3666011D3*
Y3566011D3*
Y3466011D3*
Y3366011D3*
Y3266011D3*
Y3166011D3*
Y3066011D3*
Y2966011D3*
Y2866011D3*
Y2766011D3*
Y2666011D3*
Y2566011D3*
D35*
X967192Y3501575D3*
D37*
X867192D3*
Y3201575D3*
X967192D3*
D35*
X971260Y3077297D3*
D37*
X871260D3*
Y2777297D3*
X971260D3*
D35*
X971916Y2652625D3*
D37*
X871916D3*
Y2352625D3*
X971916D3*
D35*
X974410Y2225984D3*
D37*
X874410D3*
Y1925984D3*
X974410D3*
D38*
X1255250Y3343439D3*
X1205250Y3293439D3*
D74*
X1155250Y3343439D3*
D38*
X1207481Y2882809D3*
X1157481Y2932809D3*
D77*
X1207481Y2982809D3*
D38*
X1212008Y2450460D3*
X1162008Y2500460D3*
D77*
X1212008Y2550460D3*
D38*
X1192520Y2025591D3*
X1142520Y2075591D3*
D77*
X1192520Y2125591D3*
D35*
X807874Y3857218D3*
D36*
X907874D3*
X1007874D3*
X1107874D3*
M02*
