G04 DipTrace 2.4.0.2*
%INBottom.gbr*%
%MOIN*%
%ADD14C,0.008*%
%ADD15C,0.02*%
%ADD16C,0.04*%
%ADD17C,0.08*%
%ADD19C,0.03*%
%ADD21C,0.055*%
%ADD22C,0.05*%
%ADD24C,0.015*%
%ADD25C,0.1*%
%ADD26C,0.0157*%
%ADD27C,0.11*%
%ADD28C,0.025*%
%ADD29C,0.018*%
%ADD30O,0.1181X0.0906*%
%ADD31O,0.1417X0.0866*%
%ADD33R,0.0591X0.0591*%
%ADD34C,0.0591*%
%ADD36C,0.0591*%
%ADD39C,0.0315*%
%FSLAX44Y44*%
G04*
G70*
G90*
G75*
G01*
%LNBottom*%
%LPD*%
X10079Y38572D2*
D14*
Y38556D1*
X7605Y36083D1*
X6222D1*
X6136Y36168D1*
X5588D1*
X5406Y35986D1*
Y35177D1*
X5923Y34660D1*
X11079Y38572D2*
X11130D1*
X10774Y38216D1*
X10503D1*
X7951Y35664D1*
X7353D1*
X7270Y35581D1*
Y35213D1*
X7126Y35070D1*
X6866D1*
X6730Y35206D1*
Y35576D1*
X6642Y35664D1*
X5927D1*
X5923Y35660D1*
X18144Y35084D2*
D15*
X15710D1*
X15039Y34413D1*
X4923Y36660D2*
D16*
X4564D1*
X4301Y36924D1*
Y38499D1*
X4911Y39109D1*
D17*
X6136D1*
X14769Y30344D2*
D19*
X17318D1*
X18244Y29417D1*
X9672Y32016D2*
D15*
X10215D1*
X10656Y31575D1*
Y28106D1*
X10290Y27740D1*
X9745D1*
X9713Y27773D1*
X9719Y23526D2*
X10097D1*
X10656Y24085D1*
Y28106D1*
X9744Y19260D2*
X10537D1*
X10656Y19379D1*
Y24085D1*
X4923Y37660D2*
D21*
X5923D1*
X9079Y38572D2*
D22*
Y39379D1*
D19*
X9848Y40148D1*
X11853D1*
X12699Y39302D1*
Y34581D1*
X11552Y33434D1*
Y33037D1*
X11050Y32534D1*
Y32062D1*
X11308Y31803D1*
Y30594D1*
X12075Y29828D1*
X12568D1*
X13554Y28843D1*
Y26938D1*
X12120Y25505D1*
X11925Y21256D2*
X12531D1*
X12927Y21651D1*
Y24698D1*
X12120Y25505D1*
X5923Y37660D2*
D22*
X6411D1*
X7172Y38421D1*
Y39096D1*
X7692Y39615D1*
X8791D1*
X9079Y39379D1*
X18069Y25704D2*
D15*
Y25927D1*
X17847Y26149D1*
X15168D1*
X15136Y26181D1*
X19352Y17970D2*
X19276D1*
X15878Y21367D1*
X22068Y27092D2*
D24*
Y27285D1*
X21941Y27412D1*
X19215D1*
X19193Y27390D1*
X30055Y23336D2*
D25*
X20501D1*
D26*
X20483Y23354D1*
X29982Y31975D2*
D27*
X20446D1*
D26*
X20400Y32021D1*
X26083Y25704D2*
D25*
X29655D1*
X30055Y25304D1*
X26083Y21004D2*
Y21180D1*
X29868D1*
X30055Y21367D1*
X26000Y34371D2*
X29982D1*
Y33944D1*
X21513Y19949D2*
D24*
X19004D1*
X26000Y29671D2*
D25*
X29982D1*
Y30007D1*
X30064Y14697D2*
X20492D1*
D26*
X20480Y14685D1*
X26080Y17035D2*
Y17280D1*
D25*
X29450D1*
X30064Y16665D1*
X26080Y12335D2*
D26*
Y12201D1*
D25*
X29537D1*
X30064Y12728D1*
X18483Y11133D2*
D14*
Y15668D1*
X18621Y15806D1*
X6888Y14411D2*
D25*
X16457D1*
D26*
X16479Y14433D1*
X10879Y12083D2*
Y11988D1*
D25*
X7343D1*
X6888Y12443D1*
X10879Y16783D2*
D26*
Y16948D1*
D25*
X7456D1*
X6888Y16380D1*
D39*
X18144Y35084D3*
X15039Y34413D3*
X6136Y39109D3*
D3*
X14769Y30344D3*
X18244Y29417D3*
X18069Y25704D3*
X15136Y26181D3*
X19352Y17970D3*
X15878Y21367D3*
X22068Y27092D3*
X19193Y27390D3*
X21513Y19949D3*
X19004D3*
X18483Y11133D3*
X18621Y15806D3*
X5682Y39112D3*
X5201Y39117D3*
X4247Y42403D2*
D28*
X4574D1*
X6339D2*
X30535D1*
X32304D2*
X32629D1*
X4247Y42155D2*
X4351D1*
X6561D2*
X30312D1*
X32522D2*
X32630D1*
X6694Y41906D2*
X30179D1*
X6768Y41657D2*
X30109D1*
X6788Y41409D2*
X30086D1*
X6765Y41160D2*
X30113D1*
X6686Y40911D2*
X30187D1*
X4247Y40663D2*
X4363D1*
X6550D2*
X30328D1*
X32511D2*
X32627D1*
X4247Y40414D2*
X4593D1*
X6319D2*
X30554D1*
X32280D2*
X32629D1*
X4247Y40165D2*
X5054D1*
X5858D2*
X31019D1*
X31819D2*
X32629D1*
X4247Y39916D2*
X32629D1*
X4247Y39668D2*
X4441D1*
X6608D2*
X32629D1*
X6804Y39419D2*
X32629D1*
X6874Y39170D2*
X7445D1*
X8714D2*
X8933D1*
X9226D2*
X9933D1*
X10226D2*
X10933D1*
X11226D2*
X32629D1*
X6851Y38922D2*
X7445D1*
X11604D2*
X32629D1*
X6729Y38673D2*
X7445D1*
X11706D2*
X32629D1*
X6366Y38424D2*
X7445D1*
X11694D2*
X32629D1*
X6272Y38176D2*
X7445D1*
X11569D2*
X32629D1*
X6495Y37927D2*
X8922D1*
X11003D2*
X32629D1*
X6558Y37678D2*
X8676D1*
X10491D2*
X32629D1*
X6511Y37430D2*
X8426D1*
X10245D2*
X17715D1*
X6327Y37181D2*
X8176D1*
X9995D2*
X17668D1*
X6495Y36932D2*
X7929D1*
X9745D2*
X17668D1*
X6558Y36684D2*
X7679D1*
X9499D2*
X17668D1*
X9249Y36435D2*
X17668D1*
X4247Y36186D2*
X4340D1*
X8999D2*
X17668D1*
X4247Y35937D2*
X4355D1*
X8753D2*
X17668D1*
X8503Y35689D2*
X17664D1*
X4247Y35440D2*
X4328D1*
X10308D2*
X15472D1*
X4247Y35191D2*
X4508D1*
X7647D2*
X8062D1*
X10308D2*
X15207D1*
X4247Y34943D2*
X4355D1*
X7526D2*
X8043D1*
X10308D2*
X14957D1*
X6558Y34694D2*
X8129D1*
X10308D2*
X14633D1*
X4247Y34445D2*
X4328D1*
X6518D2*
X8429D1*
X8913D2*
X9036D1*
X10308D2*
X14543D1*
X15683D2*
X17660D1*
X4247Y34197D2*
X4500D1*
X6343D2*
X14593D1*
X15483D2*
X17660D1*
X4247Y33948D2*
X4359D1*
X6487D2*
X11242D1*
X11862D2*
X12238D1*
X12870D2*
X14933D1*
X15143D2*
X17660D1*
X6558Y33699D2*
X10992D1*
X13104D2*
X17660D1*
X4247Y33451D2*
X4324D1*
X6522D2*
X10859D1*
X13167D2*
X17660D1*
X4247Y33202D2*
X4496D1*
X6351D2*
X10961D1*
X13120D2*
X17660D1*
X4247Y32953D2*
X4363D1*
X6483D2*
X11211D1*
X12921D2*
X17656D1*
X6558Y32705D2*
X11484D1*
X12620D2*
X17656D1*
X4247Y32456D2*
X4324D1*
X6522D2*
X8222D1*
X9120D2*
X9222D1*
X10120D2*
X11683D1*
X12425D2*
X17656D1*
X4247Y32207D2*
X4488D1*
X6354D2*
X8066D1*
X10636D2*
X17656D1*
X4247Y31958D2*
X4367D1*
X6479D2*
X8039D1*
X10886D2*
X17656D1*
X6558Y31710D2*
X8121D1*
X11073D2*
X17656D1*
X6522Y31461D2*
X8394D1*
X8952D2*
X9394D1*
X9952D2*
X10160D1*
X11097D2*
X17652D1*
X4247Y31212D2*
X4484D1*
X6362D2*
X8265D1*
X11097D2*
X17652D1*
X4247Y30964D2*
X4367D1*
X6476D2*
X8109D1*
X11097D2*
X17652D1*
X6554Y30715D2*
X8082D1*
X11097D2*
X14453D1*
X6526Y30466D2*
X8160D1*
X11097D2*
X11914D1*
X12237D2*
X14289D1*
X4247Y30218D2*
X4476D1*
X6366D2*
X8433D1*
X8991D2*
X9078D1*
X11097D2*
X11640D1*
X12511D2*
X14289D1*
X4247Y29969D2*
X4371D1*
X6476D2*
X10215D1*
X11097D2*
X11414D1*
X12737D2*
X14457D1*
X6554Y29720D2*
X10215D1*
X12749D2*
X17258D1*
X6526Y29472D2*
X10215D1*
X12542D2*
X17508D1*
X4247Y29223D2*
X4472D1*
X6374D2*
X10215D1*
X12538D2*
X17758D1*
X18698D2*
X20301D1*
X22101D2*
X22582D1*
X4247Y28974D2*
X4375D1*
X6472D2*
X10215D1*
X12671D2*
X18054D1*
X18433D2*
X20629D1*
X21772D2*
X22578D1*
X6554Y28726D2*
X10215D1*
X11097D2*
X11468D1*
X12683D2*
X22578D1*
X6530Y28477D2*
X10215D1*
X11097D2*
X11574D1*
X12573D2*
X22578D1*
X4247Y28228D2*
X4468D1*
X6378D2*
X8281D1*
X9143D2*
X9283D1*
X11097D2*
X22574D1*
X4247Y27979D2*
X4379D1*
X6468D2*
X8113D1*
X11097D2*
X22574D1*
X6554Y27731D2*
X8078D1*
X11097D2*
X18840D1*
X22190D2*
X22574D1*
X6530Y27482D2*
X8152D1*
X11097D2*
X18703D1*
X22429D2*
X22569D1*
X4247Y27233D2*
X4461D1*
X6382D2*
X8402D1*
X9022D2*
X9402D1*
X10022D2*
X10215D1*
X11097D2*
X18722D1*
X4247Y26985D2*
X4383D1*
X6464D2*
X8293D1*
X11097D2*
X18926D1*
X19460D2*
X21582D1*
X6554Y26736D2*
X8121D1*
X11097D2*
X21734D1*
X22405D2*
X22569D1*
X6534Y26487D2*
X8086D1*
X11097D2*
X14754D1*
X18112D2*
X22566D1*
X4247Y26239D2*
X4457D1*
X6390D2*
X8156D1*
X11097D2*
X14644D1*
X4247Y25990D2*
X4383D1*
X6460D2*
X8402D1*
X11097D2*
X11781D1*
X12460D2*
X14679D1*
X6554Y25741D2*
X10215D1*
X11097D2*
X11531D1*
X12710D2*
X14941D1*
X6534Y25493D2*
X10215D1*
X11097D2*
X11261D1*
X12815D2*
X17621D1*
X4247Y25244D2*
X4453D1*
X6393D2*
X10215D1*
X12683D2*
X17754D1*
X4247Y24995D2*
X10215D1*
X12476D2*
X17754D1*
X4247Y24746D2*
X10215D1*
X12683D2*
X17754D1*
X4247Y24498D2*
X10215D1*
X11097D2*
X11293D1*
X12737D2*
X17754D1*
X4247Y24249D2*
X10207D1*
X11097D2*
X11562D1*
X12679D2*
X17754D1*
X4247Y24000D2*
X8308D1*
X9128D2*
X9311D1*
X11097D2*
X11789D1*
X12452D2*
X17754D1*
X4247Y23752D2*
X8129D1*
X11097D2*
X17754D1*
X4247Y23503D2*
X8086D1*
X11097D2*
X17754D1*
X4247Y23254D2*
X8148D1*
X11097D2*
X17754D1*
X4247Y23006D2*
X8375D1*
X9061D2*
X9375D1*
X10061D2*
X10215D1*
X11097D2*
X17754D1*
X4247Y22757D2*
X8367D1*
X11097D2*
X17754D1*
X4247Y22508D2*
X8160D1*
X11097D2*
X17754D1*
X4247Y22260D2*
X8109D1*
X11097D2*
X17754D1*
X4247Y22011D2*
X8164D1*
X11097D2*
X17754D1*
X4247Y21762D2*
X8367D1*
X11097D2*
X11605D1*
X12245D2*
X15593D1*
X16163D2*
X17754D1*
X4247Y21514D2*
X10215D1*
X11097D2*
X11359D1*
X12491D2*
X15402D1*
X16351D2*
X17754D1*
X4247Y21265D2*
X10215D1*
X12620D2*
X15390D1*
X16593D2*
X17754D1*
X4247Y21016D2*
X10215D1*
X12511D2*
X15539D1*
X16843D2*
X17754D1*
X4247Y20767D2*
X10215D1*
X12261D2*
X15867D1*
X17089D2*
X17754D1*
X4247Y20519D2*
X10215D1*
X12479D2*
X16113D1*
X17339D2*
X17758D1*
X4247Y20270D2*
X10215D1*
X12542D2*
X16363D1*
X17589D2*
X18633D1*
X21886D2*
X22562D1*
X4247Y20021D2*
X10215D1*
X11097D2*
X11359D1*
X12491D2*
X16613D1*
X17835D2*
X18511D1*
X22007D2*
X22562D1*
X4247Y19773D2*
X8390D1*
X9101D2*
X9390D1*
X10101D2*
X10215D1*
X11097D2*
X11562D1*
X12288D2*
X16859D1*
X18085D2*
X18539D1*
X21976D2*
X22562D1*
X4247Y19524D2*
X8168D1*
X11097D2*
X17109D1*
X18335D2*
X18773D1*
X19237D2*
X21281D1*
X21745D2*
X22562D1*
X4247Y19275D2*
X8109D1*
X11081D2*
X17359D1*
X18581D2*
X22562D1*
X14058Y19027D2*
X17605D1*
X18831D2*
X22562D1*
X14081Y18778D2*
X17855D1*
X19081D2*
X22562D1*
X14077Y18529D2*
X18105D1*
X19327D2*
X22562D1*
X14073Y18281D2*
X18351D1*
X19733D2*
X22562D1*
X14073Y18032D2*
X18601D1*
X19847D2*
X22562D1*
X14069Y17783D2*
X18851D1*
X19811D2*
X22562D1*
X14069Y17535D2*
X19144D1*
X19561D2*
X20422D1*
X22136D2*
X22562D1*
X14065Y17286D2*
X14824D1*
X16534D2*
X18445D1*
X14061Y17037D2*
X14676D1*
X16683D2*
X18429D1*
X14061Y16788D2*
X14629D1*
X16729D2*
X18429D1*
X17983Y16540D2*
X18429D1*
X18331Y16291D2*
X18429D1*
X14077Y12312D2*
X14668D1*
X16690D2*
X18101D1*
X14077Y12063D2*
X14633D1*
X16726D2*
X18101D1*
X14073Y11815D2*
X14679D1*
X16679D2*
X18101D1*
X14073Y11566D2*
X14840D1*
X16518D2*
X18101D1*
X14069Y11317D2*
X18023D1*
X18944D2*
X22582D1*
X14069Y11069D2*
X17988D1*
X18976D2*
X22578D1*
X14065Y10820D2*
X18105D1*
X18862D2*
X22578D1*
X14065Y10571D2*
X22574D1*
X14065Y10323D2*
X22570D1*
X14061Y10074D2*
X22570D1*
X14061Y9825D2*
X22566D1*
X14058Y9577D2*
X22566D1*
X14058Y9328D2*
X22562D1*
X4247Y9079D2*
X22742D1*
X4247Y8830D2*
X32629D1*
X4247Y8582D2*
X32629D1*
X4247Y8333D2*
X32629D1*
X4247Y8084D2*
X32629D1*
X4247Y7836D2*
X32629D1*
X4247Y7587D2*
X32629D1*
X4247Y7338D2*
X32629D1*
X4247Y7090D2*
X32629D1*
X4247Y6841D2*
X32629D1*
X4247Y6592D2*
X4785D1*
X6128D2*
X30750D1*
X32089D2*
X32629D1*
X4247Y6344D2*
X4472D1*
X6440D2*
X30433D1*
X32401D2*
X32629D1*
X6620Y6095D2*
X30254D1*
X6729Y5846D2*
X30144D1*
X6780Y5598D2*
X30093D1*
X6784Y5349D2*
X30090D1*
X6737Y5100D2*
X30136D1*
X6640Y4851D2*
X30234D1*
X4247Y4603D2*
X4441D1*
X6472D2*
X30402D1*
X32433D2*
X32629D1*
X4247Y4354D2*
X4726D1*
X6183D2*
X30691D1*
X32147D2*
X32629D1*
X32653Y40992D2*
X32579Y40816D1*
X32444Y40606D1*
X32271Y40426D1*
X32067Y40282D1*
X31840Y40180D1*
X31597Y40122D1*
X31347Y40112D1*
X31101Y40149D1*
X30865Y40233D1*
X30650Y40360D1*
X30463Y40525D1*
X30311Y40723D1*
X30199Y40946D1*
X30132Y41186D1*
X30111Y41435D1*
X30139Y41683D1*
X30212Y41922D1*
X30330Y42142D1*
X30488Y42335D1*
X30679Y42496D1*
X30897Y42617D1*
X30989Y42651D1*
X5882Y42652D1*
X6026Y42594D1*
X6239Y42465D1*
X6424Y42297D1*
X6573Y42097D1*
X6682Y41872D1*
X6746Y41631D1*
X6764Y41417D1*
X6740Y41169D1*
X6670Y40929D1*
X6555Y40708D1*
X6400Y40512D1*
X6211Y40349D1*
X5994Y40225D1*
X5758Y40145D1*
X5510Y40111D1*
X5261Y40125D1*
X5019Y40185D1*
X4793Y40291D1*
X4591Y40438D1*
X4420Y40620D1*
X4288Y40832D1*
X4221Y40994D1*
X4222Y39297D1*
X4293Y39469D1*
X4365Y39571D1*
X4453Y39659D1*
X4556Y39730D1*
X4669Y39782D1*
X4790Y39814D1*
X5036Y39824D1*
X6136D1*
X6261Y39813D1*
X6381Y39781D1*
X6495Y39728D1*
X6597Y39656D1*
X6685Y39568D1*
X6756Y39465D1*
X6809Y39352D1*
X6841Y39231D1*
X6851Y39107D1*
X6840Y38983D1*
X6808Y38862D1*
X6754Y38749D1*
X6682Y38647D1*
X6594Y38559D1*
X6491Y38488D1*
X6378Y38436D1*
X6257Y38404D1*
X6011Y38394D1*
X4921Y38391D1*
X4814Y38283D1*
X4837Y38270D1*
X5533D1*
Y38129D1*
X5634Y38198D1*
X5749Y38245D1*
X5872Y38268D1*
X5997Y38266D1*
X6118Y38238D1*
X6232Y38186D1*
X6332Y38112D1*
X6416Y38020D1*
X6479Y37912D1*
X6518Y37793D1*
X6533Y37660D1*
X6520Y37536D1*
X6482Y37417D1*
X6421Y37308D1*
X6339Y37214D1*
X6274Y37159D1*
X6368Y37077D1*
X6443Y36978D1*
X6497Y36865D1*
X6527Y36744D1*
X6533Y36660D1*
X6520Y36536D1*
X6488Y36436D1*
X7460Y36438D1*
X8988Y37969D1*
X8867Y38000D1*
X8755Y38055D1*
X8689Y38103D1*
Y37962D1*
X7468D1*
Y39182D1*
X8689D1*
Y39038D1*
X8747Y39084D1*
X8858Y39141D1*
X8978Y39174D1*
X9103Y39182D1*
X9226Y39164D1*
X9344Y39122D1*
X9450Y39057D1*
X9541Y38971D1*
X9579Y38922D1*
X9632Y38988D1*
X9726Y39070D1*
X9835Y39132D1*
X9954Y39170D1*
X10078Y39182D1*
X10202Y39170D1*
X10321Y39132D1*
X10430Y39071D1*
X10524Y38989D1*
X10578Y38918D1*
X10632Y38988D1*
X10726Y39070D1*
X10835Y39132D1*
X10954Y39170D1*
X11078Y39182D1*
X11202Y39170D1*
X11321Y39132D1*
X11430Y39071D1*
X11524Y38989D1*
X11600Y38890D1*
X11653Y38778D1*
X11683Y38656D1*
X11689Y38572D1*
X11676Y38448D1*
X11639Y38329D1*
X11577Y38220D1*
X11495Y38126D1*
X11396Y38051D1*
X11283Y37997D1*
X11162Y37968D1*
X11026Y37965D1*
X10996Y37939D1*
X10887Y37879D1*
X10774Y37861D1*
X10653D1*
X8202Y35413D1*
X8100Y35342D1*
X7951Y35309D1*
X7627D1*
X7625Y35213D1*
X7603Y35091D1*
X7521Y34962D1*
X7377Y34819D1*
X7275Y34747D1*
X7126Y34715D1*
X6866D1*
X6744Y34736D1*
X6615Y34819D1*
X6479Y34955D1*
X6407Y35057D1*
X6375Y35206D1*
Y35249D1*
X6268Y35160D1*
X6368Y35077D1*
X6443Y34978D1*
X6497Y34865D1*
X6527Y34744D1*
X6533Y34660D1*
X6520Y34536D1*
X6482Y34417D1*
X6421Y34308D1*
X6339Y34214D1*
X6274Y34159D1*
X6368Y34077D1*
X6443Y33978D1*
X6497Y33865D1*
X6527Y33744D1*
X6533Y33660D1*
X6520Y33536D1*
X6482Y33417D1*
X6421Y33308D1*
X6339Y33214D1*
X6274Y33159D1*
X6368Y33077D1*
X6443Y32978D1*
X6497Y32865D1*
X6527Y32744D1*
X6533Y32660D1*
X6520Y32536D1*
X6482Y32417D1*
X6421Y32308D1*
X6339Y32214D1*
X6274Y32159D1*
X6368Y32077D1*
X6443Y31978D1*
X6497Y31865D1*
X6527Y31744D1*
X6533Y31660D1*
X6520Y31536D1*
X6482Y31417D1*
X6421Y31308D1*
X6339Y31214D1*
X6274Y31159D1*
X6368Y31077D1*
X6443Y30978D1*
X6497Y30865D1*
X6527Y30744D1*
X6533Y30660D1*
X6520Y30536D1*
X6482Y30417D1*
X6421Y30308D1*
X6339Y30214D1*
X6274Y30159D1*
X6368Y30077D1*
X6443Y29978D1*
X6497Y29865D1*
X6527Y29744D1*
X6533Y29660D1*
X6520Y29536D1*
X6482Y29417D1*
X6421Y29308D1*
X6339Y29214D1*
X6274Y29159D1*
X6368Y29077D1*
X6443Y28978D1*
X6497Y28865D1*
X6527Y28744D1*
X6533Y28660D1*
X6520Y28536D1*
X6482Y28417D1*
X6421Y28308D1*
X6339Y28214D1*
X6274Y28159D1*
X6368Y28077D1*
X6443Y27978D1*
X6497Y27865D1*
X6527Y27744D1*
X6533Y27660D1*
X6520Y27536D1*
X6482Y27417D1*
X6421Y27308D1*
X6339Y27214D1*
X6274Y27159D1*
X6368Y27077D1*
X6443Y26978D1*
X6497Y26865D1*
X6527Y26744D1*
X6533Y26660D1*
X6520Y26536D1*
X6482Y26417D1*
X6421Y26308D1*
X6339Y26214D1*
X6274Y26159D1*
X6368Y26077D1*
X6443Y25978D1*
X6497Y25865D1*
X6527Y25744D1*
X6533Y25660D1*
X6520Y25536D1*
X6482Y25417D1*
X6421Y25308D1*
X6339Y25214D1*
X6240Y25139D1*
X6127Y25085D1*
X6006Y25056D1*
X5881Y25051D1*
X5758Y25072D1*
X5642Y25118D1*
X5538Y25186D1*
X5449Y25275D1*
X5421Y25308D1*
X5339Y25214D1*
X5240Y25139D1*
X5127Y25085D1*
X5006Y25056D1*
X4881Y25051D1*
X4758Y25072D1*
X4642Y25118D1*
X4538Y25186D1*
X4449Y25275D1*
X4381Y25379D1*
X4335Y25495D1*
X4314Y25618D1*
X4318Y25743D1*
X4347Y25864D1*
X4401Y25977D1*
X4476Y26076D1*
X4573Y26160D1*
X4449Y26275D1*
X4381Y26379D1*
X4335Y26495D1*
X4314Y26618D1*
X4318Y26743D1*
X4347Y26864D1*
X4401Y26977D1*
X4476Y27076D1*
X4573Y27160D1*
X4449Y27275D1*
X4381Y27379D1*
X4335Y27495D1*
X4314Y27618D1*
X4318Y27743D1*
X4347Y27864D1*
X4401Y27977D1*
X4476Y28076D1*
X4573Y28160D1*
X4449Y28275D1*
X4381Y28379D1*
X4335Y28495D1*
X4314Y28618D1*
X4318Y28743D1*
X4347Y28864D1*
X4401Y28977D1*
X4476Y29076D1*
X4573Y29160D1*
X4449Y29275D1*
X4381Y29379D1*
X4335Y29495D1*
X4314Y29618D1*
X4318Y29743D1*
X4347Y29864D1*
X4401Y29977D1*
X4476Y30076D1*
X4573Y30160D1*
X4449Y30275D1*
X4381Y30379D1*
X4335Y30495D1*
X4314Y30618D1*
X4318Y30743D1*
X4347Y30864D1*
X4401Y30977D1*
X4476Y31076D1*
X4573Y31160D1*
X4449Y31275D1*
X4381Y31379D1*
X4335Y31495D1*
X4314Y31618D1*
X4318Y31743D1*
X4347Y31864D1*
X4401Y31977D1*
X4476Y32076D1*
X4573Y32160D1*
X4449Y32275D1*
X4381Y32379D1*
X4335Y32495D1*
X4314Y32618D1*
X4318Y32743D1*
X4347Y32864D1*
X4401Y32977D1*
X4476Y33076D1*
X4573Y33160D1*
X4449Y33275D1*
X4381Y33379D1*
X4335Y33495D1*
X4314Y33618D1*
X4318Y33743D1*
X4347Y33864D1*
X4401Y33977D1*
X4476Y34076D1*
X4573Y34160D1*
X4449Y34275D1*
X4381Y34379D1*
X4335Y34495D1*
X4314Y34618D1*
X4318Y34743D1*
X4347Y34864D1*
X4401Y34977D1*
X4476Y35076D1*
X4573Y35160D1*
X4449Y35275D1*
X4381Y35379D1*
X4335Y35495D1*
X4314Y35618D1*
X4318Y35743D1*
X4347Y35864D1*
X4401Y35977D1*
X4476Y36076D1*
X4555Y36145D1*
X4405Y36170D1*
X4324Y36205D1*
X4222Y36152D1*
Y19140D1*
X4951Y19144D1*
X8143D1*
X8139Y19342D1*
X8169Y19464D1*
X8222Y19576D1*
X8298Y19676D1*
X8392Y19758D1*
X8500Y19819D1*
X8619Y19857D1*
X8743Y19870D1*
X8867Y19858D1*
X8986Y19820D1*
X9095Y19759D1*
X9189Y19677D1*
X9244Y19606D1*
X9298Y19676D1*
X9392Y19758D1*
X9500Y19819D1*
X9619Y19857D1*
X9743Y19870D1*
X9867Y19858D1*
X9986Y19820D1*
X10095Y19759D1*
X10192Y19674D1*
X10241Y19754D1*
Y21649D1*
X9134Y21650D1*
Y21794D1*
X9061Y21739D1*
X8949Y21685D1*
X8827Y21655D1*
X8703Y21651D1*
X8580Y21672D1*
X8464Y21718D1*
X8359Y21786D1*
X8271Y21874D1*
X8202Y21979D1*
X8157Y22095D1*
X8135Y22218D1*
X8139Y22342D1*
X8169Y22464D1*
X8222Y22576D1*
X8298Y22676D1*
X8392Y22758D1*
X8500Y22819D1*
X8619Y22857D1*
X8743Y22870D1*
X8867Y22858D1*
X8986Y22820D1*
X9095Y22759D1*
X9134Y22726D1*
Y22870D1*
X10239D1*
X10241Y23141D1*
X10136Y23080D1*
X10036Y23005D1*
X9924Y22951D1*
X9803Y22922D1*
X9678Y22917D1*
X9555Y22939D1*
X9439Y22984D1*
X9334Y23053D1*
X9246Y23141D1*
X9218Y23174D1*
X9136Y23080D1*
X9036Y23005D1*
X8924Y22951D1*
X8803Y22922D1*
X8678Y22917D1*
X8555Y22939D1*
X8439Y22984D1*
X8334Y23053D1*
X8246Y23141D1*
X8178Y23245D1*
X8132Y23361D1*
X8110Y23484D1*
X8114Y23609D1*
X8144Y23730D1*
X8197Y23843D1*
X8273Y23942D1*
X8367Y24024D1*
X8475Y24086D1*
X8594Y24124D1*
X8718Y24137D1*
X8842Y24124D1*
X8961Y24086D1*
X9070Y24025D1*
X9164Y23944D1*
X9219Y23872D1*
X9273Y23942D1*
X9367Y24024D1*
X9475Y24086D1*
X9594Y24124D1*
X9718Y24137D1*
X9842Y24124D1*
X9961Y24086D1*
X10033Y24046D1*
X10243Y24259D1*
X10241Y25917D1*
X9109Y25916D1*
Y26061D1*
X9036Y26005D1*
X8924Y25951D1*
X8803Y25922D1*
X8678Y25917D1*
X8555Y25939D1*
X8439Y25984D1*
X8334Y26053D1*
X8246Y26141D1*
X8178Y26245D1*
X8132Y26361D1*
X8110Y26484D1*
X8114Y26609D1*
X8144Y26730D1*
X8197Y26843D1*
X8273Y26942D1*
X8367Y27024D1*
X8475Y27086D1*
X8594Y27124D1*
X8718Y27137D1*
X8842Y27124D1*
X8961Y27086D1*
X9070Y27025D1*
X9109Y26992D1*
Y27137D1*
X10243D1*
X10241Y27324D1*
X10130Y27325D1*
X10030Y27252D1*
X9917Y27198D1*
X9796Y27168D1*
X9671Y27164D1*
X9548Y27185D1*
X9432Y27231D1*
X9328Y27299D1*
X9239Y27387D1*
X9211Y27421D1*
X9129Y27327D1*
X9030Y27252D1*
X8917Y27198D1*
X8796Y27168D1*
X8671Y27164D1*
X8548Y27185D1*
X8432Y27231D1*
X8328Y27299D1*
X8239Y27387D1*
X8171Y27492D1*
X8125Y27608D1*
X8104Y27731D1*
X8108Y27855D1*
X8137Y27977D1*
X8191Y28089D1*
X8266Y28189D1*
X8360Y28271D1*
X8469Y28332D1*
X8588Y28370D1*
X8712Y28383D1*
X8836Y28371D1*
X8955Y28333D1*
X9064Y28272D1*
X9158Y28190D1*
X9212Y28119D1*
X9266Y28189D1*
X9360Y28271D1*
X9469Y28332D1*
X9588Y28370D1*
X9712Y28383D1*
X9836Y28371D1*
X9955Y28333D1*
X10064Y28272D1*
X10155Y28193D1*
X10242Y28279D1*
X10241Y30165D1*
X9102Y30163D1*
Y30307D1*
X9030Y30252D1*
X8917Y30198D1*
X8796Y30168D1*
X8671Y30164D1*
X8548Y30185D1*
X8432Y30231D1*
X8328Y30299D1*
X8239Y30387D1*
X8171Y30492D1*
X8125Y30608D1*
X8104Y30731D1*
X8108Y30855D1*
X8137Y30977D1*
X8191Y31089D1*
X8266Y31189D1*
X8360Y31271D1*
X8469Y31332D1*
X8588Y31370D1*
X8712Y31383D1*
X8836Y31371D1*
X8955Y31333D1*
X9064Y31272D1*
X9102Y31239D1*
Y31383D1*
X10242D1*
X10186Y31458D1*
X10084Y31560D1*
X9989Y31494D1*
X9876Y31441D1*
X9755Y31411D1*
X9631Y31407D1*
X9508Y31428D1*
X9391Y31474D1*
X9287Y31542D1*
X9199Y31630D1*
X9171Y31664D1*
X9089Y31570D1*
X8989Y31494D1*
X8876Y31441D1*
X8755Y31411D1*
X8631Y31407D1*
X8508Y31428D1*
X8391Y31474D1*
X8287Y31542D1*
X8199Y31630D1*
X8130Y31735D1*
X8084Y31851D1*
X8063Y31974D1*
X8067Y32098D1*
X8097Y32220D1*
X8150Y32332D1*
X8225Y32432D1*
X8319Y32514D1*
X8428Y32575D1*
X8547Y32613D1*
X8671Y32626D1*
X8795Y32613D1*
X8914Y32576D1*
X9023Y32515D1*
X9117Y32433D1*
X9172Y32362D1*
X9225Y32432D1*
X9319Y32514D1*
X9428Y32575D1*
X9547Y32613D1*
X9671Y32626D1*
X9795Y32613D1*
X9914Y32576D1*
X10023Y32515D1*
X10120Y32430D1*
X10215Y32431D1*
X10338Y32412D1*
X10468Y32345D1*
X10862Y31956D1*
X10950Y31868D1*
X11023Y31768D1*
X11068Y31628D1*
X11071Y31075D1*
Y29633D1*
X11111Y29694D1*
X11198Y29783D1*
X11302Y29852D1*
X11415Y29896D1*
X11431Y29952D1*
X11484Y30036D1*
X11890Y30438D1*
X11979Y30482D1*
X12077Y30497D1*
X12176Y30481D1*
X12264Y30434D1*
X12404Y30299D1*
X12684Y30013D1*
X12729Y29924D1*
X12744Y29825D1*
X12728Y29727D1*
X12681Y29639D1*
X12546Y29499D1*
X12380Y29333D1*
X12495Y29244D1*
X12572Y29146D1*
X12628Y29034D1*
X12659Y28914D1*
X12665Y28828D1*
X12652Y28704D1*
X12613Y28585D1*
X12550Y28478D1*
X12466Y28386D1*
X12364Y28313D1*
X12250Y28264D1*
X12127Y28240D1*
X12003Y28242D1*
X11881Y28270D1*
X11768Y28323D1*
X11669Y28399D1*
X11588Y28494D1*
X11529Y28603D1*
X11492Y28743D1*
X11381Y28770D1*
X11268Y28823D1*
X11169Y28899D1*
X11071Y29025D1*
Y25220D1*
X11156Y25370D1*
X11244Y25460D1*
X11348Y25529D1*
X11460Y25573D1*
X11476Y25629D1*
X11529Y25713D1*
X11935Y26114D1*
X12024Y26159D1*
X12123Y26174D1*
X12221Y26157D1*
X12309Y26111D1*
X12449Y25976D1*
X12730Y25689D1*
X12774Y25600D1*
X12789Y25502D1*
X12773Y25404D1*
X12726Y25316D1*
X12591Y25176D1*
X12425Y25010D1*
X12540Y24920D1*
X12618Y24823D1*
X12673Y24711D1*
X12704Y24590D1*
X12711Y24505D1*
X12697Y24381D1*
X12659Y24262D1*
X12596Y24154D1*
X12511Y24062D1*
X12410Y23990D1*
X12295Y23941D1*
X12173Y23916D1*
X12048Y23918D1*
X11926Y23947D1*
X11814Y24000D1*
X11714Y24075D1*
X11633Y24170D1*
X11574Y24280D1*
X11537Y24419D1*
X11426Y24447D1*
X11314Y24500D1*
X11214Y24575D1*
X11133Y24670D1*
X11071Y24791D1*
Y21230D1*
X11153Y21280D1*
X11265Y21324D1*
X11281Y21380D1*
X11335Y21464D1*
X11740Y21865D1*
X11829Y21910D1*
X11928Y21925D1*
X12026Y21909D1*
X12114Y21862D1*
X12254Y21727D1*
X12535Y21441D1*
X12580Y21352D1*
X12595Y21253D1*
X12578Y21155D1*
X12532Y21067D1*
X12396Y20927D1*
X12230Y20761D1*
X12345Y20671D1*
X12423Y20574D1*
X12479Y20462D1*
X12510Y20341D1*
X12516Y20256D1*
X12503Y20132D1*
X12464Y20013D1*
X12401Y19906D1*
X12316Y19814D1*
X12215Y19741D1*
X12100Y19692D1*
X11978Y19668D1*
X11853Y19670D1*
X11732Y19698D1*
X11619Y19751D1*
X11519Y19827D1*
X11438Y19922D1*
X11379Y20031D1*
X11343Y20171D1*
X11232Y20198D1*
X11119Y20251D1*
X11072Y20287D1*
X11071Y19379D1*
X11052Y19256D1*
X10995Y19141D1*
X12201Y19144D1*
X13841D1*
X13959Y19109D1*
X14039Y19011D1*
X14056Y18927D1*
X14033Y16564D1*
X14689Y16561D1*
X14662Y16683D1*
X14656Y16808D1*
X14670Y16932D1*
X14705Y17052D1*
X14760Y17164D1*
X14832Y17266D1*
X14920Y17354D1*
X15022Y17427D1*
X15134Y17481D1*
X15254Y17516D1*
X15403Y17531D1*
X16054Y17524D1*
X16176Y17498D1*
X16292Y17451D1*
X16398Y17385D1*
X16492Y17303D1*
X16571Y17207D1*
X16633Y17098D1*
X16676Y16981D1*
X16699Y16858D1*
X16703Y16783D1*
X16692Y16659D1*
X16664Y16549D1*
X18093Y16539D1*
X18211Y16503D1*
X18290Y16404D1*
X18307Y16323D1*
X18306Y16155D1*
X18403Y16225D1*
X18450Y16242D1*
X18453Y16876D1*
Y17198D1*
X18488Y17316D1*
X18586Y17396D1*
X18671Y17413D1*
X20347Y17390D1*
X20433Y17518D1*
X20522Y17606D1*
X20623Y17679D1*
X20736Y17733D1*
X20856Y17768D1*
X21005Y17783D1*
X21655Y17776D1*
X21777Y17750D1*
X21893Y17703D1*
X21999Y17637D1*
X22093Y17555D1*
X22173Y17459D1*
X22225Y17367D1*
X22589Y17360D1*
X22587Y20357D1*
X21939Y20358D1*
X21825Y20307D1*
X21866Y20263D1*
X21936Y20160D1*
X21976Y20042D1*
X21986Y19949D1*
X21969Y19825D1*
X21921Y19710D1*
X21844Y19612D1*
X21745Y19537D1*
X21629Y19491D1*
X21505Y19476D1*
X21382Y19495D1*
X21253Y19557D1*
X19267Y19559D1*
X19236Y19537D1*
X19120Y19491D1*
X18996Y19476D1*
X18873Y19495D1*
X18759Y19545D1*
X18662Y19623D1*
X18588Y19724D1*
X18544Y19840D1*
X18532Y19964D1*
X18552Y20087D1*
X18604Y20201D1*
X18684Y20296D1*
X18770Y20357D1*
X17992Y20358D1*
X17874Y20394D1*
X17794Y20492D1*
X17777Y20573D1*
Y25335D1*
X17726Y25379D1*
X17653Y25479D1*
X17609Y25596D1*
X17597Y25734D1*
X15288D1*
X15129Y25709D1*
X15005Y25727D1*
X14891Y25777D1*
X14794Y25855D1*
X14721Y25956D1*
X14677Y26073D1*
X14664Y26197D1*
X14685Y26320D1*
X14737Y26433D1*
X14817Y26529D1*
X14919Y26600D1*
X15036Y26643D1*
X15160Y26653D1*
X15283Y26630D1*
X15410Y26564D1*
X17847D1*
X17970Y26546D1*
X18100Y26478D1*
X18338Y26245D1*
X20488Y26244D1*
X20626Y26348D1*
X20738Y26402D1*
X20858Y26437D1*
X21007Y26452D1*
X21658Y26446D1*
X21780Y26419D1*
X21896Y26372D1*
X22002Y26307D1*
X22076Y26243D1*
X22590Y26244D1*
X22607Y29370D1*
X22163Y29369D1*
X22063Y29207D1*
X21978Y29116D1*
X21878Y29040D1*
X21768Y28982D1*
X21649Y28943D1*
X21475Y28925D1*
X20925Y28923D1*
X20850Y28927D1*
X20727Y28949D1*
X20610Y28992D1*
X20501Y29054D1*
X20405Y29133D1*
X20322Y29227D1*
X20244Y29366D1*
X19448Y29369D1*
X18717D1*
X18700Y29294D1*
X18652Y29179D1*
X18575Y29080D1*
X18476Y29006D1*
X18360Y28959D1*
X18236Y28945D1*
X18113Y28963D1*
X17999Y29013D1*
X17902Y29092D1*
X17827Y29177D1*
X17123Y29881D1*
X15568Y29879D1*
X14853D1*
X14761Y29871D1*
X14638Y29890D1*
X14524Y29940D1*
X14427Y30018D1*
X14353Y30119D1*
X14309Y30235D1*
X14297Y30359D1*
X14317Y30482D1*
X14369Y30596D1*
X14449Y30691D1*
X14551Y30763D1*
X14668Y30805D1*
X14793Y30816D1*
X14894Y30809D1*
X17318D1*
X17441Y30792D1*
X17556Y30743D1*
X17646Y30673D1*
X17677Y30642D1*
X17687Y34667D1*
X16269Y34669D1*
X15883D1*
X15492Y34280D1*
X15447Y34175D1*
X15371Y34077D1*
X15271Y34002D1*
X15155Y33955D1*
X15032Y33941D1*
X14908Y33959D1*
X14794Y34010D1*
X14697Y34088D1*
X14624Y34189D1*
X14579Y34305D1*
X14567Y34429D1*
X14588Y34552D1*
X14640Y34665D1*
X14719Y34761D1*
X14821Y34833D1*
X14898Y34860D1*
X15417Y35377D1*
X15517Y35451D1*
X15656Y35496D1*
X16210Y35499D1*
X17690D1*
X17694Y37298D1*
X17730Y37416D1*
X17829Y37496D1*
X17909Y37513D1*
X32655Y37534D1*
X32652Y38347D1*
Y40984D1*
X31847Y42652D2*
X31988Y42594D1*
X32201Y42465D1*
X32386Y42297D1*
X32536Y42097D1*
X32644Y41872D1*
X32653Y41846D1*
X32652Y42652D1*
X31851D1*
X32653Y5030D2*
X32579Y4854D1*
X32444Y4644D1*
X32271Y4464D1*
X32067Y4320D1*
X31850Y4222D1*
X32652D1*
Y5023D1*
X30985Y4222D2*
X30865Y4271D1*
X30650Y4398D1*
X30463Y4563D1*
X30311Y4761D1*
X30199Y4984D1*
X30132Y5224D1*
X30111Y5473D1*
X30138Y5721D1*
X30212Y5960D1*
X30330Y6180D1*
X30488Y6373D1*
X30679Y6534D1*
X30897Y6655D1*
X31135Y6732D1*
X31382Y6762D1*
X31632Y6745D1*
X31873Y6681D1*
X32097Y6573D1*
X32297Y6423D1*
X32465Y6239D1*
X32595Y6025D1*
X32652Y5884D1*
Y9046D1*
X32587Y9076D1*
X22802D1*
X22684Y9112D1*
X22604Y9210D1*
X22587Y9293D1*
X22606Y11367D1*
X21445Y11379D1*
X18864Y11409D1*
X18906Y11344D1*
X18946Y11226D1*
X18955Y11133D1*
X18939Y11009D1*
X18891Y10894D1*
X18814Y10796D1*
X18715Y10721D1*
X18599Y10675D1*
X18475Y10660D1*
X18352Y10679D1*
X18238Y10729D1*
X18141Y10807D1*
X18067Y10908D1*
X18023Y11024D1*
X18011Y11148D1*
X18031Y11271D1*
X18083Y11384D1*
X18131Y11441D1*
X18128Y12472D1*
X17939Y12467D1*
X16592Y12475D1*
X16633Y12398D1*
X16676Y12281D1*
X16699Y12158D1*
X16703Y12083D1*
X16692Y11959D1*
X16661Y11838D1*
X16611Y11724D1*
X16542Y11619D1*
X16456Y11528D1*
X16357Y11453D1*
X16247Y11394D1*
X16128Y11355D1*
X15954Y11338D1*
X15403Y11335D1*
X15329Y11339D1*
X15206Y11362D1*
X15089Y11404D1*
X14980Y11466D1*
X14883Y11545D1*
X14801Y11639D1*
X14736Y11746D1*
X14689Y11861D1*
X14662Y11983D1*
X14656Y12108D1*
X14670Y12232D1*
X14705Y12352D1*
X14776Y12486D1*
X14053Y12490D1*
X14036Y9955D1*
X14031Y9340D1*
X13995Y9222D1*
X13896Y9143D1*
X13816Y9126D1*
X4218Y9151D1*
X4222Y8277D1*
Y5890D1*
X4303Y6073D1*
X4441Y6281D1*
X4616Y6458D1*
X4822Y6599D1*
X5051Y6699D1*
X5295Y6753D1*
X5544Y6760D1*
X5791Y6719D1*
X6025Y6633D1*
X6238Y6503D1*
X6423Y6335D1*
X6572Y6135D1*
X6681Y5911D1*
X6745Y5669D1*
X6763Y5456D1*
X6739Y5207D1*
X6668Y4968D1*
X6554Y4746D1*
X6399Y4550D1*
X6209Y4388D1*
X5993Y4264D1*
X5887Y4222D1*
X30984D1*
X5021Y4223D2*
X4902Y4271D1*
X4687Y4398D1*
X4500Y4563D1*
X4348Y4761D1*
X4236Y4984D1*
X4222Y5025D1*
Y4222D1*
X5023D1*
X4222Y41844D2*
X4304Y42034D1*
X4442Y42242D1*
X4617Y42420D1*
X4823Y42561D1*
X5027Y42651D1*
X4222Y42652D1*
Y41843D1*
X9187Y35626D2*
X10282D1*
Y34405D1*
X9062D1*
Y34550D1*
X8989Y34494D1*
X8876Y34441D1*
X8755Y34411D1*
X8631Y34407D1*
X8508Y34428D1*
X8391Y34474D1*
X8287Y34542D1*
X8199Y34630D1*
X8130Y34735D1*
X8084Y34851D1*
X8063Y34974D1*
X8067Y35098D1*
X8097Y35220D1*
X8150Y35332D1*
X8225Y35432D1*
X8319Y35514D1*
X8428Y35575D1*
X8547Y35613D1*
X8671Y35626D1*
X8795Y35613D1*
X8914Y35576D1*
X9023Y35515D1*
X9061Y35482D1*
X9062Y35626D1*
X9187D1*
X13130Y33310D2*
X13091Y33192D1*
X13028Y33084D1*
X12944Y32992D1*
X12842Y32920D1*
X12728Y32870D1*
X12640Y32853D1*
X12591Y32692D1*
X12528Y32584D1*
X12444Y32492D1*
X12342Y32420D1*
X12228Y32370D1*
X12105Y32346D1*
X11980Y32348D1*
X11859Y32376D1*
X11746Y32430D1*
X11647Y32505D1*
X11566Y32600D1*
X11506Y32710D1*
X11488Y32773D1*
X11428Y32791D1*
X11344Y32844D1*
X10943Y33250D1*
X10898Y33339D1*
X10883Y33437D1*
X10900Y33535D1*
X10946Y33623D1*
X11081Y33763D1*
X11368Y34044D1*
X11457Y34089D1*
X11555Y34104D1*
X11653Y34087D1*
X11741Y34041D1*
X11881Y33905D1*
X12041Y33745D1*
X12176Y33890D1*
X12280Y33958D1*
X12396Y34004D1*
X12519Y34024D1*
X12644Y34018D1*
X12765Y33986D1*
X12876Y33929D1*
X12972Y33850D1*
X13050Y33752D1*
X13106Y33641D1*
X13137Y33520D1*
X13143Y33434D1*
X13130Y33310D1*
X18979Y17679D2*
X15742Y20916D1*
X15633Y20964D1*
X15536Y21042D1*
X15462Y21143D1*
X15418Y21259D1*
X15406Y21383D1*
X15426Y21506D1*
X15478Y21619D1*
X15558Y21715D1*
X15660Y21787D1*
X15777Y21829D1*
X15901Y21839D1*
X16024Y21817D1*
X16136Y21763D1*
X16231Y21682D1*
X16301Y21578D1*
X16325Y21508D1*
X19389Y18443D1*
X19498Y18419D1*
X19610Y18365D1*
X19705Y18284D1*
X19774Y18181D1*
X19815Y18063D1*
X19824Y17970D1*
X19808Y17846D1*
X19760Y17731D1*
X19683Y17633D1*
X19583Y17558D1*
X19468Y17512D1*
X19344Y17497D1*
X19221Y17516D1*
X19106Y17566D1*
X18993Y17666D1*
X22302Y27603D2*
X22415Y27464D1*
X22395Y27498D1*
X22446Y27381D1*
X22491Y27303D1*
X22531Y27185D1*
X22541Y27092D1*
X22524Y26968D1*
X22476Y26853D1*
X22400Y26755D1*
X22300Y26680D1*
X22184Y26634D1*
X22060Y26619D1*
X21937Y26638D1*
X21823Y26688D1*
X21726Y26766D1*
X21653Y26867D1*
X21608Y26983D1*
X21605Y27018D1*
X21191Y27022D1*
X19492D1*
X19425Y26978D1*
X19309Y26932D1*
X19185Y26917D1*
X19062Y26936D1*
X18948Y26986D1*
X18851Y27064D1*
X18777Y27165D1*
X18733Y27281D1*
X18721Y27405D1*
X18741Y27528D1*
X18793Y27642D1*
X18873Y27737D1*
X18975Y27809D1*
X19092Y27851D1*
X19216Y27862D1*
X19339Y27839D1*
X19420Y27800D1*
X21941Y27802D1*
X22064Y27782D1*
X22198Y27705D1*
X22302Y27603D1*
X11153Y33834D2*
D29*
X11552Y33434D1*
X11952Y33834D2*
X11153Y33035D1*
X11675Y30228D2*
X12475Y29428D1*
Y30228D2*
X12075Y29828D1*
X11720Y25904D2*
X12520Y25105D1*
Y25904D2*
X12120Y25505D1*
X11525Y21656D2*
X12325Y20856D1*
Y21656D2*
X11925Y21256D1*
X5533Y38270D2*
X4923Y37660D1*
X5491Y38091D2*
X6354Y37229D1*
Y38091D2*
X5923Y37660D1*
X8648Y39003D2*
X9079Y38572D1*
X9510Y39003D2*
X8648Y38141D1*
D30*
X29982Y33944D3*
Y31975D3*
Y30007D3*
X30055Y25304D3*
Y23336D3*
Y21367D3*
X30064Y16665D3*
Y14697D3*
Y12728D3*
X6888Y12443D3*
Y14411D3*
Y16380D3*
D31*
X20400Y32021D3*
X21200Y29671D3*
Y34371D3*
X26000D3*
Y29671D3*
X20483Y23354D3*
X21283Y21004D3*
Y25704D3*
X26083D3*
Y21004D3*
X20480Y14685D3*
X21280Y12335D3*
Y17035D3*
X26080D3*
Y12335D3*
X16479Y14433D3*
X15679Y16783D3*
Y12083D3*
X10879D3*
Y16783D3*
D33*
X9672Y35016D3*
D34*
X8672D3*
Y32016D3*
X9672D3*
D33*
X9713Y30773D3*
D34*
X8713D3*
Y27773D3*
X9713D3*
D33*
X9719Y26526D3*
D34*
X8719D3*
Y23526D3*
X9719D3*
D33*
X9744Y22260D3*
D34*
X8744D3*
Y19260D3*
X9744D3*
D21*
X12552Y33434D3*
X12052Y32934D3*
G36*
X11552Y33080D2*
X11198Y33434D1*
X11552Y33789D1*
X11907Y33434D1*
X11552Y33080D1*
G37*
D21*
X12075Y28828D3*
X11575Y29328D3*
G36*
X11720Y29828D2*
X12075Y30182D1*
X12429Y29828D1*
X12075Y29474D1*
X11720Y29828D1*
G37*
D21*
X12120Y24505D3*
X11620Y25005D3*
G36*
X11766Y25505D2*
X12120Y25859D1*
X12474Y25505D1*
X12120Y25150D1*
X11766Y25505D1*
G37*
D21*
X11925Y20256D3*
X11425Y20756D3*
G36*
X11571Y21256D2*
X11925Y21610D1*
X12280Y21256D1*
X11925Y20902D1*
X11571Y21256D1*
G37*
D33*
X4923Y37660D3*
D36*
Y36660D3*
Y35660D3*
Y34660D3*
Y33660D3*
Y32660D3*
Y31660D3*
Y30660D3*
Y29660D3*
Y28660D3*
Y27660D3*
Y26660D3*
Y25660D3*
X5923Y37660D3*
Y36660D3*
Y35660D3*
Y34660D3*
Y33660D3*
Y32660D3*
Y31660D3*
Y30660D3*
Y29660D3*
Y28660D3*
Y27660D3*
Y26660D3*
Y25660D3*
D33*
X8079Y38572D3*
D36*
X9079D3*
X10079D3*
X11079D3*
M02*
