M48
METRIC,0000.00
T01C0.4
T02C0.8
T03C0.9
T04C1.45
T05C1.55
T06C4.05
%
T01
X+000443Y+008934
X+000559Y+008934
X+000321Y+008936
X+002820Y+007741
X+003609Y+007911
X+003634Y+006472
X+003875Y+005957
X+003589Y+005529
X+002845Y+005650
X+002751Y+006707
X+004605Y+005881
X+004464Y+004067
X+003827Y+004067
X+003915Y+003564
X+003730Y+003015
X+003695Y+001828
X+003033Y+004427
T02
X+002188Y+007492
X+002061Y+007365
X+001934Y+007492
X+002067Y+006576
X+001940Y+006449
X+002067Y+006322
X+002079Y+005478
X+001952Y+005351
X+002079Y+005224
X+002029Y+004399
X+001902Y+004272
X+002029Y+004145
T03
X+001457Y+007894
X+001203Y+007894
X+000504Y+007804
X+000250Y+007804
X+000250Y+008058
X+000250Y+008312
X+000250Y+008566
X+000504Y+008566
X+000504Y+008312
X+000504Y+008058
X+000504Y+007550
X+000250Y+007550
X+000250Y+007296
X+000250Y+007042
X+000250Y+006788
X+000250Y+006534
X+000250Y+006280
X+000250Y+006026
X+000250Y+005772
X+000250Y+005518
X+000504Y+005518
X+000504Y+005772
X+000504Y+006026
X+000504Y+006280
X+000504Y+006534
X+000504Y+006788
X+000504Y+007042
X+000504Y+007296
X+001203Y+007132
X+001457Y+007132
X+001467Y+006816
X+001213Y+006816
X+001213Y+006054
X+001467Y+006054
X+001469Y+005738
X+001215Y+005738
X+001215Y+004976
X+001469Y+004976
X+001475Y+004654
X+001221Y+004654
X+001221Y+003892
X+001475Y+003892
X+001560Y+008797
X+001814Y+008797
X+001306Y+008797
X+001052Y+008797
T04
X+004182Y+007133
X+004385Y+006536
X+004406Y+005529
X+004203Y+004932
X+004406Y+004335
X+004405Y+003327
X+004202Y+002730
X+004405Y+002133
X+005624Y+002133
X+005624Y+003327
X+005625Y+004335
X+005625Y+005529
X+005604Y+006536
X+005604Y+007730
X+004385Y+007730
X+002982Y+003263
X+003186Y+002666
X+002982Y+002069
X+001763Y+002069
X+001763Y+003263
T05
X+006615Y+007622
X+006615Y+007122
X+006615Y+006622
X+006634Y+005427
X+006634Y+004927
X+006634Y+004427
X+006636Y+003233
X+006636Y+002733
X+006636Y+002233
X+000750Y+002160
X+000750Y+002660
X+000750Y+003160
T06
X+006980Y+009520
X+000386Y+009520
X+000386Y+000386
X+006980Y+000386
T00
M30
