G04 DipTrace 3.0.0.0*
G04 Top.gbr*
%MOIN*%
G04 #@! TF.FileFunction,Copper,L1,Top*
G04 #@! TF.Part,Single*
%AMOUTLINE0*5,1,4,0,0,0.070866,-90.0*%
%AMOUTLINE3*5,1,4,0,0,0.070866,-180.0*%
G04 #@! TA.AperFunction,Conductor*
%ADD10C,0.01*%
%ADD14C,0.008*%
%ADD15C,0.02*%
%ADD16C,0.04*%
%ADD17C,0.08*%
%ADD18C,0.035*%
%ADD19C,0.03*%
%ADD20C,0.06*%
%ADD21C,0.055*%
%ADD23C,0.051181*%
%ADD24C,0.015*%
%ADD25C,0.1*%
%ADD26C,0.015748*%
G04 #@! TA.AperFunction,CopperBalancing*
%ADD28C,0.025*%
G04 #@! TA.AperFunction,ComponentPad*
%ADD32O,0.11811X0.090551*%
%ADD33O,0.141732X0.086614*%
%ADD34R,0.051181X0.059055*%
G04 #@! TA.AperFunction,ComponentPad*
%ADD35R,0.059055X0.059055*%
%ADD36C,0.059055*%
%ADD37C,0.059055*%
%ADD38C,0.055118*%
%ADD39R,0.059055X0.051181*%
%ADD41R,0.055118X0.03937*%
%ADD43R,0.03937X0.055118*%
G04 #@! TA.AperFunction,ViaPad*
%ADD44C,0.031496*%
G04 #@! TA.AperFunction,ComponentPad*
%ADD74OUTLINE0*%
%ADD77OUTLINE3*%
%FSLAX26Y26*%
G04*
G70*
G90*
G75*
G01*
G04 Top*
%LPD*%
X867192Y3501575D2*
D14*
Y3302887D1*
X799475Y3235171D1*
Y2953937D1*
X764436Y2918898D1*
X545145D1*
X492257Y2866011D1*
X871260Y3077297D2*
Y2895145D1*
X794226Y2818110D1*
X544357D1*
X492257Y2766011D1*
X871916Y2652625D2*
X684515D1*
X652362Y2620473D1*
X537795D1*
X492257Y2666011D1*
X874410Y2225984D2*
D15*
X752494D1*
X500263Y2478215D1*
Y2558005D1*
X492257Y2566011D1*
X2030709Y3644226D2*
Y3526418D1*
X2120026Y3437100D1*
X2262599Y3638714D2*
X2232415D1*
X2229003Y3642126D1*
X2028609D1*
X2030709Y3644226D1*
X2120026Y3437100D2*
X1885735D1*
X1814436Y3508399D1*
X1503937Y3441339D2*
X1353150D1*
X1255250Y3343439D1*
X492257Y3666011D2*
D16*
X456693D1*
X429134Y3693570D1*
Y3847507D1*
X495538Y3913911D1*
D17*
X520079D1*
X569160D1*
X613649D1*
X658399D1*
X725722Y3981234D1*
X807874D1*
X1399213D1*
X1715355Y3665092D1*
D16*
Y3681628D1*
X1799738D1*
X613649Y3910893D2*
D15*
Y3913911D1*
X568242Y3911155D2*
D17*
X569160Y3913911D1*
X520079Y3911680D2*
Y3913911D1*
X1806168Y2824803D2*
D16*
X1715355D1*
Y2941732D1*
Y3665092D1*
X1854593Y1903675D2*
X1761680D1*
X1715355Y1950000D1*
Y2824803D1*
X1855250Y1735958D2*
Y1788583D1*
X1854593Y1789239D1*
Y1903675D1*
X1566798Y1867586D2*
D18*
Y1679410D1*
X1567900Y1678307D1*
X2002494Y1899738D2*
D19*
X1858530D1*
X1854593Y1903675D1*
X1799738Y3681628D2*
D15*
X1944095D1*
X1806168Y2824803D2*
X1939633D1*
X2011024Y2753412D1*
X2120026Y2967100D2*
X2022087D1*
X1982152Y2927166D1*
Y2782284D1*
X2011024Y2753412D1*
X2128294Y2100433D2*
Y2046011D1*
X2101753Y2019470D1*
X2071176D1*
X2001837Y1950131D1*
Y1900394D1*
X2002494Y1899738D1*
X2128032Y1233504D2*
X1892349D1*
D10*
X1866667Y1259187D1*
Y1524147D1*
X1941995Y1599475D1*
Y1707087D1*
X1925197Y1723885D1*
X1867323D1*
X1855250Y1735958D1*
X1566798Y1867586D2*
D15*
X1318504D1*
X1268635Y1917454D1*
X982940D1*
X974410Y1925984D1*
X613649Y3910893D2*
X568504D1*
X568242Y3911155D1*
X967192Y3201575D2*
D19*
X1088845D1*
X1140289Y3150131D1*
X1361155D1*
X1476903Y3034383D1*
X1824410Y2941732D2*
X1715355D1*
X807874Y3857218D2*
D16*
Y3981234D1*
X492257Y3766011D2*
D20*
X592257D1*
X1241076Y3631496D2*
D15*
Y3556824D1*
X1185827Y3501575D1*
X967192D1*
X2260893Y2767323D2*
Y2776247D1*
X2157874D1*
X2097638Y2716011D1*
Y2664436D1*
X2124278Y2637795D1*
Y2574449D1*
X2128294Y2570433D1*
X1806864D1*
X1513649Y2618110D2*
X1472179D1*
X1207481Y2882809D1*
X867192Y3201575D2*
Y3222179D1*
X917454Y3272441D1*
X1093176D1*
X1121391Y3244226D1*
X1156037D1*
X1205250Y3293439D1*
X592257Y3666011D2*
D21*
X1125706D1*
D23*
X1128732Y3669037D1*
X1166273Y3631496D1*
D16*
Y3689633D1*
X1200656Y3724016D1*
X1369423D1*
X1385040Y3708399D1*
Y3633858D1*
X1385433Y3633465D1*
D19*
X1487139D1*
X1612205Y3508399D1*
Y3187008D1*
X1612730Y3186483D1*
Y2392782D1*
X1613386Y2392126D1*
X2089108Y1862336D2*
D15*
X2080446D1*
X2125853Y1816929D1*
Y1705683D1*
X2128032Y1703504D1*
X2256299Y1886221D2*
X2254987D1*
X2232415Y1863649D1*
X2090420D1*
X2089108Y1862336D1*
X2128032Y1703504D2*
Y1705774D1*
X2026378D1*
X1935171Y1796982D1*
X1587795Y2136746D2*
X1525722D1*
X1212008Y2450460D1*
X1565223Y989895D2*
Y1205630D1*
X1567900Y1208307D1*
X1774318D1*
D10*
X1838320Y1272310D1*
Y1538714D1*
X1780446Y1596588D1*
D15*
Y1782021D1*
X1661286Y1901181D1*
Y1937795D1*
X1636483Y1962599D1*
X1612599D1*
X1604200Y1954200D1*
X1192520Y2025591D2*
X1583727D1*
X1603544Y2005774D1*
Y1954856D1*
X1604200Y1954200D1*
X2335696Y2767323D2*
D24*
Y2724672D1*
X2320210Y2709187D1*
X2206824D1*
X1919292Y2738977D2*
X1817192D1*
X1806168Y2750000D1*
X1385433Y3558662D2*
D10*
X1482546D1*
X1557218Y3483990D1*
Y3298688D1*
X1533202Y3274672D1*
X1499475D1*
X1473753Y3248950D1*
Y3116011D1*
X1530578Y3059187D1*
Y2994620D1*
X1511024Y2975066D1*
X1455118D1*
X1352887Y3077297D1*
X971260D1*
X3005525Y2333583D2*
D25*
X2050145D1*
D26*
X2048294Y2335433D1*
X1799738Y3756431D2*
D15*
X1845013D1*
X1901706Y3813124D1*
X2299607D1*
X2340289Y3772441D1*
Y3635827D1*
X2337402Y3638714D1*
X2998163Y3197520D2*
D25*
X2044607D1*
D26*
X2040026Y3202100D1*
X2608294Y2570433D2*
Y2573360D1*
D25*
X2962599D1*
X3005525Y2530433D1*
X2608294Y2100433D2*
D26*
Y2115092D1*
D25*
X2983885D1*
X3005525Y2136732D1*
X2600026Y3437100D2*
X2998163D1*
Y3394370D1*
X871260Y2777297D2*
D15*
Y2794620D1*
X1010368Y2933727D1*
X1156562D1*
X1157481Y2932809D1*
X2331103Y1886221D2*
D24*
Y1984515D1*
X2320735Y1994882D1*
X2151313D1*
X1900394D2*
X1875990D1*
X1857089Y1975982D1*
X1854593Y1978478D1*
X1537927Y3186483D2*
D10*
Y3107481D1*
X1562336Y3083071D1*
Y2607349D1*
X1529265Y2574278D1*
X1329397D1*
X1255118Y2648557D1*
X975984D1*
X971916Y2652625D1*
X2600026Y2967100D2*
D26*
Y2974147D1*
D25*
X2998163D1*
Y3000670D1*
X3006431Y1469698D2*
X2049226D1*
D26*
X2048032Y1468504D1*
X2608032Y1703504D2*
Y1727034D1*
D25*
X2945945D1*
X3006431Y1666549D1*
X2608032Y1233504D2*
D26*
Y1221260D1*
D25*
X2954843D1*
X3006431Y1272848D1*
X871916Y2352625D2*
D15*
Y2425328D1*
X947047Y2500460D1*
X1162008D1*
X1640026Y989895D2*
D14*
X1724935D1*
X1848294Y1113255D1*
X1862074Y1580578D2*
Y1654331D1*
X1855250Y1661155D1*
X1538583Y2392126D2*
D10*
Y2276903D1*
X1645538Y2169948D1*
Y2079003D1*
X1629134Y2062599D1*
X1436746D1*
X1283334Y2216011D1*
X984383D1*
X974410Y2225984D1*
X688832Y1441103D2*
D25*
X1645696D1*
D26*
X1647900Y1443307D1*
X1087900Y1208307D2*
Y1195801D1*
D25*
X737284D1*
X688832Y1244252D1*
X1087900Y1678307D2*
D26*
Y1697244D1*
D25*
X748124D1*
X688832Y1637953D1*
X874410Y1925984D2*
D15*
Y2029528D1*
X920473Y2075591D1*
X1142520D1*
D44*
X1814436Y3508399D3*
X1503937Y3441339D3*
X613649Y3910893D3*
D3*
X1476903Y3034383D3*
X1824410Y2941732D3*
X1806864Y2570433D3*
X1513649Y2618110D3*
X1935171Y1796982D3*
X1587795Y2136746D3*
X2206824Y2709187D3*
X1919292Y2738977D3*
X2151313Y1994882D3*
X1900394D3*
X1848294Y1113255D3*
X1862074Y1580578D3*
X568242Y3911155D3*
X520079Y3911680D3*
X424726Y4240332D2*
D28*
X457323D1*
X634003D2*
X3053515D1*
X3230243D2*
X3262694D1*
X424726Y4215463D2*
X435189D1*
X656122D2*
X3031395D1*
X3252362D2*
X3262676D1*
X669403Y4190595D2*
X3018114D1*
X676679Y4165726D2*
X3010839D1*
X678876Y4140857D2*
X3008642D1*
X676336Y4115988D2*
X3011180D1*
X668719Y4091120D2*
X3018798D1*
X424726Y4066251D2*
X436360D1*
X654902D2*
X3032616D1*
X3251092D2*
X3262738D1*
X424726Y4041382D2*
X459374D1*
X631952D2*
X684570D1*
X1440351D2*
X3055566D1*
X3228143D2*
X3262694D1*
X424726Y4016513D2*
X505566D1*
X585760D2*
X657372D1*
X1467547D2*
X3101806D1*
X3181903D2*
X3262694D1*
X424726Y3991645D2*
X632519D1*
X1492402D2*
X3262694D1*
X424726Y3966776D2*
X444920D1*
X1517303D2*
X3262694D1*
X1542158Y3941907D2*
X3262694D1*
X1567011Y3917038D2*
X3262694D1*
X1160419Y3892170D2*
X1384667D1*
X1591912D2*
X3262694D1*
X715399Y3867301D2*
X744335D1*
X1170575D2*
X1409520D1*
X1616767D2*
X3262694D1*
X662616Y3842432D2*
X744335D1*
X1169599D2*
X1434374D1*
X1641620D2*
X1869823D1*
X2331463D2*
X3262694D1*
X628290Y3817563D2*
X744335D1*
X1156756D2*
X1459276D1*
X1666523D2*
X1844970D1*
X2356366D2*
X3262694D1*
X650164Y3792694D2*
X1484130D1*
X1691376D2*
X1736230D1*
X2379023D2*
X3262694D1*
X656219Y3767826D2*
X1171092D1*
X1398992D2*
X1508983D1*
X1716230D2*
X1736230D1*
X1917596D2*
X1969139D1*
X2092255D2*
X2283691D1*
X2384295D2*
X3262694D1*
X651776Y3742957D2*
X1144286D1*
X1425702D2*
X1533886D1*
X1438104Y3718088D2*
X1558739D1*
X1439032Y3693219D2*
X1583592D1*
X1300654Y3668351D2*
X1321923D1*
X1520379D2*
X1608495D1*
X1300654Y3643482D2*
X1321923D1*
X1545379D2*
X1633348D1*
X424726Y3618613D2*
X434019D1*
X1300654D2*
X1321923D1*
X1570234D2*
X1658202D1*
X424726Y3593744D2*
X435383D1*
X649139D2*
X1106688D1*
X1300654D2*
X1321923D1*
X1595135D2*
X1661376D1*
X655731Y3568876D2*
X1191942D1*
X1285076D2*
X1321923D1*
X1619990D2*
X1661376D1*
X424726Y3544007D2*
X432848D1*
X651679D2*
X820848D1*
X1030731D2*
X1167088D1*
X1283026D2*
X1321923D1*
X1644843D2*
X1661376D1*
X424726Y3519138D2*
X450683D1*
X633856D2*
X806248D1*
X1264570D2*
X1321923D1*
X1448944D2*
X1467967D1*
X424726Y3494269D2*
X435676D1*
X648847D2*
X804100D1*
X1239715D2*
X1492822D1*
X655683Y3469400D2*
X812840D1*
X1214520D2*
X1320019D1*
X424726Y3444532D2*
X432652D1*
X651874D2*
X829198D1*
X1030731D2*
X1295164D1*
X424726Y3419663D2*
X450047D1*
X634442D2*
X829198D1*
X905194D2*
X1270263D1*
X424726Y3394794D2*
X435969D1*
X648554D2*
X829198D1*
X905194D2*
X1124120D1*
X1186395D2*
X1223583D1*
X1367792D2*
X1493310D1*
X655683Y3369925D2*
X829198D1*
X905194D2*
X1099267D1*
X1342939D2*
X1518211D1*
X424726Y3345057D2*
X432457D1*
X652070D2*
X829198D1*
X905194D2*
X1085839D1*
X1318036D2*
X1518211D1*
X424726Y3320188D2*
X449462D1*
X635076D2*
X829198D1*
X905194D2*
X1096044D1*
X1312030D2*
X1518211D1*
X424726Y3295319D2*
X436261D1*
X648310D2*
X806932D1*
X1292011D2*
X1466015D1*
X655634Y3270450D2*
X782030D1*
X1262128D2*
X1441747D1*
X424726Y3245582D2*
X432261D1*
X652264D2*
X763036D1*
X1242352D2*
X1434764D1*
X424726Y3220713D2*
X448876D1*
X635663D2*
X761474D1*
X1193719D2*
X1434764D1*
X424726Y3195844D2*
X436554D1*
X648016D2*
X761474D1*
X1372187D2*
X1434764D1*
X655584Y3170975D2*
X761474D1*
X1408563D2*
X1434764D1*
X652460Y3146107D2*
X761474D1*
X895135D2*
X939256D1*
X995135D2*
X1076074D1*
X424726Y3121238D2*
X448290D1*
X636248D2*
X761474D1*
X1034784D2*
X1100927D1*
X424726Y3096369D2*
X436848D1*
X647675D2*
X761474D1*
X655536Y3071500D2*
X761474D1*
X652607Y3046631D2*
X761474D1*
X424726Y3021763D2*
X447704D1*
X636786D2*
X761474D1*
X1034784D2*
X1163963D1*
X1250995D2*
X1354295D1*
X424726Y2996894D2*
X437141D1*
X647382D2*
X761474D1*
X909247D2*
X1141356D1*
X1273603D2*
X1379150D1*
X655487Y2972025D2*
X761474D1*
X909247D2*
X991894D1*
X1275019D2*
X1404051D1*
X909247Y2947156D2*
X962596D1*
X1254315D2*
X1429100D1*
X424726Y2922288D2*
X447167D1*
X820526D2*
X833251D1*
X909247D2*
X937743D1*
X1253924D2*
X1523339D1*
X1869990D2*
X1938134D1*
X2209979D2*
X2258055D1*
X424726Y2897419D2*
X437433D1*
X795672D2*
X820848D1*
X1267206D2*
X1523339D1*
X1843280D2*
X1938134D1*
X2026142D2*
X2062743D1*
X2177314D2*
X2257910D1*
X655439Y2872550D2*
X795946D1*
X1010370D2*
X1146826D1*
X1278924D2*
X1523339D1*
X1869696D2*
X1938134D1*
X2026142D2*
X2257763D1*
X985516Y2847681D2*
X1157519D1*
X1303778D2*
X1523339D1*
X2026142D2*
X2257616D1*
X424726Y2822813D2*
X446630D1*
X1014423D2*
X1206298D1*
X1328680D2*
X1523339D1*
X2026142D2*
X2036096D1*
X2159198D2*
X2201318D1*
X424726Y2797944D2*
X437726D1*
X1031171D2*
X1231151D1*
X1353534D2*
X1523339D1*
X655390Y2773075D2*
X807860D1*
X1034638D2*
X1256004D1*
X1378387D2*
X1523339D1*
X653143Y2748206D2*
X815135D1*
X1027411D2*
X1280907D1*
X1403290D2*
X1523339D1*
X424726Y2723337D2*
X446142D1*
X638398D2*
X840234D1*
X902264D2*
X940234D1*
X1002264D2*
X1305760D1*
X1428143D2*
X1523339D1*
X424726Y2698469D2*
X438116D1*
X646454D2*
X829150D1*
X1035467D2*
X1330614D1*
X1452996D2*
X1523339D1*
X1869696D2*
X1892479D1*
X1946112D2*
X2036083D1*
X1284198Y2673600D2*
X1355516D1*
X1477899D2*
X1523339D1*
X1769355D2*
X2036083D1*
X2159198D2*
X2173242D1*
X1309051Y2648731D2*
X1380370D1*
X1769355D2*
X2056738D1*
X2166815D2*
X2256444D1*
X424726Y2623862D2*
X445604D1*
X1333954D2*
X1405223D1*
X1769355D2*
X1791991D1*
X424726Y2598994D2*
X438408D1*
X683612D2*
X840282D1*
X1035467D2*
X1178075D1*
X655243Y2574125D2*
X1153172D1*
X653436Y2549256D2*
X1126219D1*
X1281415D2*
X1300292D1*
X424726Y2524387D2*
X445116D1*
X639374D2*
X909764D1*
X1268427D2*
X1563719D1*
X424726Y2499519D2*
X456248D1*
X544256D2*
X884911D1*
X1247382D2*
X1563719D1*
X424726Y2474650D2*
X456395D1*
X565008D2*
X860058D1*
X1268378D2*
X1563719D1*
X424726Y2449781D2*
X467528D1*
X589911D2*
X835887D1*
X957538D2*
X1129198D1*
X1273895D2*
X1479003D1*
X424726Y2424912D2*
X492382D1*
X614764D2*
X827928D1*
X932684D2*
X1156248D1*
X1298748D2*
X1479003D1*
X424726Y2400044D2*
X517235D1*
X639618D2*
X827928D1*
X915936D2*
X930996D1*
X1012811D2*
X1178759D1*
X1323603D2*
X1479003D1*
X424726Y2375175D2*
X542138D1*
X664471D2*
X812694D1*
X1031122D2*
X1226122D1*
X1348504D2*
X1479003D1*
X424726Y2350306D2*
X566991D1*
X689374D2*
X808446D1*
X1035419D2*
X1250975D1*
X1373358D2*
X1479003D1*
X424726Y2325437D2*
X591844D1*
X714227D2*
X814794D1*
X1029071D2*
X1275828D1*
X1398211D2*
X1499559D1*
X1577607D2*
X1661376D1*
X424726Y2300568D2*
X616698D1*
X739080D2*
X837547D1*
X906268D2*
X937547D1*
X1006268D2*
X1300731D1*
X1423066D2*
X1499559D1*
X1577607D2*
X1661376D1*
X424726Y2275700D2*
X641600D1*
X763983D2*
X836523D1*
X1037958D2*
X1325584D1*
X1447967D2*
X1499608D1*
X1593915D2*
X1661376D1*
X424726Y2250831D2*
X666454D1*
X1296795D2*
X1350439D1*
X1472822D2*
X1510546D1*
X1618768D2*
X1661376D1*
X424726Y2225962D2*
X691307D1*
X1327508D2*
X1375292D1*
X1497675D2*
X1535399D1*
X1643622D2*
X1661376D1*
X424726Y2201093D2*
X716210D1*
X1352362D2*
X1400194D1*
X1522576D2*
X1560252D1*
X424726Y2176225D2*
X836571D1*
X1037958D2*
X1160692D1*
X1224383D2*
X1268992D1*
X1377215D2*
X1425047D1*
X424726Y2151356D2*
X1135790D1*
X1249238D2*
X1293847D1*
X1402118D2*
X1449902D1*
X424726Y2126487D2*
X1110058D1*
X1261932D2*
X1318748D1*
X1426971D2*
X1474803D1*
X424726Y2101618D2*
X885302D1*
X1251044D2*
X1343603D1*
X1451826D2*
X1501122D1*
X424726Y2076750D2*
X860448D1*
X1226142D2*
X1368456D1*
X424726Y2051881D2*
X836962D1*
X424726Y2027012D2*
X830419D1*
X933075D2*
X1106444D1*
X1641718D2*
X1661376D1*
X1769355D2*
X1791063D1*
X1937519D2*
X2017528D1*
X424726Y2002143D2*
X830419D1*
X918427D2*
X1135839D1*
X1769355D2*
X1791063D1*
X1949579D2*
X1992675D1*
X424726Y1977274D2*
X830419D1*
X918427D2*
X938818D1*
X1009979D2*
X1156054D1*
X1228974D2*
X1475731D1*
X1769355D2*
X1791063D1*
X1946747D2*
X1967967D1*
X424726Y1952406D2*
X816894D1*
X1293524D2*
X1475731D1*
X1923603D2*
X1957910D1*
X2174482D2*
X2256200D1*
X424726Y1927537D2*
X810887D1*
X1319744D2*
X1475731D1*
X2150654D2*
X2196727D1*
X1620478Y1852931D2*
X1648339D1*
X1918134D2*
X1940916D1*
X1620478Y1828062D2*
X1673192D1*
X1973260D2*
X2027538D1*
X1407244Y1803193D2*
X1515282D1*
X1618280D2*
X1698095D1*
X1990155D2*
X2078416D1*
X2169843D2*
X2256200D1*
X1407000Y1778324D2*
X1515282D1*
X1618280D2*
X1722948D1*
X2015008D2*
X2081835D1*
X2169843D2*
X2256200D1*
X1406756Y1753456D2*
X1515282D1*
X1618280D2*
X1736424D1*
X2213788D2*
X2256200D1*
X1406512Y1728587D2*
X1482470D1*
X1653339D2*
X1736424D1*
X1406318Y1703718D2*
X1467479D1*
X1668328D2*
X1736424D1*
X1406074Y1678849D2*
X1463036D1*
X1672772D2*
X1736424D1*
X1407635Y1206343D2*
X1463036D1*
X1826483D2*
X1842932D1*
X1407440Y1181474D2*
X1468016D1*
X1808466D2*
X1842919D1*
X1407294Y1156605D2*
X1483788D1*
X1652020D2*
X1827000D1*
X1407099Y1131736D2*
X1521239D1*
X1609247D2*
X1802294D1*
X1894256D2*
X2258055D1*
X1406903Y1106868D2*
X1521239D1*
X1609247D2*
X1789208D1*
X1897626D2*
X2257811D1*
X1406708Y1081999D2*
X1521239D1*
X1609247D2*
X1764355D1*
X1886248D2*
X2257567D1*
X1406562Y1057130D2*
X1521239D1*
X1609247D2*
X1739452D1*
X1844891D2*
X2257372D1*
X1406366Y1032261D2*
X1505614D1*
X1699628D2*
X1714599D1*
X1819990D2*
X2257128D1*
X1406171Y1007393D2*
X1505614D1*
X1795135D2*
X2256883D1*
X1405975Y982524D2*
X1505614D1*
X1770282D2*
X2256688D1*
X1405780Y957655D2*
X1505614D1*
X1742303D2*
X2256444D1*
X1405584Y932786D2*
X1505614D1*
X1699628D2*
X2256200D1*
X424726Y907918D2*
X720507D1*
X1380047D2*
X2274218D1*
X424726Y883049D2*
X3262694D1*
X424726Y858180D2*
X3262694D1*
X424726Y833311D2*
X3262694D1*
X424726Y808442D2*
X3262694D1*
X424726Y783574D2*
X3262694D1*
X424726Y758705D2*
X3262694D1*
X424726Y733836D2*
X3262694D1*
X424726Y708967D2*
X3262694D1*
X424726Y684099D2*
X3262694D1*
X424726Y659230D2*
X478416D1*
X612664D2*
X3074755D1*
X3208954D2*
X3262694D1*
X424726Y634361D2*
X447070D1*
X644012D2*
X3043407D1*
X3240302D2*
X3262694D1*
X662079Y609492D2*
X3025292D1*
X672822Y584624D2*
X3014599D1*
X677996Y559755D2*
X3009374D1*
X678339Y534886D2*
X3009032D1*
X673847Y510017D2*
X3013524D1*
X663983Y485149D2*
X3023387D1*
X424726Y460280D2*
X443969D1*
X647138D2*
X3040234D1*
X3243475D2*
X3262694D1*
X424726Y435411D2*
X472607D1*
X618475D2*
X3068895D1*
X3214814D2*
X3262694D1*
X2092490Y2892294D2*
X2080765Y2893214D1*
X2069351Y2895954D1*
X2058505Y2900446D1*
X2048496Y2906580D1*
X2039571Y2914204D1*
X2034092Y2920408D1*
X2023638Y2909961D1*
X2023652Y2804558D1*
X2038537Y2804597D1*
X2038579Y2841999D1*
X2156697D1*
Y2817731D1*
X2203822Y2817747D1*
X2203802Y2828351D1*
X2260003D1*
X2260656Y2936944D1*
X2216024Y2936899D1*
X2211369Y2928013D1*
X2204469Y2918517D1*
X2196168Y2910217D1*
X2186672Y2903316D1*
X2176213Y2897987D1*
X2165049Y2894360D1*
X2153454Y2892524D1*
X2122586Y2892293D1*
X2092467Y2892341D1*
X2048967Y2624373D2*
X2056764Y2630953D1*
X2066553Y2636963D1*
X2062253Y2642752D1*
X2059297Y2648554D1*
X2057285Y2654748D1*
X2056265Y2661180D1*
X2056138Y2664449D1*
X2038579Y2664826D1*
Y2702179D1*
X1951965Y2702227D1*
Y2704815D1*
X1947063Y2700752D1*
X1940742Y2696878D1*
X1933893Y2694041D1*
X1926683Y2692310D1*
X1919292Y2691729D1*
X1911900Y2692310D1*
X1904691Y2694041D1*
X1897841Y2696878D1*
X1892689Y2699971D1*
X1867192Y2699977D1*
X1867196Y2692910D1*
X1766855D1*
Y2595555D1*
X1770936Y2601118D1*
X1776179Y2606361D1*
X1778352Y2608075D1*
X1780057Y2612649D1*
X1782864Y2616851D1*
X1786575Y2620281D1*
X1790984Y2622751D1*
X1795849Y2624122D1*
X1811713Y2624387D1*
X2048872D1*
X2165209Y2644597D2*
X2173316Y2643173D1*
X2184481Y2639546D1*
X2194940Y2634217D1*
X2204436Y2627316D1*
X2207621Y2624373D1*
X2258832Y2624387D1*
X2259080Y2670152D1*
X2233541Y2670187D1*
X2224906Y2665536D1*
X2217855Y2663244D1*
X2210532Y2662084D1*
X2203117D1*
X2195794Y2663244D1*
X2188743Y2665536D1*
X2182137Y2668900D1*
X2176139Y2673259D1*
X2170897Y2678502D1*
X2166538Y2684499D1*
X2163173Y2691105D1*
X2160882Y2698156D1*
X2159722Y2705479D1*
Y2712894D1*
X2161020Y2720705D1*
X2156663Y2716345D1*
X2156697Y2664826D1*
X2155835Y2664748D1*
X2159663Y2659479D1*
X2162620Y2653677D1*
X2164634Y2647471D1*
X2041444Y1749366D2*
X2047576Y1756400D1*
X2056502Y1764024D1*
X2066511Y1770158D1*
X2077356Y1774650D1*
X2084337Y1776508D1*
X2084353Y1799774D1*
X2072927Y1811166D1*
X2030049Y1811151D1*
Y1848504D1*
X1943435Y1848553D1*
Y1853192D1*
X1915629Y1853238D1*
X1915621Y1846584D1*
X1906100D1*
X1906093Y1834192D1*
X1913721Y1839080D1*
X1920570Y1841918D1*
X1927780Y1843649D1*
X1935171Y1844230D1*
X1942562Y1843649D1*
X1949772Y1841918D1*
X1956621Y1839080D1*
X1962942Y1835206D1*
X1968580Y1830391D1*
X1973395Y1824753D1*
X1977269Y1818432D1*
X1980441Y1810397D1*
X2041407Y1749436D1*
X2167361Y1777377D2*
X2178708Y1774650D1*
X2189553Y1770158D1*
X2199562Y1764024D1*
X2208487Y1756400D1*
X2216110Y1747475D1*
X2222244Y1737466D1*
X2222715Y1736445D1*
X2258705Y1735969D1*
X2258684Y1825160D1*
X2248009Y1825193D1*
X2242103Y1823295D1*
X2235671Y1822276D1*
X2167034Y1822149D1*
X2167353Y1804429D1*
Y1777428D1*
X1468965Y1656008D2*
X1466456Y1666605D1*
X1465534Y1678307D1*
X1466456Y1690009D1*
X1469196Y1701424D1*
X1473688Y1712269D1*
X1479822Y1722278D1*
X1487445Y1731204D1*
X1496370Y1738827D1*
X1506379Y1744961D1*
X1517777Y1749609D1*
X1517798Y1808561D1*
X1515613Y1808526D1*
Y1826055D1*
X1404933Y1826086D1*
X1403335Y1656242D1*
X1468886Y1656015D1*
X1670036Y1672439D2*
X1668200Y1660844D1*
X1666836Y1656008D1*
X1738904Y1656015D1*
X1738946Y1764801D1*
X1629730Y1874229D1*
X1625902Y1879498D1*
X1622945Y1885299D1*
X1620933Y1891494D1*
X1620295Y1894702D1*
X1617983Y1889145D1*
Y1808526D1*
X1615786D1*
X1615798Y1750252D1*
X1624087Y1747420D1*
X1634546Y1742091D1*
X1644042Y1735191D1*
X1652343Y1726890D1*
X1659243Y1717394D1*
X1664572Y1706935D1*
X1668200Y1695771D1*
X1670036Y1684176D1*
Y1672439D1*
X1523710Y1135402D2*
X1517225Y1137162D1*
X1506379Y1141654D1*
X1496370Y1147788D1*
X1487445Y1155411D1*
X1479822Y1164336D1*
X1473688Y1174345D1*
X1469196Y1185191D1*
X1466456Y1196605D1*
X1465534Y1208307D1*
X1466456Y1220009D1*
X1467551Y1225523D1*
X1405259Y1224650D1*
X1403049Y932276D1*
X1402025Y927326D1*
X1399876Y922752D1*
X1396717Y918806D1*
X1392725Y915706D1*
X1388120Y913625D1*
X1384929Y912877D1*
X1380822Y909861D1*
X1376404Y907406D1*
X1371536Y906050D1*
X1355671Y905837D1*
X422229Y908906D1*
X422201Y588981D1*
X429046Y604920D1*
X434063Y613877D1*
X439767Y622412D1*
X446122Y630474D1*
X453089Y638013D1*
X460629Y644981D1*
X468691Y651336D1*
X477226Y657040D1*
X486183Y662057D1*
X495505Y666353D1*
X505137Y669907D1*
X515017Y672693D1*
X525086Y674696D1*
X535281Y675903D1*
X545538Y676306D1*
X555795Y675903D1*
X565991Y674696D1*
X576059Y672693D1*
X585940Y669907D1*
X595571Y666353D1*
X604894Y662057D1*
X613851Y657040D1*
X622386Y651336D1*
X630448Y644981D1*
X637987Y638013D1*
X644954Y630474D1*
X651310Y622412D1*
X657013Y613877D1*
X662030Y604920D1*
X666327Y595597D1*
X669881Y585966D1*
X672667Y576086D1*
X674670Y566017D1*
X675877Y555822D1*
X676280Y545565D1*
X675877Y535307D1*
X674670Y525112D1*
X672667Y515044D1*
X669881Y505163D1*
X666327Y495532D1*
X662030Y486209D1*
X657013Y477252D1*
X651310Y468717D1*
X644954Y460655D1*
X637987Y453116D1*
X630448Y446149D1*
X622386Y439793D1*
X613851Y434089D1*
X604894Y429072D1*
X595571Y424776D1*
X588610Y422208D1*
X3098520Y422201D1*
X3082495Y429059D1*
X3073538Y434076D1*
X3065003Y439780D1*
X3056941Y446135D1*
X3049402Y453103D1*
X3042435Y460642D1*
X3036079Y468704D1*
X3030376Y477239D1*
X3025358Y486196D1*
X3021062Y495519D1*
X3017508Y505150D1*
X3014722Y515030D1*
X3012719Y525099D1*
X3011512Y535294D1*
X3011109Y545551D1*
X3011512Y555809D1*
X3012719Y566004D1*
X3014722Y576072D1*
X3017508Y585953D1*
X3021062Y595584D1*
X3025358Y604907D1*
X3030376Y613864D1*
X3036079Y622399D1*
X3042435Y630461D1*
X3049402Y638000D1*
X3056941Y644967D1*
X3065003Y651323D1*
X3073538Y657026D1*
X3082495Y662044D1*
X3091818Y666340D1*
X3101449Y669894D1*
X3111330Y672680D1*
X3121398Y674683D1*
X3131593Y675890D1*
X3141851Y676293D1*
X3152108Y675890D1*
X3162303Y674683D1*
X3172372Y672680D1*
X3182252Y669894D1*
X3191883Y666340D1*
X3201206Y662044D1*
X3210163Y657026D1*
X3218698Y651323D1*
X3226760Y644967D1*
X3234299Y638000D1*
X3241267Y630461D1*
X3247622Y622399D1*
X3253326Y613864D1*
X3258343Y604907D1*
X3262639Y595584D1*
X3265208Y588624D1*
X3265201Y904868D1*
X3262104Y907629D1*
X2276820Y907899D1*
X2271956Y909271D1*
X2267546Y911740D1*
X2263835Y915171D1*
X2261028Y919373D1*
X2259278Y924114D1*
X2258685Y929331D1*
X2260588Y1136500D1*
X1886600Y1140868D1*
X1890393Y1134705D1*
X1893230Y1127856D1*
X1894961Y1120646D1*
X1895542Y1113255D1*
X1894961Y1105864D1*
X1893230Y1098654D1*
X1890393Y1091805D1*
X1886519Y1085483D1*
X1881704Y1079845D1*
X1876066Y1075030D1*
X1869744Y1071156D1*
X1862895Y1068319D1*
X1855685Y1066588D1*
X1851378Y1066128D1*
X1747990Y962900D1*
X1743483Y959626D1*
X1738520Y957097D1*
X1733222Y955376D1*
X1727719Y954504D1*
X1697151Y954395D1*
X1697117Y928868D1*
X1508133D1*
Y1050923D1*
X1523709D1*
X1523723Y1135355D1*
X1657624Y1166798D2*
X1652343Y1159725D1*
X1644042Y1151424D1*
X1634546Y1144524D1*
X1624087Y1139194D1*
X1612923Y1135567D1*
X1606729Y1134370D1*
X1606723Y1050894D1*
X1697117Y1050923D1*
Y1025385D1*
X1710193Y1025395D1*
X1801168Y1116334D1*
X1802352Y1124285D1*
X1804643Y1131336D1*
X1808008Y1137942D1*
X1812366Y1143940D1*
X1817609Y1149183D1*
X1823607Y1153541D1*
X1830213Y1156906D1*
X1837264Y1159197D1*
X1845528Y1160394D1*
X1845414Y1227780D1*
X1814101Y1196471D1*
X1811294Y1189466D1*
X1807893Y1183914D1*
X1803663Y1178962D1*
X1798711Y1174732D1*
X1793159Y1171331D1*
X1787142Y1168839D1*
X1780810Y1167318D1*
X1774318Y1166807D1*
X1657667D1*
X2211709Y1947248D2*
X2258731D1*
X2258684Y1955921D1*
X2178011Y1955882D1*
X2172763Y1952784D1*
X2165914Y1949946D1*
X2158704Y1948215D1*
X2151313Y1947634D1*
X2148171Y1947757D1*
X2148167Y1905170D1*
X2199160Y1905149D1*
X2199209Y1947248D1*
X2211709D1*
X918664Y3562603D2*
X1028219D1*
Y3543120D1*
X1168608Y3543075D1*
X1196015Y3570453D1*
X1109183Y3570469D1*
Y3607041D1*
X637474Y3607011D1*
X641630Y3601882D1*
X646633Y3593717D1*
X650298Y3584869D1*
X652533Y3575558D1*
X653285Y3566011D1*
X652533Y3556463D1*
X650298Y3547152D1*
X646633Y3538305D1*
X641630Y3530139D1*
X635411Y3522857D1*
X627210Y3516025D1*
X635411Y3509164D1*
X641630Y3501882D1*
X646633Y3493717D1*
X650298Y3484869D1*
X652533Y3475558D1*
X653285Y3466011D1*
X652533Y3456463D1*
X650298Y3447152D1*
X646633Y3438305D1*
X641630Y3430139D1*
X635411Y3422857D1*
X627210Y3416025D1*
X635411Y3409164D1*
X641630Y3401882D1*
X646633Y3393717D1*
X650298Y3384869D1*
X652533Y3375558D1*
X653285Y3366011D1*
X652533Y3356463D1*
X650298Y3347152D1*
X646633Y3338305D1*
X641630Y3330139D1*
X635411Y3322857D1*
X627210Y3316025D1*
X635411Y3309164D1*
X641630Y3301882D1*
X646633Y3293717D1*
X650298Y3284869D1*
X652533Y3275558D1*
X653285Y3266011D1*
X652533Y3256463D1*
X650298Y3247152D1*
X646633Y3238305D1*
X641630Y3230139D1*
X635411Y3222857D1*
X627210Y3216025D1*
X635411Y3209164D1*
X641630Y3201882D1*
X646633Y3193717D1*
X650298Y3184869D1*
X652533Y3175558D1*
X653285Y3166011D1*
X652533Y3156463D1*
X650298Y3147152D1*
X646633Y3138305D1*
X641630Y3130139D1*
X635411Y3122857D1*
X627210Y3116025D1*
X635411Y3109164D1*
X641630Y3101882D1*
X646633Y3093717D1*
X650298Y3084869D1*
X652533Y3075558D1*
X653285Y3066011D1*
X652533Y3056463D1*
X650298Y3047152D1*
X646633Y3038305D1*
X641630Y3030139D1*
X635411Y3022857D1*
X627210Y3016025D1*
X635411Y3009164D1*
X641630Y3001882D1*
X646633Y2993717D1*
X650298Y2984869D1*
X652533Y2975558D1*
X653285Y2966011D1*
X652533Y2956463D1*
X652121Y2954390D1*
X749685Y2954398D1*
X763952Y2968618D1*
X764084Y3237956D1*
X764956Y3243458D1*
X766677Y3248756D1*
X769206Y3253719D1*
X772481Y3258226D1*
X831722Y3317622D1*
X831692Y3451960D1*
X824038Y3458421D1*
X817819Y3465704D1*
X812816Y3473869D1*
X809151Y3482717D1*
X806916Y3492028D1*
X806164Y3501575D1*
X806916Y3511122D1*
X809151Y3520433D1*
X812816Y3529281D1*
X817819Y3537446D1*
X824038Y3544729D1*
X831320Y3550948D1*
X839486Y3555950D1*
X848334Y3559616D1*
X857645Y3561851D1*
X867192Y3562603D1*
X876739Y3561851D1*
X886050Y3559616D1*
X894898Y3555950D1*
X903063Y3550948D1*
X906164Y3548503D1*
Y3562603D1*
X918664D1*
X1028219Y3460112D2*
Y3440547D1*
X906164D1*
Y3454659D1*
X902705Y3451963D1*
X902692Y3311234D1*
X910962Y3313431D1*
X917454Y3313941D1*
X1096432Y3313814D1*
X1102864Y3312794D1*
X1106012Y3311906D1*
X1106460Y3312248D1*
X1095864Y3322981D1*
X1091750Y3329138D1*
X1089187Y3336086D1*
X1088316Y3343439D1*
X1089187Y3350792D1*
X1091750Y3357739D1*
X1095864Y3363897D1*
X1134792Y3402824D1*
X1140949Y3406939D1*
X1147897Y3409502D1*
X1155250Y3410372D1*
X1162603Y3409502D1*
X1169550Y3406939D1*
X1175708Y3402824D1*
X1204696Y3373973D1*
X1210340Y3381794D1*
X1216894Y3388348D1*
X1224391Y3393794D1*
X1232649Y3398002D1*
X1241462Y3400866D1*
X1250616Y3402315D1*
X1255593Y3402484D1*
X1326197Y3472895D1*
X1331466Y3476723D1*
X1337268Y3479680D1*
X1343462Y3481692D1*
X1349894Y3482711D1*
X1453150Y3482839D1*
X1481323D1*
X1489336Y3486274D1*
X1496546Y3488005D1*
X1501113Y3488475D1*
X1467431Y3522158D1*
X1446462Y3522162D1*
X1446461Y3501571D1*
X1324406D1*
Y3672517D1*
X1298183Y3672516D1*
X1298167Y3570469D1*
X1282591D1*
X1282449Y3553568D1*
X1281429Y3547137D1*
X1279418Y3540942D1*
X1276461Y3535141D1*
X1272633Y3529872D1*
X1215172Y3472230D1*
X1210221Y3468000D1*
X1204668Y3464599D1*
X1198651Y3462107D1*
X1192319Y3460586D1*
X1185827Y3460075D1*
X1028259D1*
X917177Y3166622D2*
X913597Y3161941D1*
X906826Y3155170D1*
X899079Y3149541D1*
X890546Y3145193D1*
X881439Y3142234D1*
X871981Y3140735D1*
X862403D1*
X852945Y3142234D1*
X843837Y3145193D1*
X834978Y3149759D1*
X834975Y3126334D1*
X843554Y3131672D1*
X852402Y3135337D1*
X861713Y3137572D1*
X871260Y3138324D1*
X880807Y3137572D1*
X890118Y3135337D1*
X898966Y3131672D1*
X907131Y3126670D1*
X910232Y3124225D1*
Y3138324D1*
X1032288D1*
Y3113764D1*
X1111251Y3113797D1*
X1098570Y3126089D1*
X1069601Y3155058D1*
X1006668Y3155075D1*
X999079Y3149541D1*
X990546Y3145193D1*
X981439Y3142234D1*
X971981Y3140735D1*
X962403D1*
X952945Y3142234D1*
X943837Y3145193D1*
X935305Y3149541D1*
X927558Y3155170D1*
X920786Y3161941D1*
X917206Y3166622D1*
X1032288Y3040815D2*
Y3016269D1*
X910232D1*
Y3030381D1*
X906773Y3027685D1*
X906651Y2892360D1*
X906320Y2889580D1*
X912626Y2894675D1*
X983415Y2965284D1*
X988684Y2969112D1*
X994486Y2972068D1*
X1000680Y2974080D1*
X1007112Y2975100D1*
X1110368Y2975227D1*
X1116373D1*
X1122767Y2980588D1*
X1130668Y2985431D1*
X1139230Y2988977D1*
X1141271Y2989553D1*
X1142945Y2994864D1*
X1146563Y3001324D1*
X1149781Y3005089D1*
X1185214Y3040523D1*
X1152887Y3040797D1*
X1032331D1*
X835747Y3027685D2*
X834962Y3028260D1*
X834866Y2951152D1*
X833995Y2945650D1*
X832273Y2940352D1*
X829744Y2935389D1*
X826470Y2930882D1*
X787491Y2891903D1*
X782984Y2888629D1*
X778021Y2886100D1*
X772723Y2884378D1*
X767221Y2883507D1*
X650715Y2883398D1*
X652533Y2875558D1*
X653285Y2866011D1*
X652533Y2856463D1*
X651967Y2853618D1*
X779562Y2853610D1*
X835726Y2909815D1*
X835760Y3027616D1*
X921246Y2742344D2*
X917666Y2737663D1*
X910894Y2730891D1*
X903147Y2725263D1*
X894614Y2720915D1*
X885507Y2717956D1*
X876049Y2716457D1*
X866471D1*
X857013Y2717956D1*
X847906Y2720915D1*
X839373Y2725263D1*
X831626Y2730891D1*
X824855Y2737663D1*
X819226Y2745410D1*
X814878Y2753942D1*
X811919Y2763050D1*
X810420Y2772508D1*
Y2782086D1*
X810982Y2786826D1*
X805196Y2784348D1*
X799780Y2783047D1*
X794226Y2782610D1*
X651013D1*
X652533Y2775558D1*
X653285Y2766011D1*
X652533Y2756463D1*
X650298Y2747152D1*
X646633Y2738305D1*
X641630Y2730139D1*
X635411Y2722857D1*
X627210Y2716025D1*
X635411Y2709164D1*
X641630Y2701882D1*
X646633Y2693717D1*
X650298Y2684869D1*
X652533Y2675558D1*
X653033Y2671337D1*
X661460Y2679620D1*
X665966Y2682894D1*
X670929Y2685423D1*
X676227Y2687145D1*
X681730Y2688016D1*
X822259Y2688125D1*
X828763Y2695778D1*
X836045Y2701998D1*
X844210Y2707000D1*
X853058Y2710666D1*
X862369Y2712900D1*
X871916Y2713652D1*
X881463Y2712900D1*
X890774Y2710666D1*
X899622Y2707000D1*
X907788Y2701998D1*
X910889Y2699553D1*
Y2713652D1*
X1032944D1*
Y2685088D1*
X1257982Y2684944D1*
X1263639Y2684049D1*
X1269087Y2682278D1*
X1274189Y2679679D1*
X1278823Y2676311D1*
X1344491Y2610802D1*
X1420852Y2610778D1*
X1207879Y2823719D1*
X1198242Y2824477D1*
X1189230Y2826641D1*
X1180668Y2830187D1*
X1172767Y2835029D1*
X1165719Y2841047D1*
X1159701Y2848095D1*
X1154858Y2855996D1*
X1151313Y2864558D1*
X1149057Y2874343D1*
X1139230Y2876641D1*
X1130668Y2880187D1*
X1122767Y2885029D1*
X1115719Y2891047D1*
X1114625Y2892231D1*
X1027509Y2892227D1*
X973595Y2838264D1*
X980807Y2837572D1*
X990118Y2835337D1*
X998966Y2831672D1*
X1007131Y2826670D1*
X1014414Y2820450D1*
X1020633Y2813168D1*
X1025635Y2805003D1*
X1029301Y2796155D1*
X1031536Y2786844D1*
X1032288Y2777297D1*
X1031536Y2767750D1*
X1029301Y2758439D1*
X1025635Y2749591D1*
X1020633Y2741425D1*
X1014414Y2734143D1*
X1007131Y2727924D1*
X998966Y2722921D1*
X990118Y2719256D1*
X980807Y2717021D1*
X971260Y2716269D1*
X961713Y2717021D1*
X952402Y2719256D1*
X943554Y2722921D1*
X935389Y2727924D1*
X928107Y2734143D1*
X921274Y2742344D1*
X1032944Y2612041D2*
Y2591597D1*
X910889D1*
Y2605709D1*
X903803Y2600591D1*
X895271Y2596243D1*
X886163Y2593284D1*
X876705Y2591785D1*
X867128D1*
X857670Y2593284D1*
X848562Y2596243D1*
X840029Y2600591D1*
X832282Y2606219D1*
X825511Y2612991D1*
X822305Y2617112D1*
X699211Y2617125D1*
X675418Y2593478D1*
X670911Y2590204D1*
X665948Y2587675D1*
X660650Y2585953D1*
X655147Y2585082D1*
X650298Y2584869D1*
X652533Y2575558D1*
X653285Y2566011D1*
X652533Y2556463D1*
X650298Y2547152D1*
X646633Y2538305D1*
X641630Y2530139D1*
X635411Y2522857D1*
X628129Y2516638D1*
X619963Y2511635D1*
X611116Y2507970D1*
X601805Y2505735D1*
X592257Y2504983D1*
X582710Y2505735D1*
X573399Y2507970D1*
X564551Y2511635D1*
X556386Y2516638D1*
X549104Y2522857D1*
X542272Y2531058D1*
X541763Y2508005D1*
Y2495358D1*
X769672Y2267496D1*
X829691Y2267484D1*
X834776Y2272390D1*
X842523Y2278019D1*
X851055Y2282366D1*
X860163Y2285326D1*
X869621Y2286824D1*
X879198D1*
X888656Y2285326D1*
X897764Y2282366D1*
X906297Y2278019D1*
X913382Y2272912D1*
Y2287012D1*
X1035437D1*
Y2252491D1*
X1286197Y2252398D1*
X1291855Y2251503D1*
X1297302Y2249732D1*
X1302404Y2247133D1*
X1307038Y2243765D1*
X1406370Y2144593D1*
X1451841Y2099121D1*
X1508278Y2099099D1*
X1501328Y2103171D1*
X1496377Y2107400D1*
X1212008Y2391400D1*
X1202769Y2392128D1*
X1193757Y2394292D1*
X1185196Y2397837D1*
X1177294Y2402680D1*
X1170247Y2408698D1*
X1164229Y2415746D1*
X1159386Y2423647D1*
X1155840Y2432209D1*
X1153584Y2441994D1*
X1143757Y2444292D1*
X1135196Y2447837D1*
X1127294Y2452680D1*
X1120013Y2458952D1*
X964205Y2458960D1*
X913450Y2408172D1*
X913416Y2397349D1*
X918322Y2392259D1*
X921902Y2387578D1*
X928763Y2395778D1*
X936045Y2401998D1*
X944210Y2407000D1*
X953058Y2410666D1*
X962369Y2412900D1*
X971916Y2413652D1*
X981463Y2412900D1*
X990774Y2410666D1*
X999622Y2407000D1*
X1007788Y2401998D1*
X1015070Y2395778D1*
X1021289Y2388496D1*
X1026292Y2380331D1*
X1029957Y2371483D1*
X1032192Y2362172D1*
X1032944Y2352625D1*
X1032192Y2343078D1*
X1029957Y2333767D1*
X1026292Y2324919D1*
X1021289Y2316753D1*
X1015070Y2309471D1*
X1007788Y2303252D1*
X999622Y2298250D1*
X990774Y2294584D1*
X981463Y2292349D1*
X971916Y2291597D1*
X962369Y2292349D1*
X953058Y2294584D1*
X944210Y2298250D1*
X936045Y2303252D1*
X928763Y2309471D1*
X921931Y2317672D1*
X915070Y2309471D1*
X907788Y2303252D1*
X899622Y2298250D1*
X890774Y2294584D1*
X881463Y2292349D1*
X871916Y2291597D1*
X862369Y2292349D1*
X853058Y2294584D1*
X844210Y2298250D1*
X836045Y2303252D1*
X828763Y2309471D1*
X822544Y2316753D1*
X817541Y2324919D1*
X813876Y2333767D1*
X811641Y2343078D1*
X810889Y2352625D1*
X811641Y2362172D1*
X813876Y2371483D1*
X817541Y2380331D1*
X822544Y2388496D1*
X828763Y2395778D1*
X830427Y2397315D1*
X830544Y2428584D1*
X831563Y2435016D1*
X833575Y2441210D1*
X836532Y2447012D1*
X840360Y2452281D1*
X913282Y2525383D1*
X920095Y2532016D1*
X925364Y2535844D1*
X931166Y2538801D1*
X937360Y2540813D1*
X943792Y2541832D1*
X1047047Y2541960D1*
X1120247Y2542221D1*
X1127294Y2548239D1*
X1135196Y2553082D1*
X1143757Y2556628D1*
X1145798Y2557204D1*
X1147473Y2562515D1*
X1151091Y2568975D1*
X1154309Y2572740D1*
X1191550Y2609845D1*
X1193500Y2611382D1*
X1192618Y2612057D1*
X1032902D1*
X1035437Y2179541D2*
Y2164957D1*
X913382D1*
Y2179068D1*
X906297Y2173950D1*
X897764Y2169603D1*
X888656Y2166643D1*
X879198Y2165145D1*
X869621D1*
X860163Y2166643D1*
X851055Y2169603D1*
X842523Y2173950D1*
X834776Y2179579D1*
X829719Y2184495D1*
X749238Y2184612D1*
X742806Y2185631D1*
X736612Y2187643D1*
X730810Y2190600D1*
X725541Y2194428D1*
X652439Y2267351D1*
X468706Y2451263D1*
X464878Y2456532D1*
X461921Y2462334D1*
X459910Y2468528D1*
X458890Y2474960D1*
X458763Y2514983D1*
X452624Y2519605D1*
X445852Y2526377D1*
X440223Y2534124D1*
X435876Y2542656D1*
X432916Y2551764D1*
X431418Y2561222D1*
Y2570799D1*
X432916Y2580257D1*
X435876Y2589365D1*
X440223Y2597898D1*
X445852Y2605645D1*
X452624Y2612416D1*
X457305Y2615996D1*
X449104Y2622857D1*
X442885Y2630139D1*
X437882Y2638305D1*
X434217Y2647152D1*
X431982Y2656463D1*
X431230Y2666011D1*
X431982Y2675558D1*
X434217Y2684869D1*
X437882Y2693717D1*
X442885Y2701882D1*
X449104Y2709164D1*
X457305Y2715996D1*
X449104Y2722857D1*
X442885Y2730139D1*
X437882Y2738305D1*
X434217Y2747152D1*
X431982Y2756463D1*
X431230Y2766011D1*
X431982Y2775558D1*
X434217Y2784869D1*
X437882Y2793717D1*
X442885Y2801882D1*
X449104Y2809164D1*
X457305Y2815996D1*
X449104Y2822857D1*
X442885Y2830139D1*
X437882Y2838305D1*
X434217Y2847152D1*
X431982Y2856463D1*
X431230Y2866011D1*
X431982Y2875558D1*
X434217Y2884869D1*
X437882Y2893717D1*
X442885Y2901882D1*
X449104Y2909164D1*
X457305Y2915996D1*
X449104Y2922857D1*
X442885Y2930139D1*
X437882Y2938305D1*
X434217Y2947152D1*
X431982Y2956463D1*
X431230Y2966011D1*
X431982Y2975558D1*
X434217Y2984869D1*
X437882Y2993717D1*
X442885Y3001882D1*
X449104Y3009164D1*
X457305Y3015996D1*
X449104Y3022857D1*
X442885Y3030139D1*
X437882Y3038305D1*
X434217Y3047152D1*
X431982Y3056463D1*
X431230Y3066011D1*
X431982Y3075558D1*
X434217Y3084869D1*
X437882Y3093717D1*
X442885Y3101882D1*
X449104Y3109164D1*
X457305Y3115996D1*
X449104Y3122857D1*
X442885Y3130139D1*
X437882Y3138305D1*
X434217Y3147152D1*
X431982Y3156463D1*
X431230Y3166011D1*
X431982Y3175558D1*
X434217Y3184869D1*
X437882Y3193717D1*
X442885Y3201882D1*
X449104Y3209164D1*
X457305Y3215996D1*
X449104Y3222857D1*
X442885Y3230139D1*
X437882Y3238305D1*
X434217Y3247152D1*
X431982Y3256463D1*
X431230Y3266011D1*
X431982Y3275558D1*
X434217Y3284869D1*
X437882Y3293717D1*
X442885Y3301882D1*
X449104Y3309164D1*
X457305Y3315996D1*
X449104Y3322857D1*
X442885Y3330139D1*
X437882Y3338305D1*
X434217Y3347152D1*
X431982Y3356463D1*
X431230Y3366011D1*
X431982Y3375558D1*
X434217Y3384869D1*
X437882Y3393717D1*
X442885Y3401882D1*
X449104Y3409164D1*
X457305Y3415996D1*
X449104Y3422857D1*
X442885Y3430139D1*
X437882Y3438305D1*
X434217Y3447152D1*
X431982Y3456463D1*
X431230Y3466011D1*
X431982Y3475558D1*
X434217Y3484869D1*
X437882Y3493717D1*
X442885Y3501882D1*
X449104Y3509164D1*
X457305Y3515996D1*
X449104Y3522857D1*
X442885Y3530139D1*
X437882Y3538305D1*
X434217Y3547152D1*
X431982Y3556463D1*
X431230Y3566011D1*
X431982Y3575558D1*
X434217Y3584869D1*
X437882Y3593717D1*
X442885Y3601882D1*
X449104Y3609164D1*
X455314Y3614537D1*
X448637Y3615145D1*
X440778Y3617032D1*
X433313Y3620124D1*
X426423Y3624347D1*
X422201Y3627701D1*
Y1922184D1*
X813692Y1919740D1*
X813570Y1930773D1*
X815068Y1940231D1*
X818028Y1949339D1*
X822376Y1957872D1*
X828004Y1965618D1*
X832920Y1970675D1*
X833037Y2032784D1*
X834057Y2039215D1*
X836068Y2045410D1*
X839025Y2051211D1*
X842853Y2056481D1*
X891128Y2104936D1*
X896079Y2109166D1*
X901631Y2112567D1*
X907649Y2115059D1*
X913981Y2116580D1*
X920473Y2117091D1*
X1100759Y2117352D1*
X1107806Y2123370D1*
X1115708Y2128213D1*
X1124269Y2131759D1*
X1126310Y2132335D1*
X1127984Y2137646D1*
X1131603Y2144107D1*
X1134820Y2147872D1*
X1166474Y2179525D1*
X1035433Y2179511D1*
X915899Y1970675D2*
X920815Y1965618D1*
X924395Y1960937D1*
X931256Y1969138D1*
X938538Y1975357D1*
X946704Y1980360D1*
X955551Y1984025D1*
X964862Y1986260D1*
X974410Y1987012D1*
X983957Y1986260D1*
X993268Y1984025D1*
X1002116Y1980360D1*
X1010281Y1975357D1*
X1017563Y1969138D1*
X1023782Y1961856D1*
X1025727Y1958945D1*
X1271891Y1958827D1*
X1278323Y1957807D1*
X1284517Y1955795D1*
X1290319Y1952839D1*
X1295588Y1949011D1*
X1328330Y1916450D1*
X1340537Y1916389D1*
X1346138Y1920756D1*
X1352649Y1923759D1*
X1359681Y1925156D1*
X1366845Y1924876D1*
X1373746Y1922929D1*
X1380002Y1919425D1*
X1385267Y1914559D1*
X1389141Y1913819D1*
X1393882Y1912070D1*
X1398247Y1909122D1*
X1478221Y1909086D1*
X1478211Y1984057D1*
X1234558Y1984091D1*
X1227234Y1977811D1*
X1219332Y1972969D1*
X1210771Y1969423D1*
X1201759Y1967259D1*
X1192520Y1966532D1*
X1183281Y1967259D1*
X1174269Y1969423D1*
X1165708Y1972969D1*
X1157806Y1977811D1*
X1150759Y1983830D1*
X1144740Y1990877D1*
X1139898Y1998778D1*
X1136352Y2007340D1*
X1134096Y2017125D1*
X1124269Y2019423D1*
X1115708Y2022969D1*
X1107806Y2027811D1*
X1100525Y2034083D1*
X937687Y2034091D1*
X915878Y2012306D1*
X915910Y1970691D1*
X1314126Y3338805D2*
X1312677Y3329651D1*
X1309813Y3320837D1*
X1305605Y3312580D1*
X1300159Y3305083D1*
X1293605Y3298529D1*
X1286108Y3293083D1*
X1277851Y3288876D1*
X1269037Y3286011D1*
X1263715Y3285015D1*
X1261418Y3275188D1*
X1257872Y3266626D1*
X1253029Y3258725D1*
X1247011Y3251677D1*
X1239963Y3245659D1*
X1232062Y3240816D1*
X1223500Y3237271D1*
X1214488Y3235107D1*
X1204906Y3234393D1*
X1182990Y3212670D1*
X1177721Y3208841D1*
X1171919Y3205885D1*
X1165725Y3203873D1*
X1159293Y3202853D1*
X1153449Y3202726D1*
X1159533Y3196649D1*
X1364803Y3196488D1*
X1372011Y3195347D1*
X1378950Y3193092D1*
X1385452Y3189780D1*
X1391355Y3185491D1*
X1437229Y3139819D1*
X1437366Y3251814D1*
X1438261Y3257471D1*
X1440032Y3262919D1*
X1442631Y3268021D1*
X1445999Y3272655D1*
X1475771Y3302427D1*
X1480404Y3305794D1*
X1485507Y3308394D1*
X1490954Y3310164D1*
X1496612Y3311059D1*
X1518079Y3311172D1*
X1520718Y3323688D1*
Y3397175D1*
X1514967Y3395397D1*
X1507645Y3394236D1*
X1500230D1*
X1492907Y3395397D1*
X1485856Y3397688D1*
X1481412Y3399843D1*
X1370294Y3399839D1*
X1314305Y3343803D1*
X1314126Y3338805D1*
X1238007Y2933351D2*
X1245836Y2927718D1*
X1252390Y2921164D1*
X1257836Y2913667D1*
X1262044Y2905410D1*
X1264908Y2896596D1*
X1266357Y2887442D1*
X1266526Y2882465D1*
X1489389Y2659591D1*
X1492198Y2660209D1*
X1499047Y2663046D1*
X1506257Y2664777D1*
X1513649Y2665358D1*
X1521040Y2664777D1*
X1525836Y2663726D1*
Y2941676D1*
X1519545Y2939574D1*
X1513887Y2938679D1*
X1455118Y2938566D1*
X1449408Y2939015D1*
X1443839Y2940352D1*
X1438547Y2942544D1*
X1433664Y2945537D1*
X1429309Y2949256D1*
X1337778Y3040786D1*
X1229755Y3040516D1*
X1266866Y3003267D1*
X1270981Y2997109D1*
X1273544Y2990162D1*
X1274414Y2982809D1*
X1273544Y2975456D1*
X1270981Y2968508D1*
X1266866Y2962351D1*
X1248120Y2943467D1*
X1242534Y2501002D2*
X1250364Y2495369D1*
X1256918Y2488815D1*
X1262364Y2481318D1*
X1266571Y2473061D1*
X1269436Y2464247D1*
X1270885Y2455093D1*
X1271054Y2450116D1*
X1542944Y2178214D1*
X1565223Y2178246D1*
X1573194Y2181681D1*
X1580448Y2183418D1*
X1510828Y2253198D1*
X1507461Y2257832D1*
X1504861Y2262935D1*
X1503091Y2268382D1*
X1502196Y2274040D1*
X1502083Y2331054D1*
X1481492Y2331099D1*
Y2453154D1*
X1566208D1*
X1566230Y2559628D1*
X1552970Y2546524D1*
X1548336Y2543156D1*
X1543234Y2540557D1*
X1537786Y2538786D1*
X1532129Y2537891D1*
X1391765Y2537778D1*
X1326533Y2537891D1*
X1320876Y2538786D1*
X1315428Y2540557D1*
X1310326Y2543156D1*
X1305692Y2546524D1*
X1240024Y2612033D1*
X1234282Y2608167D1*
X1271394Y2570918D1*
X1275508Y2564760D1*
X1278071Y2557813D1*
X1278941Y2550460D1*
X1278071Y2543107D1*
X1275508Y2536159D1*
X1271394Y2530002D1*
X1252647Y2511118D1*
X1223046Y2076133D2*
X1230876Y2070500D1*
X1234515Y2067099D1*
X1380655Y2067091D1*
X1268238Y2179488D1*
X1218538Y2179511D1*
X1251906Y2146049D1*
X1256020Y2139891D1*
X1258583Y2132944D1*
X1259453Y2125591D1*
X1258583Y2118238D1*
X1256020Y2111290D1*
X1251906Y2105133D1*
X1233159Y2086250D1*
X1751210Y3813521D2*
X1843446D1*
X1874753Y3844680D1*
X1880023Y3848508D1*
X1885824Y3851465D1*
X1892019Y3853477D1*
X1898450Y3854496D1*
X2001706Y3854624D1*
X2302862Y3854496D1*
X2309294Y3853477D1*
X2315488Y3851465D1*
X2321290Y3848508D1*
X2326559Y3844680D1*
X2369634Y3801786D1*
X2373864Y3796835D1*
X2377265Y3791282D1*
X2379757Y3785265D1*
X2381278Y3778933D1*
X2381789Y3772441D1*
Y3752080D1*
X3265181Y3753361D1*
X3265201Y4098324D1*
X3258356Y4082390D1*
X3253339Y4073433D1*
X3247635Y4064898D1*
X3241280Y4056836D1*
X3234313Y4049297D1*
X3226773Y4042330D1*
X3218711Y4035974D1*
X3210176Y4030271D1*
X3201219Y4025253D1*
X3191897Y4020957D1*
X3182265Y4017403D1*
X3172385Y4014617D1*
X3162316Y4012614D1*
X3152121Y4011407D1*
X3141864Y4011004D1*
X3131607Y4011407D1*
X3121411Y4012614D1*
X3111343Y4014617D1*
X3101462Y4017403D1*
X3091831Y4020957D1*
X3082508Y4025253D1*
X3073551Y4030271D1*
X3065016Y4035974D1*
X3056954Y4042330D1*
X3049415Y4049297D1*
X3042448Y4056836D1*
X3036092Y4064898D1*
X3030389Y4073433D1*
X3025372Y4082390D1*
X3021075Y4091713D1*
X3017521Y4101344D1*
X3014735Y4111225D1*
X3012732Y4121293D1*
X3011525Y4131488D1*
X3011122Y4141746D1*
X3011525Y4152003D1*
X3012732Y4162198D1*
X3014735Y4172267D1*
X3017521Y4182147D1*
X3021075Y4191778D1*
X3025372Y4201101D1*
X3030389Y4210058D1*
X3036092Y4218593D1*
X3042448Y4226655D1*
X3049415Y4234194D1*
X3056954Y4241162D1*
X3065016Y4247517D1*
X3073551Y4253221D1*
X3082508Y4258238D1*
X3091831Y4262534D1*
X3099092Y4265214D1*
X588688Y4265201D1*
X605012Y4258225D1*
X613969Y4253208D1*
X622504Y4247504D1*
X630566Y4241149D1*
X638105Y4234181D1*
X645072Y4226642D1*
X651428Y4218580D1*
X657131Y4210045D1*
X662149Y4201088D1*
X666445Y4191765D1*
X669999Y4182134D1*
X672785Y4172253D1*
X674788Y4162185D1*
X675995Y4151990D1*
X676398Y4141732D1*
X675995Y4131475D1*
X674788Y4121280D1*
X672785Y4111211D1*
X669999Y4101331D1*
X666445Y4091700D1*
X662149Y4082377D1*
X657131Y4073420D1*
X651428Y4064885D1*
X645072Y4056823D1*
X638105Y4049284D1*
X630566Y4042316D1*
X622504Y4035961D1*
X613969Y4030257D1*
X605012Y4025240D1*
X595689Y4020944D1*
X586058Y4017390D1*
X576177Y4014604D1*
X566109Y4012601D1*
X555914Y4011394D1*
X545656Y4010991D1*
X535399Y4011394D1*
X525204Y4012601D1*
X515135Y4014604D1*
X505255Y4017390D1*
X495624Y4020944D1*
X486301Y4025240D1*
X477344Y4030257D1*
X468809Y4035961D1*
X460747Y4042316D1*
X453208Y4049284D1*
X446240Y4056823D1*
X439885Y4064885D1*
X434181Y4073420D1*
X429164Y4082377D1*
X424868Y4091700D1*
X422188Y4098961D1*
X422201Y3913394D1*
X424259Y3919521D1*
X426013Y3930603D1*
X429481Y3941273D1*
X434575Y3951269D1*
X441170Y3960347D1*
X449103Y3968280D1*
X458180Y3974874D1*
X468176Y3979969D1*
X478847Y3983436D1*
X489928Y3985191D1*
X532579Y3985411D1*
X628736D1*
X679286Y4035603D1*
X688364Y4042197D1*
X698360Y4047292D1*
X709030Y4050759D1*
X720112Y4052513D1*
X763222Y4052734D1*
X1404823Y4052513D1*
X1415904Y4050759D1*
X1426575Y4047292D1*
X1436571Y4042197D1*
X1445649Y4035603D1*
X1476288Y4005276D1*
X1738725Y3742837D1*
X1738710Y3813521D1*
X1751210D1*
X1436565Y3690555D2*
X1446461D1*
Y3679960D1*
X1490788Y3679822D1*
X1497995Y3678680D1*
X1504935Y3676425D1*
X1511436Y3673113D1*
X1517339Y3668824D1*
X1573053Y3613313D1*
X1647565Y3538599D1*
X1651853Y3532696D1*
X1655166Y3526194D1*
X1657420Y3519255D1*
X1658562Y3512047D1*
X1658705Y3433399D1*
Y3247511D1*
X1663855Y3254232D1*
Y3615512D1*
X1369628Y3909702D1*
X1139008Y3909734D1*
X1147508Y3903624D1*
X1154280Y3896852D1*
X1159908Y3889105D1*
X1164256Y3880572D1*
X1167215Y3871465D1*
X1168714Y3862007D1*
Y3852429D1*
X1167215Y3842971D1*
X1164256Y3833864D1*
X1159908Y3825331D1*
X1154280Y3817584D1*
X1147508Y3810813D1*
X1139761Y3805184D1*
X1131229Y3800836D1*
X1122121Y3797877D1*
X1112663Y3796378D1*
X1103086D1*
X1093628Y3797877D1*
X1084520Y3800836D1*
X1075987Y3805184D1*
X1068240Y3810813D1*
X1061469Y3817584D1*
X1057889Y3822265D1*
X1051028Y3814065D1*
X1043746Y3807845D1*
X1035580Y3802843D1*
X1026732Y3799177D1*
X1017421Y3796942D1*
X1007874Y3796191D1*
X998327Y3796942D1*
X989016Y3799177D1*
X980168Y3802843D1*
X972003Y3807845D1*
X964721Y3814065D1*
X957889Y3822265D1*
X951028Y3814065D1*
X943746Y3807845D1*
X935580Y3802843D1*
X926732Y3799177D1*
X917421Y3796942D1*
X907874Y3796191D1*
X898327Y3796942D1*
X889016Y3799177D1*
X880168Y3802843D1*
X872003Y3807845D1*
X868902Y3810290D1*
Y3796191D1*
X746847D1*
Y3901219D1*
X704835Y3859542D1*
X695757Y3852948D1*
X685761Y3847853D1*
X675091Y3844386D1*
X664009Y3842631D1*
X620899Y3842411D1*
X587586Y3842322D1*
X578114Y3840340D1*
X568462Y3839655D1*
X558807Y3840280D1*
X549324Y3842204D1*
X537764Y3842411D1*
X531264Y3841061D1*
X520079Y3840180D1*
X508894Y3841061D1*
X502481Y3842411D1*
X496599Y3842139D1*
X481511Y3827051D1*
X504757Y3827511D1*
X597083Y3827322D1*
X606614Y3825811D1*
X615793Y3822830D1*
X624391Y3818448D1*
X632198Y3812776D1*
X639023Y3805952D1*
X644694Y3798145D1*
X649076Y3789546D1*
X652058Y3780368D1*
X653568Y3770836D1*
Y3761185D1*
X652058Y3751654D1*
X649076Y3742475D1*
X644694Y3733877D1*
X639009Y3726055D1*
X642257Y3725011D1*
X1118193Y3725146D1*
X1126692Y3726091D1*
X1128750Y3726126D1*
X1138696Y3734887D1*
X1167210Y3763177D1*
X1173748Y3767927D1*
X1180948Y3771596D1*
X1188634Y3774093D1*
X1196616Y3775357D1*
X1263156Y3775516D1*
X1373463Y3775357D1*
X1381445Y3774093D1*
X1389131Y3771596D1*
X1396331Y3767927D1*
X1402869Y3763177D1*
X1421456Y3744815D1*
X1426704Y3738670D1*
X1430927Y3731780D1*
X1434019Y3724314D1*
X1435906Y3716456D1*
X1436540Y3708399D1*
Y3690576D1*
X1766869Y2881894D2*
X1867196D1*
Y2866318D1*
X1939646Y2866303D1*
X1940652Y2869784D1*
X1940780Y2930421D1*
X1941802Y2936866D1*
X1871395Y2936899D1*
X1870352Y2930702D1*
X1868061Y2923651D1*
X1864696Y2917045D1*
X1860337Y2911047D1*
X1855095Y2905805D1*
X1849097Y2901446D1*
X1842491Y2898082D1*
X1835440Y2895790D1*
X1828117Y2894630D1*
X1820702D1*
X1816180Y2895232D1*
X1766841D1*
X1766855Y2881918D1*
X1806066Y2035568D2*
X1876330D1*
X1842684Y2035849D1*
X1795849Y2036114D1*
X1790984Y2037486D1*
X1786575Y2039956D1*
X1782864Y2043386D1*
X1780057Y2047588D1*
X1778307Y2052330D1*
X1777713Y2057349D1*
Y2533277D1*
X1773454Y2537024D1*
X1768639Y2542662D1*
X1766860Y2545324D1*
X1766855Y1971336D1*
X1778288Y1959899D1*
X1793566Y1960792D1*
Y2035568D1*
X1806066D1*
X1915621Y1950168D2*
Y1946261D1*
X1943442Y1946238D1*
X1943435Y1950923D1*
X1960378D1*
X1960848Y1956624D1*
X1962369Y1962956D1*
X1964861Y1968973D1*
X1968263Y1974525D1*
X1972492Y1979477D1*
X2028874Y2035858D1*
X1923885Y2035849D1*
X1931079Y2030810D1*
X1936322Y2025567D1*
X1940680Y2019570D1*
X1944045Y2012963D1*
X1946336Y2005912D1*
X1947496Y1998589D1*
Y1991175D1*
X1946336Y1983852D1*
X1944045Y1976801D1*
X1940680Y1970194D1*
X1936322Y1964197D1*
X1931079Y1958954D1*
X1925082Y1954596D1*
X1918475Y1951231D1*
X1915633Y1950183D1*
X1663885Y2331099D2*
X1575117D1*
X1575083Y2291979D1*
X1663864Y2203242D1*
X1663855Y2331104D1*
X1984150Y3770214D2*
X2089768D1*
Y3751708D1*
X2298776Y3752004D1*
X2293267Y3760774D1*
X2282390Y3771650D1*
X1918894Y3771624D1*
X1898700Y3751427D1*
X1971628Y3751544D1*
X1971650Y3770214D1*
X1984150D1*
X1644372Y2013259D2*
X1655385D1*
Y1999538D1*
X1660877Y1996173D1*
X1663445Y1994147D1*
X1663855Y2012500D1*
Y2045655D1*
X1652839Y2034844D1*
X1648205Y2031477D1*
X1643103Y2028877D1*
X1640403Y2027882D1*
X1640520Y2024616D1*
X1643012Y2018599D1*
X1643899Y2015450D1*
X1643103Y2028877D1*
X1640414Y2027885D1*
X3184635Y4265214D2*
X3191897Y4262534D1*
X3201219Y4258238D1*
X3210176Y4253221D1*
X3218711Y4247517D1*
X3226773Y4241162D1*
X3234313Y4234194D1*
X3241280Y4226655D1*
X3247635Y4218593D1*
X3253339Y4210058D1*
X3258356Y4201101D1*
X3262652Y4191778D1*
X3265193Y4184894D1*
X3265201Y4265218D1*
X3184878Y4265201D1*
X3265208Y502479D2*
X3262639Y495519D1*
X3258343Y486196D1*
X3253326Y477239D1*
X3247622Y468704D1*
X3241267Y460642D1*
X3234299Y453103D1*
X3226760Y446135D1*
X3218698Y439780D1*
X3210163Y434076D1*
X3201206Y429059D1*
X3191883Y424763D1*
X3184923Y422194D1*
X3265218Y422201D1*
X3265201Y502230D1*
X502466Y422208D2*
X495505Y424776D1*
X486183Y429072D1*
X477226Y434089D1*
X468691Y439793D1*
X460629Y446149D1*
X453089Y453116D1*
X446122Y460655D1*
X439767Y468717D1*
X434063Y477252D1*
X429046Y486209D1*
X424750Y495532D1*
X422209Y502416D1*
X422201Y422184D1*
X502230Y422201D1*
X422188Y4184504D2*
X424868Y4191765D1*
X429164Y4201088D1*
X434181Y4210045D1*
X439885Y4218580D1*
X446240Y4226642D1*
X453208Y4234181D1*
X460747Y4241149D1*
X468809Y4247504D1*
X477344Y4253208D1*
X486301Y4258225D1*
X495624Y4262521D1*
X502885Y4265201D1*
X422184D1*
X422201Y4184781D1*
X1767427Y2988194D2*
X1768809Y3496103D1*
X1767334Y3504692D1*
Y3512107D1*
X1768876Y3520782D1*
X1769141Y3617977D1*
X1766855Y3615092D1*
Y2988188D1*
X1663855Y2837303D2*
Y3125473D1*
X1659230Y3123983D1*
Y2453134D1*
X1663855Y2462500D1*
Y2837303D1*
D32*
X2998163Y3394370D3*
Y3197520D3*
Y3000670D3*
X3005525Y2530433D3*
Y2333583D3*
Y2136732D3*
X3006431Y1666549D3*
Y1469698D3*
Y1272848D3*
X688832Y1244252D3*
Y1441103D3*
Y1637953D3*
D33*
X2040026Y3202100D3*
X2120026Y2967100D3*
Y3437100D3*
X2600026D3*
Y2967100D3*
X2048294Y2335433D3*
X2128294Y2100433D3*
Y2570433D3*
X2608294D3*
Y2100433D3*
X2048032Y1468504D3*
X2128032Y1233504D3*
Y1703504D3*
X2608032D3*
Y1233504D3*
X1647900Y1443307D3*
X1567900Y1678307D3*
Y1208307D3*
X1087900D3*
Y1678307D3*
D34*
X2262599Y3638714D3*
X2337402D3*
X2260893Y2767323D3*
X2335696D3*
X2256299Y1886221D3*
X2331103D3*
X1565223Y989895D3*
X1640026D3*
D35*
X492257Y3766011D3*
D36*
Y3666011D3*
Y3566011D3*
Y3466011D3*
Y3366011D3*
Y3266011D3*
Y3166011D3*
Y3066011D3*
Y2966011D3*
Y2866011D3*
Y2766011D3*
Y2666011D3*
Y2566011D3*
X592257Y3766011D3*
Y3666011D3*
Y3566011D3*
Y3466011D3*
Y3366011D3*
Y3266011D3*
Y3166011D3*
Y3066011D3*
Y2966011D3*
Y2866011D3*
Y2766011D3*
Y2666011D3*
Y2566011D3*
D35*
X967192Y3501575D3*
D37*
X867192D3*
Y3201575D3*
X967192D3*
D35*
X971260Y3077297D3*
D37*
X871260D3*
Y2777297D3*
X971260D3*
D35*
X971916Y2652625D3*
D37*
X871916D3*
Y2352625D3*
X971916D3*
D35*
X974410Y2225984D3*
D37*
X874410D3*
Y1925984D3*
X974410D3*
D38*
X1255250Y3343439D3*
X1205250Y3293439D3*
D74*
X1155250Y3343439D3*
D38*
X1207481Y2882809D3*
X1157481Y2932809D3*
D77*
X1207481Y2982809D3*
D38*
X1212008Y2450460D3*
X1162008Y2500460D3*
D77*
X1212008Y2550460D3*
D38*
X1192520Y2025591D3*
X1142520Y2075591D3*
D77*
X1192520Y2125591D3*
D34*
X1166273Y3631496D3*
X1241076D3*
D39*
X1799738Y3681628D3*
Y3756431D3*
X1385433Y3633465D3*
Y3558662D3*
X1806168Y2824803D3*
Y2750000D3*
D34*
X1612730Y3186483D3*
X1537927D3*
D39*
X1854593Y1903675D3*
Y1978478D3*
D34*
X1613386Y2392126D3*
X1538583D3*
D39*
X1855250Y1735958D3*
Y1661155D3*
D41*
X2030709Y3644226D3*
X1944095Y3681628D3*
X2030709Y3719029D3*
X2097638Y2716011D3*
X2011024Y2753412D3*
X2097638Y2790814D3*
X2089108Y1862336D3*
X2002494Y1899738D3*
X2089108Y1937139D3*
D43*
X1604200Y1954200D3*
X1566798Y1867586D3*
X1529397Y1954200D3*
D35*
X807874Y3857218D3*
D36*
X907874D3*
X1007874D3*
X1107874D3*
M02*
