G04 DipTrace 2.4.0.2*
%INTop.gbr*%
%MOIN*%
%ADD10C,0.01*%
%ADD14C,0.008*%
%ADD15C,0.02*%
%ADD16C,0.04*%
%ADD17C,0.08*%
%ADD18C,0.035*%
%ADD19C,0.03*%
%ADD20C,0.06*%
%ADD21C,0.055*%
%ADD23C,0.0512*%
%ADD24C,0.015*%
%ADD25C,0.1*%
%ADD26C,0.0157*%
%ADD28C,0.025*%
%ADD30O,0.1181X0.0906*%
%ADD31O,0.1417X0.0866*%
%ADD32R,0.0512X0.0591*%
%ADD33R,0.0591X0.0591*%
%ADD34C,0.0591*%
%ADD35R,0.0591X0.0512*%
%ADD36C,0.0591*%
%ADD37R,0.0551X0.0394*%
%ADD38R,0.0394X0.0551*%
%ADD39C,0.0315*%
%FSLAX44Y44*%
G04*
G70*
G90*
G75*
G01*
%LNTop*%
%LPD*%
X8672Y35016D2*
D14*
Y33029D1*
X7995Y32352D1*
Y29539D1*
X7644Y29189D1*
X5451D1*
X4923Y28660D1*
X8713Y30773D2*
Y28951D1*
X7942Y28181D1*
X5444D1*
X4923Y27660D1*
X8719Y26526D2*
X6845D1*
X6524Y26205D1*
X5378D1*
X4923Y26660D1*
X8744Y22260D2*
D15*
X7525D1*
X5003Y24782D1*
Y25580D1*
X4923Y25660D1*
X20307Y36442D2*
Y35264D1*
X21200Y34371D1*
X22626Y36387D2*
X22324D1*
X22290Y36421D1*
X20286D1*
X20307Y36442D1*
X21200Y34371D2*
X18857D1*
X18144Y35084D1*
X15039Y34413D2*
X13531D1*
X12552Y33434D1*
X4923Y36660D2*
D16*
X4567D1*
X4291Y36936D1*
Y38475D1*
X4955Y39139D1*
D17*
X5201D1*
X5692D1*
X6136D1*
X6584D1*
X7257Y39812D1*
X8079D1*
X13992D1*
X17154Y36651D1*
D16*
Y36816D1*
X17997D1*
X6136Y39109D2*
D15*
Y39139D1*
X5682Y39112D2*
D17*
X5692Y39139D1*
X5201Y39117D2*
Y39139D1*
X18062Y28248D2*
D16*
X17154D1*
Y29417D1*
Y36651D1*
X18546Y19037D2*
X17617D1*
X17154Y19500D1*
Y28248D1*
X18552Y17360D2*
Y17886D1*
X18546Y17892D1*
Y19037D1*
X15668Y18676D2*
D18*
Y16794D1*
X15679Y16783D1*
X20025Y18997D2*
D19*
X18585D1*
X18546Y19037D1*
X17997Y36816D2*
D15*
X19441D1*
X18062Y28248D2*
X19396D1*
X20110Y27534D1*
X21200Y29671D2*
X20221D1*
X19822Y29272D1*
Y27823D1*
X20110Y27534D1*
X21283Y21004D2*
Y20460D1*
X21018Y20195D1*
X20712D1*
X20018Y19501D1*
Y19004D1*
X20025Y18997D1*
X21280Y12335D2*
X18923D1*
D10*
X18667Y12592D1*
Y15241D1*
X19420Y15995D1*
Y17071D1*
X19252Y17239D1*
X18673D1*
X18552Y17360D1*
X15668Y18676D2*
D15*
X13185D1*
X12686Y19175D1*
X9829D1*
X9744Y19260D1*
X6136Y39109D2*
X5685D1*
X5682Y39112D1*
X9672Y32016D2*
D19*
X10888D1*
X11403Y31501D1*
X13612D1*
X14769Y30344D1*
X18244Y29417D2*
X17154D1*
X8079Y38572D2*
D16*
Y39812D1*
X4923Y37660D2*
D20*
X5923D1*
X12411Y36315D2*
D15*
Y35568D1*
X11858Y35016D1*
X9672D1*
X22609Y27673D2*
Y27762D1*
X21579D1*
X20976Y27160D1*
Y26644D1*
X21243Y26378D1*
Y25744D1*
X21283Y25704D1*
X18069D1*
X15136Y26181D2*
X14722D1*
X12075Y28828D1*
X8672Y32016D2*
Y32222D1*
X9175Y32724D1*
X10932D1*
X11214Y32442D1*
X11560D1*
X12052Y32934D1*
X5923Y36660D2*
D21*
X11257D1*
D23*
X11287Y36690D1*
X11663Y36315D1*
D16*
Y36896D1*
X12007Y37240D1*
X13694D1*
X13850Y37084D1*
Y36339D1*
X13854Y36335D1*
D19*
X14871D1*
X16122Y35084D1*
Y31870D1*
X16127Y31865D1*
Y23928D1*
X16134Y23921D1*
X20891Y18623D2*
D15*
X20804D1*
X21259Y18169D1*
Y17057D1*
X21280Y17035D1*
X22563Y18862D2*
X22550D1*
X22324Y18636D1*
X20904D1*
X20891Y18623D1*
X21280Y17035D2*
Y17058D1*
X20264D1*
X19352Y17970D1*
X15878Y21367D2*
X15257D1*
X12120Y24505D1*
X15652Y9899D2*
Y12056D1*
X15679Y12083D1*
X17743D1*
D10*
X18383Y12723D1*
Y15387D1*
X17804Y15966D1*
D15*
Y17820D1*
X16613Y19012D1*
Y19378D1*
X16365Y19626D1*
X16126D1*
X16042Y19542D1*
X11925Y20256D2*
X15837D1*
X16035Y20058D1*
Y19549D1*
X16042Y19542D1*
X23357Y27673D2*
D24*
Y27247D1*
X23202Y27092D1*
X22068D1*
X19193Y27390D2*
X18172D1*
X18062Y27500D1*
X13854Y35587D2*
D10*
X14825D1*
X15572Y34840D1*
Y32987D1*
X15332Y32747D1*
X14995D1*
X14738Y32490D1*
Y31160D1*
X15306Y30592D1*
Y29946D1*
X15110Y29751D1*
X14551D1*
X13529Y30773D1*
X9713D1*
X30055Y23336D2*
D25*
X20501D1*
D26*
X20483Y23354D1*
X17997Y37564D2*
D15*
X18450D1*
X19017Y38131D1*
X22996D1*
X23403Y37724D1*
Y36358D1*
X23374Y36387D1*
X29982Y31975D2*
D25*
X20446D1*
D26*
X20400Y32021D1*
X26083Y25704D2*
Y25734D1*
D25*
X29626D1*
X30055Y25304D1*
X26083Y21004D2*
D26*
Y21151D1*
D25*
X29839D1*
X30055Y21367D1*
X26000Y34371D2*
X29982D1*
Y33944D1*
X8713Y27773D2*
D15*
Y27946D1*
X10104Y29337D1*
X11566D1*
X11575Y29328D1*
X23311Y18862D2*
D24*
Y19845D1*
X23207Y19949D1*
X21513D1*
X19004D2*
X18760D1*
X18571Y19760D1*
X18546Y19785D1*
X15379Y31865D2*
D10*
Y31075D1*
X15623Y30831D1*
Y26073D1*
X15293Y25743D1*
X13294D1*
X12551Y26486D1*
X9760D1*
X9719Y26526D1*
X26000Y29671D2*
D26*
Y29741D1*
D25*
X29982D1*
Y30007D1*
X30064Y14697D2*
X20492D1*
D26*
X20480Y14685D1*
X26080Y17035D2*
Y17270D1*
D25*
X29459D1*
X30064Y16665D1*
X26080Y12335D2*
D26*
Y12213D1*
D25*
X29548D1*
X30064Y12728D1*
X8719Y23526D2*
D15*
Y24253D1*
X9470Y25005D1*
X11620D1*
X16400Y9899D2*
D14*
X17249D1*
X18483Y11133D1*
X18621Y15806D2*
Y16543D1*
X18552Y16612D1*
X15386Y23921D2*
D10*
Y22769D1*
X16455Y21699D1*
Y20790D1*
X16291Y20626D1*
X14367D1*
X12833Y22160D1*
X9844D1*
X9744Y22260D1*
X6888Y14411D2*
D25*
X16457D1*
D26*
X16479Y14433D1*
X10879Y12083D2*
Y11958D1*
D25*
X7373D1*
X6888Y12443D1*
X10879Y16783D2*
D26*
Y16972D1*
D25*
X7481D1*
X6888Y16380D1*
X8744Y19260D2*
D15*
Y20295D1*
X9205Y20756D1*
X11425D1*
D39*
X18144Y35084D3*
X15039Y34413D3*
X6136Y39109D3*
D3*
X14769Y30344D3*
X18244Y29417D3*
X18069Y25704D3*
X15136Y26181D3*
X19352Y17970D3*
X15878Y21367D3*
X22068Y27092D3*
X19193Y27390D3*
X21513Y19949D3*
X19004D3*
X18483Y11133D3*
X18621Y15806D3*
X5682Y39112D3*
X5201Y39117D3*
X4247Y42403D2*
D28*
X4574D1*
X6339D2*
X30535D1*
X32304D2*
X32629D1*
X4247Y42155D2*
X4351D1*
X6561D2*
X30312D1*
X32522D2*
X32630D1*
X6694Y41906D2*
X30179D1*
X6768Y41657D2*
X30109D1*
X6788Y41409D2*
X30086D1*
X6765Y41160D2*
X30113D1*
X6686Y40911D2*
X30187D1*
X4247Y40663D2*
X4363D1*
X6550D2*
X30328D1*
X32511D2*
X32627D1*
X4247Y40414D2*
X4593D1*
X6319D2*
X6847D1*
X14405D2*
X30554D1*
X32280D2*
X32629D1*
X4247Y40165D2*
X5054D1*
X5858D2*
X6574D1*
X14675D2*
X31019D1*
X31819D2*
X32629D1*
X4247Y39916D2*
X6324D1*
X14925D2*
X32629D1*
X4247Y39668D2*
X4449D1*
X15171D2*
X32629D1*
X15421Y39419D2*
X32629D1*
X15671Y39170D2*
X32629D1*
X11604Y38922D2*
X13847D1*
X15917D2*
X32629D1*
X7155Y38673D2*
X7445D1*
X11706D2*
X14097D1*
X16167D2*
X32629D1*
X6620Y38424D2*
X7445D1*
X11694D2*
X14343D1*
X16417D2*
X18699D1*
X23315D2*
X32629D1*
X6284Y38176D2*
X7445D1*
X11569D2*
X14593D1*
X16663D2*
X18449D1*
X23561D2*
X32629D1*
X6503Y37927D2*
X14843D1*
X16913D2*
X17363D1*
X23788D2*
X32629D1*
X6561Y37678D2*
X11711D1*
X13991D2*
X15090D1*
X17163D2*
X17363D1*
X19175D2*
X19691D1*
X20921D2*
X22836D1*
X23843D2*
X32629D1*
X6518Y37430D2*
X11441D1*
X14257D2*
X15340D1*
X14382Y37181D2*
X15586D1*
X14390Y36932D2*
X15836D1*
X13007Y36684D2*
X13218D1*
X15202D2*
X16086D1*
X13007Y36435D2*
X13218D1*
X15452D2*
X16332D1*
X4247Y36186D2*
X4340D1*
X13007D2*
X13218D1*
X15702D2*
X16582D1*
X4247Y35937D2*
X4355D1*
X6491D2*
X11066D1*
X13007D2*
X13218D1*
X15952D2*
X16613D1*
X6558Y35689D2*
X11918D1*
X12851D2*
X13218D1*
X16198D2*
X16613D1*
X4247Y35440D2*
X4328D1*
X6518D2*
X8207D1*
X10308D2*
X11672D1*
X12831D2*
X13218D1*
X16448D2*
X16613D1*
X4247Y35191D2*
X4508D1*
X6339D2*
X8062D1*
X12647D2*
X13218D1*
X14491D2*
X14679D1*
X4247Y34943D2*
X4355D1*
X6487D2*
X8043D1*
X12397D2*
X14929D1*
X6558Y34694D2*
X8129D1*
X12143D2*
X13199D1*
X4247Y34445D2*
X4328D1*
X6518D2*
X8293D1*
X10308D2*
X12953D1*
X4247Y34197D2*
X4500D1*
X6343D2*
X8293D1*
X9054D2*
X12703D1*
X4247Y33948D2*
X4359D1*
X6487D2*
X8293D1*
X9054D2*
X11242D1*
X11862D2*
X12238D1*
X13679D2*
X14933D1*
X6558Y33699D2*
X8293D1*
X9054D2*
X10992D1*
X13429D2*
X15183D1*
X4247Y33451D2*
X4324D1*
X6522D2*
X8293D1*
X9054D2*
X10859D1*
X13179D2*
X15183D1*
X4247Y33202D2*
X4496D1*
X6351D2*
X8293D1*
X9054D2*
X10961D1*
X13120D2*
X15183D1*
X4247Y32953D2*
X4363D1*
X6483D2*
X8070D1*
X12921D2*
X14660D1*
X6558Y32705D2*
X7820D1*
X12620D2*
X14418D1*
X4247Y32456D2*
X4324D1*
X6522D2*
X7629D1*
X12425D2*
X14347D1*
X4247Y32207D2*
X4488D1*
X6354D2*
X7613D1*
X11936D2*
X14347D1*
X4247Y31958D2*
X4367D1*
X6479D2*
X7613D1*
X13722D2*
X14347D1*
X6558Y31710D2*
X7613D1*
X14085D2*
X14347D1*
X6522Y31461D2*
X7613D1*
X8952D2*
X9394D1*
X9952D2*
X10761D1*
X4247Y31212D2*
X4484D1*
X6362D2*
X7613D1*
X10347D2*
X11008D1*
X4247Y30964D2*
X4367D1*
X6476D2*
X7613D1*
X6554Y30715D2*
X7613D1*
X6526Y30466D2*
X7613D1*
X4247Y30218D2*
X4476D1*
X6366D2*
X7613D1*
X10347D2*
X11640D1*
X12511D2*
X13543D1*
X4247Y29969D2*
X4371D1*
X6476D2*
X7613D1*
X9093D2*
X11414D1*
X12737D2*
X13793D1*
X6554Y29720D2*
X7613D1*
X9093D2*
X9918D1*
X12749D2*
X14039D1*
X9093Y29472D2*
X9625D1*
X12542D2*
X14293D1*
X4247Y29223D2*
X4472D1*
X8206D2*
X8332D1*
X9093D2*
X9379D1*
X12538D2*
X15234D1*
X18698D2*
X19383D1*
X22101D2*
X22582D1*
X4247Y28974D2*
X4375D1*
X7956D2*
X8207D1*
X12671D2*
X15234D1*
X18433D2*
X19383D1*
X20261D2*
X20629D1*
X21772D2*
X22578D1*
X6554Y28726D2*
X7961D1*
X10104D2*
X11468D1*
X12788D2*
X15234D1*
X18698D2*
X19383D1*
X20261D2*
X22578D1*
X9854Y28477D2*
X11574D1*
X13038D2*
X15234D1*
X20261D2*
X22578D1*
X4247Y28228D2*
X4468D1*
X10143D2*
X12062D1*
X13288D2*
X15234D1*
X20261D2*
X20362D1*
X21593D2*
X22011D1*
X4247Y27979D2*
X4379D1*
X10311D2*
X12312D1*
X13534D2*
X15234D1*
X6554Y27731D2*
X8078D1*
X10347D2*
X12562D1*
X13784D2*
X15234D1*
X6530Y27482D2*
X8152D1*
X10272D2*
X12808D1*
X14034D2*
X15234D1*
X4247Y27233D2*
X4461D1*
X6382D2*
X8402D1*
X9022D2*
X9402D1*
X10022D2*
X13058D1*
X14280D2*
X15234D1*
X4247Y26985D2*
X4383D1*
X6464D2*
X8293D1*
X10354D2*
X13308D1*
X14530D2*
X15234D1*
X18698D2*
X18926D1*
X19460D2*
X20359D1*
X12843Y26736D2*
X13554D1*
X14780D2*
X15234D1*
X17694D2*
X20359D1*
X21593D2*
X21734D1*
X13089Y26487D2*
X13804D1*
X17694D2*
X20566D1*
X21667D2*
X22566D1*
X4247Y26239D2*
X4457D1*
X13339D2*
X14054D1*
X17694D2*
X17922D1*
X4247Y25990D2*
X4383D1*
X6835D2*
X8402D1*
X10354D2*
X11781D1*
X6554Y25741D2*
X11531D1*
X6534Y25493D2*
X11261D1*
X12815D2*
X13004D1*
X4247Y25244D2*
X4453D1*
X6393D2*
X9097D1*
X12683D2*
X15636D1*
X4247Y24995D2*
X4562D1*
X5444D2*
X8847D1*
X12476D2*
X15636D1*
X4247Y24746D2*
X4566D1*
X5651D2*
X8601D1*
X12683D2*
X15636D1*
X4247Y24498D2*
X4676D1*
X5897D2*
X8359D1*
X9577D2*
X11293D1*
X12737D2*
X14789D1*
X4247Y24249D2*
X4926D1*
X6147D2*
X8281D1*
X9327D2*
X11562D1*
X12987D2*
X14789D1*
X4247Y24000D2*
X5172D1*
X6397D2*
X8281D1*
X9159D2*
X9312D1*
X10128D2*
X11789D1*
X13237D2*
X14789D1*
X4247Y23752D2*
X5422D1*
X6643D2*
X8129D1*
X10311D2*
X12261D1*
X13483D2*
X14789D1*
X4247Y23503D2*
X5672D1*
X6893D2*
X8086D1*
X10354D2*
X12511D1*
X13733D2*
X14789D1*
X4247Y23254D2*
X5918D1*
X7143D2*
X8148D1*
X10292D2*
X12758D1*
X13983D2*
X14996D1*
X15776D2*
X16613D1*
X4247Y23006D2*
X6168D1*
X7390D2*
X8375D1*
X9061D2*
X9375D1*
X10061D2*
X13008D1*
X14229D2*
X14996D1*
X15776D2*
X16613D1*
X4247Y22757D2*
X6418D1*
X7640D2*
X8367D1*
X10378D2*
X13258D1*
X14479D2*
X14996D1*
X15940D2*
X16613D1*
X4247Y22508D2*
X6664D1*
X12968D2*
X13504D1*
X14729D2*
X15105D1*
X16186D2*
X16613D1*
X4247Y22260D2*
X6914D1*
X13276D2*
X13754D1*
X14976D2*
X15355D1*
X16436D2*
X16613D1*
X4247Y22011D2*
X7164D1*
X13522D2*
X14004D1*
X15226D2*
X15601D1*
X4247Y21762D2*
X8367D1*
X10378D2*
X11605D1*
X12245D2*
X12691D1*
X13772D2*
X14250D1*
X4247Y21514D2*
X11359D1*
X12491D2*
X12937D1*
X14022D2*
X14500D1*
X4247Y21265D2*
X11101D1*
X12620D2*
X13187D1*
X14268D2*
X14750D1*
X4247Y21016D2*
X8855D1*
X12511D2*
X13437D1*
X14518D2*
X15011D1*
X4247Y20767D2*
X8605D1*
X12261D2*
X13683D1*
X4247Y20519D2*
X8371D1*
X4247Y20270D2*
X8304D1*
X9331D2*
X11066D1*
X16417D2*
X16613D1*
X17694D2*
X17910D1*
X19374D2*
X20176D1*
X4247Y20021D2*
X8304D1*
X9183D2*
X11359D1*
X17694D2*
X17910D1*
X19495D2*
X19926D1*
X4247Y19773D2*
X8304D1*
X9183D2*
X9390D1*
X10101D2*
X11562D1*
X12288D2*
X14758D1*
X17694D2*
X17910D1*
X19468D2*
X19679D1*
X4247Y19524D2*
X8168D1*
X12936D2*
X14758D1*
X19237D2*
X19578D1*
X21745D2*
X22562D1*
X4247Y19275D2*
X8109D1*
X13198D2*
X14758D1*
X21507D2*
X21968D1*
X16206Y18529D2*
X16484D1*
X19183D2*
X19410D1*
X16206Y18281D2*
X16734D1*
X19733D2*
X20277D1*
X14073Y18032D2*
X15152D1*
X16183D2*
X16980D1*
X19901D2*
X20785D1*
X21698D2*
X22562D1*
X14069Y17783D2*
X15152D1*
X16183D2*
X17230D1*
X20151D2*
X20820D1*
X21698D2*
X22562D1*
X14069Y17535D2*
X15152D1*
X16183D2*
X17363D1*
X22136D2*
X22562D1*
X14065Y17286D2*
X14824D1*
X16534D2*
X17363D1*
X14061Y17037D2*
X14676D1*
X16683D2*
X17363D1*
X14061Y16788D2*
X14629D1*
X16729D2*
X17363D1*
X14077Y12063D2*
X14633D1*
X18265D2*
X18429D1*
X14073Y11815D2*
X14679D1*
X18085D2*
X18429D1*
X14073Y11566D2*
X14840D1*
X16518D2*
X18269D1*
X14069Y11317D2*
X15211D1*
X16093D2*
X18023D1*
X18944D2*
X22582D1*
X14069Y11069D2*
X15211D1*
X16093D2*
X17890D1*
X18976D2*
X22578D1*
X14065Y10820D2*
X15211D1*
X16093D2*
X17644D1*
X18862D2*
X22578D1*
X14065Y10571D2*
X15211D1*
X16093D2*
X17394D1*
X18448D2*
X22574D1*
X14065Y10323D2*
X15058D1*
X16995D2*
X17144D1*
X18198D2*
X22570D1*
X14061Y10074D2*
X15058D1*
X17952D2*
X22570D1*
X14061Y9825D2*
X15058D1*
X17702D2*
X22566D1*
X14058Y9577D2*
X15058D1*
X17421D2*
X22566D1*
X14058Y9328D2*
X15058D1*
X16995D2*
X22562D1*
X4247Y9079D2*
X7246D1*
X13800D2*
X22742D1*
X4247Y8830D2*
X32629D1*
X4247Y8582D2*
X32629D1*
X4247Y8333D2*
X32629D1*
X4247Y8084D2*
X32629D1*
X4247Y7836D2*
X32629D1*
X4247Y7587D2*
X32629D1*
X4247Y7338D2*
X32629D1*
X4247Y7090D2*
X32629D1*
X4247Y6841D2*
X32629D1*
X4247Y6592D2*
X4785D1*
X6128D2*
X30750D1*
X32089D2*
X32629D1*
X4247Y6344D2*
X4472D1*
X6440D2*
X30433D1*
X32401D2*
X32629D1*
X6620Y6095D2*
X30254D1*
X6729Y5846D2*
X30144D1*
X6780Y5598D2*
X30093D1*
X6784Y5349D2*
X30090D1*
X6737Y5100D2*
X30136D1*
X6640Y4851D2*
X30234D1*
X4247Y4603D2*
X4441D1*
X6472D2*
X30402D1*
X32433D2*
X32629D1*
X4247Y4354D2*
X4726D1*
X6183D2*
X30691D1*
X32147D2*
X32629D1*
X32653Y40992D2*
X32579Y40816D1*
X32444Y40606D1*
X32271Y40426D1*
X32067Y40282D1*
X31840Y40180D1*
X31597Y40122D1*
X31347Y40112D1*
X31101Y40149D1*
X30865Y40233D1*
X30650Y40360D1*
X30463Y40525D1*
X30311Y40723D1*
X30199Y40946D1*
X30132Y41186D1*
X30111Y41435D1*
X30139Y41683D1*
X30212Y41922D1*
X30330Y42142D1*
X30488Y42335D1*
X30679Y42496D1*
X30897Y42617D1*
X30989Y42651D1*
X5882Y42652D1*
X6026Y42594D1*
X6239Y42465D1*
X6424Y42297D1*
X6573Y42097D1*
X6682Y41872D1*
X6746Y41631D1*
X6764Y41417D1*
X6740Y41169D1*
X6670Y40929D1*
X6555Y40708D1*
X6400Y40512D1*
X6211Y40349D1*
X5994Y40225D1*
X5758Y40145D1*
X5510Y40111D1*
X5261Y40125D1*
X5019Y40185D1*
X4793Y40291D1*
X4591Y40438D1*
X4420Y40620D1*
X4288Y40832D1*
X4221Y40994D1*
X4222Y39132D1*
X4284Y39386D1*
X4337Y39499D1*
X4409Y39601D1*
X4498Y39689D1*
X4601Y39760D1*
X4714Y39812D1*
X4835Y39844D1*
X5080Y39854D1*
X6289D1*
X6752Y40318D1*
X6847Y40398D1*
X6955Y40461D1*
X7073Y40503D1*
X7257Y40527D1*
X13992D1*
X14116Y40516D1*
X14237Y40484D1*
X14350Y40431D1*
X14498Y40318D1*
X17390Y37426D1*
X17387Y38135D1*
X18438D1*
X18724Y38425D1*
X18824Y38499D1*
X18963Y38543D1*
X19517Y38546D1*
X22996D1*
X23119Y38528D1*
X23249Y38460D1*
X23696Y38018D1*
X23770Y37918D1*
X23814Y37778D1*
X23818Y37517D1*
X24534Y37522D1*
X32655Y37534D1*
X32652Y38347D1*
Y40984D1*
X31847Y42652D2*
X31988Y42594D1*
X32201Y42465D1*
X32386Y42297D1*
X32536Y42097D1*
X32644Y41872D1*
X32653Y41846D1*
X32652Y42652D1*
X31851D1*
X32653Y5030D2*
X32579Y4854D1*
X32444Y4644D1*
X32271Y4464D1*
X32067Y4320D1*
X31850Y4222D1*
X32652D1*
Y5023D1*
X30985Y4222D2*
X30865Y4271D1*
X30650Y4398D1*
X30463Y4563D1*
X30311Y4761D1*
X30199Y4984D1*
X30132Y5224D1*
X30111Y5473D1*
X30138Y5721D1*
X30212Y5960D1*
X30330Y6180D1*
X30488Y6373D1*
X30679Y6534D1*
X30897Y6655D1*
X31135Y6732D1*
X31382Y6762D1*
X31632Y6745D1*
X31873Y6681D1*
X32097Y6573D1*
X32297Y6423D1*
X32465Y6239D1*
X32595Y6025D1*
X32652Y5884D1*
Y9046D1*
X32587Y9076D1*
X22802D1*
X22684Y9112D1*
X22604Y9210D1*
X22587Y9293D1*
X22606Y11367D1*
X21445Y11379D1*
X18864Y11409D1*
X18906Y11344D1*
X18946Y11226D1*
X18955Y11133D1*
X18939Y11009D1*
X18891Y10894D1*
X18814Y10796D1*
X18715Y10721D1*
X18599Y10675D1*
X18518Y10665D1*
X17500Y9648D1*
X17398Y9577D1*
X17249Y9544D1*
X16972D1*
X16971Y9289D1*
X15829Y9293D1*
X15723Y9289D1*
X15081D1*
Y10509D1*
X15234D1*
X15237Y10899D1*
Y11356D1*
X15089Y11404D1*
X14980Y11466D1*
X14883Y11545D1*
X14801Y11639D1*
X14736Y11746D1*
X14689Y11861D1*
X14662Y11983D1*
X14656Y12108D1*
X14678Y12258D1*
X14052Y12246D1*
X14031Y9340D1*
X13995Y9222D1*
X13896Y9143D1*
X13839Y9125D1*
X13732Y9064D1*
X13557Y9058D1*
X4225Y9089D1*
X4222Y7902D1*
Y5890D1*
X4303Y6073D1*
X4441Y6281D1*
X4616Y6458D1*
X4822Y6599D1*
X5051Y6699D1*
X5295Y6753D1*
X5544Y6760D1*
X5791Y6719D1*
X6025Y6633D1*
X6238Y6503D1*
X6423Y6335D1*
X6572Y6135D1*
X6681Y5911D1*
X6745Y5669D1*
X6763Y5456D1*
X6739Y5207D1*
X6668Y4968D1*
X6554Y4746D1*
X6399Y4550D1*
X6209Y4388D1*
X5993Y4264D1*
X5887Y4222D1*
X30984D1*
X5021Y4223D2*
X4902Y4271D1*
X4687Y4398D1*
X4500Y4563D1*
X4348Y4761D1*
X4236Y4984D1*
X4222Y5025D1*
Y4222D1*
X5023D1*
X4222Y41844D2*
X4304Y42034D1*
X4442Y42242D1*
X4617Y42420D1*
X4823Y42561D1*
X5027Y42651D1*
X4222Y42652D1*
Y41843D1*
X20924Y28925D2*
X20850Y28927D1*
X20727Y28949D1*
X20610Y28992D1*
X20501Y29054D1*
X20405Y29133D1*
X20338Y29201D1*
X20235Y29099D1*
X20237Y28049D1*
X20383Y28046D1*
X20386Y28420D1*
X21567D1*
Y28174D1*
X21954Y28177D1*
X22036D1*
X22038Y28284D1*
X22597D1*
X22606Y29280D1*
X22607Y29370D1*
X22163Y29369D1*
X22063Y29207D1*
X21978Y29116D1*
X21878Y29040D1*
X21768Y28982D1*
X21649Y28943D1*
X21475Y28925D1*
X20925Y28923D1*
Y28927D1*
X20494Y26245D2*
X20626Y26348D1*
X20665Y26367D1*
X20609Y26451D1*
X20565Y26591D1*
X20561Y26648D1*
X20386D1*
Y27019D1*
X19520Y27022D1*
Y27050D1*
X19425Y26978D1*
X19309Y26932D1*
X19185Y26917D1*
X19062Y26936D1*
X18933Y26998D1*
X18673Y27000D1*
X18672Y26929D1*
X17668D1*
X17669Y25956D1*
X17749Y26052D1*
X17784Y26077D1*
X17812Y26147D1*
X17911Y26227D1*
X17992Y26244D1*
X20488D1*
X21654Y26446D2*
X21780Y26419D1*
X21896Y26372D1*
X22002Y26307D1*
X22076Y26243D1*
X22590Y26244D1*
X22591Y26698D1*
X22331Y26702D1*
X22300Y26680D1*
X22184Y26634D1*
X22060Y26619D1*
X21937Y26638D1*
X21823Y26688D1*
X21726Y26766D1*
X21653Y26867D1*
X21608Y26983D1*
X21596Y27108D1*
X21607Y27204D1*
X21566Y27162D1*
X21567Y26648D1*
X21555D1*
X21610Y26571D1*
X21651Y26450D1*
X21621Y26547D1*
X20418Y17496D2*
X20522Y17606D1*
X20623Y17679D1*
X20736Y17733D1*
X20844Y17765D1*
Y17998D1*
X20730Y18111D1*
X20300Y18112D1*
Y18483D1*
X19434Y18486D1*
Y18536D1*
X19154Y18532D1*
X19156Y18466D1*
X19059D1*
X19061Y18345D1*
X19134Y18389D1*
X19251Y18431D1*
X19375Y18442D1*
X19498Y18419D1*
X19610Y18365D1*
X19705Y18284D1*
X19774Y18181D1*
X19798Y18111D1*
X20416Y17493D1*
X21674Y17772D2*
X21777Y17750D1*
X21893Y17703D1*
X21999Y17637D1*
X22093Y17555D1*
X22173Y17459D1*
X22225Y17367D1*
X22589Y17360D1*
X22587Y18255D1*
X22482Y18252D1*
X22378Y18225D1*
X21824Y18221D1*
X21672D1*
X21674Y17775D1*
X14690Y16558D2*
X14662Y16683D1*
X14656Y16808D1*
X14670Y16932D1*
X14705Y17052D1*
X14760Y17164D1*
X14832Y17266D1*
X14920Y17354D1*
X15022Y17427D1*
X15176Y17493D1*
X15178Y18087D1*
X15156Y18085D1*
Y18261D1*
X14047D1*
X14038Y17052D1*
X14033Y16564D1*
X14687Y16560D1*
X16692Y16659D2*
X16666Y16557D1*
X17391Y16560D1*
X17389Y17649D1*
X16319Y18718D1*
X16246Y18819D1*
X16205Y18940D1*
X16180Y18891D1*
Y18085D1*
X16160D1*
X16158Y17500D1*
X16292Y17451D1*
X16398Y17385D1*
X16492Y17303D1*
X16571Y17207D1*
X16633Y17098D1*
X16676Y16981D1*
X16699Y16858D1*
X16703Y16783D1*
X16692Y16659D1*
X16574Y11668D2*
X16542Y11619D1*
X16456Y11528D1*
X16357Y11453D1*
X16247Y11394D1*
X16128Y11355D1*
X16070Y11347D1*
X16067Y10556D1*
Y10506D1*
X16329Y10509D1*
X16971D1*
Y10255D1*
X17099Y10254D1*
X18012Y11164D1*
X18031Y11271D1*
X18083Y11384D1*
X18163Y11480D1*
X18265Y11552D1*
X18382Y11594D1*
X18456Y11600D1*
X18454Y12278D1*
X18141Y11965D1*
X18100Y11871D1*
X18021Y11774D1*
X17916Y11706D1*
X17797Y11672D1*
X17243Y11668D1*
X16575D1*
X22117Y19472D2*
X22590D1*
X22582Y19559D1*
X21782D1*
X21629Y19491D1*
X21478Y19480D1*
X21482Y19051D1*
X21994D1*
X21992Y19472D1*
X22117D1*
X9187Y35626D2*
X10282D1*
Y35427D1*
X10547Y35431D1*
X11684D1*
X11960Y35704D1*
X11092Y35705D1*
Y36068D1*
X8382Y36070D1*
X6378D1*
X6443Y35978D1*
X6497Y35865D1*
X6527Y35744D1*
X6533Y35660D1*
X6520Y35536D1*
X6482Y35417D1*
X6421Y35308D1*
X6339Y35214D1*
X6274Y35159D1*
X6368Y35077D1*
X6443Y34978D1*
X6497Y34865D1*
X6527Y34744D1*
X6533Y34660D1*
X6520Y34536D1*
X6482Y34417D1*
X6421Y34308D1*
X6339Y34214D1*
X6274Y34159D1*
X6368Y34077D1*
X6443Y33978D1*
X6497Y33865D1*
X6527Y33744D1*
X6533Y33660D1*
X6520Y33536D1*
X6482Y33417D1*
X6421Y33308D1*
X6339Y33214D1*
X6274Y33159D1*
X6368Y33077D1*
X6443Y32978D1*
X6497Y32865D1*
X6527Y32744D1*
X6533Y32660D1*
X6520Y32536D1*
X6482Y32417D1*
X6421Y32308D1*
X6339Y32214D1*
X6274Y32159D1*
X6368Y32077D1*
X6443Y31978D1*
X6497Y31865D1*
X6527Y31744D1*
X6533Y31660D1*
X6520Y31536D1*
X6482Y31417D1*
X6421Y31308D1*
X6339Y31214D1*
X6274Y31159D1*
X6368Y31077D1*
X6443Y30978D1*
X6497Y30865D1*
X6527Y30744D1*
X6533Y30660D1*
X6520Y30536D1*
X6482Y30417D1*
X6421Y30308D1*
X6339Y30214D1*
X6274Y30159D1*
X6368Y30077D1*
X6443Y29978D1*
X6497Y29865D1*
X6527Y29744D1*
X6533Y29660D1*
X6521Y29548D1*
X7076Y29544D1*
X7494D1*
X7639Y29686D1*
X7640Y32352D1*
X7662Y32474D1*
X7744Y32603D1*
X8315Y33174D1*
X8317Y34517D1*
X8199Y34630D1*
X8130Y34735D1*
X8084Y34851D1*
X8063Y34974D1*
X8067Y35098D1*
X8097Y35220D1*
X8150Y35332D1*
X8225Y35432D1*
X8319Y35514D1*
X8428Y35575D1*
X8547Y35613D1*
X8671Y35626D1*
X8795Y35613D1*
X8914Y35576D1*
X9023Y35515D1*
X9061Y35482D1*
X9062Y35626D1*
X9187D1*
X10282Y34599D2*
Y34405D1*
X9062D1*
Y34550D1*
X9027Y34516D1*
Y33109D1*
X9121Y33136D1*
X9675Y33139D1*
X10932D1*
X11065Y33122D1*
X10975Y33212D1*
X10907Y33315D1*
X10883Y33437D1*
X10909Y33559D1*
X10975Y33657D1*
X11330Y34011D1*
X11433Y34080D1*
X11555Y34104D1*
X11677Y34078D1*
X11775Y34011D1*
X12042Y33744D1*
X12176Y33890D1*
X12280Y33958D1*
X12396Y34004D1*
X12554Y34022D1*
X13238Y34707D1*
X13338Y34781D1*
X13478Y34825D1*
X14031Y34828D1*
X14821Y34833D1*
X14939Y34875D1*
X15012Y34881D1*
X14676Y35220D1*
X14462Y35222D1*
X14465Y35016D1*
X13244D1*
X13248Y36158D1*
X13244Y36264D1*
Y36729D1*
X12979Y36725D1*
X12982Y35705D1*
X12829D1*
X12826Y35568D1*
X12807Y35445D1*
X12740Y35315D1*
X12351Y34921D1*
X12152Y34722D1*
X12051Y34648D1*
X11912Y34604D1*
X11358Y34601D1*
X10284D1*
X9172Y31667D2*
X9089Y31570D1*
X8989Y31494D1*
X8876Y31441D1*
X8755Y31411D1*
X8631Y31407D1*
X8508Y31428D1*
X8391Y31474D1*
X8349Y31501D1*
X8350Y31262D1*
X8469Y31332D1*
X8588Y31370D1*
X8712Y31383D1*
X8836Y31371D1*
X8955Y31333D1*
X9064Y31272D1*
X9102Y31239D1*
Y31383D1*
X10323D1*
Y31137D1*
X11115Y31138D1*
X10897Y31349D1*
X10696Y31551D1*
X10064D1*
X9989Y31494D1*
X9876Y31441D1*
X9755Y31411D1*
X9631Y31407D1*
X9508Y31428D1*
X9391Y31474D1*
X9287Y31542D1*
X9199Y31630D1*
X9175Y31666D1*
X10323Y30411D2*
Y30163D1*
X9102D1*
Y30307D1*
X9068Y30273D1*
X9064Y28909D1*
X9126Y28947D1*
X9810Y29631D1*
X9911Y29705D1*
X10050Y29749D1*
X10604Y29752D1*
X11162D1*
X11302Y29852D1*
X11415Y29896D1*
X11431Y29952D1*
X11498Y30051D1*
X11855Y30407D1*
X10322Y30408D1*
X9213Y27425D2*
X9129Y27327D1*
X9030Y27252D1*
X8917Y27198D1*
X8796Y27168D1*
X8671Y27164D1*
X8548Y27185D1*
X8432Y27231D1*
X8328Y27299D1*
X8239Y27387D1*
X8171Y27492D1*
X8125Y27608D1*
X8104Y27731D1*
X8111Y27867D1*
X7967Y27828D1*
X6509Y27826D1*
X6527Y27744D1*
X6533Y27660D1*
X6520Y27536D1*
X6482Y27417D1*
X6421Y27308D1*
X6339Y27214D1*
X6274Y27159D1*
X6368Y27077D1*
X6443Y26978D1*
X6497Y26865D1*
X6529Y26710D1*
X6594Y26777D1*
X6696Y26848D1*
X6845Y26881D1*
X8224D1*
X8273Y26942D1*
X8367Y27024D1*
X8475Y27086D1*
X8594Y27124D1*
X8718Y27137D1*
X8842Y27124D1*
X8961Y27086D1*
X9070Y27025D1*
X9109Y26992D1*
Y27137D1*
X10329D1*
Y26851D1*
X12551D1*
X12674Y26829D1*
X12794Y26759D1*
X13447Y26106D1*
X14212Y26108D1*
X13279Y27037D1*
X12078Y28238D1*
X12003Y28242D1*
X11881Y28270D1*
X11768Y28323D1*
X11669Y28399D1*
X11588Y28494D1*
X11529Y28603D1*
X11492Y28743D1*
X11381Y28770D1*
X11268Y28823D1*
X11151Y28920D1*
X10273Y28922D1*
X9737Y28384D1*
X9836Y28371D1*
X9955Y28333D1*
X10064Y28272D1*
X10158Y28190D1*
X10233Y28091D1*
X10287Y27978D1*
X10317Y27857D1*
X10323Y27773D1*
X10310Y27649D1*
X10272Y27530D1*
X10211Y27421D1*
X10129Y27327D1*
X10030Y27252D1*
X9917Y27198D1*
X9796Y27168D1*
X9671Y27164D1*
X9548Y27185D1*
X9432Y27231D1*
X9328Y27299D1*
X9239Y27387D1*
X9216Y27423D1*
X10329Y26117D2*
Y25916D1*
X9109D1*
Y26061D1*
X9036Y26005D1*
X8924Y25951D1*
X8803Y25922D1*
X8678Y25917D1*
X8555Y25939D1*
X8439Y25984D1*
X8334Y26053D1*
X8227Y26170D1*
X6989Y26171D1*
X6775Y25954D1*
X6673Y25883D1*
X6524Y25850D1*
X6504D1*
X6527Y25744D1*
X6533Y25660D1*
X6520Y25536D1*
X6482Y25417D1*
X6421Y25308D1*
X6339Y25214D1*
X6240Y25139D1*
X6127Y25085D1*
X6006Y25056D1*
X5881Y25051D1*
X5758Y25072D1*
X5642Y25118D1*
X5538Y25186D1*
X5449Y25275D1*
X5421Y25308D1*
X5418Y24951D1*
X7417Y22954D1*
X7696Y22675D1*
X8298Y22676D1*
X8392Y22758D1*
X8500Y22819D1*
X8619Y22857D1*
X8743Y22870D1*
X8867Y22858D1*
X8986Y22820D1*
X9095Y22759D1*
X9134Y22726D1*
Y22870D1*
X10354D1*
Y22522D1*
X12094Y22525D1*
X12833D1*
X12956Y22504D1*
X13076Y22433D1*
X14519Y20990D1*
X15082Y20991D1*
X15004Y21039D1*
X14610Y21428D1*
X12122Y23916D1*
X12048Y23918D1*
X11926Y23947D1*
X11814Y24000D1*
X11714Y24075D1*
X11633Y24170D1*
X11574Y24280D1*
X11537Y24419D1*
X11426Y24447D1*
X11314Y24500D1*
X11202Y24590D1*
X9640D1*
X9131Y24079D1*
X9134Y23976D1*
X9219Y23872D1*
X9273Y23942D1*
X9367Y24024D1*
X9475Y24086D1*
X9594Y24124D1*
X9718Y24137D1*
X9842Y24124D1*
X9961Y24086D1*
X10070Y24025D1*
X10164Y23944D1*
X10240Y23844D1*
X10294Y23732D1*
X10324Y23610D1*
X10329Y23526D1*
X10317Y23402D1*
X10279Y23283D1*
X10218Y23174D1*
X10136Y23080D1*
X10036Y23005D1*
X9924Y22951D1*
X9803Y22922D1*
X9678Y22917D1*
X9555Y22939D1*
X9439Y22984D1*
X9334Y23053D1*
X9246Y23141D1*
X9218Y23174D1*
X9136Y23080D1*
X9036Y23005D1*
X8924Y22951D1*
X8803Y22922D1*
X8678Y22917D1*
X8555Y22939D1*
X8439Y22984D1*
X8334Y23053D1*
X8246Y23141D1*
X8178Y23245D1*
X8132Y23361D1*
X8110Y23484D1*
X8114Y23609D1*
X8144Y23730D1*
X8197Y23843D1*
X8273Y23942D1*
X8305Y23971D1*
X8304Y24253D1*
X8323Y24376D1*
X8390Y24506D1*
X8779Y24900D1*
X9177Y25298D1*
X9277Y25372D1*
X9417Y25416D1*
X9970Y25420D1*
X11201D1*
X11244Y25460D1*
X11348Y25529D1*
X11460Y25573D1*
X11476Y25629D1*
X11543Y25727D1*
X11904Y26087D1*
X11926Y26121D1*
X10329D1*
X10354Y21796D2*
Y21650D1*
X9134D1*
Y21794D1*
X9061Y21739D1*
X8949Y21685D1*
X8827Y21655D1*
X8703Y21651D1*
X8580Y21672D1*
X8464Y21718D1*
X8359Y21786D1*
X8301Y21844D1*
X7525Y21845D1*
X7402Y21864D1*
X7272Y21931D1*
X6878Y22320D1*
X4709Y24489D1*
X4635Y24589D1*
X4591Y24729D1*
X4588Y25153D1*
X4538Y25186D1*
X4449Y25275D1*
X4381Y25379D1*
X4335Y25495D1*
X4314Y25618D1*
X4318Y25743D1*
X4347Y25864D1*
X4401Y25977D1*
X4476Y26076D1*
X4573Y26160D1*
X4449Y26275D1*
X4381Y26379D1*
X4335Y26495D1*
X4314Y26618D1*
X4318Y26743D1*
X4347Y26864D1*
X4401Y26977D1*
X4476Y27076D1*
X4573Y27160D1*
X4449Y27275D1*
X4381Y27379D1*
X4335Y27495D1*
X4314Y27618D1*
X4318Y27743D1*
X4347Y27864D1*
X4401Y27977D1*
X4476Y28076D1*
X4573Y28160D1*
X4449Y28275D1*
X4381Y28379D1*
X4335Y28495D1*
X4314Y28618D1*
X4318Y28743D1*
X4347Y28864D1*
X4401Y28977D1*
X4476Y29076D1*
X4573Y29160D1*
X4449Y29275D1*
X4381Y29379D1*
X4335Y29495D1*
X4314Y29618D1*
X4318Y29743D1*
X4347Y29864D1*
X4401Y29977D1*
X4476Y30076D1*
X4573Y30160D1*
X4449Y30275D1*
X4381Y30379D1*
X4335Y30495D1*
X4314Y30618D1*
X4318Y30743D1*
X4347Y30864D1*
X4401Y30977D1*
X4476Y31076D1*
X4573Y31160D1*
X4449Y31275D1*
X4381Y31379D1*
X4335Y31495D1*
X4314Y31618D1*
X4318Y31743D1*
X4347Y31864D1*
X4401Y31977D1*
X4476Y32076D1*
X4573Y32160D1*
X4449Y32275D1*
X4381Y32379D1*
X4335Y32495D1*
X4314Y32618D1*
X4318Y32743D1*
X4347Y32864D1*
X4401Y32977D1*
X4476Y33076D1*
X4573Y33160D1*
X4449Y33275D1*
X4381Y33379D1*
X4335Y33495D1*
X4314Y33618D1*
X4318Y33743D1*
X4347Y33864D1*
X4401Y33977D1*
X4476Y34076D1*
X4573Y34160D1*
X4449Y34275D1*
X4381Y34379D1*
X4335Y34495D1*
X4314Y34618D1*
X4318Y34743D1*
X4347Y34864D1*
X4401Y34977D1*
X4476Y35076D1*
X4573Y35160D1*
X4449Y35275D1*
X4381Y35379D1*
X4335Y35495D1*
X4314Y35618D1*
X4318Y35743D1*
X4347Y35864D1*
X4401Y35977D1*
X4476Y36076D1*
X4555Y36145D1*
X4408Y36170D1*
X4327Y36205D1*
X4222Y36277D1*
Y19218D1*
X4633Y19220D1*
X8136Y19197D1*
X8139Y19342D1*
X8169Y19464D1*
X8222Y19576D1*
X8298Y19676D1*
X8330Y19704D1*
X8329Y20295D1*
X8348Y20418D1*
X8415Y20548D1*
X8804Y20942D1*
X8911Y21049D1*
X9012Y21123D1*
X9151Y21167D1*
X9705Y21171D1*
X11006D1*
X11049Y21211D1*
X11153Y21280D1*
X11265Y21324D1*
X11281Y21380D1*
X11348Y21479D1*
X11666Y21796D1*
X10353Y21795D1*
X9157Y19705D2*
X9244Y19606D1*
X9298Y19676D1*
X9392Y19758D1*
X9500Y19819D1*
X9619Y19857D1*
X9743Y19870D1*
X9867Y19858D1*
X9986Y19820D1*
X10095Y19759D1*
X10189Y19677D1*
X10258Y19587D1*
X11954Y19590D1*
X12686D1*
X12809Y19571D1*
X12939Y19503D1*
X13281Y19167D1*
X13410Y19164D1*
X13445Y19197D1*
X13559Y19246D1*
X13683D1*
X13797Y19197D1*
X13847Y19143D1*
X13884Y19139D1*
X13962Y19106D1*
X14060Y19091D1*
X14783D1*
X14782Y19838D1*
X13587Y19841D1*
X12349D1*
X12215Y19741D1*
X12100Y19692D1*
X11978Y19668D1*
X11853Y19670D1*
X11732Y19698D1*
X11619Y19751D1*
X11519Y19827D1*
X11438Y19922D1*
X11379Y20031D1*
X11343Y20171D1*
X11232Y20198D1*
X11119Y20251D1*
X11007Y20342D1*
X9374Y20341D1*
X9158Y20123D1*
X9159Y19705D1*
X13130Y33310D2*
X13091Y33192D1*
X13028Y33084D1*
X12944Y32992D1*
X12842Y32920D1*
X12728Y32870D1*
X12640Y32853D1*
X12591Y32692D1*
X12528Y32584D1*
X12444Y32492D1*
X12342Y32420D1*
X12228Y32370D1*
X12105Y32346D1*
X12054Y32347D1*
X11854Y32149D1*
X11754Y32075D1*
X11614Y32031D1*
X11533Y32027D1*
X11596Y31966D1*
X13612D1*
X13735Y31950D1*
X13850Y31901D1*
X13940Y31830D1*
X14374Y31396D1*
X14373Y32490D1*
X14394Y32612D1*
X14465Y32732D1*
X14737Y33005D1*
X14838Y33076D1*
X14973Y33111D1*
X15178Y33112D1*
X15207Y33237D1*
Y33975D1*
X15155Y33955D1*
X15032Y33941D1*
X14908Y33959D1*
X14819Y33999D1*
X13700Y33998D1*
X13143Y33438D1*
X13130Y33310D1*
X12381Y29331D2*
X12495Y29244D1*
X12572Y29146D1*
X12628Y29034D1*
X12659Y28914D1*
X12665Y28824D1*
X14896Y26594D1*
X15036Y26643D1*
X15160Y26653D1*
X15256Y26635D1*
X15258Y27948D1*
X15253Y29415D1*
X15110Y29386D1*
X14551D1*
X14429Y29407D1*
X14309Y29478D1*
X13379Y30407D1*
X12298Y30405D1*
X12652Y30051D1*
X12721Y29947D1*
X12744Y29825D1*
X12719Y29704D1*
X12652Y29605D1*
X12472Y29427D1*
X12426Y25008D2*
X12540Y24920D1*
X12618Y24823D1*
X12673Y24711D1*
X12704Y24590D1*
X12710Y24501D1*
X15427Y21785D1*
X15660Y21787D1*
X15804Y21831D1*
X15128Y22511D1*
X15056Y22613D1*
X15021Y22747D1*
Y23312D1*
X14815Y23311D1*
Y24532D1*
X15663D1*
X15662Y25596D1*
X15551Y25485D1*
X15449Y25413D1*
X15314Y25378D1*
X13294D1*
X13171Y25399D1*
X13052Y25470D1*
X12398Y26123D1*
X12349Y26075D1*
X12697Y25727D1*
X12766Y25624D1*
X12789Y25502D1*
X12764Y25380D1*
X12697Y25282D1*
X12518Y25104D1*
X12231Y20759D2*
X12347Y20668D1*
X13804Y20671D1*
X12681Y21796D1*
X12189Y21795D1*
X12502Y21479D1*
X12571Y21375D1*
X12595Y21253D1*
X12569Y21132D1*
X12502Y21033D1*
X12323Y20855D1*
X14365Y36906D2*
X14465D1*
Y36800D1*
X14871D1*
X14995Y36783D1*
X15110Y36734D1*
X15200Y36663D1*
X16451Y35413D1*
X16526Y35314D1*
X16573Y35198D1*
X16587Y35084D1*
Y32479D1*
X16639Y32542D1*
Y36156D1*
X13695Y39098D1*
X11387Y39097D1*
X11524Y38989D1*
X11600Y38890D1*
X11653Y38778D1*
X11683Y38656D1*
X11689Y38572D1*
X11676Y38448D1*
X11639Y38329D1*
X11577Y38220D1*
X11495Y38126D1*
X11396Y38051D1*
X11283Y37997D1*
X11162Y37968D1*
X11037Y37963D1*
X10914Y37984D1*
X10798Y38030D1*
X10694Y38099D1*
X10606Y38187D1*
X10577Y38220D1*
X10495Y38126D1*
X10396Y38051D1*
X10283Y37997D1*
X10162Y37968D1*
X10037Y37963D1*
X9914Y37984D1*
X9798Y38030D1*
X9694Y38099D1*
X9606Y38187D1*
X9577Y38220D1*
X9495Y38126D1*
X9396Y38051D1*
X9283Y37997D1*
X9162Y37968D1*
X9037Y37963D1*
X8914Y37984D1*
X8798Y38030D1*
X8691Y38101D1*
X8689Y37962D1*
X7468D1*
Y39013D1*
X7090Y38634D1*
X6994Y38553D1*
X6886Y38491D1*
X6768Y38448D1*
X6584Y38424D1*
X5876Y38423D1*
X5743Y38399D1*
X5607Y38401D1*
X5486Y38424D1*
X5375D1*
X5199Y38402D1*
X5033Y38424D1*
X4966Y38421D1*
X4814Y38269D1*
X5173Y38275D1*
X5923D1*
X6047Y38262D1*
X6166Y38225D1*
X6275Y38164D1*
X6369Y38083D1*
X6445Y37984D1*
X6500Y37872D1*
X6531Y37751D1*
X6537Y37626D1*
X6517Y37503D1*
X6473Y37386D1*
X6404Y37278D1*
X6423Y37250D1*
X11210Y37256D1*
X11300Y37261D1*
X11196Y37254D1*
X11301Y37263D1*
X11642Y37604D1*
X11741Y37681D1*
X11854Y37732D1*
X12007Y37755D1*
X13694D1*
X13818Y37740D1*
X13935Y37696D1*
X14058Y37604D1*
X14215Y37448D1*
X14291Y37350D1*
X14342Y37236D1*
X14365Y37084D1*
Y36908D1*
X17666Y28819D2*
X18672D1*
Y28667D1*
X19062Y28663D1*
X19400Y28662D1*
X19407Y28823D1*
X19408Y29298D1*
X19323Y29369D1*
X18717D1*
X18700Y29294D1*
X18652Y29179D1*
X18575Y29080D1*
X18476Y29006D1*
X18360Y28959D1*
X18236Y28945D1*
X18119Y28952D1*
X17670D1*
X17669Y28820D1*
X19156Y19502D2*
Y19461D1*
X19433Y19462D1*
X19434Y19509D1*
X19602D1*
X19629Y19645D1*
X19689Y19754D1*
X20078Y20148D1*
X20291Y20361D1*
X19235Y20358D1*
X19357Y20263D1*
X19427Y20160D1*
X19467Y20042D1*
X19476Y19949D1*
X19460Y19825D1*
X19412Y19710D1*
X19335Y19612D1*
X19236Y19537D1*
X19152Y19504D1*
X17936Y19548D2*
X17940Y19608D1*
X17936Y19714D1*
Y20356D1*
X18302Y20358D1*
X17992D1*
X17874Y20394D1*
X17794Y20492D1*
X17777Y20573D1*
Y25335D1*
X17726Y25379D1*
X17669Y25457D1*
Y19713D1*
X17830Y19552D1*
X17933D1*
X16638Y23311D2*
X15748D1*
X15751Y22917D1*
X16641Y22030D1*
X16639Y23309D1*
X6506Y28831D2*
X6527Y28744D1*
X6533Y28660D1*
X6519Y28532D1*
X6944Y28536D1*
X7799D1*
X8357Y29098D1*
X8358Y30276D1*
X8350Y30102D1*
Y29539D1*
X8328Y29417D1*
X8246Y29288D1*
X7895Y28938D1*
X7793Y28867D1*
X7644Y28834D1*
X6508D1*
X19841Y37702D2*
X20898D1*
Y37519D1*
X22991Y37520D1*
X22933Y37608D1*
X22825Y37715D1*
X19187Y37716D1*
X18987Y37515D1*
X19718D1*
X19716Y37702D1*
X19841D1*
X16440Y20133D2*
X16554D1*
Y19996D1*
X16619Y19954D1*
X16639Y20000D1*
Y20457D1*
X16549Y20368D1*
X16430Y20289D1*
X16403Y20251D1*
X16444Y20129D1*
X16414Y20227D1*
X16539Y20358D1*
X16434Y20290D1*
X17674Y29885D2*
X17684Y34976D1*
X17672Y35100D1*
X17689Y35210D1*
X17691Y36182D1*
X17669Y36151D1*
Y29881D1*
X16639Y28373D2*
Y31257D1*
X16592Y31240D1*
Y24533D1*
X16639Y24625D1*
Y28373D1*
D30*
X29982Y33944D3*
Y31975D3*
Y30007D3*
X30055Y25304D3*
Y23336D3*
Y21367D3*
X30064Y16665D3*
Y14697D3*
Y12728D3*
X6888Y12443D3*
Y14411D3*
Y16380D3*
D31*
X20400Y32021D3*
X21200Y29671D3*
Y34371D3*
X26000D3*
Y29671D3*
X20483Y23354D3*
X21283Y21004D3*
Y25704D3*
X26083D3*
Y21004D3*
X20480Y14685D3*
X21280Y12335D3*
Y17035D3*
X26080D3*
Y12335D3*
X16479Y14433D3*
X15679Y16783D3*
Y12083D3*
X10879D3*
Y16783D3*
D32*
X22626Y36387D3*
X23374D3*
X22609Y27673D3*
X23357D3*
X22563Y18862D3*
X23311D3*
X15652Y9899D3*
X16400D3*
D33*
X9672Y35016D3*
D34*
X8672D3*
Y32016D3*
X9672D3*
D33*
X9713Y30773D3*
D34*
X8713D3*
Y27773D3*
X9713D3*
D33*
X9719Y26526D3*
D34*
X8719D3*
Y23526D3*
X9719D3*
D33*
X9744Y22260D3*
D34*
X8744D3*
Y19260D3*
X9744D3*
D21*
X12552Y33434D3*
X12052Y32934D3*
G36*
X11552Y33080D2*
X11198Y33434D1*
X11552Y33789D1*
X11907Y33434D1*
X11552Y33080D1*
G37*
D21*
X12075Y28828D3*
X11575Y29328D3*
G36*
X11720Y29828D2*
X12075Y30182D1*
X12429Y29828D1*
X12075Y29474D1*
X11720Y29828D1*
G37*
D21*
X12120Y24505D3*
X11620Y25005D3*
G36*
X11766Y25505D2*
X12120Y25859D1*
X12474Y25505D1*
X12120Y25150D1*
X11766Y25505D1*
G37*
D21*
X11925Y20256D3*
X11425Y20756D3*
G36*
X11571Y21256D2*
X11925Y21610D1*
X12280Y21256D1*
X11925Y20902D1*
X11571Y21256D1*
G37*
D32*
X11663Y36315D3*
X12411D3*
D35*
X17997Y36816D3*
Y37564D3*
X13854Y36335D3*
Y35587D3*
X18062Y28248D3*
Y27500D3*
D32*
X16127Y31865D3*
X15379D3*
D35*
X18546Y19037D3*
Y19785D3*
D32*
X16134Y23921D3*
X15386D3*
D35*
X18552Y17360D3*
Y16612D3*
D33*
X4923Y37660D3*
D36*
Y36660D3*
Y35660D3*
Y34660D3*
Y33660D3*
Y32660D3*
Y31660D3*
Y30660D3*
Y29660D3*
Y28660D3*
Y27660D3*
Y26660D3*
Y25660D3*
X5923Y37660D3*
Y36660D3*
Y35660D3*
Y34660D3*
Y33660D3*
Y32660D3*
Y31660D3*
Y30660D3*
Y29660D3*
Y28660D3*
Y27660D3*
Y26660D3*
Y25660D3*
D37*
X20307Y36442D3*
X19441Y36816D3*
X20307Y37190D3*
X20976Y27160D3*
X20110Y27534D3*
X20976Y27908D3*
X20891Y18623D3*
X20025Y18997D3*
X20891Y19371D3*
D38*
X16042Y19542D3*
X15668Y18676D3*
X15294Y19542D3*
D33*
X8079Y38572D3*
D36*
X9079D3*
X10079D3*
X11079D3*
M02*
