G04 DipTrace 2.4.0.2*
%INTopDimension.gbr*%
%MOMM*%
%ADD13C,0.038*%
%ADD65C,0.157*%
%FSLAX53Y53*%
G04*
G71*
G90*
G75*
G01*
%LNTopDimension*%
%LPD*%
X5885Y95200D2*
D13*
Y100897D1*
X1835Y95200D2*
Y100897D1*
Y100397D2*
X5885D1*
X335D2*
X835D1*
G36*
X1835D2*
X835Y100197D1*
Y100597D1*
X1835Y100397D1*
G37*
X7385D2*
D13*
X6885D1*
G36*
X5885D2*
X6885Y100597D1*
Y100197D1*
X5885Y100397D1*
G37*
X0Y99060D2*
D13*
Y104747D1*
X3860Y95200D2*
Y104747D1*
X0Y104247D2*
X3860D1*
X-1500D2*
X-1000D1*
G36*
X0D2*
X-1000Y104047D1*
Y104447D1*
X0Y104247D1*
G37*
X5360D2*
D13*
X4860D1*
G36*
X3860D2*
X4860Y104447D1*
Y104047D1*
X3860Y104247D1*
G37*
Y95200D2*
D13*
X-4870D1*
X0Y99060D2*
X-4870D1*
X-4370D2*
Y95200D1*
Y100560D2*
Y100060D1*
G36*
Y99060D2*
X-4570Y100060D1*
X-4170D1*
X-4370Y99060D1*
G37*
Y93700D2*
D13*
Y94200D1*
G36*
Y95200D2*
X-4170Y94200D1*
X-4570D1*
X-4370Y95200D1*
G37*
X69803D2*
D13*
Y103497D1*
X73660Y99060D2*
Y103497D1*
X69803Y102997D2*
X73660D1*
X68303D2*
X68803D1*
G36*
X69803D2*
X68803Y102797D1*
Y103197D1*
X69803Y102997D1*
G37*
X75160D2*
D13*
X74660D1*
G36*
X73660D2*
X74660Y103197D1*
Y102797D1*
X73660Y102997D1*
G37*
X69803Y95200D2*
D13*
X81407D1*
X73660Y99060D2*
X81407D1*
X80907D2*
Y95200D1*
Y100560D2*
Y100060D1*
G36*
Y99060D2*
X80707Y100060D1*
X81107D1*
X80907Y99060D1*
G37*
Y93700D2*
D13*
Y94200D1*
G36*
Y95200D2*
X81107Y94200D1*
X80707D1*
X80907Y95200D1*
G37*
X69803Y3857D2*
D13*
Y-7040D1*
X73660Y0D2*
Y-7040D1*
X69803Y-6540D2*
X73660D1*
X68303D2*
X68803D1*
G36*
X69803D2*
X68803Y-6740D1*
Y-6340D1*
X69803Y-6540D1*
G37*
X75160D2*
D13*
X74660D1*
G36*
X73660D2*
X74660Y-6340D1*
Y-6740D1*
X73660Y-6540D1*
G37*
X69803Y3857D2*
D13*
X80797D1*
X73660Y0D2*
X80797D1*
X80297Y3857D2*
Y0D1*
Y5357D2*
Y4857D1*
G36*
Y3857D2*
X80097Y4857D1*
X80497D1*
X80297Y3857D1*
G37*
Y-1500D2*
D13*
Y-1000D1*
G36*
Y0D2*
X80497Y-1000D1*
X80097D1*
X80297Y0D1*
G37*
X3857Y3857D2*
D13*
Y-6523D1*
X0Y0D2*
Y-6523D1*
Y-6023D2*
X3857D1*
X-1500D2*
X-1000D1*
G36*
X0D2*
X-1000Y-6223D1*
Y-5823D1*
X0Y-6023D1*
G37*
X5357D2*
D13*
X4857D1*
G36*
X3857D2*
X4857Y-5823D1*
Y-6223D1*
X3857Y-6023D1*
G37*
Y3857D2*
D13*
X-6193D1*
X0Y0D2*
X-6193D1*
X-5693Y3857D2*
Y0D1*
Y5357D2*
Y4857D1*
G36*
Y3857D2*
X-5893Y4857D1*
X-5493D1*
X-5693Y3857D1*
G37*
Y-1500D2*
D13*
Y-1000D1*
G36*
Y0D2*
X-5493Y-1000D1*
X-5893D1*
X-5693Y0D1*
G37*
X0Y99060D2*
D13*
Y109947D1*
X73660Y99060D2*
Y109947D1*
X36830Y109447D2*
X1000D1*
G36*
X0D2*
X1000Y109647D1*
Y109247D1*
X0Y109447D1*
G37*
X36830D2*
D13*
X72660D1*
G36*
X73660D2*
X72660Y109247D1*
Y109647D1*
X73660Y109447D1*
G37*
Y99060D2*
D13*
Y118520D1*
X37007Y99047D2*
Y118520D1*
X55333Y118020D2*
X72660D1*
G36*
X73660D2*
X72660Y117820D1*
Y118220D1*
X73660Y118020D1*
G37*
X55333D2*
D13*
X38007D1*
G36*
X37007D2*
X38007Y118220D1*
Y117820D1*
X37007Y118020D1*
G37*
X73660Y0D2*
D13*
Y-8803D1*
X37007Y-3D2*
Y-8803D1*
X55333Y-8303D2*
X72660D1*
G36*
X73660D2*
X72660Y-8503D1*
Y-8103D1*
X73660Y-8303D1*
G37*
X55333D2*
D13*
X38007D1*
G36*
X37007D2*
X38007Y-8103D1*
Y-8503D1*
X37007Y-8303D1*
G37*
X2700Y55460D2*
D13*
X-10277D1*
X0Y0D2*
X-10277D1*
X-9777Y27730D2*
Y54460D1*
G36*
Y55460D2*
X-9577Y54460D1*
X-9977D1*
X-9777Y55460D1*
G37*
Y27730D2*
D13*
Y1000D1*
G36*
Y0D2*
X-9977Y1000D1*
X-9577D1*
X-9777Y0D1*
G37*
X0D2*
D13*
Y46027D1*
X2700Y55460D2*
Y45027D1*
X1350Y45527D2*
X1000D1*
G36*
X0D2*
X1000Y45727D1*
Y45327D1*
X0Y45527D1*
G37*
X1350D2*
D13*
X1700D1*
G36*
X2700D2*
X1700Y45327D1*
Y45727D1*
X2700Y45527D1*
G37*
X7289D2*
D13*
X2700D1*
X3857Y1832D2*
X-8403D1*
X0Y0D2*
X-8403D1*
X-7903Y1832D2*
Y0D1*
Y3332D2*
Y2832D1*
G36*
Y1832D2*
X-8103Y2832D1*
X-7703D1*
X-7903Y1832D1*
G37*
Y-1500D2*
D13*
Y-1000D1*
G36*
Y0D2*
X-7703Y-1000D1*
X-8103D1*
X-7903Y0D1*
G37*
Y5476D2*
D13*
Y1832D1*
X1832Y3857D2*
Y-2553D1*
X0Y0D2*
Y-2553D1*
Y-2053D2*
X1832D1*
X-1500D2*
X-1000D1*
G36*
X0D2*
X-1000Y-2253D1*
Y-1853D1*
X0Y-2053D1*
G37*
X3332D2*
D13*
X2832D1*
G36*
X1832D2*
X2832Y-1853D1*
Y-2253D1*
X1832Y-2053D1*
G37*
X5475D2*
D13*
X1832D1*
X69803Y1832D2*
X78140D1*
X73660Y0D2*
X78140D1*
X77640Y1832D2*
Y0D1*
Y3332D2*
Y2832D1*
G36*
Y1832D2*
X77440Y2832D1*
X77840D1*
X77640Y1832D1*
G37*
Y-1500D2*
D13*
Y-1000D1*
G36*
Y0D2*
X77840Y-1000D1*
X77440D1*
X77640Y0D1*
G37*
Y-3644D2*
D13*
Y1832D1*
X71828Y3857D2*
Y-3633D1*
X73660Y0D2*
Y-3633D1*
X71828Y-3133D2*
X73660D1*
X70328D2*
X70828D1*
G36*
X71828D2*
X70828Y-3333D1*
Y-2933D1*
X71828Y-3133D1*
G37*
X75160D2*
D13*
X74660D1*
G36*
X73660D2*
X74660Y-2933D1*
Y-3333D1*
X73660Y-3133D1*
G37*
X77304D2*
D13*
X73660D1*
X3860Y97225D2*
X-2413D1*
X0Y99060D2*
X-2413D1*
X-1913D2*
Y97225D1*
Y100560D2*
Y100060D1*
G36*
Y99060D2*
X-2113Y100060D1*
X-1713D1*
X-1913Y99060D1*
G37*
Y95725D2*
D13*
Y96225D1*
G36*
Y97225D2*
X-1713Y96225D1*
X-2113D1*
X-1913Y97225D1*
G37*
Y103141D2*
D13*
Y99060D1*
X1835Y95200D2*
Y102867D1*
X0Y99060D2*
Y102867D1*
Y102367D2*
X1835D1*
X-1500D2*
X-1000D1*
G36*
X0D2*
X-1000Y102167D1*
Y102567D1*
X0Y102367D1*
G37*
X3335D2*
D13*
X2835D1*
G36*
X1835D2*
X2835Y102567D1*
Y102167D1*
X1835Y102367D1*
G37*
X5915D2*
D13*
X1835D1*
X69803Y97225D2*
X77973D1*
X73660Y99060D2*
X77973D1*
X77473D2*
Y97225D1*
Y100560D2*
Y100060D1*
G36*
Y99060D2*
X77273Y100060D1*
X77673D1*
X77473Y99060D1*
G37*
Y95725D2*
D13*
Y96225D1*
G36*
Y97225D2*
X77673Y96225D1*
X77273D1*
X77473Y97225D1*
G37*
Y93145D2*
D13*
Y99060D1*
X71828Y95200D2*
Y101603D1*
X73660Y99060D2*
Y101603D1*
X71828Y101103D2*
X73660D1*
X70328D2*
X70828D1*
G36*
X71828D2*
X70828Y100903D1*
Y101303D1*
X71828Y101103D1*
G37*
X75160D2*
D13*
X74660D1*
G36*
X73660D2*
X74660Y101303D1*
Y100903D1*
X73660Y101103D1*
G37*
X77304D2*
D13*
X73660D1*
X2503Y85657D2*
X-9467D1*
X0Y99060D2*
X-9467D1*
X-8967Y92358D2*
Y86657D1*
G36*
Y85657D2*
X-9167Y86657D1*
X-8767D1*
X-8967Y85657D1*
G37*
Y92358D2*
D13*
Y98060D1*
G36*
Y99060D2*
X-8767Y98060D1*
X-9167D1*
X-8967Y99060D1*
G37*
X2503Y85657D2*
D13*
Y90660D1*
X0Y99060D2*
Y89660D1*
X1252Y90160D2*
X1503D1*
G36*
X2503D2*
X1503Y89960D1*
Y90360D1*
X2503Y90160D1*
G37*
X1252D2*
D13*
X1000D1*
G36*
X0D2*
X1000Y90360D1*
Y89960D1*
X0Y90160D1*
G37*
X6485D2*
D13*
X2503D1*
X1233Y86715D2*
Y88480D1*
X0Y99060D2*
Y87480D1*
Y87980D2*
X1233D1*
X-1500D2*
X-1000D1*
G36*
X0D2*
X-1000Y87780D1*
Y88180D1*
X0Y87980D1*
G37*
X2733D2*
D13*
X2233D1*
G36*
X1233D2*
X2233Y88180D1*
Y87780D1*
X1233Y87980D1*
G37*
X5312D2*
D13*
X1233D1*
X70353Y63127D2*
X81660D1*
X70540Y57373D2*
X81660D1*
X81160Y63127D2*
Y57373D1*
Y64627D2*
Y64127D1*
G36*
Y63127D2*
X80960Y64127D1*
X81360D1*
X81160Y63127D1*
G37*
Y55873D2*
D13*
Y56373D1*
G36*
Y57373D2*
X81360Y56373D1*
X80960D1*
X81160Y57373D1*
G37*
X70540Y41183D2*
D13*
X83000D1*
X70563Y35430D2*
X83000D1*
X82500Y41183D2*
Y35430D1*
Y42683D2*
Y42183D1*
G36*
Y41183D2*
X82300Y42183D1*
X82700D1*
X82500Y41183D1*
G37*
Y33930D2*
D13*
Y34430D1*
G36*
Y35430D2*
X82700Y34430D1*
X82300D1*
X82500Y35430D1*
G37*
X61883Y63078D2*
D13*
X65243D1*
X62093Y57575D2*
X65243D1*
X64743Y63078D2*
Y57575D1*
Y64578D2*
Y64078D1*
G36*
Y63078D2*
X64543Y64078D1*
X64943D1*
X64743Y63078D1*
G37*
Y56075D2*
D13*
Y56575D1*
G36*
Y57575D2*
X64943Y56575D1*
X64543D1*
X64743Y57575D1*
G37*
X62730Y81047D2*
D13*
Y82523D1*
X70353Y79317D2*
Y82523D1*
X66542Y82023D2*
X63730D1*
G36*
X62730D2*
X63730Y82223D1*
Y81823D1*
X62730Y82023D1*
G37*
X66542D2*
D13*
X69353D1*
G36*
X70353D2*
X69353Y81823D1*
Y82223D1*
X70353Y82023D1*
G37*
X2119Y101532D2*
D65*
X2217Y101582D1*
X2363Y101727D1*
Y100707D1*
X3259Y101727D2*
X2774D1*
X2726Y101290D1*
X2774Y101338D1*
X2920Y101387D1*
X3065D1*
X3211Y101338D1*
X3309Y101241D1*
X3357Y101095D1*
Y100999D1*
X3309Y100853D1*
X3211Y100755D1*
X3065Y100707D1*
X2920D1*
X2774Y100755D1*
X2726Y100805D1*
X2676Y100901D1*
X4303Y101387D2*
X4254Y101241D1*
X4157Y101144D1*
X4011Y101095D1*
X3963D1*
X3817Y101144D1*
X3720Y101241D1*
X3671Y101387D1*
Y101436D1*
X3720Y101582D1*
X3817Y101678D1*
X3963Y101727D1*
X4011D1*
X4157Y101678D1*
X4254Y101582D1*
X4303Y101387D1*
Y101144D1*
X4254Y100901D1*
X4157Y100755D1*
X4011Y100707D1*
X3915D1*
X3769Y100755D1*
X3720Y100853D1*
X4665Y100805D2*
X4617Y100755D1*
X4665Y100707D1*
X4715Y100755D1*
X4665Y100805D1*
X5515Y100707D2*
Y101727D1*
X5028Y101047D1*
X5757D1*
X892Y105382D2*
X990Y105432D1*
X1136Y105577D1*
Y104557D1*
X2032Y105577D2*
X1547D1*
X1499Y105140D1*
X1547Y105188D1*
X1693Y105237D1*
X1838D1*
X1984Y105188D1*
X2082Y105091D1*
X2130Y104945D1*
Y104849D1*
X2082Y104703D1*
X1984Y104605D1*
X1838Y104557D1*
X1693D1*
X1547Y104605D1*
X1499Y104655D1*
X1450Y104751D1*
X2493Y105334D2*
Y105382D1*
X2542Y105480D1*
X2590Y105528D1*
X2688Y105577D1*
X2882D1*
X2978Y105528D1*
X3027Y105480D1*
X3076Y105382D1*
Y105286D1*
X3027Y105188D1*
X2930Y105043D1*
X2444Y104557D1*
X3124D1*
X-5506Y96092D2*
X-5555Y96190D1*
X-5700Y96336D1*
X-4680D1*
X-5700Y97233D2*
Y96747D1*
X-5263Y96699D1*
X-5311Y96747D1*
X-5361Y96893D1*
Y97038D1*
X-5311Y97184D1*
X-5215Y97282D1*
X-5069Y97330D1*
X-4972D1*
X-4826Y97282D1*
X-4728Y97184D1*
X-4680Y97038D1*
Y96893D1*
X-4728Y96747D1*
X-4778Y96699D1*
X-4874Y96650D1*
X-5457Y97693D2*
X-5506D1*
X-5603Y97742D1*
X-5652Y97790D1*
X-5700Y97888D1*
Y98082D1*
X-5652Y98179D1*
X-5603Y98227D1*
X-5506Y98276D1*
X-5409D1*
X-5311Y98227D1*
X-5166Y98130D1*
X-4680Y97644D1*
Y98325D1*
X70210Y104132D2*
X70308Y104182D1*
X70454Y104327D1*
Y103307D1*
X71350Y104327D2*
X70865D1*
X70817Y103890D1*
X70865Y103938D1*
X71011Y103987D1*
X71156D1*
X71302Y103938D1*
X71400Y103841D1*
X71448Y103695D1*
Y103599D1*
X71400Y103453D1*
X71302Y103355D1*
X71156Y103307D1*
X71011D1*
X70865Y103355D1*
X70817Y103405D1*
X70767Y103501D1*
X71762Y104132D2*
X71860Y104182D1*
X72006Y104327D1*
Y103307D1*
X72368Y103405D2*
X72319Y103355D1*
X72368Y103307D1*
X72417Y103355D1*
X72368Y103405D1*
X72973Y104327D2*
X72828Y104278D1*
X72779Y104182D1*
Y104084D1*
X72828Y103987D1*
X72925Y103938D1*
X73119Y103890D1*
X73265Y103841D1*
X73362Y103744D1*
X73410Y103647D1*
Y103501D1*
X73362Y103405D1*
X73314Y103355D1*
X73168Y103307D1*
X72973D1*
X72828Y103355D1*
X72779Y103405D1*
X72731Y103501D1*
Y103647D1*
X72779Y103744D1*
X72877Y103841D1*
X73022Y103890D1*
X73216Y103938D1*
X73314Y103987D1*
X73362Y104084D1*
Y104182D1*
X73314Y104278D1*
X73168Y104327D1*
X72973D1*
X82042Y98168D2*
X82092Y98070D1*
X82237Y97924D1*
X81217D1*
X82237Y97028D2*
Y97513D1*
X81800Y97561D1*
X81848Y97513D1*
X81897Y97367D1*
Y97222D1*
X81848Y97076D1*
X81751Y96978D1*
X81605Y96930D1*
X81509D1*
X81363Y96978D1*
X81265Y97076D1*
X81217Y97222D1*
Y97367D1*
X81265Y97513D1*
X81315Y97561D1*
X81411Y97610D1*
X81994Y96567D2*
X82042D1*
X82140Y96518D1*
X82188Y96470D1*
X82237Y96372D1*
Y96178D1*
X82188Y96082D1*
X82140Y96033D1*
X82042Y95984D1*
X81946D1*
X81848Y96033D1*
X81703Y96130D1*
X81217Y96616D1*
Y95936D1*
X70233Y-5404D2*
X70331Y-5355D1*
X70477Y-5210D1*
Y-6230D1*
X71374Y-5210D2*
X70889D1*
X70840Y-5647D1*
X70889Y-5599D1*
X71035Y-5549D1*
X71179D1*
X71325Y-5599D1*
X71423Y-5695D1*
X71471Y-5841D1*
Y-5938D1*
X71423Y-6084D1*
X71325Y-6182D1*
X71179Y-6230D1*
X71035D1*
X70889Y-6182D1*
X70840Y-6132D1*
X70791Y-6036D1*
X71785Y-5404D2*
X71883Y-5355D1*
X72029Y-5210D1*
Y-6230D1*
X72391Y-6132D2*
X72343Y-6182D1*
X72391Y-6230D1*
X72440Y-6182D1*
X72391Y-6132D1*
X73386Y-5549D2*
X73337Y-5695D1*
X73240Y-5793D1*
X73094Y-5841D1*
X73046D1*
X72900Y-5793D1*
X72804Y-5695D1*
X72754Y-5549D1*
Y-5501D1*
X72804Y-5355D1*
X72900Y-5258D1*
X73046Y-5210D1*
X73094D1*
X73240Y-5258D1*
X73337Y-5355D1*
X73386Y-5549D1*
Y-5793D1*
X73337Y-6036D1*
X73240Y-6182D1*
X73094Y-6230D1*
X72998D1*
X72852Y-6182D1*
X72804Y-6084D1*
X81432Y3427D2*
X81482Y3329D1*
X81627Y3183D1*
X80607D1*
X81627Y2286D2*
Y2771D1*
X81190Y2820D1*
X81238Y2771D1*
X81287Y2625D1*
Y2481D1*
X81238Y2335D1*
X81141Y2237D1*
X80995Y2189D1*
X80899D1*
X80753Y2237D1*
X80655Y2335D1*
X80607Y2481D1*
Y2625D1*
X80655Y2771D1*
X80705Y2820D1*
X80801Y2869D1*
X81432Y1875D2*
X81482Y1777D1*
X81627Y1631D1*
X80607D1*
X80705Y1269D2*
X80655Y1317D1*
X80607Y1269D1*
X80655Y1220D1*
X80705Y1269D1*
X81287Y274D2*
X81141Y323D1*
X81044Y420D1*
X80995Y566D1*
Y614D1*
X81044Y760D1*
X81141Y856D1*
X81287Y906D1*
X81336D1*
X81482Y856D1*
X81578Y760D1*
X81627Y614D1*
Y566D1*
X81578Y420D1*
X81482Y323D1*
X81287Y274D1*
X81044D1*
X80801Y323D1*
X80655Y420D1*
X80607Y566D1*
Y662D1*
X80655Y808D1*
X80753Y856D1*
X407Y-4888D2*
X504Y-4838D1*
X650Y-4693D1*
Y-5713D1*
X1547Y-4693D2*
X1062D1*
X1014Y-5130D1*
X1062Y-5082D1*
X1208Y-5033D1*
X1353D1*
X1499Y-5082D1*
X1596Y-5179D1*
X1645Y-5325D1*
Y-5421D1*
X1596Y-5567D1*
X1499Y-5665D1*
X1353Y-5713D1*
X1208D1*
X1062Y-5665D1*
X1014Y-5615D1*
X964Y-5519D1*
X1958Y-4888D2*
X2056Y-4838D1*
X2202Y-4693D1*
Y-5713D1*
X2564Y-5615D2*
X2516Y-5665D1*
X2564Y-5713D1*
X2614Y-5665D1*
X2564Y-5615D1*
X3170Y-4693D2*
X3025Y-4742D1*
X2976Y-4838D1*
Y-4936D1*
X3025Y-5033D1*
X3122Y-5082D1*
X3316Y-5130D1*
X3462Y-5179D1*
X3559Y-5276D1*
X3607Y-5373D1*
Y-5519D1*
X3559Y-5615D1*
X3510Y-5665D1*
X3364Y-5713D1*
X3170D1*
X3025Y-5665D1*
X2976Y-5615D1*
X2927Y-5519D1*
Y-5373D1*
X2976Y-5276D1*
X3073Y-5179D1*
X3218Y-5130D1*
X3413Y-5082D1*
X3510Y-5033D1*
X3559Y-4936D1*
Y-4838D1*
X3510Y-4742D1*
X3364Y-4693D1*
X3170D1*
X-6829Y431D2*
X-6878Y528D1*
X-7023Y674D1*
X-6003D1*
X-7023Y1571D2*
Y1086D1*
X-6586Y1037D1*
X-6635Y1086D1*
X-6684Y1232D1*
Y1377D1*
X-6635Y1523D1*
X-6538Y1620D1*
X-6392Y1669D1*
X-6295D1*
X-6149Y1620D1*
X-6052Y1523D1*
X-6003Y1377D1*
Y1232D1*
X-6052Y1086D1*
X-6101Y1037D1*
X-6198Y988D1*
X-6829Y1982D2*
X-6878Y2080D1*
X-7023Y2226D1*
X-6003D1*
X-6101Y2588D2*
X-6052Y2540D1*
X-6003Y2588D1*
X-6052Y2638D1*
X-6101Y2588D1*
X-6684Y3584D2*
X-6538Y3534D1*
X-6440Y3438D1*
X-6392Y3292D1*
Y3243D1*
X-6440Y3097D1*
X-6538Y3001D1*
X-6684Y2951D1*
X-6732D1*
X-6878Y3001D1*
X-6975Y3097D1*
X-7023Y3243D1*
Y3292D1*
X-6975Y3438D1*
X-6878Y3534D1*
X-6684Y3584D1*
X-6440D1*
X-6198Y3534D1*
X-6052Y3438D1*
X-6003Y3292D1*
Y3195D1*
X-6052Y3049D1*
X-6149Y3001D1*
X35150Y110534D2*
Y110582D1*
X35199Y110680D1*
X35247Y110728D1*
X35345Y110777D1*
X35539D1*
X35635Y110728D1*
X35684Y110680D1*
X35733Y110582D1*
Y110486D1*
X35684Y110388D1*
X35587Y110243D1*
X35101Y109757D1*
X35781D1*
X36727Y110437D2*
X36678Y110291D1*
X36581Y110194D1*
X36435Y110145D1*
X36387D1*
X36241Y110194D1*
X36145Y110291D1*
X36095Y110437D1*
Y110486D1*
X36145Y110632D1*
X36241Y110728D1*
X36387Y110777D1*
X36435D1*
X36581Y110728D1*
X36678Y110632D1*
X36727Y110437D1*
Y110194D1*
X36678Y109951D1*
X36581Y109805D1*
X36435Y109757D1*
X36339D1*
X36193Y109805D1*
X36145Y109903D1*
X37333Y110777D2*
X37187Y110728D1*
X37089Y110582D1*
X37041Y110340D1*
Y110194D1*
X37089Y109951D1*
X37187Y109805D1*
X37333Y109757D1*
X37430D1*
X37576Y109805D1*
X37672Y109951D1*
X37722Y110194D1*
Y110340D1*
X37672Y110582D1*
X37576Y110728D1*
X37430Y110777D1*
X37333D1*
X37672Y110582D2*
X37089Y109951D1*
X38327Y110777D2*
X38181Y110728D1*
X38084Y110582D1*
X38035Y110340D1*
Y110194D1*
X38084Y109951D1*
X38181Y109805D1*
X38327Y109757D1*
X38424D1*
X38570Y109805D1*
X38667Y109951D1*
X38716Y110194D1*
Y110340D1*
X38667Y110582D1*
X38570Y110728D1*
X38424Y110777D1*
X38327D1*
X38667Y110582D2*
X38084Y109951D1*
X53750Y119156D2*
X53848Y119205D1*
X53994Y119350D1*
Y118330D1*
X54794D2*
Y119350D1*
X54308Y118670D1*
X55036D1*
X55836Y118330D2*
Y119350D1*
X55350Y118670D1*
X56079D1*
X56490Y119350D2*
X57024D1*
X56733Y118961D1*
X56879D1*
X56976Y118913D1*
X57024Y118865D1*
X57073Y118719D1*
Y118622D1*
X57024Y118476D1*
X56927Y118378D1*
X56781Y118330D1*
X56635D1*
X56490Y118378D1*
X56442Y118428D1*
X56393Y118524D1*
X53750Y-7168D2*
X53848Y-7118D1*
X53994Y-6973D1*
Y-7993D1*
X54794D2*
Y-6973D1*
X54308Y-7653D1*
X55036D1*
X55836Y-7993D2*
Y-6973D1*
X55350Y-7653D1*
X56079D1*
X56490Y-6973D2*
X57024D1*
X56733Y-7362D1*
X56879D1*
X56976Y-7410D1*
X57024Y-7459D1*
X57073Y-7605D1*
Y-7701D1*
X57024Y-7847D1*
X56927Y-7945D1*
X56781Y-7993D1*
X56635D1*
X56490Y-7945D1*
X56442Y-7895D1*
X56393Y-7799D1*
X-10864Y25542D2*
X-10912D1*
X-11010Y25591D1*
X-11058Y25639D1*
X-11107Y25737D1*
Y25931D1*
X-11058Y26027D1*
X-11010Y26076D1*
X-10912Y26125D1*
X-10816D1*
X-10718Y26076D1*
X-10573Y25979D1*
X-10087Y25493D1*
Y26173D1*
X-10912Y26487D2*
X-10962Y26585D1*
X-11107Y26731D1*
X-10087D1*
X-11107Y27287D2*
X-11058Y27142D1*
X-10962Y27093D1*
X-10864D1*
X-10767Y27142D1*
X-10718Y27239D1*
X-10670Y27433D1*
X-10621Y27579D1*
X-10524Y27676D1*
X-10427Y27724D1*
X-10281D1*
X-10185Y27676D1*
X-10135Y27627D1*
X-10087Y27481D1*
Y27287D1*
X-10135Y27142D1*
X-10185Y27093D1*
X-10281Y27045D1*
X-10427D1*
X-10524Y27093D1*
X-10621Y27191D1*
X-10670Y27335D1*
X-10718Y27530D1*
X-10767Y27627D1*
X-10864Y27676D1*
X-10962D1*
X-11058Y27627D1*
X-11107Y27481D1*
Y27287D1*
Y28135D2*
Y28669D1*
X-10718Y28378D1*
Y28524D1*
X-10670Y28621D1*
X-10621Y28669D1*
X-10475Y28718D1*
X-10379D1*
X-10233Y28669D1*
X-10135Y28572D1*
X-10087Y28426D1*
Y28280D1*
X-10135Y28135D1*
X-10185Y28087D1*
X-10281Y28038D1*
X-10185Y29080D2*
X-10135Y29032D1*
X-10087Y29080D1*
X-10135Y29130D1*
X-10185Y29080D1*
X-11107Y30026D2*
Y29541D1*
X-10670Y29493D1*
X-10718Y29541D1*
X-10767Y29687D1*
Y29832D1*
X-10718Y29978D1*
X-10621Y30076D1*
X-10475Y30124D1*
X-10379D1*
X-10233Y30076D1*
X-10135Y29978D1*
X-10087Y29832D1*
Y29687D1*
X-10135Y29541D1*
X-10185Y29493D1*
X-10281Y29443D1*
X3935Y46662D2*
X4033Y46712D1*
X4179Y46857D1*
Y45837D1*
X4785Y46857D2*
X4639Y46808D1*
X4541Y46662D1*
X4493Y46420D1*
Y46274D1*
X4541Y46031D1*
X4639Y45885D1*
X4785Y45837D1*
X4881D1*
X5027Y45885D1*
X5124Y46031D1*
X5173Y46274D1*
Y46420D1*
X5124Y46662D1*
X5027Y46808D1*
X4881Y46857D1*
X4785D1*
X5124Y46662D2*
X4541Y46031D1*
X6070Y46712D2*
X6022Y46808D1*
X5876Y46857D1*
X5779D1*
X5633Y46808D1*
X5535Y46662D1*
X5487Y46420D1*
Y46177D1*
X5535Y45983D1*
X5633Y45885D1*
X5779Y45837D1*
X5827D1*
X5972Y45885D1*
X6070Y45983D1*
X6118Y46129D1*
Y46177D1*
X6070Y46323D1*
X5972Y46420D1*
X5827Y46468D1*
X5779D1*
X5633Y46420D1*
X5535Y46323D1*
X5487Y46177D1*
X6480Y45935D2*
X6432Y45885D1*
X6480Y45837D1*
X6530Y45885D1*
X6480Y45935D1*
X6941Y46857D2*
X7475D1*
X7184Y46468D1*
X7330D1*
X7426Y46420D1*
X7475Y46371D1*
X7524Y46225D1*
Y46129D1*
X7475Y45983D1*
X7378Y45885D1*
X7232Y45837D1*
X7086D1*
X6941Y45885D1*
X6893Y45935D1*
X6843Y46031D1*
X-8213Y3262D2*
X-9233Y3748D1*
Y3068D1*
X-8991Y4111D2*
X-9039D1*
X-9137Y4160D1*
X-9185Y4208D1*
X-9233Y4306D1*
Y4500D1*
X-9185Y4597D1*
X-9137Y4645D1*
X-9039Y4694D1*
X-8942D1*
X-8845Y4645D1*
X-8700Y4548D1*
X-8213Y4062D1*
Y4743D1*
X-8311Y5105D2*
X-8262Y5056D1*
X-8213Y5105D1*
X-8262Y5154D1*
X-8311Y5105D1*
X-9039Y5468D2*
X-9088Y5565D1*
X-9233Y5711D1*
X-8213D1*
X3261Y-1743D2*
X3748Y-723D1*
X3067D1*
X4111Y-966D2*
Y-918D1*
X4159Y-820D1*
X4207Y-772D1*
X4305Y-723D1*
X4499D1*
X4596Y-772D1*
X4644Y-820D1*
X4694Y-918D1*
Y-1014D1*
X4644Y-1112D1*
X4548Y-1257D1*
X4061Y-1743D1*
X4742D1*
X5104Y-1645D2*
X5056Y-1695D1*
X5104Y-1743D1*
X5153Y-1695D1*
X5104Y-1645D1*
X5467Y-918D2*
X5565Y-868D1*
X5711Y-723D1*
Y-1743D1*
X77950Y-1430D2*
X78970Y-1916D1*
Y-1235D1*
X78727Y-2279D2*
X78776D1*
X78873Y-2327D1*
X78922Y-2376D1*
X78970Y-2473D1*
Y-2668D1*
X78922Y-2764D1*
X78873Y-2812D1*
X78776Y-2862D1*
X78679D1*
X78581Y-2812D1*
X78436Y-2716D1*
X77950Y-2230D1*
Y-2910D1*
X78048Y-3272D2*
X77998Y-3224D1*
X77950Y-3272D1*
X77998Y-3322D1*
X78048Y-3272D1*
X78776Y-3635D2*
X78825Y-3733D1*
X78970Y-3879D1*
X77950D1*
X75090Y-2823D2*
X75576Y-1803D1*
X74895D1*
X75939Y-2046D2*
Y-1998D1*
X75987Y-1900D1*
X76036Y-1852D1*
X76133Y-1803D1*
X76328D1*
X76424Y-1852D1*
X76472Y-1900D1*
X76522Y-1998D1*
Y-2094D1*
X76472Y-2192D1*
X76376Y-2337D1*
X75890Y-2823D1*
X76570D1*
X76932Y-2725D2*
X76884Y-2775D1*
X76932Y-2823D1*
X76982Y-2775D1*
X76932Y-2725D1*
X77295Y-1998D2*
X77393Y-1948D1*
X77539Y-1803D1*
Y-2823D1*
X-2223Y100490D2*
X-3243Y100976D1*
Y100295D1*
X-3001Y101339D2*
X-3049D1*
X-3147Y101387D1*
X-3195Y101436D1*
X-3243Y101533D1*
Y101728D1*
X-3195Y101824D1*
X-3147Y101872D1*
X-3049Y101922D1*
X-2952D1*
X-2855Y101872D1*
X-2710Y101776D1*
X-2223Y101290D1*
Y101970D1*
X-2321Y102332D2*
X-2272Y102284D1*
X-2223Y102332D1*
X-2272Y102382D1*
X-2321Y102332D1*
X-3001Y102745D2*
X-3049D1*
X-3147Y102793D1*
X-3195Y102841D1*
X-3243Y102939D1*
Y103133D1*
X-3195Y103230D1*
X-3147Y103278D1*
X-3049Y103328D1*
X-2952D1*
X-2855Y103278D1*
X-2710Y103182D1*
X-2223Y102695D1*
Y103376D1*
X3264Y102677D2*
X3751Y103697D1*
X3070D1*
X4114Y103454D2*
Y103502D1*
X4162Y103600D1*
X4210Y103648D1*
X4308Y103697D1*
X4502D1*
X4599Y103648D1*
X4647Y103600D1*
X4697Y103502D1*
Y103406D1*
X4647Y103308D1*
X4551Y103163D1*
X4064Y102677D1*
X4745D1*
X5107Y102775D2*
X5059Y102725D1*
X5107Y102677D1*
X5156Y102725D1*
X5107Y102775D1*
X5519Y103454D2*
Y103502D1*
X5568Y103600D1*
X5616Y103648D1*
X5714Y103697D1*
X5908D1*
X6005Y103648D1*
X6053Y103600D1*
X6102Y103502D1*
Y103406D1*
X6053Y103308D1*
X5956Y103163D1*
X5470Y102677D1*
X6151D1*
X77783Y95796D2*
X78803Y95309D1*
Y95990D1*
X78561Y94946D2*
X78609D1*
X78707Y94898D1*
X78755Y94850D1*
X78803Y94752D1*
Y94558D1*
X78755Y94461D1*
X78707Y94413D1*
X78609Y94363D1*
X78512D1*
X78415Y94413D1*
X78270Y94509D1*
X77783Y94996D1*
Y94315D1*
X77881Y93953D2*
X77832Y94001D1*
X77783Y93953D1*
X77832Y93904D1*
X77881Y93953D1*
X78561Y93541D2*
X78609D1*
X78707Y93492D1*
X78755Y93444D1*
X78803Y93346D1*
Y93152D1*
X78755Y93055D1*
X78707Y93007D1*
X78609Y92958D1*
X78512D1*
X78415Y93007D1*
X78270Y93104D1*
X77783Y93590D1*
Y92909D1*
X75090Y101413D2*
X75576Y102433D1*
X74895D1*
X75939Y102191D2*
Y102239D1*
X75987Y102337D1*
X76036Y102385D1*
X76133Y102433D1*
X76328D1*
X76424Y102385D1*
X76472Y102337D1*
X76522Y102239D1*
Y102142D1*
X76472Y102045D1*
X76376Y101900D1*
X75890Y101413D1*
X76570D1*
X76932Y101511D2*
X76884Y101462D1*
X76932Y101413D1*
X76982Y101462D1*
X76932Y101511D1*
X77295Y102239D2*
X77393Y102288D1*
X77539Y102433D1*
Y101413D1*
X-10297Y90982D2*
Y90497D1*
X-9860Y90449D1*
X-9908Y90497D1*
X-9957Y90643D1*
Y90788D1*
X-9908Y90934D1*
X-9811Y91032D1*
X-9665Y91080D1*
X-9569D1*
X-9423Y91032D1*
X-9325Y90934D1*
X-9277Y90788D1*
Y90643D1*
X-9325Y90497D1*
X-9375Y90449D1*
X-9471Y90399D1*
X-10054Y91443D2*
X-10102D1*
X-10200Y91491D1*
X-10248Y91540D1*
X-10297Y91637D1*
Y91832D1*
X-10248Y91928D1*
X-10200Y91976D1*
X-10102Y92026D1*
X-10006D1*
X-9908Y91976D1*
X-9763Y91880D1*
X-9277Y91394D1*
Y92074D1*
Y92582D2*
X-10297Y93068D1*
Y92388D1*
X-9375Y93431D2*
X-9325Y93382D1*
X-9277Y93431D1*
X-9325Y93480D1*
X-9375Y93431D1*
X-9277Y93988D2*
X-10297Y94474D1*
Y93794D1*
X4371Y91151D2*
X4322Y91005D1*
X4225Y90907D1*
X4079Y90859D1*
X4031D1*
X3885Y90907D1*
X3788Y91005D1*
X3739Y91151D1*
Y91199D1*
X3788Y91345D1*
X3885Y91442D1*
X4031Y91490D1*
X4079D1*
X4225Y91442D1*
X4322Y91345D1*
X4371Y91151D1*
Y90907D1*
X4322Y90664D1*
X4225Y90518D1*
X4079Y90470D1*
X3982D1*
X3836Y90518D1*
X3788Y90616D1*
X4927Y91490D2*
X4782Y91442D1*
X4733Y91345D1*
Y91247D1*
X4782Y91151D1*
X4879Y91101D1*
X5073Y91053D1*
X5219Y91005D1*
X5316Y90907D1*
X5364Y90810D1*
Y90664D1*
X5316Y90568D1*
X5268Y90518D1*
X5122Y90470D1*
X4927D1*
X4782Y90518D1*
X4733Y90568D1*
X4685Y90664D1*
Y90810D1*
X4733Y90907D1*
X4831Y91005D1*
X4976Y91053D1*
X5170Y91101D1*
X5268Y91151D1*
X5316Y91247D1*
Y91345D1*
X5268Y91442D1*
X5122Y91490D1*
X4927D1*
X5726Y90568D2*
X5678Y90518D1*
X5726Y90470D1*
X5776Y90518D1*
X5726Y90568D1*
X6672Y91345D2*
X6624Y91442D1*
X6478Y91490D1*
X6381D1*
X6235Y91442D1*
X6138Y91296D1*
X6089Y91053D1*
Y90810D1*
X6138Y90616D1*
X6235Y90518D1*
X6381Y90470D1*
X6430D1*
X6574Y90518D1*
X6672Y90616D1*
X6720Y90762D1*
Y90810D1*
X6672Y90956D1*
X6574Y91053D1*
X6430Y91101D1*
X6381D1*
X6235Y91053D1*
X6138Y90956D1*
X6089Y90810D1*
X2955Y88290D2*
Y89310D1*
X2469Y88630D1*
X3198D1*
X3754Y89310D2*
X3609Y89262D1*
X3560Y89165D1*
Y89067D1*
X3609Y88971D1*
X3706Y88921D1*
X3900Y88873D1*
X4046Y88825D1*
X4142Y88727D1*
X4191Y88630D1*
Y88484D1*
X4142Y88388D1*
X4094Y88338D1*
X3948Y88290D1*
X3754D1*
X3609Y88338D1*
X3560Y88388D1*
X3511Y88484D1*
Y88630D1*
X3560Y88727D1*
X3657Y88825D1*
X3802Y88873D1*
X3996Y88921D1*
X4094Y88971D1*
X4142Y89067D1*
Y89165D1*
X4094Y89262D1*
X3948Y89310D1*
X3754D1*
X4553Y88388D2*
X4504Y88338D1*
X4553Y88290D1*
X4602Y88338D1*
X4553Y88388D1*
X5499Y89165D2*
X5450Y89262D1*
X5304Y89310D1*
X5208D1*
X5062Y89262D1*
X4964Y89116D1*
X4916Y88873D1*
Y88630D1*
X4964Y88436D1*
X5062Y88338D1*
X5208Y88290D1*
X5256D1*
X5401Y88338D1*
X5499Y88436D1*
X5547Y88582D1*
Y88630D1*
X5499Y88776D1*
X5401Y88873D1*
X5256Y88921D1*
X5208D1*
X5062Y88873D1*
X4964Y88776D1*
X4916Y88630D1*
X82247Y62135D2*
X82296D1*
X82393Y62087D1*
X82442Y62038D1*
X82490Y61941D1*
Y61746D1*
X82442Y61650D1*
X82393Y61601D1*
X82296Y61552D1*
X82199D1*
X82101Y61601D1*
X81956Y61698D1*
X81470Y62184D1*
Y61504D1*
X82247Y61141D2*
X82296D1*
X82393Y61092D1*
X82442Y61044D1*
X82490Y60946D1*
Y60752D1*
X82442Y60655D1*
X82393Y60607D1*
X82296Y60558D1*
X82199D1*
X82101Y60607D1*
X81956Y60704D1*
X81470Y61190D1*
Y60509D1*
X82345Y59613D2*
X82442Y59661D1*
X82490Y59807D1*
Y59904D1*
X82442Y60050D1*
X82296Y60147D1*
X82053Y60196D1*
X81810D1*
X81616Y60147D1*
X81518Y60050D1*
X81470Y59904D1*
Y59855D1*
X81518Y59711D1*
X81616Y59613D1*
X81762Y59565D1*
X81810D1*
X81956Y59613D1*
X82053Y59711D1*
X82101Y59855D1*
Y59904D1*
X82053Y60050D1*
X81956Y60147D1*
X81810Y60196D1*
X81568Y59203D2*
X81518Y59251D1*
X81470Y59203D1*
X81518Y59153D1*
X81568Y59203D1*
X82490Y58257D2*
Y58742D1*
X82053Y58790D1*
X82101Y58742D1*
X82151Y58596D1*
Y58451D1*
X82101Y58305D1*
X82005Y58207D1*
X81859Y58159D1*
X81762D1*
X81616Y58207D1*
X81518Y58305D1*
X81470Y58451D1*
Y58596D1*
X81518Y58742D1*
X81568Y58790D1*
X81664Y58839D1*
X83587Y40192D2*
X83636D1*
X83733Y40143D1*
X83782Y40095D1*
X83830Y39997D1*
Y39803D1*
X83782Y39706D1*
X83733Y39658D1*
X83636Y39609D1*
X83539D1*
X83441Y39658D1*
X83296Y39755D1*
X82810Y40241D1*
Y39560D1*
X83587Y39197D2*
X83636D1*
X83733Y39149D1*
X83782Y39101D1*
X83830Y39003D1*
Y38809D1*
X83782Y38712D1*
X83733Y38664D1*
X83636Y38614D1*
X83539D1*
X83441Y38664D1*
X83296Y38760D1*
X82810Y39247D1*
Y38566D1*
X83685Y37670D2*
X83782Y37718D1*
X83830Y37864D1*
Y37960D1*
X83782Y38106D1*
X83636Y38204D1*
X83393Y38252D1*
X83150D1*
X82956Y38204D1*
X82858Y38106D1*
X82810Y37960D1*
Y37912D1*
X82858Y37767D1*
X82956Y37670D1*
X83102Y37621D1*
X83150D1*
X83296Y37670D1*
X83393Y37767D1*
X83441Y37912D1*
Y37960D1*
X83393Y38106D1*
X83296Y38204D1*
X83150Y38252D1*
X82908Y37259D2*
X82858Y37307D1*
X82810Y37259D1*
X82858Y37210D1*
X82908Y37259D1*
X83830Y36313D2*
Y36798D1*
X83393Y36847D1*
X83441Y36798D1*
X83491Y36652D1*
Y36507D1*
X83441Y36361D1*
X83345Y36264D1*
X83199Y36215D1*
X83102D1*
X82956Y36264D1*
X82858Y36361D1*
X82810Y36507D1*
Y36652D1*
X82858Y36798D1*
X82908Y36847D1*
X83004Y36896D1*
X65831Y61993D2*
X65879D1*
X65977Y61945D1*
X66025Y61897D1*
X66073Y61799D1*
Y61605D1*
X66025Y61508D1*
X65977Y61460D1*
X65879Y61410D1*
X65782D1*
X65685Y61460D1*
X65540Y61556D1*
X65053Y62043D1*
Y61362D1*
X65879Y61048D2*
X65928Y60951D1*
X66073Y60805D1*
X65053D1*
X65928Y59908D2*
X66025Y59956D1*
X66073Y60102D1*
Y60199D1*
X66025Y60345D1*
X65879Y60443D1*
X65636Y60491D1*
X65394D1*
X65199Y60443D1*
X65102Y60345D1*
X65053Y60199D1*
Y60151D1*
X65102Y60006D1*
X65199Y59908D1*
X65345Y59860D1*
X65394D1*
X65540Y59908D1*
X65636Y60006D1*
X65685Y60151D1*
Y60199D1*
X65636Y60345D1*
X65540Y60443D1*
X65394Y60491D1*
X65151Y59498D2*
X65102Y59546D1*
X65053Y59498D1*
X65102Y59448D1*
X65151Y59498D1*
X65053Y58940D2*
X66073Y58454D1*
Y59134D1*
X64899Y83353D2*
X65432D1*
X65141Y82965D1*
X65287D1*
X65384Y82916D1*
X65432Y82868D1*
X65482Y82722D1*
Y82625D1*
X65432Y82479D1*
X65336Y82382D1*
X65190Y82333D1*
X65044D1*
X64899Y82382D1*
X64851Y82431D1*
X64801Y82528D1*
X66087Y83353D2*
X65941Y83305D1*
X65844Y83159D1*
X65795Y82916D1*
Y82770D1*
X65844Y82528D1*
X65941Y82382D1*
X66087Y82333D1*
X66184D1*
X66330Y82382D1*
X66427Y82528D1*
X66476Y82770D1*
Y82916D1*
X66427Y83159D1*
X66330Y83305D1*
X66184Y83353D1*
X66087D1*
X66427Y83159D2*
X65844Y82528D1*
X67082Y83353D2*
X66936Y83305D1*
X66838Y83159D1*
X66790Y82916D1*
Y82770D1*
X66838Y82528D1*
X66936Y82382D1*
X67082Y82333D1*
X67178D1*
X67324Y82382D1*
X67421Y82528D1*
X67470Y82770D1*
Y82916D1*
X67421Y83159D1*
X67324Y83305D1*
X67178Y83353D1*
X67082D1*
X67421Y83159D2*
X66838Y82528D1*
X67832Y82431D2*
X67784Y82382D1*
X67832Y82333D1*
X67882Y82382D1*
X67832Y82431D1*
X68195Y83159D2*
X68293Y83208D1*
X68439Y83353D1*
Y82333D1*
M02*
