G04 DipTrace 2.4.0.2*
%INTopMask.gbr*%
%MOIN*%
%ADD40C,0.1594*%
%ADD46R,0.0472X0.063*%
%ADD48R,0.063X0.0472*%
%ADD50C,0.0669*%
%ADD52R,0.0669X0.0591*%
%ADD54C,0.063*%
%ADD56C,0.0669*%
%ADD57R,0.0669X0.0669*%
%ADD59R,0.0591X0.0669*%
%ADD61O,0.1496X0.0945*%
%ADD63O,0.126X0.0984*%
%FSLAX44Y44*%
G04*
G70*
G90*
G75*
G01*
%LNTopMask*%
%LPD*%
D63*
X29982Y33944D3*
Y31975D3*
Y30007D3*
X30055Y25304D3*
Y23336D3*
Y21367D3*
X30064Y16665D3*
Y14697D3*
Y12728D3*
X6888Y12443D3*
Y14411D3*
Y16380D3*
D61*
X20400Y32021D3*
X21200Y29671D3*
Y34371D3*
X26000D3*
Y29671D3*
X20483Y23354D3*
X21283Y21004D3*
Y25704D3*
X26083D3*
Y21004D3*
X20480Y14685D3*
X21280Y12335D3*
Y17035D3*
X26080D3*
Y12335D3*
X16479Y14433D3*
X15679Y16783D3*
Y12083D3*
X10879D3*
Y16783D3*
D59*
X22626Y36387D3*
X23374D3*
X22609Y27673D3*
X23357D3*
X22563Y18862D3*
X23311D3*
X15652Y9899D3*
X16400D3*
D57*
X9672Y35016D3*
D56*
X8672D3*
Y32016D3*
X9672D3*
D57*
X9713Y30773D3*
D56*
X8713D3*
Y27773D3*
X9713D3*
D57*
X9719Y26526D3*
D56*
X8719D3*
Y23526D3*
X9719D3*
D57*
X9744Y22260D3*
D56*
X8744D3*
Y19260D3*
X9744D3*
D54*
X12552Y33434D3*
X12052Y32934D3*
G36*
X11552Y33024D2*
X11142Y33434D1*
X11552Y33844D1*
X11963Y33434D1*
X11552Y33024D1*
G37*
D54*
X12075Y28828D3*
X11575Y29328D3*
G36*
X11665Y29828D2*
X12075Y30238D1*
X12485Y29828D1*
X12075Y29418D1*
X11665Y29828D1*
G37*
D54*
X12120Y24505D3*
X11620Y25005D3*
G36*
X11710Y25505D2*
X12120Y25915D1*
X12530Y25505D1*
X12120Y25095D1*
X11710Y25505D1*
G37*
D54*
X11925Y20256D3*
X11425Y20756D3*
G36*
X11515Y21256D2*
X11925Y21666D1*
X12335Y21256D1*
X11925Y20846D1*
X11515Y21256D1*
G37*
D59*
X11663Y36315D3*
X12411D3*
D52*
X17997Y36816D3*
Y37564D3*
X13854Y36335D3*
Y35587D3*
X18062Y28248D3*
Y27500D3*
D59*
X16127Y31865D3*
X15379D3*
D52*
X18546Y19037D3*
Y19785D3*
D59*
X16134Y23921D3*
X15386D3*
D52*
X18552Y17360D3*
Y16612D3*
D57*
X4923Y37660D3*
D50*
Y36660D3*
Y35660D3*
Y34660D3*
Y33660D3*
Y32660D3*
Y31660D3*
Y30660D3*
Y29660D3*
Y28660D3*
Y27660D3*
Y26660D3*
Y25660D3*
X5923Y37660D3*
Y36660D3*
Y35660D3*
Y34660D3*
Y33660D3*
Y32660D3*
Y31660D3*
Y30660D3*
Y29660D3*
Y28660D3*
Y27660D3*
Y26660D3*
Y25660D3*
D48*
X20307Y36442D3*
X19441Y36816D3*
X20307Y37190D3*
X20976Y27160D3*
X20110Y27534D3*
X20976Y27908D3*
X20891Y18623D3*
X20025Y18997D3*
X20891Y19371D3*
D46*
X16042Y19542D3*
X15668Y18676D3*
X15294Y19542D3*
D57*
X8079Y38572D3*
D50*
X9079D3*
X10079D3*
X11079D3*
D40*
X31419Y41417D3*
Y5456D3*
X5455D3*
X5457Y41417D3*
M02*
