G04 DipTrace 2.4.0.2*
%INTopSilk.gbr*%
%MOMM*%
%ADD10C,0.254*%
%ADD12C,0.076*%
%ADD15C,0.508*%
%ADD29C,0.457*%
%ADD65C,0.157*%
%ADD66C,0.392*%
%ADD67C,0.118*%
%FSLAX53Y53*%
G04*
G71*
G90*
G75*
G01*
%LNTopSilk*%
%LPD*%
X70353Y79317D2*
D10*
X62060D1*
Y63127D1*
X70353D1*
Y79317D1*
X70540Y57373D2*
X62247D1*
Y41183D1*
X70540D1*
Y57373D1*
X70563Y35430D2*
X62270D1*
Y19240D1*
X70563D1*
Y35430D1*
X3297Y18504D2*
X11590D1*
Y34694D1*
X3297D1*
Y18504D1*
X39277Y79588D2*
X61883D1*
Y63078D2*
Y79588D1*
Y63078D2*
X39277D1*
Y79588D2*
Y63078D1*
X46262Y77302D2*
X46897D1*
Y71969D1*
X45627D1*
Y71333D1*
Y70698D1*
X48168D2*
Y71969D1*
X46897D1*
X45627Y70698D2*
X46897D1*
Y65365D1*
Y70698D2*
X48168D1*
X46897Y65365D2*
X46262D1*
X45627Y70698D2*
X48168Y71969D1*
X48801Y71333D2*
X55406D1*
X56041Y71969D1*
Y75068D2*
Y71969D1*
Y70698D2*
Y67574D1*
Y71969D2*
X56371Y72273D1*
X43976Y71333D2*
X44991D1*
X39487Y57575D2*
X62093D1*
Y41065D2*
Y57575D1*
Y41065D2*
X39487D1*
Y57575D2*
Y41065D1*
X46472Y55288D2*
X47107D1*
Y49956D1*
X45837D1*
Y49320D1*
Y48684D1*
X48378D2*
Y49956D1*
X47107D1*
X45837Y48684D2*
X47107D1*
Y43352D1*
Y48684D2*
X48378D1*
X47107Y43352D2*
X46472D1*
X45837Y48684D2*
X48378Y49956D1*
X49011Y49320D2*
X55616D1*
X56251Y49956D1*
Y53055D2*
Y49956D1*
Y48684D2*
Y45561D1*
Y49956D2*
X56581Y50259D1*
X44186Y49320D2*
X45201D1*
X39480Y35555D2*
X62086D1*
Y19045D2*
Y35555D1*
Y19045D2*
X39480D1*
Y35555D2*
Y19045D1*
X46465Y33268D2*
X47100D1*
Y27936D1*
X45830D1*
Y27300D1*
Y26664D1*
X48371D2*
Y27936D1*
X47100D1*
X45830Y26664D2*
X47100D1*
Y21332D1*
Y26664D2*
X48371D1*
X47100Y21332D2*
X46465D1*
X45830Y26664D2*
X48371Y27936D1*
X49004Y27300D2*
X55609D1*
X56245Y27936D1*
Y31035D2*
Y27936D1*
Y26664D2*
Y23541D1*
Y27936D2*
X56575Y28239D1*
X44180Y27300D2*
X45195D1*
X34397Y18405D2*
X11791D1*
Y34915D2*
Y18405D1*
Y34915D2*
X34397D1*
Y18405D2*
Y34915D1*
X27411Y20692D2*
X26776D1*
Y26024D1*
X28047D1*
Y26660D1*
Y27296D1*
X25506D2*
Y26024D1*
X26776D1*
X28047Y27296D2*
X26776D1*
Y32628D1*
Y27296D2*
X25506D1*
X26776Y32628D2*
X27411D1*
X28047Y27296D2*
X25506Y26024D1*
X24873Y26660D2*
X18267D1*
X17632Y26024D1*
Y22925D2*
Y26024D1*
Y27296D2*
Y30419D1*
Y26024D2*
X17302Y25721D1*
X29697Y26660D2*
X28682D1*
X46520Y81774D2*
Y83073D1*
X46477Y59641D2*
Y60940D1*
X46360Y37261D2*
Y38559D1*
X28807Y14494D2*
Y15793D1*
X15897Y77730D2*
X10697D1*
Y72530D1*
X15897D1*
Y74530D1*
Y75730D2*
Y77730D1*
Y75730D2*
G03X15897Y74530I0J-600D01*
G01*
X16000Y66953D2*
X10800D1*
Y61753D1*
X16000D1*
Y63753D1*
Y64953D2*
Y66953D1*
Y64953D2*
G03X16000Y63753I0J-600D01*
G01*
X16017Y56167D2*
X10817D1*
Y50967D1*
X16017D1*
Y52967D1*
Y54167D2*
Y56167D1*
Y54167D2*
G03X16017Y52967I0J-600D01*
G01*
X16080Y45330D2*
X10880D1*
Y40130D1*
X16080D1*
Y42130D1*
Y43330D2*
Y45330D1*
Y43330D2*
G03X16080Y42130I0J-600D01*
G01*
X18460Y76877D2*
X17960Y77377D1*
X18960D2*
X18460Y77877D1*
X17960Y77377D1*
X17720Y74922D2*
X17727Y75124D1*
X17748Y75325D1*
X17783Y75524D1*
X17832Y75720D1*
X17895Y75912D1*
X17970Y76099D1*
X18059Y76281D1*
X18160Y76456D1*
X18273Y76623D1*
X18397Y76783D1*
X18533Y76933D1*
X18678Y77073D1*
X18833Y77203D1*
X18996Y77322D1*
X19167Y77429D1*
X19346Y77524D1*
X19530Y77606D1*
X19720Y77675D1*
X19914Y77731D1*
X20112Y77773D1*
X20312Y77801D1*
X20514Y77815D1*
X20716D1*
X20917Y77801D1*
X21117Y77773D1*
X21315Y77731D1*
X21509Y77675D1*
X21699Y77606D1*
X21883Y77524D1*
X22062Y77429D1*
X22233Y77322D1*
X22396Y77203D1*
X22551Y77073D1*
X22697Y76933D1*
X22832Y76783D1*
X22956Y76623D1*
X23069Y76456D1*
X23170Y76281D1*
X23259Y76099D1*
X23334Y75912D1*
X23397Y75720D1*
X23446Y75524D1*
X23481Y75325D1*
X23502Y75124D1*
X23509Y74922D1*
X23502Y74720D1*
X23481Y74519D1*
X23446Y74320D1*
X23397Y74124D1*
X23334Y73932D1*
X23259Y73745D1*
X23170Y73563D1*
X23069Y73388D1*
X22956Y73221D1*
X22832Y73062D1*
X22697Y72912D1*
X22551Y72771D1*
X22396Y72641D1*
X22233Y72523D1*
X22062Y72416D1*
X21883Y72321D1*
X21699Y72239D1*
X21509Y72169D1*
X21315Y72114D1*
X21117Y72072D1*
X20917Y72044D1*
X20716Y72030D1*
X20514D1*
X20312Y72044D1*
X20112Y72072D1*
X19914Y72114D1*
X19720Y72169D1*
X19530Y72239D1*
X19346Y72321D1*
X19167Y72416D1*
X18996Y72523D1*
X18833Y72641D1*
X18678Y72771D1*
X18533Y72912D1*
X18397Y73062D1*
X18273Y73221D1*
X18160Y73388D1*
X18059Y73563D1*
X17970Y73745D1*
X17895Y73932D1*
X17832Y74124D1*
X17783Y74320D1*
X17748Y74519D1*
X17727Y74720D1*
X17720Y74922D1*
X22623Y66647D2*
X23123Y67147D1*
Y66147D2*
X23623Y66647D1*
X23123Y67147D1*
X17774Y64492D2*
X17782Y64694D1*
X17803Y64895D1*
X17838Y65094D1*
X17887Y65290D1*
X17949Y65482D1*
X18025Y65669D1*
X18113Y65851D1*
X18214Y66026D1*
X18327Y66193D1*
X18452Y66353D1*
X18587Y66503D1*
X18732Y66643D1*
X18887Y66773D1*
X19050Y66892D1*
X19222Y66999D1*
X19400Y67094D1*
X19585Y67176D1*
X19774Y67245D1*
X19969Y67300D1*
X20166Y67342D1*
X20366Y67371D1*
X20568Y67385D1*
X20770D1*
X20971Y67371D1*
X21171Y67342D1*
X21369Y67300D1*
X21563Y67245D1*
X21753Y67176D1*
X21938Y67094D1*
X22116Y66999D1*
X22287Y66892D1*
X22451Y66773D1*
X22606Y66643D1*
X22751Y66503D1*
X22886Y66353D1*
X23010Y66193D1*
X23123Y66026D1*
X23224Y65851D1*
X23313Y65669D1*
X23389Y65482D1*
X23451Y65290D1*
X23500Y65094D1*
X23535Y64895D1*
X23556Y64694D1*
X23563Y64492D1*
X23556Y64290D1*
X23535Y64089D1*
X23500Y63890D1*
X23451Y63694D1*
X23389Y63502D1*
X23313Y63315D1*
X23224Y63133D1*
X23123Y62958D1*
X23010Y62791D1*
X22886Y62632D1*
X22751Y62482D1*
X22606Y62341D1*
X22451Y62211D1*
X22287Y62093D1*
X22116Y61986D1*
X21938Y61891D1*
X21753Y61809D1*
X21563Y61739D1*
X21369Y61684D1*
X21171Y61642D1*
X20971Y61614D1*
X20770Y61600D1*
X20568D1*
X20366Y61614D1*
X20166Y61642D1*
X19969Y61684D1*
X19774Y61739D1*
X19585Y61809D1*
X19400Y61891D1*
X19222Y61986D1*
X19050Y62093D1*
X18887Y62211D1*
X18732Y62341D1*
X18587Y62482D1*
X18452Y62632D1*
X18327Y62791D1*
X18214Y62958D1*
X18113Y63133D1*
X18025Y63315D1*
X17949Y63502D1*
X17887Y63694D1*
X17838Y63890D1*
X17803Y64089D1*
X17782Y64290D1*
X17774Y64492D1*
X22738Y55665D2*
X23238Y56165D1*
Y55165D2*
X23738Y55665D1*
X23238Y56165D1*
X17890Y53510D2*
X17897Y53712D1*
X17918Y53913D1*
X17953Y54112D1*
X18002Y54308D1*
X18064Y54500D1*
X18140Y54688D1*
X18228Y54869D1*
X18329Y55044D1*
X18442Y55212D1*
X18567Y55371D1*
X18702Y55521D1*
X18847Y55661D1*
X19002Y55791D1*
X19165Y55910D1*
X19337Y56017D1*
X19515Y56112D1*
X19700Y56194D1*
X19889Y56263D1*
X20084Y56319D1*
X20281Y56361D1*
X20481Y56389D1*
X20683Y56403D1*
X20885D1*
X21086Y56389D1*
X21286Y56361D1*
X21484Y56319D1*
X21678Y56263D1*
X21868Y56194D1*
X22053Y56112D1*
X22231Y56017D1*
X22402Y55910D1*
X22566Y55791D1*
X22721Y55661D1*
X22866Y55521D1*
X23001Y55371D1*
X23125Y55212D1*
X23238Y55044D1*
X23339Y54869D1*
X23428Y54688D1*
X23504Y54500D1*
X23566Y54308D1*
X23615Y54112D1*
X23650Y53913D1*
X23671Y53712D1*
X23678Y53510D1*
X23671Y53309D1*
X23650Y53108D1*
X23615Y52909D1*
X23566Y52713D1*
X23504Y52521D1*
X23428Y52333D1*
X23339Y52152D1*
X23238Y51977D1*
X23125Y51809D1*
X23001Y51650D1*
X22866Y51500D1*
X22721Y51360D1*
X22566Y51230D1*
X22402Y51111D1*
X22231Y51004D1*
X22053Y50909D1*
X21868Y50827D1*
X21678Y50758D1*
X21484Y50702D1*
X21286Y50660D1*
X21086Y50632D1*
X20885Y50618D1*
X20683D1*
X20481Y50632D1*
X20281Y50660D1*
X20084Y50702D1*
X19889Y50758D1*
X19700Y50827D1*
X19515Y50909D1*
X19337Y51004D1*
X19165Y51111D1*
X19002Y51230D1*
X18847Y51360D1*
X18702Y51500D1*
X18567Y51650D1*
X18442Y51809D1*
X18329Y51977D1*
X18228Y52152D1*
X18140Y52333D1*
X18064Y52521D1*
X18002Y52713D1*
X17953Y52909D1*
X17918Y53108D1*
X17897Y53309D1*
X17890Y53510D1*
X22243Y44873D2*
X22743Y45373D1*
Y44373D2*
X23244Y44873D1*
X22743Y45373D1*
X17395Y42719D2*
X17402Y42921D1*
X17423Y43122D1*
X17458Y43321D1*
X17507Y43517D1*
X17569Y43709D1*
X17645Y43896D1*
X17733Y44078D1*
X17834Y44253D1*
X17947Y44420D1*
X18072Y44579D1*
X18207Y44729D1*
X18352Y44870D1*
X18507Y45000D1*
X18670Y45118D1*
X18842Y45225D1*
X19020Y45320D1*
X19205Y45402D1*
X19394Y45471D1*
X19589Y45527D1*
X19786Y45569D1*
X19986Y45597D1*
X20188Y45611D1*
X20390D1*
X20591Y45597D1*
X20791Y45569D1*
X20989Y45527D1*
X21183Y45471D1*
X21373Y45402D1*
X21558Y45320D1*
X21736Y45225D1*
X21907Y45118D1*
X22071Y45000D1*
X22226Y44870D1*
X22371Y44729D1*
X22506Y44579D1*
X22630Y44420D1*
X22743Y44253D1*
X22844Y44078D1*
X22933Y43896D1*
X23009Y43709D1*
X23071Y43517D1*
X23120Y43321D1*
X23155Y43122D1*
X23176Y42921D1*
X23183Y42719D1*
X23176Y42517D1*
X23155Y42316D1*
X23120Y42117D1*
X23071Y41921D1*
X23009Y41729D1*
X22933Y41542D1*
X22844Y41360D1*
X22743Y41185D1*
X22630Y41018D1*
X22506Y40858D1*
X22371Y40708D1*
X22226Y40568D1*
X22071Y40438D1*
X21907Y40319D1*
X21736Y40212D1*
X21558Y40117D1*
X21373Y40035D1*
X21183Y39966D1*
X20989Y39910D1*
X20791Y39868D1*
X20591Y39840D1*
X20390Y39826D1*
X20188D1*
X19986Y39840D1*
X19786Y39868D1*
X19589Y39910D1*
X19394Y39966D1*
X19205Y40035D1*
X19020Y40117D1*
X18842Y40212D1*
X18670Y40319D1*
X18507Y40438D1*
X18352Y40568D1*
X18207Y40708D1*
X18072Y40858D1*
X17947Y41018D1*
X17834Y41185D1*
X17733Y41360D1*
X17645Y41542D1*
X17569Y41729D1*
X17507Y41921D1*
X17458Y42117D1*
X17423Y42316D1*
X17402Y42517D1*
X17395Y42719D1*
X1233Y86715D2*
X6313D1*
Y53907D1*
X1233D2*
X6313D1*
X1233Y86715D2*
Y53907D1*
X40290Y82063D2*
X40670D1*
Y84923D1*
X40290D1*
Y82063D1*
D29*
X40990Y81613D3*
X41990Y58487D2*
D10*
X42370D1*
Y61347D1*
X41990D1*
Y58487D1*
D29*
X42690Y58037D3*
X41773Y36803D2*
D10*
X42153D1*
Y39663D1*
X41773D1*
Y36803D1*
D29*
X42473Y36353D3*
X31247Y38347D2*
D10*
X28387D1*
Y38727D1*
X31247D1*
Y38347D1*
D29*
X31697Y39047D3*
X19410Y86703D2*
D10*
Y89243D1*
X9250Y86703D2*
X19410D1*
X9250Y89243D2*
X19410D1*
X9250Y86703D2*
Y89243D1*
X70383Y76327D2*
D15*
X72163D1*
X72173Y73077D1*
X71963Y72710D2*
X71964Y72724D1*
X71965Y72737D1*
X71968Y72751D1*
X71971Y72764D1*
X71975Y72777D1*
X71981Y72790D1*
X71987Y72802D1*
X71994Y72814D1*
X72002Y72826D1*
X72011Y72836D1*
X72020Y72847D1*
X72030Y72856D1*
X72041Y72865D1*
X72052Y72873D1*
X72064Y72880D1*
X72077Y72887D1*
X72089Y72892D1*
X72103Y72897D1*
X72116Y72901D1*
X72130Y72904D1*
X72144Y72906D1*
X72158Y72907D1*
X72172D1*
X72186Y72906D1*
X72200Y72904D1*
X72214Y72901D1*
X72227Y72897D1*
X72241Y72892D1*
X72253Y72887D1*
X72266Y72880D1*
X72278Y72873D1*
X72289Y72865D1*
X72300Y72856D1*
X72310Y72847D1*
X72319Y72836D1*
X72328Y72826D1*
X72336Y72814D1*
X72343Y72802D1*
X72349Y72790D1*
X72355Y72777D1*
X72359Y72764D1*
X72362Y72751D1*
X72365Y72737D1*
X72366Y72724D1*
X72367Y72710D1*
X72366Y72696D1*
X72365Y72683D1*
X72362Y72669D1*
X72359Y72656D1*
X72355Y72643D1*
X72349Y72630D1*
X72343Y72618D1*
X72336Y72606D1*
X72328Y72594D1*
X72319Y72584D1*
X72310Y72573D1*
X72300Y72564D1*
X72289Y72555D1*
X72278Y72547D1*
X72266Y72540D1*
X72253Y72533D1*
X72241Y72528D1*
X72227Y72523D1*
X72214Y72519D1*
X72200Y72516D1*
X72186Y72514D1*
X72172Y72513D1*
X72158D1*
X72144Y72514D1*
X72130Y72516D1*
X72116Y72519D1*
X72103Y72523D1*
X72089Y72528D1*
X72077Y72533D1*
X72064Y72540D1*
X72052Y72547D1*
X72041Y72555D1*
X72030Y72564D1*
X72020Y72573D1*
X72011Y72584D1*
X72002Y72594D1*
X71994Y72606D1*
X71987Y72618D1*
X71981Y72630D1*
X71975Y72643D1*
X71971Y72656D1*
X71968Y72669D1*
X71965Y72683D1*
X71964Y72696D1*
X71963Y72710D1*
X72173Y72673D2*
X70390Y71450D1*
X70263Y66257D2*
X72243Y66273D1*
X72237Y66263D2*
X72247Y68343D1*
X72047Y68627D2*
Y68640D1*
X72049Y68654D1*
X72051Y68668D1*
X72054Y68681D1*
X72059Y68694D1*
X72064Y68707D1*
X72070Y68719D1*
X72077Y68731D1*
X72085Y68742D1*
X72094Y68753D1*
X72103Y68763D1*
X72113Y68773D1*
X72124Y68782D1*
X72136Y68790D1*
X72148Y68797D1*
X72160Y68803D1*
X72173Y68809D1*
X72186Y68814D1*
X72200Y68817D1*
X72213Y68820D1*
X72227Y68822D1*
X72241Y68823D1*
X72255D1*
X72269Y68822D1*
X72283Y68820D1*
X72297Y68817D1*
X72311Y68814D1*
X72324Y68809D1*
X72337Y68803D1*
X72349Y68797D1*
X72361Y68790D1*
X72372Y68782D1*
X72383Y68773D1*
X72393Y68763D1*
X72403Y68753D1*
X72411Y68742D1*
X72419Y68731D1*
X72426Y68719D1*
X72433Y68707D1*
X72438Y68694D1*
X72442Y68681D1*
X72446Y68668D1*
X72448Y68654D1*
X72450Y68640D1*
Y68627D1*
Y68613D1*
X72448Y68599D1*
X72446Y68586D1*
X72442Y68572D1*
X72438Y68559D1*
X72433Y68547D1*
X72426Y68534D1*
X72419Y68522D1*
X72411Y68511D1*
X72403Y68500D1*
X72393Y68490D1*
X72383Y68481D1*
X72372Y68472D1*
X72361Y68464D1*
X72349Y68456D1*
X72337Y68450D1*
X72324Y68444D1*
X72311Y68440D1*
X72297Y68436D1*
X72283Y68433D1*
X72269Y68431D1*
X72255Y68430D1*
X72241D1*
X72227Y68431D1*
X72213Y68433D1*
X72200Y68436D1*
X72186Y68440D1*
X72173Y68444D1*
X72160Y68450D1*
X72148Y68456D1*
X72136Y68464D1*
X72124Y68472D1*
X72113Y68481D1*
X72103Y68490D1*
X72094Y68500D1*
X72085Y68511D1*
X72077Y68522D1*
X72070Y68534D1*
X72064Y68547D1*
X72059Y68559D1*
X72054Y68572D1*
X72051Y68586D1*
X72049Y68599D1*
X72047Y68613D1*
Y68627D1*
X70597Y54290D2*
X72377D1*
X72387Y51040D1*
X72177Y50673D2*
Y50687D1*
X72179Y50701D1*
X72181Y50714D1*
X72184Y50728D1*
X72189Y50741D1*
X72194Y50753D1*
X72200Y50766D1*
X72207Y50778D1*
X72215Y50789D1*
X72224Y50800D1*
X72233Y50810D1*
X72243Y50819D1*
X72254Y50828D1*
X72266Y50836D1*
X72278Y50844D1*
X72290Y50850D1*
X72303Y50856D1*
X72316Y50860D1*
X72330Y50864D1*
X72343Y50867D1*
X72357Y50869D1*
X72371Y50870D1*
X72385D1*
X72399Y50869D1*
X72413Y50867D1*
X72427Y50864D1*
X72441Y50860D1*
X72454Y50856D1*
X72467Y50850D1*
X72479Y50844D1*
X72491Y50836D1*
X72502Y50828D1*
X72513Y50819D1*
X72523Y50810D1*
X72533Y50800D1*
X72541Y50789D1*
X72549Y50778D1*
X72556Y50766D1*
X72563Y50753D1*
X72568Y50741D1*
X72572Y50728D1*
X72576Y50714D1*
X72578Y50701D1*
X72580Y50687D1*
Y50673D1*
Y50660D1*
X72578Y50646D1*
X72576Y50632D1*
X72572Y50619D1*
X72568Y50606D1*
X72563Y50593D1*
X72556Y50581D1*
X72549Y50569D1*
X72541Y50558D1*
X72533Y50547D1*
X72523Y50537D1*
X72513Y50527D1*
X72502Y50518D1*
X72491Y50510D1*
X72479Y50503D1*
X72467Y50497D1*
X72454Y50491D1*
X72441Y50486D1*
X72427Y50483D1*
X72413Y50480D1*
X72399Y50478D1*
X72385Y50477D1*
X72371D1*
X72357Y50478D1*
X72343Y50480D1*
X72330Y50483D1*
X72316Y50486D1*
X72303Y50491D1*
X72290Y50497D1*
X72278Y50503D1*
X72266Y50510D1*
X72254Y50518D1*
X72243Y50527D1*
X72233Y50537D1*
X72224Y50547D1*
X72215Y50558D1*
X72207Y50569D1*
X72200Y50581D1*
X72194Y50593D1*
X72189Y50606D1*
X72184Y50619D1*
X72181Y50632D1*
X72179Y50646D1*
X72177Y50660D1*
Y50673D1*
X72387Y50637D2*
X70603Y49413D1*
X70477Y44220D2*
X72457Y44237D1*
X72450Y44227D2*
X72460Y46307D1*
X72260Y46590D2*
Y46604D1*
X72262Y46617D1*
X72264Y46631D1*
X72268Y46644D1*
X72272Y46657D1*
X72277Y46670D1*
X72284Y46682D1*
X72291Y46694D1*
X72299Y46706D1*
X72307Y46716D1*
X72317Y46727D1*
X72327Y46736D1*
X72338Y46745D1*
X72349Y46753D1*
X72361Y46760D1*
X72373Y46767D1*
X72386Y46772D1*
X72399Y46777D1*
X72413Y46781D1*
X72427Y46784D1*
X72441Y46786D1*
X72455Y46787D1*
X72469D1*
X72483Y46786D1*
X72497Y46784D1*
X72510Y46781D1*
X72524Y46777D1*
X72537Y46772D1*
X72550Y46767D1*
X72562Y46760D1*
X72574Y46753D1*
X72586Y46745D1*
X72597Y46736D1*
X72607Y46727D1*
X72616Y46716D1*
X72625Y46706D1*
X72633Y46694D1*
X72640Y46682D1*
X72646Y46670D1*
X72651Y46657D1*
X72656Y46644D1*
X72659Y46631D1*
X72661Y46617D1*
X72663Y46604D1*
Y46590D1*
Y46576D1*
X72661Y46563D1*
X72659Y46549D1*
X72656Y46536D1*
X72651Y46523D1*
X72646Y46510D1*
X72640Y46498D1*
X72633Y46486D1*
X72625Y46474D1*
X72616Y46464D1*
X72607Y46453D1*
X72597Y46444D1*
X72586Y46435D1*
X72574Y46427D1*
X72562Y46420D1*
X72550Y46413D1*
X72537Y46408D1*
X72524Y46403D1*
X72510Y46399D1*
X72497Y46396D1*
X72483Y46394D1*
X72469Y46393D1*
X72455D1*
X72441Y46394D1*
X72427Y46396D1*
X72413Y46399D1*
X72399Y46403D1*
X72386Y46408D1*
X72373Y46413D1*
X72361Y46420D1*
X72349Y46427D1*
X72338Y46435D1*
X72327Y46444D1*
X72317Y46453D1*
X72307Y46464D1*
X72299Y46474D1*
X72291Y46486D1*
X72284Y46498D1*
X72277Y46510D1*
X72272Y46523D1*
X72268Y46536D1*
X72264Y46549D1*
X72262Y46563D1*
X72260Y46576D1*
Y46590D1*
X70687Y32473D2*
X72467D1*
X72477Y29223D1*
X72267Y28857D2*
Y28870D1*
X72269Y28884D1*
X72271Y28898D1*
X72274Y28911D1*
X72279Y28924D1*
X72284Y28937D1*
X72290Y28949D1*
X72297Y28961D1*
X72305Y28972D1*
X72314Y28983D1*
X72323Y28993D1*
X72333Y29003D1*
X72344Y29012D1*
X72356Y29020D1*
X72368Y29027D1*
X72380Y29033D1*
X72393Y29039D1*
X72406Y29044D1*
X72420Y29047D1*
X72433Y29050D1*
X72447Y29052D1*
X72461Y29053D1*
X72475D1*
X72489Y29052D1*
X72503Y29050D1*
X72517Y29047D1*
X72531Y29044D1*
X72544Y29039D1*
X72557Y29033D1*
X72569Y29027D1*
X72581Y29020D1*
X72592Y29012D1*
X72603Y29003D1*
X72613Y28993D1*
X72623Y28983D1*
X72631Y28972D1*
X72639Y28961D1*
X72646Y28949D1*
X72653Y28937D1*
X72658Y28924D1*
X72662Y28911D1*
X72666Y28898D1*
X72668Y28884D1*
X72670Y28870D1*
Y28857D1*
Y28843D1*
X72668Y28829D1*
X72666Y28816D1*
X72662Y28802D1*
X72658Y28789D1*
X72653Y28777D1*
X72646Y28764D1*
X72639Y28752D1*
X72631Y28741D1*
X72623Y28730D1*
X72613Y28720D1*
X72603Y28711D1*
X72592Y28702D1*
X72581Y28694D1*
X72569Y28686D1*
X72557Y28680D1*
X72544Y28674D1*
X72531Y28670D1*
X72517Y28666D1*
X72503Y28663D1*
X72489Y28661D1*
X72475Y28660D1*
X72461D1*
X72447Y28661D1*
X72433Y28663D1*
X72420Y28666D1*
X72406Y28670D1*
X72393Y28674D1*
X72380Y28680D1*
X72368Y28686D1*
X72356Y28694D1*
X72344Y28702D1*
X72333Y28711D1*
X72323Y28720D1*
X72314Y28730D1*
X72305Y28741D1*
X72297Y28752D1*
X72290Y28764D1*
X72284Y28777D1*
X72279Y28789D1*
X72274Y28802D1*
X72271Y28816D1*
X72269Y28829D1*
X72267Y28843D1*
Y28857D1*
X72477Y28820D2*
X70693Y27597D1*
X70567Y22403D2*
X72547Y22420D1*
X72540Y22410D2*
X72550Y24490D1*
X72350Y24773D2*
Y24787D1*
X72352Y24801D1*
X72354Y24814D1*
X72358Y24828D1*
X72362Y24841D1*
X72367Y24853D1*
X72374Y24866D1*
X72381Y24878D1*
X72389Y24889D1*
X72397Y24900D1*
X72407Y24910D1*
X72417Y24919D1*
X72428Y24928D1*
X72439Y24936D1*
X72451Y24944D1*
X72463Y24950D1*
X72476Y24956D1*
X72489Y24960D1*
X72503Y24964D1*
X72517Y24967D1*
X72531Y24969D1*
X72545Y24970D1*
X72559D1*
X72573Y24969D1*
X72587Y24967D1*
X72600Y24964D1*
X72614Y24960D1*
X72627Y24956D1*
X72640Y24950D1*
X72653Y24944D1*
X72664Y24936D1*
X72676Y24928D1*
X72687Y24919D1*
X72697Y24910D1*
X72706Y24900D1*
X72715Y24889D1*
X72723Y24878D1*
X72730Y24866D1*
X72736Y24853D1*
X72741Y24841D1*
X72746Y24828D1*
X72749Y24814D1*
X72751Y24801D1*
X72753Y24787D1*
Y24773D1*
Y24760D1*
X72751Y24746D1*
X72749Y24732D1*
X72746Y24719D1*
X72741Y24706D1*
X72736Y24693D1*
X72730Y24681D1*
X72723Y24669D1*
X72715Y24658D1*
X72706Y24647D1*
X72697Y24637D1*
X72687Y24627D1*
X72676Y24618D1*
X72664Y24610D1*
X72653Y24603D1*
X72640Y24597D1*
X72627Y24591D1*
X72614Y24586D1*
X72600Y24583D1*
X72587Y24580D1*
X72573Y24578D1*
X72559Y24577D1*
X72545D1*
X72531Y24578D1*
X72517Y24580D1*
X72503Y24583D1*
X72489Y24586D1*
X72476Y24591D1*
X72463Y24597D1*
X72451Y24603D1*
X72439Y24610D1*
X72428Y24618D1*
X72417Y24627D1*
X72407Y24637D1*
X72397Y24647D1*
X72389Y24658D1*
X72381Y24669D1*
X72374Y24681D1*
X72367Y24693D1*
X72362Y24706D1*
X72358Y24719D1*
X72354Y24732D1*
X72352Y24746D1*
X72350Y24760D1*
Y24773D1*
X3244Y21557D2*
X1464D1*
X1454Y24807D1*
X1261Y25173D2*
Y25187D1*
X1263Y25201D1*
X1265Y25214D1*
X1269Y25228D1*
X1273Y25241D1*
X1278Y25253D1*
X1285Y25266D1*
X1292Y25278D1*
X1299Y25289D1*
X1308Y25300D1*
X1317Y25310D1*
X1328Y25319D1*
X1338Y25328D1*
X1350Y25336D1*
X1362Y25344D1*
X1374Y25350D1*
X1387Y25356D1*
X1400Y25360D1*
X1414Y25364D1*
X1428Y25367D1*
X1441Y25369D1*
X1456Y25370D1*
X1470D1*
X1484Y25369D1*
X1498Y25367D1*
X1511Y25364D1*
X1525Y25360D1*
X1538Y25356D1*
X1551Y25350D1*
X1563Y25344D1*
X1575Y25336D1*
X1587Y25328D1*
X1598Y25319D1*
X1608Y25310D1*
X1617Y25300D1*
X1626Y25289D1*
X1634Y25278D1*
X1641Y25266D1*
X1647Y25253D1*
X1652Y25241D1*
X1656Y25228D1*
X1660Y25214D1*
X1662Y25201D1*
X1664Y25187D1*
Y25173D1*
Y25160D1*
X1662Y25146D1*
X1660Y25132D1*
X1656Y25119D1*
X1652Y25106D1*
X1647Y25093D1*
X1641Y25081D1*
X1634Y25069D1*
X1626Y25058D1*
X1617Y25047D1*
X1608Y25037D1*
X1598Y25027D1*
X1587Y25018D1*
X1575Y25010D1*
X1563Y25003D1*
X1551Y24997D1*
X1538Y24991D1*
X1525Y24986D1*
X1511Y24983D1*
X1498Y24980D1*
X1484Y24978D1*
X1470Y24977D1*
X1456D1*
X1441Y24978D1*
X1428Y24980D1*
X1414Y24983D1*
X1400Y24986D1*
X1387Y24991D1*
X1374Y24997D1*
X1362Y25003D1*
X1350Y25010D1*
X1338Y25018D1*
X1328Y25027D1*
X1317Y25037D1*
X1308Y25047D1*
X1299Y25058D1*
X1292Y25069D1*
X1285Y25081D1*
X1278Y25093D1*
X1273Y25106D1*
X1269Y25119D1*
X1265Y25132D1*
X1263Y25146D1*
X1261Y25160D1*
Y25173D1*
X1454Y25210D2*
X3238Y26433D1*
X3364Y31627D2*
X1384Y31610D1*
X1391Y31620D2*
X1381Y29540D1*
X1178Y29257D2*
Y29270D1*
X1180Y29284D1*
X1182Y29298D1*
X1185Y29311D1*
X1190Y29324D1*
X1195Y29337D1*
X1201Y29349D1*
X1208Y29361D1*
X1216Y29372D1*
X1225Y29383D1*
X1234Y29393D1*
X1244Y29403D1*
X1255Y29412D1*
X1266Y29420D1*
X1278Y29427D1*
X1291Y29433D1*
X1304Y29439D1*
X1317Y29444D1*
X1330Y29447D1*
X1344Y29450D1*
X1358Y29452D1*
X1372Y29453D1*
X1386D1*
X1400Y29452D1*
X1414Y29450D1*
X1428Y29447D1*
X1442Y29444D1*
X1455Y29439D1*
X1468Y29433D1*
X1480Y29427D1*
X1492Y29420D1*
X1503Y29412D1*
X1514Y29403D1*
X1524Y29393D1*
X1534Y29383D1*
X1542Y29372D1*
X1550Y29361D1*
X1557Y29349D1*
X1563Y29337D1*
X1569Y29324D1*
X1573Y29311D1*
X1576Y29298D1*
X1579Y29284D1*
X1580Y29270D1*
X1581Y29257D1*
X1580Y29243D1*
X1579Y29229D1*
X1576Y29216D1*
X1573Y29202D1*
X1569Y29189D1*
X1563Y29177D1*
X1557Y29164D1*
X1550Y29152D1*
X1542Y29141D1*
X1534Y29130D1*
X1524Y29120D1*
X1514Y29111D1*
X1503Y29102D1*
X1492Y29094D1*
X1480Y29086D1*
X1468Y29080D1*
X1455Y29074D1*
X1442Y29070D1*
X1428Y29066D1*
X1414Y29063D1*
X1400Y29061D1*
X1386Y29060D1*
X1372D1*
X1358Y29061D1*
X1344Y29063D1*
X1330Y29066D1*
X1317Y29070D1*
X1304Y29074D1*
X1291Y29080D1*
X1278Y29086D1*
X1266Y29094D1*
X1255Y29102D1*
X1244Y29111D1*
X1234Y29120D1*
X1225Y29130D1*
X1216Y29141D1*
X1208Y29152D1*
X1201Y29164D1*
X1195Y29177D1*
X1190Y29189D1*
X1185Y29202D1*
X1182Y29216D1*
X1180Y29229D1*
X1178Y29243D1*
Y29257D1*
X36532Y97947D2*
D12*
X37520D1*
X36506Y97871D2*
X37532D1*
X36483Y97795D2*
X37550D1*
X36469Y97719D2*
X37570D1*
X36458Y97643D2*
X37584D1*
X36445Y97567D2*
X37593D1*
X36426Y97491D2*
X37606D1*
X36406Y97415D2*
X37626D1*
X36392Y97339D2*
X37646D1*
X34708Y97263D2*
X34860D1*
X36381D2*
X37663D1*
X39192D2*
X39344D1*
X34632Y97187D2*
X34965D1*
X36368D2*
X37681D1*
X39069D2*
X39420D1*
X34556Y97111D2*
X35076D1*
X36321D2*
X37730D1*
X38947D2*
X39496D1*
X34480Y97035D2*
X35195D1*
X36206D2*
X37857D1*
X38814D2*
X39572D1*
X34401Y96959D2*
X35319D1*
X36054D2*
X38053D1*
X38630D2*
X39648D1*
X34319Y96883D2*
X35443D1*
X35863D2*
X38332D1*
X38366D2*
X39723D1*
X34237Y96807D2*
X35568D1*
X35637D2*
X39796D1*
X34163Y96731D2*
X39859D1*
X34127Y96655D2*
X39911D1*
X34120Y96579D2*
X39925D1*
X34149Y96503D2*
X39899D1*
X34195Y96427D2*
X39855D1*
X34249Y96351D2*
X39803D1*
X34301Y96275D2*
X39751D1*
X34355Y96199D2*
X39697D1*
X34414Y96123D2*
X39635D1*
X34473Y96047D2*
X39570D1*
X34527Y95971D2*
X39512D1*
X34578Y95895D2*
X39468D1*
X34632Y95819D2*
X39472D1*
X34585Y95743D2*
X39491D1*
X34541Y95667D2*
X39520D1*
X34501Y95591D2*
X39555D1*
X34461Y95515D2*
X39592D1*
X34419Y95439D2*
X36778D1*
X37174D2*
X39633D1*
X34371Y95363D2*
X36594D1*
X37393D2*
X39681D1*
X34251Y95287D2*
X36448D1*
X37563D2*
X39801D1*
X34060Y95211D2*
X36334D1*
X37693D2*
X39992D1*
X33821Y95135D2*
X36243D1*
X37788D2*
X40230D1*
X33609Y95059D2*
X36172D1*
X37857D2*
X40443D1*
X33445Y94983D2*
X36121D1*
X37909D2*
X40607D1*
X33380Y94907D2*
X36085D1*
X37953D2*
X40671D1*
X33359Y94831D2*
X36054D1*
X37990D2*
X40693D1*
X33347Y94755D2*
X36029D1*
X38019D2*
X40704D1*
X33343Y94679D2*
X36013D1*
X38037D2*
X40709D1*
X33341Y94603D2*
X36006D1*
X38045D2*
X40711D1*
X33340Y94527D2*
X36002D1*
X38049D2*
X40711D1*
X33340Y94451D2*
X36004D1*
X38048D2*
X40712D1*
X33340Y94375D2*
X36013D1*
X38038D2*
X40712D1*
X33341Y94299D2*
X36034D1*
X38018D2*
X40712D1*
X33347Y94223D2*
X36066D1*
X37985D2*
X40712D1*
X33359Y94147D2*
X36108D1*
X37941D2*
X40712D1*
X33541Y94071D2*
X36158D1*
X37884D2*
X40712D1*
X33778Y93996D2*
X36217D1*
X37817D2*
X40357D1*
X34010Y93920D2*
X36290D1*
X37743D2*
X40071D1*
X34181Y93844D2*
X36377D1*
X37661D2*
X39880D1*
X34306Y93768D2*
X36464D1*
X37581D2*
X39747D1*
X34366Y93692D2*
X36541D1*
X37507D2*
X39686D1*
X34413Y93616D2*
X36572D1*
X37471D2*
X39636D1*
X34448Y93540D2*
X36562D1*
X37468D2*
X39594D1*
X34477Y93464D2*
X36540D1*
X37483D2*
X39553D1*
X34504Y93388D2*
X36508D1*
X37509D2*
X39513D1*
X34524Y93312D2*
X36473D1*
X37542D2*
X39468D1*
X34535Y93236D2*
X36439D1*
X37578D2*
X39420D1*
X34508Y93160D2*
X36409D1*
X37615D2*
X39493D1*
X34470Y93084D2*
X36382D1*
X37653D2*
X39559D1*
X34425Y93008D2*
X36352D1*
X37691D2*
X39617D1*
X34375Y92932D2*
X36319D1*
X37729D2*
X39673D1*
X34317Y92856D2*
X36283D1*
X37767D2*
X39733D1*
X34259Y92780D2*
X36246D1*
X37804D2*
X39792D1*
X34208Y92704D2*
X36209D1*
X37840D2*
X39844D1*
X34166Y92628D2*
X36171D1*
X37871D2*
X39886D1*
X34131Y92552D2*
X36136D1*
X37898D2*
X39921D1*
X34122Y92476D2*
X36105D1*
X37927D2*
X39929D1*
X34151Y92400D2*
X36078D1*
X37960D2*
X39906D1*
X34199Y92324D2*
X36051D1*
X37994D2*
X39842D1*
X34264Y92248D2*
X35453D1*
X35620D2*
X36024D1*
X38025D2*
X38432D1*
X38596D2*
X39760D1*
X34344Y92172D2*
X35348D1*
X35772D2*
X36000D1*
X38052D2*
X38280D1*
X38694D2*
X39670D1*
X34436Y92096D2*
X35232D1*
X38802D2*
X39583D1*
X34531Y92020D2*
X35111D1*
X38922D2*
X39501D1*
X34621Y91944D2*
X34987D1*
X39054D2*
X39422D1*
X34708Y91868D2*
X34860D1*
X39192D2*
X39344D1*
X32428Y91108D2*
X32884D1*
X33264D2*
X33872D1*
X34404D2*
X34784D1*
X35164D2*
X35772D1*
X36684D2*
X37216D1*
X37672D2*
X38052D1*
X38432D2*
X38660D1*
X39040D2*
X39192D1*
X39496D2*
X40104D1*
X40332D2*
X40788D1*
X41168D2*
X41548D1*
X32381Y91032D2*
X32948D1*
X33264D2*
X33933D1*
X34331D2*
X34848D1*
X35164D2*
X35833D1*
X36649D2*
X37243D1*
X37599D2*
X38134D1*
X38432D2*
X38660D1*
X39040D2*
X39192D1*
X39496D2*
X40063D1*
X40259D2*
X40818D1*
X41104D2*
X41618D1*
X32340Y90956D2*
X33002D1*
X33264D2*
X33977D1*
X34268D2*
X34902D1*
X35164D2*
X35877D1*
X36627D2*
X37241D1*
X37536D2*
X38196D1*
X38432D2*
X38660D1*
X39040D2*
X39192D1*
X39496D2*
X40011D1*
X40196D2*
X40808D1*
X41049D2*
X41670D1*
X32310Y90880D2*
X32492D1*
X32793D2*
X33046D1*
X33264D2*
X33480D1*
X33781D2*
X34003D1*
X34223D2*
X34443D1*
X34708D2*
X34946D1*
X35164D2*
X35483D1*
X35681D2*
X35903D1*
X36617D2*
X36807D1*
X37140D2*
X37122D1*
X37490D2*
X37763D1*
X37961D2*
X38238D1*
X38432D2*
X38660D1*
X39040D2*
X39192D1*
X39496D2*
X39739D1*
X39952D2*
D3*
X40150D2*
X40419D1*
X40712D2*
X40788D1*
X41006D2*
X41244D1*
X41508D2*
X41686D1*
X32292Y90804D2*
X32474D1*
X32837D2*
X33078D1*
X33264D2*
X33464D1*
X33825D2*
X34015D1*
X34197D2*
X34562D1*
X34784D2*
X34978D1*
X35164D2*
X35438D1*
X35725D2*
X35915D1*
X36613D2*
X36961D1*
X37462D2*
X37718D1*
X38005D2*
X38261D1*
X38432D2*
X38660D1*
X39040D2*
X39192D1*
X39496D2*
X39694D1*
X40125D2*
X40363D1*
X40974D2*
X41168D1*
X41389D2*
X41694D1*
X32283Y90728D2*
X32457D1*
X32862D2*
X33096D1*
X33264D2*
X33455D1*
X33855D2*
X34021D1*
X34185D2*
X34996D1*
X35164D2*
X35413D1*
X35751D2*
X35920D1*
X36641D2*
X37129D1*
X37438D2*
X37693D1*
X38030D2*
X38272D1*
X38432D2*
X38660D1*
X39039D2*
X39192D1*
X39496D2*
X39669D1*
X40112D2*
X40310D1*
X40956D2*
X41697D1*
X32279Y90652D2*
X32448D1*
X32876D2*
X33102D1*
X33264D2*
X33456D1*
X33856D2*
X34023D1*
X34182D2*
X35006D1*
X35164D2*
X35401D1*
X35763D2*
X35923D1*
X36758D2*
X37288D1*
X37406D2*
X37684D1*
X38039D2*
X38276D1*
X38432D2*
X38664D1*
X39036D2*
X39192D1*
X39496D2*
X39656D1*
X40107D2*
X40256D1*
X40949D2*
X41699D1*
X32280Y90576D2*
X32473D1*
X32860D2*
X33096D1*
X33264D2*
X33489D1*
X33829D2*
X34023D1*
X34190D2*
X35012D1*
X35164D2*
X35395D1*
X35768D2*
X35923D1*
X36933D2*
X37687D1*
X38037D2*
X38275D1*
X38435D2*
X38672D1*
X39027D2*
X39192D1*
X39496D2*
X39651D1*
X40108D2*
X40312D1*
X40955D2*
X41700D1*
X32292Y90500D2*
X32539D1*
X32794D2*
X33077D1*
X33264D2*
X33543D1*
X33761D2*
X34021D1*
X34211D2*
X34404D1*
X35164D2*
X35393D1*
X35771D2*
X35924D1*
X36608D2*
X36684D1*
X37140D2*
X37732D1*
X37991D2*
X38263D1*
X38445D2*
X38719D1*
X38980D2*
X39192D1*
X39496D2*
X39649D1*
X40120D2*
X40389D1*
X40788D2*
D3*
X40975D2*
X41168D1*
X32323Y90424D2*
X32629D1*
X32657D2*
X33042D1*
X33264D2*
X33624D1*
X33671D2*
X34008D1*
X34245D2*
X34587D1*
X34784D2*
X34936D1*
X35164D2*
X35392D1*
X35771D2*
X35924D1*
X36579D2*
X36867D1*
X36957D2*
X37373D1*
X37531D2*
X37845D1*
X37879D2*
X38239D1*
X38469D2*
X38832D1*
X38867D2*
X39192D1*
X39496D2*
X39648D1*
X40145D2*
X40501D1*
X40564D2*
X40864D1*
X41009D2*
X41350D1*
X41548D2*
X41700D1*
X32373Y90348D2*
X32987D1*
X33264D2*
X33977D1*
X34301D2*
X34916D1*
X35164D2*
X35392D1*
X35772D2*
X35924D1*
X36596D2*
X37293D1*
X37569D2*
X38170D1*
X38512D2*
X39192D1*
X39496D2*
X39648D1*
X40213D2*
X40844D1*
X41065D2*
X41680D1*
X32436Y90272D2*
X32905D1*
X33264D2*
X33929D1*
X34383D2*
X34857D1*
X35164D2*
X35392D1*
X35772D2*
X35924D1*
X36671D2*
X37188D1*
X37653D2*
X38079D1*
X38579D2*
X39192D1*
X39496D2*
X39648D1*
X40304D2*
X40784D1*
X41147D2*
X41620D1*
X32504Y90196D2*
X32808D1*
X33264D2*
X33416D1*
X33568D2*
X33872D1*
X34480D2*
X34784D1*
X35164D2*
X35392D1*
X35772D2*
X35924D1*
X36760D2*
X37064D1*
X37748D2*
X37976D1*
X38660D2*
X38888D1*
X39040D2*
X39192D1*
X39496D2*
X39648D1*
X40408D2*
X40712D1*
X41244D2*
X41548D1*
X33264Y90120D2*
X33416D1*
X33264Y90044D2*
X33416D1*
X36456D2*
X36684D1*
X33264Y89968D2*
X33416D1*
X36456D2*
X36684D1*
X33264Y89892D2*
X33416D1*
X36456D2*
X36684D1*
X33264Y89816D2*
X33419D1*
X36456D2*
X36684D1*
X33264Y89740D2*
X33431D1*
X36456D2*
X36684D1*
X33264Y89664D2*
X33457D1*
X33568D2*
X33872D1*
X34328D2*
X34860D1*
X35240D2*
X35848D1*
X36000D2*
X36988D1*
X37368D2*
X37520D1*
X37976D2*
X38204D1*
X38356D2*
X38812D1*
X39192D2*
X39876D1*
X40104D2*
X40484D1*
X33264Y89588D2*
X33933D1*
X34291D2*
X34895D1*
X35240D2*
X37014D1*
X37356D2*
X37558D1*
X37940D2*
X38166D1*
X38329D2*
X38882D1*
X39192D2*
X39791D1*
X40040D2*
X40556D1*
X33264Y89512D2*
X33977D1*
X34351D2*
X34917D1*
X35240D2*
X35820D1*
X35912D2*
X36684D1*
X36848D2*
X37040D1*
X37337D2*
X37590D1*
X37915D2*
X38134D1*
X38330D2*
X38934D1*
X39192D2*
X39674D1*
X39986D2*
X40620D1*
X33264Y89436D2*
X33480D1*
X33781D2*
X34003D1*
X34483D2*
X34404D1*
X34784D2*
X34928D1*
X35240D2*
X35623D1*
X35893D2*
X36167D1*
X36365D2*
X36684D1*
X36867D2*
X37070D1*
X37314D2*
X37622D1*
X37889D2*
X38105D1*
X38450D2*
X38432D1*
X38812D2*
X38950D1*
X39192D2*
X39561D1*
X39942D2*
X40143D1*
X40408D2*
X40665D1*
X33264Y89360D2*
X33461D1*
X33825D2*
X34015D1*
X34784D2*
X34933D1*
X35240D2*
X35479D1*
X35874D2*
X36122D1*
X36409D2*
X36684D1*
X36889D2*
X37110D1*
X37289D2*
X37658D1*
X37852D2*
X38078D1*
X38812D2*
X38958D1*
X39192D2*
X39474D1*
X39910D2*
X40262D1*
X40484D2*
X40691D1*
X33264Y89284D2*
X33442D1*
X33851D2*
X34021D1*
X34536D2*
X34935D1*
X35240D2*
X35425D1*
X35861D2*
X36097D1*
X36434D2*
X36684D1*
X36912D2*
X37195D1*
X37256D2*
X37701D1*
X37767D2*
X38052D1*
X38280D2*
X38962D1*
X39192D2*
X39445D1*
X39892D2*
X40703D1*
X33264Y89208D2*
X33428D1*
X33863D2*
X34023D1*
X34363D2*
X34935D1*
X35240D2*
X35407D1*
X35856D2*
X36084D1*
X36444D2*
X36684D1*
X36938D2*
X38024D1*
X38254D2*
X38963D1*
X39192D2*
X39430D1*
X39885D2*
X40708D1*
X33264Y89132D2*
X33421D1*
X33869D2*
X34023D1*
X34243D2*
X34936D1*
X35240D2*
X35398D1*
X35863D2*
X36100D1*
X36442D2*
X36684D1*
X36963D2*
X37365D1*
X37505D2*
X37991D1*
X38231D2*
X38963D1*
X39192D2*
X39424D1*
X39891D2*
X40712D1*
X33264Y89056D2*
X33418D1*
X33871D2*
X34024D1*
X34203D2*
X34432D1*
X34756D2*
X34936D1*
X35240D2*
X35394D1*
X35879D2*
X36166D1*
X36405D2*
X36684D1*
X36988D2*
X37354D1*
X37552D2*
X37957D1*
X38220D2*
X38398D1*
X38770D2*
X38964D1*
X39192D2*
X39421D1*
X39911D2*
X40104D1*
X33264Y88980D2*
X33417D1*
X33871D2*
X34024D1*
X34195D2*
X34561D1*
X34627D2*
X34936D1*
X35240D2*
X35393D1*
X35923D2*
X36303D1*
X36322D2*
X36684D1*
X37026D2*
X37334D1*
X37590D2*
X37918D1*
X38218D2*
X38554D1*
X38614D2*
X38964D1*
X39192D2*
X39420D1*
X39941D2*
X40251D1*
X40408D2*
X40636D1*
X33264Y88904D2*
X33416D1*
X33872D2*
X34024D1*
X34219D2*
X34936D1*
X35240D2*
X35392D1*
X36102D2*
X36684D1*
X37079D2*
X37275D1*
X37629D2*
X37871D1*
X38245D2*
X38964D1*
X39192D2*
X39420D1*
X39982D2*
X40636D1*
X33264Y88828D2*
X33416D1*
X33872D2*
X34024D1*
X34252D2*
X34936D1*
X35240D2*
X35392D1*
X36422D2*
X36684D1*
X37211D2*
X37144D1*
X37672D2*
X37746D1*
X38280D2*
X38964D1*
X39192D2*
X39420D1*
X40028D2*
X40636D1*
X36532Y97947D2*
X36506Y97871D1*
X36483Y97795D1*
X36469Y97719D1*
X36458Y97643D1*
X36445Y97567D1*
X36426Y97491D1*
X36406Y97415D1*
X36392Y97339D1*
X36381Y97263D1*
X36368Y97187D1*
X36321Y97111D1*
X36206Y97035D1*
X36054Y96959D1*
X35863Y96883D1*
X35637Y96807D1*
X35392Y96731D1*
X37520Y97947D2*
X37532Y97871D1*
X37550Y97795D1*
X37570Y97719D1*
X37584Y97643D1*
X37593Y97567D1*
X37606Y97491D1*
X37626Y97415D1*
X37646Y97339D1*
X37663Y97263D1*
X37681Y97187D1*
X37730Y97111D1*
X37857Y97035D1*
X38053Y96959D1*
X38332Y96883D1*
X38660Y96807D1*
X34708Y97263D2*
X34632Y97187D1*
X34556Y97111D1*
X34480Y97035D1*
X34401Y96959D1*
X34319Y96883D1*
X34237Y96807D1*
X34163Y96731D1*
X34127Y96655D1*
X34120Y96579D1*
X34149Y96503D1*
X34195Y96427D1*
X34249Y96351D1*
X34301Y96275D1*
X34355Y96199D1*
X34414Y96123D1*
X34473Y96047D1*
X34527Y95971D1*
X34578Y95895D1*
X34632Y95819D1*
X34585Y95743D1*
X34541Y95667D1*
X34501Y95591D1*
X34461Y95515D1*
X34419Y95439D1*
X34371Y95363D1*
X34251Y95287D1*
X34060Y95211D1*
X33821Y95135D1*
X33609Y95059D1*
X33445Y94983D1*
X33380Y94907D1*
X33359Y94831D1*
X33347Y94755D1*
X33343Y94679D1*
X33341Y94603D1*
X33340Y94527D1*
Y94451D1*
Y94375D1*
X33341Y94299D1*
X33347Y94223D1*
X33359Y94147D1*
X33541Y94071D1*
X33778Y93996D1*
X34010Y93920D1*
X34181Y93844D1*
X34306Y93768D1*
X34366Y93692D1*
X34413Y93616D1*
X34448Y93540D1*
X34477Y93464D1*
X34504Y93388D1*
X34524Y93312D1*
X34535Y93236D1*
X34508Y93160D1*
X34470Y93084D1*
X34425Y93008D1*
X34375Y92932D1*
X34317Y92856D1*
X34259Y92780D1*
X34208Y92704D1*
X34166Y92628D1*
X34131Y92552D1*
X34122Y92476D1*
X34151Y92400D1*
X34199Y92324D1*
X34264Y92248D1*
X34344Y92172D1*
X34436Y92096D1*
X34531Y92020D1*
X34621Y91944D1*
X34708Y91868D1*
X34860Y97263D2*
X34965Y97187D1*
X35076Y97111D1*
X35195Y97035D1*
X35319Y96959D1*
X35443Y96883D1*
X35568Y96807D1*
X35696Y96731D1*
X39192Y97263D2*
X39069Y97187D1*
X38947Y97111D1*
X38814Y97035D1*
X38630Y96959D1*
X38366Y96883D1*
X38052Y96807D1*
X39344Y97263D2*
X39420Y97187D1*
X39496Y97111D1*
X39572Y97035D1*
X39648Y96959D1*
X39723Y96883D1*
X39796Y96807D1*
X39859Y96731D1*
X39911Y96655D1*
X39925Y96579D1*
X39899Y96503D1*
X39855Y96427D1*
X39803Y96351D1*
X39751Y96275D1*
X39697Y96199D1*
X39635Y96123D1*
X39570Y96047D1*
X39512Y95971D1*
X39468Y95895D1*
X39472Y95819D1*
X39491Y95743D1*
X39520Y95667D1*
X39555Y95591D1*
X39592Y95515D1*
X39633Y95439D1*
X39681Y95363D1*
X39801Y95287D1*
X39992Y95211D1*
X40230Y95135D1*
X40443Y95059D1*
X40607Y94983D1*
X40671Y94907D1*
X40693Y94831D1*
X40704Y94755D1*
X40709Y94679D1*
X40711Y94603D1*
Y94527D1*
X40712Y94451D1*
Y94375D1*
Y94299D1*
Y94223D1*
Y94147D1*
Y94071D1*
X40357Y93996D1*
X40071Y93920D1*
X39880Y93844D1*
X39747Y93768D1*
X39686Y93692D1*
X39636Y93616D1*
X39594Y93540D1*
X39553Y93464D1*
X39513Y93388D1*
X39468Y93312D1*
X39420Y93236D1*
X39493Y93160D1*
X39559Y93084D1*
X39617Y93008D1*
X39673Y92932D1*
X39733Y92856D1*
X39792Y92780D1*
X39844Y92704D1*
X39886Y92628D1*
X39921Y92552D1*
X39929Y92476D1*
X39906Y92400D1*
X39842Y92324D1*
X39760Y92248D1*
X39670Y92172D1*
X39583Y92096D1*
X39501Y92020D1*
X39422Y91944D1*
X39344Y91868D1*
X36988Y95515D2*
X36778Y95439D1*
X36594Y95363D1*
X36448Y95287D1*
X36334Y95211D1*
X36243Y95135D1*
X36172Y95059D1*
X36121Y94983D1*
X36085Y94907D1*
X36054Y94831D1*
X36029Y94755D1*
X36013Y94679D1*
X36006Y94603D1*
X36002Y94527D1*
X36004Y94451D1*
X36013Y94375D1*
X36034Y94299D1*
X36066Y94223D1*
X36108Y94147D1*
X36158Y94071D1*
X36217Y93996D1*
X36290Y93920D1*
X36377Y93844D1*
X36464Y93768D1*
X36541Y93692D1*
X36572Y93616D1*
X36562Y93540D1*
X36540Y93464D1*
X36508Y93388D1*
X36473Y93312D1*
X36439Y93236D1*
X36409Y93160D1*
X36382Y93084D1*
X36352Y93008D1*
X36319Y92932D1*
X36283Y92856D1*
X36246Y92780D1*
X36209Y92704D1*
X36171Y92628D1*
X36136Y92552D1*
X36105Y92476D1*
X36078Y92400D1*
X36051Y92324D1*
X36024Y92248D1*
X36000Y92172D1*
X36912Y95515D2*
X37174Y95439D1*
X37393Y95363D1*
X37563Y95287D1*
X37693Y95211D1*
X37788Y95135D1*
X37857Y95059D1*
X37909Y94983D1*
X37953Y94907D1*
X37990Y94831D1*
X38019Y94755D1*
X38037Y94679D1*
X38045Y94603D1*
X38049Y94527D1*
X38048Y94451D1*
X38038Y94375D1*
X38018Y94299D1*
X37985Y94223D1*
X37941Y94147D1*
X37884Y94071D1*
X37817Y93996D1*
X37743Y93920D1*
X37661Y93844D1*
X37581Y93768D1*
X37507Y93692D1*
X37471Y93616D1*
X37468Y93540D1*
X37483Y93464D1*
X37509Y93388D1*
X37542Y93312D1*
X37578Y93236D1*
X37615Y93160D1*
X37653Y93084D1*
X37691Y93008D1*
X37729Y92932D1*
X37767Y92856D1*
X37804Y92780D1*
X37840Y92704D1*
X37871Y92628D1*
X37898Y92552D1*
X37927Y92476D1*
X37960Y92400D1*
X37994Y92324D1*
X38025Y92248D1*
X38052Y92172D1*
X35544Y92324D2*
X35453Y92248D1*
X35348Y92172D1*
X35232Y92096D1*
X35111Y92020D1*
X34987Y91944D1*
X34860Y91868D1*
X35468Y92324D2*
X35620Y92248D1*
X35772Y92172D1*
X38584Y92324D2*
X38432Y92248D1*
X38280Y92172D1*
X38508Y92324D2*
X38596Y92248D1*
X38694Y92172D1*
X38802Y92096D1*
X38922Y92020D1*
X39054Y91944D1*
X39192Y91868D1*
X32428Y91108D2*
X32381Y91032D1*
X32340Y90956D1*
X32310Y90880D1*
X32292Y90804D1*
X32283Y90728D1*
X32279Y90652D1*
X32280Y90576D1*
X32292Y90500D1*
X32323Y90424D1*
X32373Y90348D1*
X32436Y90272D1*
X32504Y90196D1*
X32884Y91108D2*
X32948Y91032D1*
X33002Y90956D1*
X33046Y90880D1*
X33078Y90804D1*
X33096Y90728D1*
X33102Y90652D1*
X33096Y90576D1*
X33077Y90500D1*
X33042Y90424D1*
X32987Y90348D1*
X32905Y90272D1*
X32808Y90196D1*
X33264Y91108D2*
Y91032D1*
Y90956D1*
Y90880D1*
Y90804D1*
Y90728D1*
Y90652D1*
Y90576D1*
Y90500D1*
Y90424D1*
Y90348D1*
Y90272D1*
Y90196D1*
Y90120D1*
Y90044D1*
Y89968D1*
Y89892D1*
Y89816D1*
Y89740D1*
Y89664D1*
Y89588D1*
Y89512D1*
Y89436D1*
Y89360D1*
Y89284D1*
Y89208D1*
Y89132D1*
Y89056D1*
Y88980D1*
Y88904D1*
Y88828D1*
X33872Y91108D2*
X33933Y91032D1*
X33977Y90956D1*
X34003Y90880D1*
X34015Y90804D1*
X34021Y90728D1*
X34023Y90652D1*
Y90576D1*
X34021Y90500D1*
X34008Y90424D1*
X33977Y90348D1*
X33929Y90272D1*
X33872Y90196D1*
X34404Y91108D2*
X34331Y91032D1*
X34268Y90956D1*
X34223Y90880D1*
X34197Y90804D1*
X34185Y90728D1*
X34182Y90652D1*
X34190Y90576D1*
X34211Y90500D1*
X34245Y90424D1*
X34301Y90348D1*
X34383Y90272D1*
X34480Y90196D1*
X34784Y91108D2*
X34848Y91032D1*
X34902Y90956D1*
X34946Y90880D1*
X34978Y90804D1*
X34996Y90728D1*
X35006Y90652D1*
X35012Y90576D1*
X34404Y90500D1*
X34587Y90424D1*
X34784Y90348D1*
X35164Y91108D2*
Y91032D1*
Y90956D1*
Y90880D1*
Y90804D1*
Y90728D1*
Y90652D1*
Y90576D1*
Y90500D1*
Y90424D1*
Y90348D1*
Y90272D1*
Y90196D1*
X35772Y91108D2*
X35833Y91032D1*
X35877Y90956D1*
X35903Y90880D1*
X35915Y90804D1*
X35920Y90728D1*
X35923Y90652D1*
Y90576D1*
X35924Y90500D1*
Y90424D1*
Y90348D1*
Y90272D1*
Y90196D1*
X36684Y91108D2*
X36649Y91032D1*
X36627Y90956D1*
X36617Y90880D1*
X36613Y90804D1*
X36641Y90728D1*
X36758Y90652D1*
X36933Y90576D1*
X37140Y90500D1*
X36957Y90424D1*
X36760Y90348D1*
X37216Y91108D2*
X37243Y91032D1*
X37241Y90956D1*
X37122Y90880D1*
X36988Y90804D1*
X37672Y91108D2*
X37599Y91032D1*
X37536Y90956D1*
X37490Y90880D1*
X37462Y90804D1*
X37438Y90728D1*
X37406Y90652D1*
X37368Y90576D1*
X38052Y91108D2*
X38134Y91032D1*
X38196Y90956D1*
X38238Y90880D1*
X38261Y90804D1*
X38272Y90728D1*
X38276Y90652D1*
X38275Y90576D1*
X38263Y90500D1*
X38239Y90424D1*
X38170Y90348D1*
X38079Y90272D1*
X37976Y90196D1*
X38432Y91108D2*
Y91032D1*
Y90956D1*
Y90880D1*
Y90804D1*
Y90728D1*
Y90652D1*
X38435Y90576D1*
X38445Y90500D1*
X38469Y90424D1*
X38512Y90348D1*
X38579Y90272D1*
X38660Y90196D1*
Y91108D2*
Y91032D1*
Y90956D1*
Y90880D1*
Y90804D1*
Y90728D1*
X38664Y90652D1*
X38672Y90576D1*
X38719Y90500D1*
X38832Y90424D1*
X38964Y90348D1*
X39040Y91108D2*
Y91032D1*
Y90956D1*
Y90880D1*
Y90804D1*
X39039Y90728D1*
X39036Y90652D1*
X39027Y90576D1*
X38980Y90500D1*
X38867Y90424D1*
X38736Y90348D1*
X39192Y91108D2*
Y91032D1*
Y90956D1*
Y90880D1*
Y90804D1*
Y90728D1*
Y90652D1*
Y90576D1*
Y90500D1*
Y90424D1*
Y90348D1*
Y90272D1*
Y90196D1*
X39496Y91108D2*
Y91032D1*
Y90956D1*
Y90880D1*
Y90804D1*
Y90728D1*
Y90652D1*
Y90576D1*
Y90500D1*
Y90424D1*
Y90348D1*
Y90272D1*
Y90196D1*
X40104Y91108D2*
X40063Y91032D1*
X40011Y90956D1*
X39952Y90880D1*
X40332Y91108D2*
X40259Y91032D1*
X40196Y90956D1*
X40150Y90880D1*
X40125Y90804D1*
X40112Y90728D1*
X40107Y90652D1*
X40108Y90576D1*
X40120Y90500D1*
X40145Y90424D1*
X40213Y90348D1*
X40304Y90272D1*
X40408Y90196D1*
X40788Y91108D2*
X40818Y91032D1*
X40808Y90956D1*
X40788Y90880D1*
X41168Y91108D2*
X41104Y91032D1*
X41049Y90956D1*
X41006Y90880D1*
X40974Y90804D1*
X40956Y90728D1*
X40949Y90652D1*
X40955Y90576D1*
X40975Y90500D1*
X41009Y90424D1*
X41065Y90348D1*
X41147Y90272D1*
X41244Y90196D1*
X41548Y91108D2*
X41618Y91032D1*
X41670Y90956D1*
X41686Y90880D1*
X41694Y90804D1*
X41697Y90728D1*
X41699Y90652D1*
X41700Y90576D1*
X41168Y90500D1*
X41350Y90424D1*
X41548Y90348D1*
X32504Y90956D2*
X32492Y90880D1*
X32474Y90804D1*
X32457Y90728D1*
X32448Y90652D1*
X32473Y90576D1*
X32539Y90500D1*
X32629Y90424D1*
X32732Y90348D1*
Y90956D2*
X32793Y90880D1*
X32837Y90804D1*
X32862Y90728D1*
X32876Y90652D1*
X32860Y90576D1*
X32794Y90500D1*
X32657Y90424D1*
X32504Y90348D1*
X33492Y90956D2*
X33480Y90880D1*
X33464Y90804D1*
X33455Y90728D1*
X33456Y90652D1*
X33489Y90576D1*
X33543Y90500D1*
X33624Y90424D1*
X33720Y90348D1*
Y90956D2*
X33781Y90880D1*
X33825Y90804D1*
X33855Y90728D1*
X33856Y90652D1*
X33829Y90576D1*
X33761Y90500D1*
X33671Y90424D1*
X33568Y90348D1*
X34404Y90956D2*
X34443Y90880D1*
X34562Y90804D1*
X34708Y90728D1*
X34632Y90956D2*
X34708Y90880D1*
X34784Y90804D1*
X34556Y90728D1*
X35544Y90956D2*
X35483Y90880D1*
X35438Y90804D1*
X35413Y90728D1*
X35401Y90652D1*
X35395Y90576D1*
X35393Y90500D1*
X35392Y90424D1*
Y90348D1*
Y90272D1*
Y90196D1*
X35620Y90956D2*
X35681Y90880D1*
X35725Y90804D1*
X35751Y90728D1*
X35763Y90652D1*
X35768Y90576D1*
X35771Y90500D1*
Y90424D1*
X35772Y90348D1*
Y90272D1*
Y90196D1*
X36684Y90956D2*
X36807Y90880D1*
X36961Y90804D1*
X37129Y90728D1*
X37288Y90652D1*
X37444Y90576D1*
X37064Y90956D2*
X37140Y90880D1*
X37824Y90956D2*
X37763Y90880D1*
X37718Y90804D1*
X37693Y90728D1*
X37684Y90652D1*
X37687Y90576D1*
X37732Y90500D1*
X37845Y90424D1*
X37976Y90348D1*
X37900Y90956D2*
X37961Y90880D1*
X38005Y90804D1*
X38030Y90728D1*
X38039Y90652D1*
X38037Y90576D1*
X37991Y90500D1*
X37879Y90424D1*
X37748Y90348D1*
X39800Y90956D2*
X39739Y90880D1*
X39694Y90804D1*
X39669Y90728D1*
X39656Y90652D1*
X39651Y90576D1*
X39649Y90500D1*
X39648Y90424D1*
Y90348D1*
Y90272D1*
Y90196D1*
X40484Y90956D2*
X40419Y90880D1*
X40363Y90804D1*
X40310Y90728D1*
X40256Y90652D1*
X40312Y90576D1*
X40389Y90500D1*
X40501Y90424D1*
X40636Y90348D1*
Y90956D2*
X40712Y90880D1*
X41320Y90956D2*
X41244Y90880D1*
X41168Y90804D1*
X41396Y90728D1*
X41548Y90956D2*
X41508Y90880D1*
X41389Y90804D1*
X41244Y90728D1*
X36608Y90500D2*
X36579Y90424D1*
X36596Y90348D1*
X36671Y90272D1*
X36760Y90196D1*
X36684Y90500D2*
X36867Y90424D1*
X37064Y90348D1*
X40788Y90500D2*
X40564Y90424D1*
X40332Y90348D1*
X34784Y90424D2*
X34708Y90348D1*
X34936Y90424D2*
X34916Y90348D1*
X34857Y90272D1*
X34784Y90196D1*
X37444Y90500D2*
X37373Y90424D1*
X37293Y90348D1*
X37188Y90272D1*
X37064Y90196D1*
X37520Y90500D2*
X37531Y90424D1*
X37569Y90348D1*
X37653Y90272D1*
X37748Y90196D1*
X40864Y90424D2*
X40844Y90348D1*
X40784Y90272D1*
X40712Y90196D1*
X41548Y90424D2*
X41472Y90348D1*
X41700Y90424D2*
X41680Y90348D1*
X41620Y90272D1*
X41548Y90196D1*
X33416Y90272D2*
Y90196D1*
Y90120D1*
Y90044D1*
Y89968D1*
Y89892D1*
X33419Y89816D1*
X33431Y89740D1*
X33457Y89664D1*
X33492Y89588D1*
Y90272D2*
X33568Y90196D1*
X38964Y90272D2*
X38888Y90196D1*
X38964Y90272D2*
X39040Y90196D1*
X36456Y90044D2*
Y89968D1*
Y89892D1*
Y89816D1*
Y89740D1*
X36000Y89664D1*
X36684Y90044D2*
Y89968D1*
Y89892D1*
Y89816D1*
Y89740D1*
Y89664D1*
X36988D1*
X37014Y89588D1*
X37040Y89512D1*
X37070Y89436D1*
X37110Y89360D1*
X37195Y89284D1*
X37292Y89208D1*
X33568Y89664D2*
X33492Y89588D1*
X33872Y89664D2*
X33933Y89588D1*
X33977Y89512D1*
X34003Y89436D1*
X34015Y89360D1*
X34021Y89284D1*
X34023Y89208D1*
Y89132D1*
X34024Y89056D1*
Y88980D1*
Y88904D1*
Y88828D1*
X34328Y89664D2*
X34291Y89588D1*
X34351Y89512D1*
X34483Y89436D1*
X34632Y89360D1*
X34860Y89664D2*
X34895Y89588D1*
X34917Y89512D1*
X34928Y89436D1*
X34933Y89360D1*
X34935Y89284D1*
Y89208D1*
X34936Y89132D1*
Y89056D1*
Y88980D1*
Y88904D1*
Y88828D1*
X35240Y89664D2*
Y89588D1*
Y89512D1*
Y89436D1*
Y89360D1*
Y89284D1*
Y89208D1*
Y89132D1*
Y89056D1*
Y88980D1*
Y88904D1*
Y88828D1*
X35848Y89664D2*
X37368D2*
X37356Y89588D1*
X37337Y89512D1*
X37314Y89436D1*
X37289Y89360D1*
X37256Y89284D1*
X37216Y89208D1*
X37520Y89664D2*
X37558Y89588D1*
X37590Y89512D1*
X37622Y89436D1*
X37658Y89360D1*
X37701Y89284D1*
X37748Y89208D1*
X37976Y89664D2*
X37940Y89588D1*
X37915Y89512D1*
X37889Y89436D1*
X37852Y89360D1*
X37767Y89284D1*
X37672Y89208D1*
X38204Y89664D2*
X38166Y89588D1*
X38134Y89512D1*
X38105Y89436D1*
X38078Y89360D1*
X38052Y89284D1*
X38024Y89208D1*
X37991Y89132D1*
X37957Y89056D1*
X37918Y88980D1*
X37871Y88904D1*
X37746Y88828D1*
X37596Y88752D1*
X38356Y89664D2*
X38329Y89588D1*
X38330Y89512D1*
X38450Y89436D1*
X38584Y89360D1*
X38812Y89664D2*
X38882Y89588D1*
X38934Y89512D1*
X38950Y89436D1*
X38958Y89360D1*
X38962Y89284D1*
X38963Y89208D1*
Y89132D1*
X38964Y89056D1*
Y88980D1*
Y88904D1*
Y88828D1*
X39192Y89664D2*
Y89588D1*
Y89512D1*
Y89436D1*
Y89360D1*
Y89284D1*
Y89208D1*
Y89132D1*
Y89056D1*
Y88980D1*
Y88904D1*
Y88828D1*
X39876Y89664D2*
X39791Y89588D1*
X39674Y89512D1*
X39561Y89436D1*
X39474Y89360D1*
X39445Y89284D1*
X39430Y89208D1*
X39424Y89132D1*
X39421Y89056D1*
X39420Y88980D1*
Y88904D1*
Y88828D1*
X40104Y89664D2*
X40040Y89588D1*
X39986Y89512D1*
X39942Y89436D1*
X39910Y89360D1*
X39892Y89284D1*
X39885Y89208D1*
X39891Y89132D1*
X39911Y89056D1*
X39941Y88980D1*
X39982Y88904D1*
X40028Y88828D1*
X40484Y89664D2*
X40556Y89588D1*
X40620Y89512D1*
X40665Y89436D1*
X40691Y89360D1*
X40703Y89284D1*
X40708Y89208D1*
X40712Y89132D1*
X40104Y89056D1*
X40251Y88980D1*
X40408Y88904D1*
X36076Y89588D2*
X35820Y89512D1*
X35623Y89436D1*
X35479Y89360D1*
X35425Y89284D1*
X35407Y89208D1*
X35398Y89132D1*
X35394Y89056D1*
X35393Y88980D1*
X35392Y88904D1*
Y88828D1*
X35924Y89588D2*
X35912Y89512D1*
X35893Y89436D1*
X35874Y89360D1*
X35861Y89284D1*
X35856Y89208D1*
X35863Y89132D1*
X35879Y89056D1*
X35923Y88980D1*
X36102Y88904D1*
X36422Y88828D1*
X36836Y88752D1*
X36684Y89588D2*
Y89512D1*
Y89436D1*
Y89360D1*
Y89284D1*
Y89208D1*
Y89132D1*
Y89056D1*
Y88980D1*
Y88904D1*
Y88828D1*
X36836Y89588D2*
X36848Y89512D1*
X36867Y89436D1*
X36889Y89360D1*
X36912Y89284D1*
X36938Y89208D1*
X36963Y89132D1*
X36988Y89056D1*
X37026Y88980D1*
X37079Y88904D1*
X37211Y88828D1*
X37368Y88752D1*
X33492Y89512D2*
X33480Y89436D1*
X33461Y89360D1*
X33442Y89284D1*
X33428Y89208D1*
X33421Y89132D1*
X33418Y89056D1*
X33417Y88980D1*
X33416Y88904D1*
Y88828D1*
X33720Y89512D2*
X33781Y89436D1*
X33825Y89360D1*
X33851Y89284D1*
X33863Y89208D1*
X33869Y89132D1*
X33871Y89056D1*
Y88980D1*
X33872Y88904D1*
Y88828D1*
X34784Y89512D2*
Y89436D1*
Y89360D1*
X34536Y89284D1*
X34363Y89208D1*
X34243Y89132D1*
X34203Y89056D1*
X34195Y88980D1*
X34219Y88904D1*
X34252Y88828D1*
X36228Y89512D2*
X36167Y89436D1*
X36122Y89360D1*
X36097Y89284D1*
X36084Y89208D1*
X36100Y89132D1*
X36166Y89056D1*
X36303Y88980D1*
X36456Y88904D1*
X36304Y89512D2*
X36365Y89436D1*
X36409Y89360D1*
X36434Y89284D1*
X36444Y89208D1*
X36442Y89132D1*
X36405Y89056D1*
X36322Y88980D1*
X36228Y88904D1*
X38508Y89512D2*
X38432Y89436D1*
X38812Y89512D2*
Y89436D1*
Y89360D1*
Y89284D1*
X38280D1*
X38254Y89208D1*
X38231Y89132D1*
X38220Y89056D1*
X38218Y88980D1*
X38245Y88904D1*
X38280Y88828D1*
X40104Y89512D2*
X40143Y89436D1*
X40262Y89360D1*
X40408Y89284D1*
X40332Y89512D2*
X40408Y89436D1*
X40484Y89360D1*
X40256Y89284D1*
X37368Y89208D2*
X37365Y89132D1*
X37354Y89056D1*
X37334Y88980D1*
X37275Y88904D1*
X37144Y88828D1*
X36988Y88752D1*
X37444Y89208D2*
X37505Y89132D1*
X37552Y89056D1*
X37590Y88980D1*
X37629Y88904D1*
X37672Y88828D1*
X34328Y89132D2*
X34432Y89056D1*
X34561Y88980D1*
X34708Y88904D1*
X34860Y89132D2*
X34756Y89056D1*
X34627Y88980D1*
X34480Y88904D1*
X38280Y89132D2*
X38398Y89056D1*
X38554Y88980D1*
X38736Y88904D1*
X38888Y89132D2*
X38770Y89056D1*
X38614Y88980D1*
X38432Y88904D1*
X40408Y88980D2*
X40332Y88904D1*
X40636Y88980D2*
Y88904D1*
Y88828D1*
X49961Y81076D2*
D65*
Y80055D1*
X50641Y81076D2*
X49961Y80396D1*
X50203Y80639D2*
X50641Y80055D1*
X50955Y80881D2*
X51053Y80930D1*
X51199Y81075D1*
Y80055D1*
X49952Y59063D2*
Y58042D1*
X50633Y59063D2*
X49952Y58382D1*
X50195Y58626D2*
X50633Y58042D1*
X50996Y58819D2*
Y58867D1*
X51044Y58965D1*
X51093Y59013D1*
X51190Y59062D1*
X51385D1*
X51481Y59013D1*
X51529Y58965D1*
X51579Y58867D1*
Y58771D1*
X51529Y58673D1*
X51433Y58528D1*
X50947Y58042D1*
X51627D1*
X49946Y37043D2*
Y36022D1*
X50626Y37043D2*
X49946Y36362D1*
X50188Y36606D2*
X50626Y36022D1*
X51038Y37042D2*
X51571D1*
X51280Y36653D1*
X51426D1*
X51523Y36605D1*
X51571Y36557D1*
X51620Y36411D1*
Y36314D1*
X51571Y36168D1*
X51474Y36070D1*
X51328Y36022D1*
X51182D1*
X51038Y36070D1*
X50989Y36120D1*
X50940Y36216D1*
X22232Y36403D2*
Y35382D1*
X22913Y36403D2*
X22232Y35722D1*
X22475Y35966D2*
X22913Y35382D1*
X23713D2*
Y36402D1*
X23226Y35722D1*
X23955D1*
X46730Y84661D2*
Y83640D1*
X47313D1*
X48258Y84661D2*
X47627D1*
Y83640D1*
X48258D1*
X47627Y84175D2*
X48016D1*
X48572Y84661D2*
Y83640D1*
X48912D1*
X49058Y83690D1*
X49156Y83786D1*
X49204Y83884D1*
X49253Y84029D1*
Y84273D1*
X49204Y84419D1*
X49156Y84515D1*
X49058Y84613D1*
X48912Y84661D1*
X48572D1*
X49566Y84466D2*
X49664Y84515D1*
X49810Y84660D1*
Y83640D1*
X46469Y62528D2*
Y61507D1*
X47052D1*
X47996Y62528D2*
X47365D1*
Y61507D1*
X47996D1*
X47365Y62042D2*
X47754D1*
X48310Y62528D2*
Y61507D1*
X48650D1*
X48796Y61556D1*
X48894Y61653D1*
X48942Y61751D1*
X48991Y61896D1*
Y62139D1*
X48942Y62285D1*
X48894Y62382D1*
X48796Y62480D1*
X48650Y62528D1*
X48310D1*
X49354Y62284D2*
Y62332D1*
X49402Y62430D1*
X49451Y62478D1*
X49548Y62527D1*
X49743D1*
X49839Y62478D1*
X49887Y62430D1*
X49937Y62332D1*
Y62236D1*
X49887Y62138D1*
X49791Y61993D1*
X49305Y61507D1*
X49985D1*
X46352Y40148D2*
Y39127D1*
X46935D1*
X47880Y40148D2*
X47249D1*
Y39127D1*
X47880D1*
X47249Y39662D2*
X47637D1*
X48194Y40148D2*
Y39127D1*
X48534D1*
X48680Y39176D1*
X48778Y39273D1*
X48826Y39371D1*
X48874Y39516D1*
Y39759D1*
X48826Y39905D1*
X48778Y40002D1*
X48680Y40100D1*
X48534Y40148D1*
X48194D1*
X49286Y40147D2*
X49819D1*
X49528Y39758D1*
X49674D1*
X49771Y39710D1*
X49819Y39662D1*
X49868Y39516D1*
Y39419D1*
X49819Y39273D1*
X49722Y39175D1*
X49576Y39127D1*
X49430D1*
X49286Y39175D1*
X49237Y39225D1*
X49188Y39321D1*
X28775Y17381D2*
Y16360D1*
X29357D1*
X30302Y17381D2*
X29671D1*
Y16360D1*
X30302D1*
X29671Y16895D2*
X30060D1*
X30616Y17381D2*
Y16360D1*
X30956D1*
X31102Y16410D1*
X31200Y16506D1*
X31248Y16604D1*
X31297Y16749D1*
Y16993D1*
X31248Y17139D1*
X31200Y17235D1*
X31102Y17333D1*
X30956Y17381D1*
X30616D1*
X32097Y16360D2*
Y17380D1*
X31610Y16701D1*
X32339D1*
X12400Y81178D2*
X12302Y81130D1*
X12206Y81032D1*
X12156Y80935D1*
X12108Y80789D1*
Y80546D1*
X12156Y80401D1*
X12206Y80303D1*
X12302Y80206D1*
X12400Y80157D1*
X12594D1*
X12691Y80206D1*
X12789Y80303D1*
X12837Y80401D1*
X12885Y80546D1*
Y80789D1*
X12837Y80935D1*
X12789Y81032D1*
X12691Y81130D1*
X12594Y81178D1*
X12400D1*
X13928Y80935D2*
X13880Y81032D1*
X13782Y81130D1*
X13685Y81178D1*
X13491D1*
X13393Y81130D1*
X13297Y81032D1*
X13247Y80935D1*
X13199Y80789D1*
Y80546D1*
X13247Y80401D1*
X13297Y80303D1*
X13393Y80206D1*
X13491Y80157D1*
X13685D1*
X13782Y80206D1*
X13880Y80303D1*
X13928Y80401D1*
X14242Y80982D2*
X14339Y81032D1*
X14485Y81177D1*
Y80157D1*
X12285Y70401D2*
X12187Y70353D1*
X12091Y70255D1*
X12041Y70159D1*
X11993Y70013D1*
Y69769D1*
X12041Y69624D1*
X12091Y69526D1*
X12187Y69430D1*
X12285Y69380D1*
X12479D1*
X12576Y69430D1*
X12674Y69526D1*
X12722Y69624D1*
X12770Y69769D1*
Y70013D1*
X12722Y70159D1*
X12674Y70255D1*
X12576Y70353D1*
X12479Y70401D1*
X12285D1*
X13813Y70159D2*
X13764Y70255D1*
X13667Y70353D1*
X13570Y70401D1*
X13376D1*
X13278Y70353D1*
X13182Y70255D1*
X13132Y70159D1*
X13084Y70013D1*
Y69769D1*
X13132Y69624D1*
X13182Y69526D1*
X13278Y69430D1*
X13376Y69380D1*
X13570D1*
X13667Y69430D1*
X13764Y69526D1*
X13813Y69624D1*
X14176Y70158D2*
Y70206D1*
X14224Y70304D1*
X14272Y70352D1*
X14370Y70400D1*
X14564D1*
X14661Y70352D1*
X14709Y70304D1*
X14759Y70206D1*
Y70109D1*
X14709Y70012D1*
X14613Y69867D1*
X14126Y69380D1*
X14807D1*
X12302Y59615D2*
X12204Y59566D1*
X12107Y59469D1*
X12058Y59372D1*
X12010Y59226D1*
Y58982D1*
X12058Y58837D1*
X12107Y58740D1*
X12204Y58643D1*
X12302Y58594D1*
X12496D1*
X12593Y58643D1*
X12690Y58740D1*
X12739Y58837D1*
X12787Y58982D1*
Y59226D1*
X12739Y59372D1*
X12690Y59469D1*
X12593Y59566D1*
X12496Y59615D1*
X12302D1*
X13829Y59372D2*
X13781Y59469D1*
X13683Y59566D1*
X13587Y59615D1*
X13393D1*
X13295Y59566D1*
X13198Y59469D1*
X13149Y59372D1*
X13101Y59226D1*
Y58982D1*
X13149Y58837D1*
X13198Y58740D1*
X13295Y58643D1*
X13393Y58594D1*
X13587D1*
X13683Y58643D1*
X13781Y58740D1*
X13829Y58837D1*
X14241Y59613D2*
X14774D1*
X14483Y59225D1*
X14629D1*
X14726Y59177D1*
X14774Y59128D1*
X14824Y58982D1*
Y58886D1*
X14774Y58740D1*
X14678Y58642D1*
X14532Y58594D1*
X14386D1*
X14241Y58642D1*
X14193Y58691D1*
X14143Y58788D1*
X12341Y48778D2*
X12243Y48730D1*
X12147Y48632D1*
X12097Y48535D1*
X12049Y48389D1*
Y48146D1*
X12097Y48001D1*
X12147Y47903D1*
X12243Y47806D1*
X12341Y47757D1*
X12535D1*
X12632Y47806D1*
X12729Y47903D1*
X12778Y48001D1*
X12826Y48146D1*
Y48389D1*
X12778Y48535D1*
X12729Y48632D1*
X12632Y48730D1*
X12535Y48778D1*
X12341D1*
X13869Y48535D2*
X13820Y48632D1*
X13723Y48730D1*
X13626Y48778D1*
X13432D1*
X13334Y48730D1*
X13237Y48632D1*
X13188Y48535D1*
X13140Y48389D1*
Y48146D1*
X13188Y48001D1*
X13237Y47903D1*
X13334Y47806D1*
X13432Y47757D1*
X13626D1*
X13723Y47806D1*
X13820Y47903D1*
X13869Y48001D1*
X14669Y47757D2*
Y48777D1*
X14182Y48097D1*
X14911D1*
X20239Y79365D2*
X20142Y79318D1*
X20044Y79220D1*
X19996Y79122D1*
X19947Y78976D1*
Y78734D1*
X19996Y78588D1*
X20044Y78491D1*
X20142Y78393D1*
X20239Y78345D1*
X20433D1*
X20531Y78393D1*
X20627Y78491D1*
X20676Y78588D1*
X20725Y78734D1*
Y78976D1*
X20676Y79122D1*
X20627Y79220D1*
X20531Y79318D1*
X20433Y79365D1*
X20239D1*
X20385Y78539D2*
X20676Y78247D1*
X21039Y79169D2*
X21136Y79219D1*
X21282Y79364D1*
Y78344D1*
X20105Y68874D2*
X20008Y68827D1*
X19910Y68729D1*
X19862Y68632D1*
X19813Y68486D1*
Y68243D1*
X19862Y68097D1*
X19910Y68001D1*
X20008Y67903D1*
X20105Y67855D1*
X20299D1*
X20397Y67903D1*
X20493Y68001D1*
X20542Y68097D1*
X20591Y68243D1*
Y68486D1*
X20542Y68632D1*
X20493Y68729D1*
X20397Y68827D1*
X20299Y68874D1*
X20105D1*
X20251Y68049D2*
X20542Y67757D1*
X20954Y68631D2*
Y68679D1*
X21002Y68777D1*
X21051Y68825D1*
X21148Y68873D1*
X21343D1*
X21439Y68825D1*
X21488Y68777D1*
X21537Y68679D1*
Y68582D1*
X21488Y68485D1*
X21391Y68340D1*
X20905Y67853D1*
X21585D1*
X20220Y57893D2*
X20123Y57846D1*
X20025Y57748D1*
X19977Y57650D1*
X19928Y57504D1*
Y57262D1*
X19977Y57116D1*
X20025Y57019D1*
X20123Y56921D1*
X20220Y56873D1*
X20414D1*
X20512Y56921D1*
X20608Y57019D1*
X20657Y57116D1*
X20706Y57262D1*
Y57504D1*
X20657Y57650D1*
X20608Y57748D1*
X20512Y57846D1*
X20414Y57893D1*
X20220D1*
X20366Y57067D2*
X20657Y56775D1*
X21117Y57892D2*
X21651D1*
X21360Y57503D1*
X21506D1*
X21603Y57455D1*
X21651Y57406D1*
X21700Y57260D1*
Y57164D1*
X21651Y57018D1*
X21554Y56920D1*
X21408Y56872D1*
X21262D1*
X21117Y56920D1*
X21069Y56970D1*
X21020Y57066D1*
X19701Y47101D2*
X19604Y47054D1*
X19506Y46956D1*
X19458Y46858D1*
X19409Y46712D1*
Y46470D1*
X19458Y46324D1*
X19506Y46227D1*
X19604Y46130D1*
X19701Y46081D1*
X19895D1*
X19993Y46130D1*
X20089Y46227D1*
X20137Y46324D1*
X20187Y46470D1*
Y46712D1*
X20137Y46858D1*
X20089Y46956D1*
X19993Y47054D1*
X19895Y47101D1*
X19701D1*
X19847Y46276D2*
X20137Y45984D1*
X20987Y46080D2*
Y47100D1*
X20501Y46420D1*
X21229D1*
X19954Y83992D2*
X20391D1*
X20537Y84041D1*
X20587Y84089D1*
X20635Y84186D1*
Y84284D1*
X20587Y84380D1*
X20537Y84430D1*
X20391Y84478D1*
X19954D1*
Y83457D1*
X20295Y83992D2*
X20635Y83457D1*
X20949Y84282D2*
X21046Y84332D1*
X21192Y84477D1*
Y83457D1*
X33962Y83626D2*
Y84063D1*
X33912Y84209D1*
X33864Y84258D1*
X33767Y84306D1*
X33670D1*
X33573Y84258D1*
X33524Y84209D1*
X33475Y84063D1*
Y83626D1*
X34496D1*
X33962Y83966D2*
X34496Y84306D1*
X33719Y84670D2*
X33671D1*
X33573Y84718D1*
X33525Y84766D1*
X33477Y84864D1*
Y85058D1*
X33525Y85155D1*
X33573Y85203D1*
X33671Y85252D1*
X33767D1*
X33865Y85203D1*
X34010Y85106D1*
X34496Y84620D1*
Y85301D1*
X23438Y80503D2*
Y80939D1*
X23389Y81085D1*
X23341Y81135D1*
X23244Y81183D1*
X23146D1*
X23050Y81135D1*
X23000Y81085D1*
X22952Y80939D1*
Y80503D1*
X23973D1*
X23438Y80843D2*
X23973Y81183D1*
X22953Y81595D2*
Y82128D1*
X23342Y81837D1*
Y81983D1*
X23390Y82080D1*
X23438Y82128D1*
X23584Y82177D1*
X23681D1*
X23827Y82128D1*
X23925Y82031D1*
X23973Y81885D1*
Y81739D1*
X23925Y81595D1*
X23875Y81546D1*
X23779Y81497D1*
X34125Y59938D2*
Y60375D1*
X34076Y60521D1*
X34027Y60571D1*
X33931Y60619D1*
X33833D1*
X33736Y60571D1*
X33687Y60521D1*
X33639Y60375D1*
Y59938D1*
X34660D1*
X34125Y60279D2*
X34660Y60619D1*
Y61419D2*
X33640D1*
X34319Y60933D1*
Y61662D1*
X29176Y72688D2*
X29613D1*
X29759Y72738D1*
X29808Y72786D1*
X29856Y72883D1*
Y72980D1*
X29808Y73077D1*
X29759Y73126D1*
X29613Y73175D1*
X29176D1*
Y72154D1*
X29516Y72688D2*
X29856Y72154D1*
X30753Y73173D2*
X30268D1*
X30220Y72737D1*
X30268Y72785D1*
X30414Y72834D1*
X30559D1*
X30705Y72785D1*
X30802Y72688D1*
X30851Y72542D1*
Y72446D1*
X30802Y72300D1*
X30705Y72202D1*
X30559Y72154D1*
X30414D1*
X30268Y72202D1*
X30220Y72251D1*
X30170Y72348D1*
X35355Y38491D2*
Y38927D1*
X35306Y39073D1*
X35257Y39123D1*
X35161Y39171D1*
X35063D1*
X34966Y39123D1*
X34917Y39073D1*
X34869Y38927D1*
Y38491D1*
X35890D1*
X35355Y38831D2*
X35890Y39171D1*
X35015Y40068D2*
X34918Y40019D1*
X34870Y39873D1*
Y39777D1*
X34918Y39631D1*
X35064Y39533D1*
X35307Y39485D1*
X35549D1*
X35744Y39533D1*
X35841Y39631D1*
X35890Y39777D1*
Y39825D1*
X35841Y39970D1*
X35744Y40068D1*
X35598Y40116D1*
X35549D1*
X35403Y40068D1*
X35307Y39970D1*
X35258Y39825D1*
Y39777D1*
X35307Y39631D1*
X35403Y39533D1*
X35549Y39485D1*
X29193Y52512D2*
X29629D1*
X29775Y52561D1*
X29825Y52609D1*
X29873Y52706D1*
Y52804D1*
X29825Y52900D1*
X29775Y52950D1*
X29629Y52998D1*
X29193D1*
Y51977D1*
X29533Y52512D2*
X29873Y51977D1*
X30381D2*
X30867Y52997D1*
X30187D1*
X35372Y32306D2*
Y32743D1*
X35322Y32889D1*
X35274Y32939D1*
X35177Y32987D1*
X35080D1*
X34983Y32939D1*
X34934Y32889D1*
X34885Y32743D1*
Y32306D1*
X35906D1*
X35372Y32647D2*
X35906Y32987D1*
X34887Y33543D2*
X34935Y33398D1*
X35031Y33349D1*
X35129D1*
X35226Y33398D1*
X35275Y33495D1*
X35323Y33689D1*
X35372Y33835D1*
X35469Y33932D1*
X35566Y33980D1*
X35712D1*
X35809Y33932D1*
X35858Y33884D1*
X35906Y33738D1*
Y33543D1*
X35858Y33398D1*
X35809Y33349D1*
X35712Y33301D1*
X35566D1*
X35469Y33349D1*
X35372Y33447D1*
X35323Y33592D1*
X35275Y33786D1*
X35226Y33884D1*
X35129Y33932D1*
X35031D1*
X34935Y33884D1*
X34887Y33738D1*
Y33543D1*
X6804Y59087D2*
X6706Y58990D1*
X6658Y58844D1*
Y58650D1*
X6706Y58504D1*
X6804Y58406D1*
X6901D1*
X6998Y58455D1*
X7047Y58504D1*
X7095Y58600D1*
X7193Y58892D1*
X7241Y58990D1*
X7290Y59038D1*
X7387Y59087D1*
X7533D1*
X7629Y58990D1*
X7679Y58844D1*
Y58650D1*
X7629Y58504D1*
X7533Y58406D1*
X6658Y59400D2*
X7679D1*
X6998Y59957D2*
X7047Y59860D1*
X7144Y59762D1*
X7290Y59714D1*
X7387D1*
X7533Y59762D1*
X7629Y59860D1*
X7679Y59957D1*
Y60103D1*
X7629Y60200D1*
X7533Y60297D1*
X7387Y60346D1*
X7290D1*
X7144Y60297D1*
X7047Y60200D1*
X6998Y60103D1*
Y59957D1*
Y60660D2*
X7679Y60854D1*
X6998Y61049D1*
X7679Y61243D1*
X6998Y61437D1*
X6804Y62432D2*
X6706Y62335D1*
X6658Y62189D1*
Y61995D1*
X6706Y61849D1*
X6804Y61751D1*
X6901D1*
X6998Y61800D1*
X7047Y61849D1*
X7095Y61945D1*
X7193Y62237D1*
X7241Y62335D1*
X7290Y62383D1*
X7387Y62432D1*
X7533D1*
X7629Y62335D1*
X7679Y62189D1*
Y61995D1*
X7629Y61849D1*
X7533Y61751D1*
X6998Y62745D2*
X8019D1*
X7144D2*
X7048Y62843D1*
X6998Y62940D1*
Y63086D1*
X7048Y63183D1*
X7144Y63280D1*
X7290Y63329D1*
X7388D1*
X7533Y63280D1*
X7631Y63183D1*
X7679Y63086D1*
Y62940D1*
X7631Y62843D1*
X7533Y62745D1*
X7290Y63643D2*
Y64226D1*
X7193D1*
X7095Y64178D1*
X7047Y64129D1*
X6998Y64032D1*
Y63886D1*
X7047Y63789D1*
X7144Y63691D1*
X7290Y63643D1*
X7387D1*
X7533Y63691D1*
X7629Y63789D1*
X7679Y63886D1*
Y64032D1*
X7629Y64129D1*
X7533Y64226D1*
X7290Y64540D2*
Y65123D1*
X7193D1*
X7095Y65074D1*
X7047Y65026D1*
X6998Y64928D1*
Y64782D1*
X7047Y64686D1*
X7144Y64588D1*
X7290Y64540D1*
X7387D1*
X7533Y64588D1*
X7629Y64686D1*
X7679Y64782D1*
Y64928D1*
X7629Y65026D1*
X7533Y65123D1*
X6658Y66019D2*
X7679D1*
X7144D2*
X7047Y65923D1*
X6998Y65825D1*
Y65679D1*
X7047Y65582D1*
X7144Y65485D1*
X7290Y65436D1*
X7387D1*
X7533Y65485D1*
X7629Y65582D1*
X7679Y65679D1*
Y65825D1*
X7629Y65923D1*
X7533Y66019D1*
X7193Y66333D2*
Y66771D1*
X7144Y66916D1*
X7095Y66965D1*
X6998Y67013D1*
X6852D1*
X6756Y66965D1*
X6706Y66916D1*
X6658Y66771D1*
Y66333D1*
X7679D1*
X6998Y67570D2*
X7047Y67473D1*
X7144Y67375D1*
X7290Y67327D1*
X7387D1*
X7533Y67375D1*
X7629Y67473D1*
X7679Y67570D1*
Y67716D1*
X7629Y67813D1*
X7533Y67910D1*
X7387Y67959D1*
X7290D1*
X7144Y67910D1*
X7047Y67813D1*
X6998Y67716D1*
Y67570D1*
Y68273D2*
X7679D1*
X7290D2*
X7144Y68323D1*
X7047Y68419D1*
X6998Y68517D1*
Y68663D1*
X6658Y69123D2*
X7485D1*
X7629Y69171D1*
X7679Y69269D1*
Y69365D1*
X6998Y68977D2*
Y69317D1*
X7679Y70456D2*
X6658D1*
X7679Y70068D1*
X6658Y69679D1*
X7679D1*
X6658Y70770D2*
X6706Y70818D1*
X6658Y70868D1*
X6609Y70818D1*
X6658Y70770D1*
X6998Y70818D2*
X7679D1*
X6998Y71181D2*
X7679D1*
X7193D2*
X7047Y71327D1*
X6998Y71425D1*
Y71570D1*
X7047Y71668D1*
X7193Y71716D1*
X7679D1*
X6998Y72030D2*
X7679D1*
X7193D2*
X7047Y72176D1*
X6998Y72273D1*
Y72418D1*
X7047Y72516D1*
X7193Y72564D1*
X7679D1*
X6998Y73120D2*
X7047Y73024D1*
X7144Y72926D1*
X7290Y72878D1*
X7387D1*
X7533Y72926D1*
X7629Y73024D1*
X7679Y73120D1*
Y73266D1*
X7629Y73364D1*
X7533Y73461D1*
X7387Y73510D1*
X7290D1*
X7144Y73461D1*
X7047Y73364D1*
X6998Y73266D1*
Y73120D1*
Y73824D2*
X7679Y74018D1*
X6998Y74212D1*
X7679Y74407D1*
X6998Y74601D1*
X6658Y74915D2*
X7679D1*
Y75353D1*
X7629Y75499D1*
X7581Y75547D1*
X7485Y75595D1*
X7339D1*
X7241Y75547D1*
X7193Y75499D1*
X7144Y75353D1*
X7095Y75499D1*
X7047Y75547D1*
X6950Y75595D1*
X6852D1*
X6756Y75547D1*
X6706Y75499D1*
X6658Y75353D1*
Y74915D1*
X7144D2*
Y75353D1*
X6998Y76152D2*
X7047Y76055D1*
X7144Y75957D1*
X7290Y75909D1*
X7387D1*
X7533Y75957D1*
X7629Y76055D1*
X7679Y76152D1*
Y76298D1*
X7629Y76395D1*
X7533Y76492D1*
X7387Y76541D1*
X7290D1*
X7144Y76492D1*
X7047Y76395D1*
X6998Y76298D1*
Y76152D1*
Y77438D2*
X7679D1*
X7144D2*
X7047Y77341D1*
X6998Y77244D1*
Y77099D1*
X7047Y77001D1*
X7144Y76905D1*
X7290Y76855D1*
X7387D1*
X7533Y76905D1*
X7629Y77001D1*
X7679Y77099D1*
Y77244D1*
X7629Y77341D1*
X7533Y77438D1*
X6998Y77752D2*
X7679D1*
X7290D2*
X7144Y77801D1*
X7047Y77898D1*
X6998Y77995D1*
Y78141D1*
X6658Y79038D2*
X7679D1*
X7144D2*
X7047Y78941D1*
X6998Y78844D1*
Y78698D1*
X7047Y78601D1*
X7144Y78503D1*
X7290Y78455D1*
X7387D1*
X7533Y78503D1*
X7629Y78601D1*
X7679Y78698D1*
Y78844D1*
X7629Y78941D1*
X7533Y79038D1*
X7679Y80129D2*
X6658D1*
X7679Y79740D1*
X6658Y79352D1*
X7679D1*
Y81221D2*
X6658Y80831D1*
X7679Y80443D1*
X7339Y80589D2*
Y81075D1*
X6658Y81535D2*
X7679Y82215D1*
X6658D2*
X7679Y81535D1*
X39861Y86451D2*
Y85722D1*
X39909Y85576D1*
X40007Y85480D1*
X40153Y85430D1*
X40250D1*
X40396Y85480D1*
X40493Y85576D1*
X40542Y85722D1*
Y86451D1*
X40855Y86256D2*
X40953Y86305D1*
X41099Y86450D1*
Y85430D1*
X41343Y62875D2*
Y62146D1*
X41391Y62000D1*
X41489Y61903D1*
X41635Y61854D1*
X41731D1*
X41877Y61903D1*
X41975Y62000D1*
X42023Y62146D1*
Y62875D1*
X42386Y62631D2*
Y62679D1*
X42435Y62777D1*
X42483Y62825D1*
X42581Y62873D1*
X42775D1*
X42871Y62825D1*
X42920Y62777D1*
X42969Y62679D1*
Y62583D1*
X42920Y62485D1*
X42823Y62340D1*
X42337Y61854D1*
X43017D1*
X41126Y41191D2*
Y40462D1*
X41174Y40316D1*
X41272Y40220D1*
X41418Y40170D1*
X41514D1*
X41660Y40220D1*
X41758Y40316D1*
X41806Y40462D1*
Y41191D1*
X42218Y41190D2*
X42751D1*
X42460Y40802D1*
X42606D1*
X42703Y40753D1*
X42751Y40705D1*
X42801Y40559D1*
Y40462D1*
X42751Y40316D1*
X42655Y40219D1*
X42509Y40170D1*
X42363D1*
X42218Y40219D1*
X42170Y40268D1*
X42120Y40365D1*
X29275Y41825D2*
Y41096D1*
X29323Y40950D1*
X29421Y40853D1*
X29567Y40804D1*
X29664D1*
X29810Y40853D1*
X29907Y40950D1*
X29956Y41096D1*
Y41825D1*
X30756Y40804D2*
Y41823D1*
X30269Y41144D1*
X30998D1*
X13493Y90731D2*
Y90002D1*
X13541Y89856D1*
X13639Y89760D1*
X13785Y89710D1*
X13881D1*
X14027Y89760D1*
X14125Y89856D1*
X14173Y90002D1*
Y90731D1*
X15070Y90730D2*
X14585D1*
X14536Y90293D1*
X14585Y90342D1*
X14731Y90391D1*
X14875D1*
X15021Y90342D1*
X15119Y90245D1*
X15167Y90099D1*
Y90002D1*
X15119Y89856D1*
X15021Y89759D1*
X14875Y89710D1*
X14731D1*
X14585Y89759D1*
X14536Y89808D1*
X14487Y89905D1*
X25840Y9256D2*
D66*
X26932D1*
X27297Y9379D1*
X27421Y9500D1*
X27541Y9741D1*
Y9986D1*
X27421Y10227D1*
X27297Y10351D1*
X26932Y10471D1*
X25840D1*
Y7919D1*
X26691Y9256D2*
X27541Y7919D1*
X28326Y8891D2*
X29783D1*
Y9135D1*
X29662Y9379D1*
X29542Y9500D1*
X29297Y9621D1*
X28932D1*
X28691Y9500D1*
X28447Y9256D1*
X28326Y8891D1*
Y8649D1*
X28447Y8284D1*
X28691Y8043D1*
X28932Y7919D1*
X29297D1*
X29542Y8043D1*
X29783Y8284D1*
X30567Y10471D2*
Y7919D1*
X32809Y9621D2*
Y7919D1*
Y9256D2*
X32567Y9500D1*
X32323Y9621D1*
X31961D1*
X31717Y9500D1*
X31475Y9256D1*
X31352Y8891D1*
Y8649D1*
X31475Y8284D1*
X31717Y8043D1*
X31961Y7919D1*
X32323D1*
X32567Y8043D1*
X32809Y8284D1*
X33717Y9621D2*
X34444Y7919D1*
X34202Y7433D1*
X33958Y7189D1*
X33717Y7068D1*
X33593D1*
X35174Y9621D2*
X34444Y7919D1*
X38427Y10471D2*
Y7919D1*
X39884D1*
X40669Y9621D2*
Y8405D1*
X40789Y8043D1*
X41034Y7919D1*
X41399D1*
X41640Y8043D1*
X42005Y8405D1*
Y9621D2*
Y7919D1*
X42789Y9621D2*
Y7919D1*
Y8891D2*
X42913Y9256D1*
X43154Y9500D1*
X43399Y9621D1*
X43764D1*
X44548Y8891D2*
X46005D1*
Y9135D1*
X45884Y9379D1*
X45764Y9500D1*
X45519Y9621D1*
X45154D1*
X44913Y9500D1*
X44669Y9256D1*
X44548Y8891D1*
Y8649D1*
X44669Y8284D1*
X44913Y8043D1*
X45154Y7919D1*
X45519D1*
X45764Y8043D1*
X46005Y8284D1*
X72708Y73991D2*
D67*
X73474D1*
X72708Y73481D1*
X73474D1*
X72890Y74773D2*
X72818Y74737D1*
X72745Y74664D1*
X72708Y74591D1*
Y74446D1*
X72745Y74372D1*
X72818Y74300D1*
X72890Y74263D1*
X73000Y74227D1*
X73183D1*
X73291Y74263D1*
X73365Y74300D1*
X73437Y74372D1*
X73474Y74446D1*
Y74591D1*
X73437Y74664D1*
X73365Y74737D1*
X73291Y74773D1*
X72802Y68529D2*
X73567D1*
X72802Y68019D1*
X73567D1*
X72802Y68983D2*
X72838Y68910D1*
X72911Y68838D1*
X72984Y68800D1*
X73093Y68764D1*
X73276D1*
X73385Y68800D1*
X73458Y68838D1*
X73530Y68910D1*
X73567Y68983D1*
Y69129D1*
X73530Y69201D1*
X73458Y69275D1*
X73385Y69311D1*
X73276Y69347D1*
X73093D1*
X72984Y69311D1*
X72911Y69275D1*
X72838Y69201D1*
X72802Y69129D1*
Y68983D1*
X72922Y51955D2*
X73687D1*
X72922Y51444D1*
X73687D1*
X73104Y52737D2*
X73031Y52700D1*
X72958Y52627D1*
X72922Y52555D1*
Y52409D1*
X72958Y52336D1*
X73031Y52263D1*
X73104Y52226D1*
X73213Y52190D1*
X73396D1*
X73505Y52226D1*
X73578Y52263D1*
X73650Y52336D1*
X73687Y52409D1*
Y52555D1*
X73650Y52627D1*
X73578Y52700D1*
X73505Y52737D1*
X73015Y46492D2*
X73781D1*
X73015Y45982D1*
X73781D1*
X73015Y46947D2*
X73051Y46873D1*
X73124Y46801D1*
X73197Y46764D1*
X73306Y46728D1*
X73489D1*
X73598Y46764D1*
X73671Y46801D1*
X73744Y46873D1*
X73781Y46947D1*
Y47092D1*
X73744Y47165D1*
X73671Y47238D1*
X73598Y47274D1*
X73489Y47310D1*
X73306D1*
X73197Y47274D1*
X73124Y47238D1*
X73051Y47165D1*
X73015Y47092D1*
Y46947D1*
X73012Y30138D2*
X73777D1*
X73012Y29628D1*
X73777D1*
X73194Y30920D2*
X73121Y30884D1*
X73048Y30810D1*
X73012Y30738D1*
Y30592D1*
X73048Y30519D1*
X73121Y30447D1*
X73194Y30410D1*
X73303Y30373D1*
X73486D1*
X73595Y30410D1*
X73668Y30447D1*
X73740Y30519D1*
X73777Y30592D1*
Y30738D1*
X73740Y30810D1*
X73668Y30884D1*
X73595Y30920D1*
X73105Y24676D2*
X73871D1*
X73105Y24165D1*
X73871D1*
X73105Y25130D2*
X73141Y25057D1*
X73214Y24984D1*
X73287Y24947D1*
X73396Y24911D1*
X73579D1*
X73688Y24947D1*
X73761Y24984D1*
X73834Y25057D1*
X73871Y25130D1*
Y25276D1*
X73834Y25348D1*
X73761Y25421D1*
X73688Y25458D1*
X73579Y25494D1*
X73396D1*
X73287Y25458D1*
X73214Y25421D1*
X73141Y25348D1*
X73105Y25276D1*
Y25130D1*
X919Y23892D2*
X153D1*
X919Y24402D1*
X153D1*
X737Y23110D2*
X810Y23146D1*
X883Y23220D1*
X919Y23292D1*
Y23438D1*
X883Y23511D1*
X810Y23583D1*
X737Y23620D1*
X628Y23657D1*
X445D1*
X336Y23620D1*
X263Y23583D1*
X190Y23511D1*
X153Y23438D1*
Y23292D1*
X190Y23220D1*
X263Y23146D1*
X336Y23110D1*
X826Y29354D2*
X60D1*
X826Y29865D1*
X60D1*
X826Y28900D2*
X790Y28973D1*
X716Y29046D1*
X644Y29083D1*
X534Y29119D1*
X352D1*
X243Y29083D1*
X170Y29046D1*
X97Y28973D1*
X60Y28900D1*
Y28754D1*
X97Y28682D1*
X170Y28609D1*
X243Y28572D1*
X352Y28536D1*
X534D1*
X644Y28572D1*
X716Y28609D1*
X790Y28682D1*
X826Y28754D1*
Y28900D1*
X69851Y76446D2*
X69888Y76373D1*
X69997Y76263D1*
X69232D1*
X69832Y71550D2*
X69868D1*
X69942Y71514D1*
X69978Y71478D1*
X70014Y71405D1*
Y71259D1*
X69978Y71186D1*
X69942Y71150D1*
X69868Y71113D1*
X69796D1*
X69723Y71150D1*
X69614Y71223D1*
X69249Y71587D1*
Y71077D1*
X69957Y66448D2*
Y66048D1*
X69666Y66266D1*
Y66157D1*
X69629Y66084D1*
X69593Y66048D1*
X69484Y66011D1*
X69411D1*
X69302Y66048D1*
X69228Y66121D1*
X69192Y66230D1*
Y66340D1*
X69228Y66448D1*
X69265Y66484D1*
X69338Y66522D1*
X70038Y54502D2*
X70075Y54429D1*
X70184Y54319D1*
X69419D1*
X70019Y49606D2*
X70055D1*
X70129Y49570D1*
X70165Y49534D1*
X70201Y49461D1*
Y49315D1*
X70165Y49242D1*
X70129Y49206D1*
X70055Y49169D1*
X69983D1*
X69910Y49206D1*
X69801Y49279D1*
X69436Y49643D1*
Y49133D1*
X70144Y44504D2*
Y44104D1*
X69853Y44322D1*
Y44213D1*
X69816Y44140D1*
X69780Y44104D1*
X69671Y44067D1*
X69598D1*
X69489Y44104D1*
X69415Y44177D1*
X69379Y44286D1*
Y44396D1*
X69415Y44504D1*
X69452Y44540D1*
X69525Y44578D1*
X70061Y32559D2*
X70098Y32486D1*
X70207Y32377D1*
X69442D1*
X70042Y27664D2*
X70078D1*
X70152Y27627D1*
X70188Y27591D1*
X70224Y27518D1*
Y27372D1*
X70188Y27300D1*
X70152Y27264D1*
X70078Y27226D1*
X70006D1*
X69933Y27264D1*
X69824Y27336D1*
X69459Y27701D1*
Y27190D1*
X70167Y22562D2*
Y22161D1*
X69876Y22380D1*
Y22270D1*
X69839Y22198D1*
X69803Y22161D1*
X69694Y22124D1*
X69621D1*
X69512Y22161D1*
X69438Y22234D1*
X69402Y22343D1*
Y22453D1*
X69438Y22562D1*
X69475Y22598D1*
X69548Y22635D1*
X3799Y21375D2*
X3762Y21448D1*
X3653Y21558D1*
X4418D1*
X3817Y26271D2*
X3781D1*
X3708Y26307D1*
X3672Y26343D1*
X3635Y26416D1*
Y26562D1*
X3672Y26635D1*
X3708Y26671D1*
X3781Y26708D1*
X3854D1*
X3927Y26671D1*
X4036Y26598D1*
X4400Y26234D1*
Y26744D1*
X3693Y31373D2*
Y31773D1*
X3984Y31555D1*
Y31664D1*
X4020Y31737D1*
X4057Y31773D1*
X4166Y31810D1*
X4239D1*
X4348Y31773D1*
X4421Y31700D1*
X4458Y31591D1*
Y31481D1*
X4421Y31373D1*
X4384Y31337D1*
X4312Y31299D1*
M02*
