G04 DipTrace 2.4.0.2*
%INTopSilk.gbr*%
%MOIN*%
%ADD10C,0.01*%
%ADD12C,0.003*%
%ADD15C,0.02*%
%ADD29C,0.018*%
%ADD65C,0.0062*%
%ADD66C,0.0154*%
%ADD67C,0.0046*%
%FSLAX44Y44*%
G04*
G70*
G90*
G75*
G01*
%LNTopSilk*%
%LPD*%
X31635Y35164D2*
D10*
X28370D1*
Y28790D1*
X31635D1*
Y35164D1*
X31709Y26525D2*
X28444D1*
Y20151D1*
X31709D1*
Y26525D1*
X31718Y17886D2*
X28453D1*
Y11512D1*
X31718D1*
Y17886D1*
X5235Y11222D2*
X8500D1*
Y17596D1*
X5235D1*
Y11222D1*
X19400Y35271D2*
X28300D1*
Y28771D2*
Y35271D1*
Y28771D2*
X19400D1*
Y35271D2*
Y28771D1*
X22150Y34371D2*
X22400D1*
Y32271D1*
X21900D1*
Y32021D1*
Y31771D1*
X22901D2*
Y32271D1*
X22400D1*
X21900Y31771D2*
X22400D1*
Y29671D1*
Y31771D2*
X22901D1*
X22400Y29671D2*
X22150D1*
X21900Y31771D2*
X22901Y32271D1*
X23150Y32021D2*
X25750D1*
X26001Y32271D1*
Y33491D2*
Y32271D1*
Y31771D2*
Y30541D1*
Y32271D2*
X26130Y32391D1*
X21251Y32021D2*
X21650D1*
X19483Y26604D2*
X28383D1*
Y20104D2*
Y26604D1*
Y20104D2*
X19483D1*
Y26604D2*
Y20104D1*
X22233Y25704D2*
X22483D1*
Y23605D1*
X21983D1*
Y23354D1*
Y23104D1*
X22983D2*
Y23605D1*
X22483D1*
X21983Y23104D2*
X22483D1*
Y21005D1*
Y23104D2*
X22983D1*
X22483Y21005D2*
X22233D1*
X21983Y23104D2*
X22983Y23605D1*
X23233Y23354D2*
X25833D1*
X26083Y23605D1*
Y24825D2*
Y23605D1*
Y23104D2*
Y21874D1*
Y23605D2*
X26213Y23724D1*
X21333Y23354D2*
X21733D1*
X19480Y17935D2*
X28380D1*
Y11435D2*
Y17935D1*
Y11435D2*
X19480D1*
Y17935D2*
Y11435D1*
X22230Y17035D2*
X22481D1*
Y14935D1*
X21980D1*
Y14685D1*
Y14435D1*
X22981D2*
Y14935D1*
X22481D1*
X21980Y14435D2*
X22481D1*
Y12335D1*
Y14435D2*
X22981D1*
X22481Y12335D2*
X22230D1*
X21980Y14435D2*
X22981Y14935D1*
X23230Y14685D2*
X25830D1*
X26081Y14935D1*
Y16155D2*
Y14935D1*
Y14435D2*
Y13205D1*
Y14935D2*
X26210Y15055D1*
X21331Y14685D2*
X21730D1*
X17479Y11183D2*
X8579D1*
Y17683D2*
Y11183D1*
Y17683D2*
X17479D1*
Y11183D2*
Y17683D1*
X14729Y12083D2*
X14479D1*
Y14183D1*
X14979D1*
Y14433D1*
Y14683D1*
X13979D2*
Y14183D1*
X14479D1*
X14979Y14683D2*
X14479D1*
Y16783D1*
Y14683D2*
X13979D1*
X14479Y16783D2*
X14729D1*
X14979Y14683D2*
X13979Y14183D1*
X13729Y14433D2*
X11129D1*
X10879Y14183D1*
Y12963D2*
Y14183D1*
Y14683D2*
Y15913D1*
Y14183D2*
X10749Y14063D1*
X15629Y14433D2*
X15229D1*
X22252Y36131D2*
Y36643D1*
X22235Y27418D2*
Y27929D1*
X22189Y18606D2*
Y19118D1*
X15278Y9643D2*
Y10155D1*
X10196Y34539D2*
X8148D1*
Y32492D1*
X10196D1*
Y33279D1*
Y33752D2*
Y34539D1*
Y33752D2*
G03X10196Y33279I0J-236D01*
G01*
X10236Y30297D2*
X8189D1*
Y28249D1*
X10236D1*
Y29037D1*
Y29509D2*
Y30297D1*
Y29509D2*
G03X10236Y29037I0J-236D01*
G01*
X10243Y26050D2*
X8196D1*
Y24003D1*
X10243D1*
Y24790D1*
Y25263D2*
Y26050D1*
Y25263D2*
G03X10243Y24790I0J-236D01*
G01*
X10268Y21784D2*
X8220D1*
Y19736D1*
X10268D1*
Y20524D1*
Y20996D2*
Y21784D1*
Y20996D2*
G03X10268Y20524I0J-236D01*
G01*
X11205Y34203D2*
X11008Y34400D1*
X11402D2*
X11205Y34597D1*
X11008Y34400D1*
X10913Y33434D2*
G02X10913Y33434I1139J0D01*
G01*
X12844Y30176D2*
X13041Y30373D1*
Y29979D2*
X13238Y30176D1*
X13041Y30373D1*
X10935Y29328D2*
G02X10935Y29328I1140J0D01*
G01*
X12889Y25852D2*
X13086Y26049D1*
Y25655D2*
X13283Y25852D1*
X13086Y26049D1*
X10980Y25004D2*
G02X10980Y25004I1140J0D01*
G01*
X12694Y21604D2*
X12891Y21801D1*
Y21407D2*
X13088Y21604D1*
X12891Y21801D1*
X10785Y20755D2*
G02X10785Y20755I1140J0D01*
G01*
X4423Y38077D2*
X6423D1*
Y25160D1*
X4423D2*
X6423D1*
X4423Y38077D2*
Y25160D1*
X19799Y36245D2*
X19949D1*
Y37371D1*
X19799D1*
Y36245D1*
D29*
X20075Y36068D3*
X20468Y26963D2*
D10*
X20618D1*
Y28089D1*
X20468D1*
Y26963D1*
D29*
X20744Y26786D3*
X20383Y18426D2*
D10*
X20533D1*
Y19552D1*
X20383D1*
Y18426D1*
D29*
X20659Y18249D3*
X16239Y19034D2*
D10*
X15113D1*
Y19184D1*
X16239D1*
Y19034D1*
D29*
X16416Y19310D3*
X11579Y38072D2*
D10*
Y39072D1*
X7579Y38072D2*
X11579D1*
X7579Y39072D2*
X11579D1*
X7579Y38072D2*
Y39072D1*
X31647Y33987D2*
D15*
X32348D1*
X32352Y32707D1*
X32269Y32563D2*
Y32568D1*
X32270Y32574D1*
X32271Y32579D1*
X32272Y32584D1*
X32274Y32589D1*
X32276Y32594D1*
X32278Y32599D1*
X32281Y32604D1*
X32284Y32609D1*
X32288Y32613D1*
X32291Y32617D1*
X32295Y32621D1*
X32300Y32624D1*
X32304Y32627D1*
X32309Y32630D1*
X32314Y32633D1*
X32319Y32635D1*
X32324Y32637D1*
X32329Y32638D1*
X32335Y32639D1*
X32340Y32640D1*
X32346D1*
X32351D1*
X32357D1*
X32362Y32639D1*
X32368Y32638D1*
X32373Y32637D1*
X32378Y32635D1*
X32383Y32633D1*
X32388Y32630D1*
X32393Y32627D1*
X32397Y32624D1*
X32402Y32621D1*
X32406Y32617D1*
X32409Y32613D1*
X32413Y32609D1*
X32416Y32604D1*
X32419Y32599D1*
X32421Y32594D1*
X32423Y32589D1*
X32425Y32584D1*
X32426Y32579D1*
X32427Y32574D1*
X32428Y32568D1*
Y32563D1*
Y32558D1*
X32427Y32552D1*
X32426Y32547D1*
X32425Y32542D1*
X32423Y32537D1*
X32421Y32532D1*
X32419Y32527D1*
X32416Y32522D1*
X32413Y32517D1*
X32409Y32513D1*
X32406Y32509D1*
X32402Y32505D1*
X32397Y32502D1*
X32393Y32499D1*
X32388Y32496D1*
X32383Y32493D1*
X32378Y32491D1*
X32373Y32489D1*
X32368Y32488D1*
X32362Y32487D1*
X32357Y32486D1*
X32351D1*
X32346D1*
X32340D1*
X32335Y32487D1*
X32329Y32488D1*
X32324Y32489D1*
X32319Y32491D1*
X32314Y32493D1*
X32309Y32496D1*
X32304Y32499D1*
X32300Y32502D1*
X32295Y32505D1*
X32291Y32509D1*
X32288Y32513D1*
X32284Y32517D1*
X32281Y32522D1*
X32278Y32527D1*
X32276Y32532D1*
X32274Y32537D1*
X32272Y32542D1*
X32271Y32547D1*
X32270Y32552D1*
X32269Y32558D1*
Y32563D1*
X32352Y32549D2*
X31650Y32067D1*
X31600Y30022D2*
X32379Y30029D1*
X32377Y30025D2*
X32381Y30844D1*
X32302Y30955D2*
Y30961D1*
X32303Y30966D1*
X32304Y30971D1*
X32305Y30977D1*
X32307Y30982D1*
X32309Y30987D1*
X32311Y30992D1*
X32314Y30996D1*
X32317Y31001D1*
X32320Y31005D1*
X32324Y31009D1*
X32328Y31013D1*
X32332Y31016D1*
X32337Y31020D1*
X32342Y31022D1*
X32346Y31025D1*
X32351Y31027D1*
X32357Y31029D1*
X32362Y31031D1*
X32367Y31032D1*
X32373D1*
X32378Y31033D1*
X32384D1*
X32390Y31032D1*
X32395D1*
X32400Y31031D1*
X32406Y31029D1*
X32411Y31027D1*
X32416Y31025D1*
X32421Y31022D1*
X32426Y31020D1*
X32430Y31016D1*
X32434Y31013D1*
X32438Y31009D1*
X32442Y31005D1*
X32445Y31001D1*
X32449Y30996D1*
X32451Y30992D1*
X32454Y30987D1*
X32456Y30982D1*
X32458Y30977D1*
X32459Y30971D1*
X32460Y30966D1*
Y30961D1*
X32461Y30955D1*
X32460Y30950D1*
Y30945D1*
X32459Y30939D1*
X32458Y30934D1*
X32456Y30929D1*
X32454Y30924D1*
X32451Y30919D1*
X32449Y30914D1*
X32445Y30910D1*
X32442Y30906D1*
X32438Y30902D1*
X32434Y30898D1*
X32430Y30894D1*
X32426Y30891D1*
X32421Y30888D1*
X32416Y30886D1*
X32411Y30884D1*
X32406Y30882D1*
X32400Y30880D1*
X32395Y30879D1*
X32390Y30878D1*
X32384D1*
X32378D1*
X32373D1*
X32367Y30879D1*
X32362Y30880D1*
X32357Y30882D1*
X32351Y30884D1*
X32346Y30886D1*
X32342Y30888D1*
X32337Y30891D1*
X32332Y30894D1*
X32328Y30898D1*
X32324Y30902D1*
X32320Y30906D1*
X32317Y30910D1*
X32314Y30914D1*
X32311Y30919D1*
X32309Y30924D1*
X32307Y30929D1*
X32305Y30934D1*
X32304Y30939D1*
X32303Y30945D1*
X32302Y30950D1*
Y30955D1*
X31731Y25311D2*
X32432D1*
X32436Y24031D1*
X32353Y23887D2*
Y23893D1*
X32354Y23898D1*
X32355Y23903D1*
X32356Y23908D1*
X32358Y23914D1*
X32360Y23919D1*
X32362Y23923D1*
X32365Y23928D1*
X32368Y23933D1*
X32372Y23937D1*
X32375Y23941D1*
X32379Y23945D1*
X32384Y23948D1*
X32388Y23951D1*
X32393Y23954D1*
X32398Y23957D1*
X32403Y23959D1*
X32408Y23961D1*
X32413Y23962D1*
X32419Y23963D1*
X32424Y23964D1*
X32430Y23965D1*
X32435D1*
X32441Y23964D1*
X32446Y23963D1*
X32452Y23962D1*
X32457Y23961D1*
X32462Y23959D1*
X32467Y23957D1*
X32472Y23954D1*
X32477Y23951D1*
X32481Y23948D1*
X32486Y23945D1*
X32490Y23941D1*
X32493Y23937D1*
X32497Y23933D1*
X32500Y23928D1*
X32503Y23923D1*
X32505Y23919D1*
X32507Y23914D1*
X32509Y23908D1*
X32510Y23903D1*
X32511Y23898D1*
X32512Y23893D1*
Y23887D1*
Y23882D1*
X32511Y23876D1*
X32510Y23871D1*
X32509Y23866D1*
X32507Y23861D1*
X32505Y23856D1*
X32503Y23851D1*
X32500Y23846D1*
X32497Y23842D1*
X32493Y23837D1*
X32490Y23833D1*
X32486Y23830D1*
X32481Y23826D1*
X32477Y23823D1*
X32472Y23820D1*
X32467Y23818D1*
X32462Y23815D1*
X32457Y23814D1*
X32452Y23812D1*
X32446Y23811D1*
X32441Y23810D1*
X32435D1*
X32430D1*
X32424D1*
X32419Y23811D1*
X32413Y23812D1*
X32408Y23814D1*
X32403Y23815D1*
X32398Y23818D1*
X32393Y23820D1*
X32388Y23823D1*
X32384Y23826D1*
X32379Y23830D1*
X32375Y23833D1*
X32372Y23837D1*
X32368Y23842D1*
X32365Y23846D1*
X32362Y23851D1*
X32360Y23856D1*
X32358Y23861D1*
X32356Y23866D1*
X32355Y23871D1*
X32354Y23876D1*
X32353Y23882D1*
Y23887D1*
X32436Y23873D2*
X31734Y23391D1*
X31684Y21346D2*
X32463Y21353D1*
X32461Y21349D2*
X32465Y22168D1*
X32386Y22280D2*
Y22285D1*
X32387Y22290D1*
X32388Y22296D1*
X32389Y22301D1*
X32391Y22306D1*
X32393Y22311D1*
X32395Y22316D1*
X32398Y22321D1*
X32401Y22325D1*
X32404Y22329D1*
X32408Y22333D1*
X32412Y22337D1*
X32416Y22341D1*
X32421Y22344D1*
X32426Y22347D1*
X32430Y22349D1*
X32435Y22351D1*
X32441Y22353D1*
X32446Y22355D1*
X32451Y22356D1*
X32457Y22357D1*
X32462D1*
X32468D1*
X32474D1*
X32479Y22356D1*
X32484Y22355D1*
X32490Y22353D1*
X32495Y22351D1*
X32500Y22349D1*
X32505Y22347D1*
X32510Y22344D1*
X32514Y22341D1*
X32518Y22337D1*
X32522Y22333D1*
X32526Y22329D1*
X32529Y22325D1*
X32533Y22321D1*
X32535Y22316D1*
X32538Y22311D1*
X32540Y22306D1*
X32542Y22301D1*
X32543Y22296D1*
X32544Y22290D1*
Y22285D1*
X32545Y22280D1*
X32544Y22274D1*
Y22269D1*
X32543Y22263D1*
X32542Y22258D1*
X32540Y22253D1*
X32538Y22248D1*
X32535Y22243D1*
X32533Y22238D1*
X32529Y22234D1*
X32526Y22230D1*
X32522Y22226D1*
X32518Y22222D1*
X32514Y22219D1*
X32510Y22215D1*
X32505Y22212D1*
X32500Y22210D1*
X32495Y22208D1*
X32490Y22206D1*
X32484Y22204D1*
X32479Y22203D1*
X32474D1*
X32468Y22202D1*
X32462D1*
X32457Y22203D1*
X32451D1*
X32446Y22204D1*
X32441Y22206D1*
X32435Y22208D1*
X32430Y22210D1*
X32426Y22212D1*
X32421Y22215D1*
X32416Y22219D1*
X32412Y22222D1*
X32408Y22226D1*
X32404Y22230D1*
X32401Y22234D1*
X32398Y22238D1*
X32395Y22243D1*
X32393Y22248D1*
X32391Y22253D1*
X32389Y22258D1*
X32388Y22263D1*
X32387Y22269D1*
X32386Y22274D1*
Y22280D1*
X31766Y16722D2*
X32467D1*
X32471Y15442D1*
X32388Y15298D2*
X32389Y15303D1*
Y15309D1*
X32390Y15314D1*
X32392Y15319D1*
X32393Y15324D1*
X32395Y15329D1*
X32398Y15334D1*
X32401Y15339D1*
X32404Y15343D1*
X32407Y15348D1*
X32411Y15352D1*
X32415Y15355D1*
X32419Y15359D1*
X32423Y15362D1*
X32428Y15365D1*
X32433Y15367D1*
X32438Y15370D1*
X32443Y15372D1*
X32449Y15373D1*
X32454Y15374D1*
X32460Y15375D1*
X32465D1*
X32471D1*
X32476D1*
X32482Y15374D1*
X32487Y15373D1*
X32492Y15372D1*
X32498Y15370D1*
X32503Y15367D1*
X32508Y15365D1*
X32512Y15362D1*
X32517Y15359D1*
X32521Y15355D1*
X32525Y15352D1*
X32529Y15348D1*
X32532Y15343D1*
X32535Y15339D1*
X32538Y15334D1*
X32540Y15329D1*
X32542Y15324D1*
X32544Y15319D1*
X32546Y15314D1*
Y15309D1*
X32547Y15303D1*
Y15298D1*
Y15293D1*
X32546Y15287D1*
Y15282D1*
X32544Y15277D1*
X32542Y15271D1*
X32540Y15266D1*
X32538Y15262D1*
X32535Y15257D1*
X32532Y15252D1*
X32529Y15248D1*
X32525Y15244D1*
X32521Y15240D1*
X32517Y15237D1*
X32512Y15234D1*
X32508Y15231D1*
X32503Y15228D1*
X32498Y15226D1*
X32492Y15224D1*
X32487Y15223D1*
X32482Y15222D1*
X32476Y15221D1*
X32471D1*
X32465D1*
X32460D1*
X32454Y15222D1*
X32449Y15223D1*
X32443Y15224D1*
X32438Y15226D1*
X32433Y15228D1*
X32428Y15231D1*
X32423Y15234D1*
X32419Y15237D1*
X32415Y15240D1*
X32411Y15244D1*
X32407Y15248D1*
X32404Y15252D1*
X32401Y15257D1*
X32398Y15262D1*
X32395Y15266D1*
X32393Y15271D1*
X32392Y15277D1*
X32390Y15282D1*
X32389Y15287D1*
Y15293D1*
X32388Y15298D1*
X32471Y15283D2*
X31769Y14802D1*
X31719Y12757D2*
X32499Y12764D1*
X32496Y12760D2*
X32500Y13579D1*
X32421Y13690D2*
Y13696D1*
X32422Y13701D1*
X32423Y13706D1*
X32424Y13712D1*
X32426Y13717D1*
X32428Y13722D1*
X32431Y13727D1*
X32433Y13731D1*
X32436Y13736D1*
X32440Y13740D1*
X32444Y13744D1*
X32448Y13748D1*
X32452Y13751D1*
X32456Y13754D1*
X32461Y13757D1*
X32466Y13760D1*
X32471Y13762D1*
X32476Y13764D1*
X32481Y13765D1*
X32487Y13767D1*
X32492D1*
X32498Y13768D1*
X32503D1*
X32509Y13767D1*
X32514D1*
X32520Y13765D1*
X32525Y13764D1*
X32530Y13762D1*
X32535Y13760D1*
X32540Y13757D1*
X32545Y13754D1*
X32550Y13751D1*
X32554Y13748D1*
X32558Y13744D1*
X32561Y13740D1*
X32565Y13736D1*
X32568Y13731D1*
X32571Y13727D1*
X32573Y13722D1*
X32575Y13717D1*
X32577Y13712D1*
X32578Y13706D1*
X32579Y13701D1*
X32580Y13696D1*
Y13690D1*
Y13685D1*
X32579Y13680D1*
X32578Y13674D1*
X32577Y13669D1*
X32575Y13664D1*
X32573Y13659D1*
X32571Y13654D1*
X32568Y13649D1*
X32565Y13645D1*
X32561Y13641D1*
X32558Y13637D1*
X32554Y13633D1*
X32550Y13629D1*
X32545Y13626D1*
X32540Y13623D1*
X32535Y13621D1*
X32530Y13619D1*
X32525Y13617D1*
X32520Y13615D1*
X32514Y13614D1*
X32509Y13613D1*
X32503D1*
X32498D1*
X32492D1*
X32487Y13614D1*
X32481Y13615D1*
X32476Y13617D1*
X32471Y13619D1*
X32466Y13621D1*
X32461Y13623D1*
X32456Y13626D1*
X32452Y13629D1*
X32448Y13633D1*
X32444Y13637D1*
X32440Y13641D1*
X32436Y13645D1*
X32433Y13649D1*
X32431Y13654D1*
X32428Y13659D1*
X32426Y13664D1*
X32424Y13669D1*
X32423Y13674D1*
X32422Y13680D1*
X32421Y13685D1*
Y13690D1*
X5214Y12424D2*
X4513D1*
X4510Y13703D1*
X4433Y13848D2*
X4434Y13853D1*
Y13859D1*
X4435Y13864D1*
X4437Y13869D1*
X4438Y13874D1*
X4440Y13879D1*
X4443Y13884D1*
X4445Y13889D1*
X4449Y13893D1*
X4452Y13898D1*
X4456Y13902D1*
X4460Y13905D1*
X4464Y13909D1*
X4468Y13912D1*
X4473Y13915D1*
X4478Y13917D1*
X4483Y13920D1*
X4488Y13921D1*
X4494Y13923D1*
X4499Y13924D1*
X4505Y13925D1*
X4510D1*
X4516D1*
X4521D1*
X4527Y13924D1*
X4532Y13923D1*
X4537Y13921D1*
X4543Y13920D1*
X4548Y13917D1*
X4553Y13915D1*
X4557Y13912D1*
X4562Y13909D1*
X4566Y13905D1*
X4570Y13902D1*
X4574Y13898D1*
X4577Y13893D1*
X4580Y13889D1*
X4583Y13884D1*
X4585Y13879D1*
X4587Y13874D1*
X4589Y13869D1*
X4590Y13864D1*
X4591Y13859D1*
X4592Y13853D1*
Y13848D1*
Y13842D1*
X4591Y13837D1*
X4590Y13832D1*
X4589Y13826D1*
X4587Y13821D1*
X4585Y13816D1*
X4583Y13811D1*
X4580Y13807D1*
X4577Y13802D1*
X4574Y13798D1*
X4570Y13794D1*
X4566Y13790D1*
X4562Y13787D1*
X4557Y13784D1*
X4553Y13781D1*
X4548Y13778D1*
X4543Y13776D1*
X4537Y13774D1*
X4532Y13773D1*
X4527Y13772D1*
X4521Y13771D1*
X4516Y13770D1*
X4510D1*
X4505Y13771D1*
X4499Y13772D1*
X4494Y13773D1*
X4488Y13774D1*
X4483Y13776D1*
X4478Y13778D1*
X4473Y13781D1*
X4468Y13784D1*
X4464Y13787D1*
X4460Y13790D1*
X4456Y13794D1*
X4452Y13798D1*
X4449Y13802D1*
X4445Y13807D1*
X4443Y13811D1*
X4440Y13816D1*
X4438Y13821D1*
X4437Y13826D1*
X4435Y13832D1*
X4434Y13837D1*
Y13842D1*
X4433Y13848D1*
X4510Y13862D2*
X5212Y14344D1*
X5262Y16388D2*
X4482Y16382D1*
X4485Y16386D2*
X4481Y15567D1*
X4401Y15455D2*
Y15461D1*
Y15466D1*
X4402Y15471D1*
X4404Y15477D1*
X4405Y15482D1*
X4407Y15487D1*
X4410Y15492D1*
X4413Y15496D1*
X4416Y15501D1*
X4419Y15505D1*
X4423Y15509D1*
X4427Y15513D1*
X4431Y15516D1*
X4436Y15520D1*
X4440Y15522D1*
X4445Y15525D1*
X4450Y15527D1*
X4455Y15529D1*
X4461Y15531D1*
X4466Y15532D1*
X4472D1*
X4477Y15533D1*
X4483D1*
X4488Y15532D1*
X4494D1*
X4499Y15531D1*
X4505Y15529D1*
X4510Y15527D1*
X4515Y15525D1*
X4520Y15522D1*
X4524Y15520D1*
X4529Y15516D1*
X4533Y15513D1*
X4537Y15509D1*
X4541Y15505D1*
X4544Y15501D1*
X4547Y15496D1*
X4550Y15492D1*
X4553Y15487D1*
X4555Y15482D1*
X4556Y15477D1*
X4558Y15471D1*
X4559Y15466D1*
Y15461D1*
Y15455D1*
Y15450D1*
Y15445D1*
X4558Y15439D1*
X4556Y15434D1*
X4555Y15429D1*
X4553Y15424D1*
X4550Y15419D1*
X4547Y15414D1*
X4544Y15410D1*
X4541Y15406D1*
X4537Y15402D1*
X4533Y15398D1*
X4529Y15394D1*
X4524Y15391D1*
X4520Y15388D1*
X4515Y15386D1*
X4510Y15384D1*
X4505Y15382D1*
X4499Y15380D1*
X4494Y15379D1*
X4488Y15378D1*
X4483D1*
X4477D1*
X4472D1*
X4466Y15379D1*
X4461Y15380D1*
X4455Y15382D1*
X4450Y15384D1*
X4445Y15386D1*
X4440Y15388D1*
X4436Y15391D1*
X4431Y15394D1*
X4427Y15398D1*
X4423Y15402D1*
X4419Y15406D1*
X4416Y15410D1*
X4413Y15414D1*
X4410Y15419D1*
X4407Y15424D1*
X4405Y15429D1*
X4404Y15434D1*
X4402Y15439D1*
X4401Y15445D1*
Y15450D1*
Y15455D1*
X18298Y42507D2*
D12*
X18688D1*
X18298Y42477D2*
X18702D1*
X18297Y42447D2*
X18711D1*
X18293Y42417D2*
X18716D1*
X18286Y42387D2*
X18722D1*
X18278Y42357D2*
X18730D1*
X18273Y42327D2*
X18738D1*
X18269Y42297D2*
X18743D1*
X18264Y42267D2*
X18747D1*
X17608Y42237D2*
X17668D1*
X18256D2*
X18753D1*
X19348D2*
X19378D1*
X17578Y42207D2*
X17717D1*
X18245D2*
X18764D1*
X19300D2*
X19422D1*
X17548Y42177D2*
X17764D1*
X18230D2*
X18781D1*
X19253D2*
X19461D1*
X17518Y42147D2*
X17810D1*
X18191D2*
X18823D1*
X19207D2*
X19495D1*
X17488Y42117D2*
X17856D1*
X18135D2*
X18880D1*
X19161D2*
X19527D1*
X17458Y42087D2*
X17902D1*
X18062D2*
X18954D1*
X19115D2*
X19558D1*
X17430Y42057D2*
X17949D1*
X17974D2*
X19042D1*
X19067D2*
X19587D1*
X17406Y42027D2*
X19611D1*
X17388Y41997D2*
X19629D1*
X17390Y41967D2*
X19627D1*
X17404Y41937D2*
X19613D1*
X17421Y41907D2*
X19596D1*
X17439Y41877D2*
X19577D1*
X17459Y41847D2*
X19554D1*
X17478Y41817D2*
X19531D1*
X17499Y41787D2*
X19510D1*
X17522Y41757D2*
X19489D1*
X17543Y41727D2*
X19471D1*
X17560Y41697D2*
X19456D1*
X17558Y41667D2*
X19457D1*
X17550Y41637D2*
X19462D1*
X17540Y41607D2*
X19470D1*
X17529Y41577D2*
X19480D1*
X17519Y41547D2*
X19493D1*
X17506Y41517D2*
X18425D1*
X18591D2*
X19507D1*
X17489Y41487D2*
X18353D1*
X18664D2*
X19523D1*
X17438Y41457D2*
X18295D1*
X18722D2*
X19557D1*
X17353Y41427D2*
X18250D1*
X18766D2*
X19646D1*
X17234Y41397D2*
X18214D1*
X18802D2*
X19772D1*
X17098Y41367D2*
X18185D1*
X18830D2*
X19918D1*
X17098Y41337D2*
X18162D1*
X18850D2*
X19918D1*
X17098Y41307D2*
X18145D1*
X18865D2*
X19918D1*
X17098Y41277D2*
X18132D1*
X18877D2*
X19918D1*
X17098Y41247D2*
X18125D1*
X18887D2*
X19918D1*
X17098Y41217D2*
X18121D1*
X18893D2*
X19918D1*
X17098Y41187D2*
X18119D1*
X18896D2*
X19918D1*
X17098Y41157D2*
X18119D1*
X18897D2*
X19918D1*
X17098Y41127D2*
X18120D1*
X18897D2*
X19918D1*
X17098Y41097D2*
X18123D1*
X18893D2*
X19918D1*
X17099Y41067D2*
X18132D1*
X18885D2*
X19918D1*
X17101Y41037D2*
X18143D1*
X18873D2*
X19915D1*
X17106Y41007D2*
X18157D1*
X18860D2*
X19911D1*
X17173Y40977D2*
X18172D1*
X18843D2*
X19843D1*
X17260Y40947D2*
X18192D1*
X18821D2*
X19756D1*
X17347Y40917D2*
X18219D1*
X18790D2*
X19670D1*
X17412Y40887D2*
X18253D1*
X18756D2*
X19603D1*
X17460Y40857D2*
X18289D1*
X18722D2*
X19559D1*
X17480Y40827D2*
X18324D1*
X18690D2*
X19530D1*
X17496Y40797D2*
X18358D1*
X18658D2*
X19510D1*
X17511Y40767D2*
X18343D1*
X18673D2*
X19493D1*
X17526Y40737D2*
X18331D1*
X18686D2*
X19480D1*
X17542Y40707D2*
X18318D1*
X18698D2*
X19468D1*
X17559Y40677D2*
X18305D1*
X18712D2*
X19454D1*
X17578Y40647D2*
X18290D1*
X18726D2*
X19438D1*
X17553Y40617D2*
X18276D1*
X18741D2*
X19458D1*
X17530Y40587D2*
X18261D1*
X18755D2*
X19479D1*
X17508Y40557D2*
X18246D1*
X18767D2*
X19502D1*
X17485Y40527D2*
X18231D1*
X18778D2*
X19525D1*
X17461Y40497D2*
X18216D1*
X18789D2*
X19547D1*
X17440Y40467D2*
X18202D1*
X18802D2*
X19568D1*
X17419Y40437D2*
X18190D1*
X18816D2*
X19588D1*
X17401Y40407D2*
X18179D1*
X18831D2*
X19608D1*
X17387Y40377D2*
X18167D1*
X18845D2*
X19628D1*
X17390Y40347D2*
X18154D1*
X18857D2*
X19648D1*
X17409Y40317D2*
X18140D1*
X18867D2*
X19618D1*
X17433Y40287D2*
X18125D1*
X18878D2*
X19588D1*
X17460Y40257D2*
X17904D1*
X17968D2*
X18107D1*
X18889D2*
X19048D1*
X19113D2*
X19558D1*
X17489Y40227D2*
X17865D1*
X18028D2*
X18088D1*
X18898D2*
X18988D1*
X19152D2*
X19528D1*
X17519Y40197D2*
X17823D1*
X19193D2*
X19498D1*
X17548Y40167D2*
X17781D1*
X19236D2*
X19468D1*
X17578Y40137D2*
X17739D1*
X19278D2*
X19438D1*
X17608Y40107D2*
X17698D1*
X19318D2*
X19408D1*
X16738Y39807D2*
X16918D1*
X17068D2*
X17308D1*
X17488D2*
X17638D1*
X17788D2*
X18028D1*
X18388D2*
X18568D1*
X18748D2*
X18928D1*
X19048D2*
X19138D1*
X19288D2*
X19348D1*
X19438D2*
X19678D1*
X19768D2*
X19948D1*
X20098D2*
X20248D1*
X16720Y39777D2*
X16942D1*
X17068D2*
X17327D1*
X17464D2*
X17671D1*
X17788D2*
X18052D1*
X18364D2*
X18628D1*
X18724D2*
X18947D1*
X19048D2*
X19138D1*
X19288D2*
X19348D1*
X19438D2*
X19978D1*
X20068D2*
X20276D1*
X16704Y39747D2*
X16960D1*
X17068D2*
X17343D1*
X17447D2*
X17695D1*
X17788D2*
X18070D1*
X18347D2*
X18593D1*
X18707D2*
X18963D1*
X19048D2*
X19138D1*
X19288D2*
X19348D1*
X19438D2*
X20297D1*
X16692Y39717D2*
X16764D1*
X16882D2*
X16970D1*
X17068D2*
X17164D1*
X17242D2*
X17355D1*
X17437D2*
X17518D1*
X17623D2*
X17712D1*
X17788D2*
X17914D1*
X17992D2*
X18080D1*
X18335D2*
X18418D1*
X18568D2*
X18552D1*
X18697D2*
X18784D1*
X18903D2*
X18975D1*
X19048D2*
X19138D1*
X19288D2*
X19348D1*
X19438D2*
X19564D1*
X19648D2*
D3*
X19708D2*
X19804D1*
X19918D2*
X19978D1*
X20038D2*
X20128D1*
X20233D2*
X20303D1*
X16684Y39687D2*
X16756D1*
X16900D2*
X16975D1*
X17068D2*
X17147D1*
X17260D2*
X17362D1*
X17432D2*
X17488D1*
X17576D2*
X17721D1*
X17788D2*
X17897D1*
X18010D2*
X18085D1*
X18335D2*
X18418D1*
X18692D2*
X18767D1*
X18910D2*
X18982D1*
X19048D2*
X19138D1*
X19288D2*
X19348D1*
X19438D2*
X19547D1*
X19708D2*
X19787D1*
X20038D2*
X20098D1*
X20186D2*
X20306D1*
X16681Y39657D2*
X16750D1*
X16910D2*
X16977D1*
X17068D2*
X17137D1*
X17270D2*
X17366D1*
X17430D2*
X17725D1*
X17788D2*
X17887D1*
X18020D2*
X18087D1*
X18350D2*
X18512D1*
X18690D2*
X18757D1*
X18917D2*
X18986D1*
X19048D2*
X19138D1*
X19288D2*
X19348D1*
X19438D2*
X19537D1*
X19708D2*
X19775D1*
X20038D2*
X20307D1*
X16679Y39627D2*
X16746D1*
X16915D2*
X16978D1*
X17068D2*
X17132D1*
X17273D2*
X17366D1*
X17429D2*
X17727D1*
X17788D2*
X17882D1*
X18025D2*
X18088D1*
X18401D2*
X18583D1*
X18689D2*
X18752D1*
X18920D2*
X18987D1*
X19048D2*
X19140D1*
X19286D2*
X19348D1*
X19438D2*
X19532D1*
X19708D2*
X19775D1*
X20038D2*
X20308D1*
X16680Y39597D2*
X16756D1*
X16909D2*
X16978D1*
X17068D2*
X17138D1*
X17273D2*
X17363D1*
X17429D2*
X17728D1*
X17788D2*
X17880D1*
X18027D2*
X18088D1*
X18477D2*
X18611D1*
X18689D2*
X18758D1*
X18911D2*
X18987D1*
X19049D2*
X19143D1*
X19280D2*
X19348D1*
X19438D2*
X19530D1*
X19708D2*
X19785D1*
X20038D2*
X20308D1*
X16685Y39567D2*
X16782D1*
X16883D2*
X16977D1*
X17068D2*
X17164D1*
X17258D2*
X17355D1*
X17430D2*
X17488D1*
X17788D2*
X17879D1*
X18028D2*
X18088D1*
X18358D2*
D3*
X18568D2*
X18622D1*
X18690D2*
X18784D1*
X18884D2*
X18982D1*
X19054D2*
X19158D1*
X19247D2*
X19348D1*
X19438D2*
X19529D1*
X19710D2*
X19812D1*
X19948D2*
D3*
X20038D2*
X20098D1*
X16697Y39537D2*
X16818D1*
X16829D2*
X16974D1*
X17068D2*
X17218D1*
X17226D2*
X17342D1*
X17433D2*
X17560D1*
X17638D2*
X17698D1*
X17788D2*
X17878D1*
X18028D2*
X18088D1*
X18328D2*
X18418D1*
X18496D2*
X18622D1*
X18693D2*
X18838D1*
X18849D2*
X18970D1*
X19063D2*
X19191D1*
X19197D2*
X19348D1*
X19438D2*
X19528D1*
X19713D2*
X19848D1*
X19874D2*
X19978D1*
X20038D2*
X20170D1*
X20248D2*
X20308D1*
X16717Y39507D2*
X16959D1*
X17068D2*
X17325D1*
X17448D2*
X17691D1*
X17788D2*
X17878D1*
X18028D2*
X18088D1*
X18298D2*
X18608D1*
X18708D2*
X18950D1*
X19080D2*
X19348D1*
X19438D2*
X19528D1*
X19728D2*
X20301D1*
X16741Y39477D2*
X16926D1*
X17068D2*
X17303D1*
X17481D2*
X17667D1*
X17788D2*
X17878D1*
X18028D2*
X18088D1*
X18356D2*
X18575D1*
X18741D2*
X18925D1*
X19106D2*
X19348D1*
X19438D2*
X19528D1*
X19761D2*
X19978D1*
X20068D2*
X20277D1*
X16768Y39447D2*
X16888D1*
X17068D2*
X17128D1*
X17188D2*
X17278D1*
X17518D2*
X17638D1*
X17788D2*
X17878D1*
X18028D2*
X18088D1*
X18418D2*
X18538D1*
X18778D2*
X18898D1*
X19138D2*
X19228D1*
X19288D2*
X19348D1*
X19438D2*
X19528D1*
X19798D2*
X19918D1*
X20128D2*
X20248D1*
X17068Y39417D2*
X17128D1*
X17068Y39387D2*
X17128D1*
X18298D2*
X18358D1*
X17068Y39357D2*
X17128D1*
X18298D2*
X18358D1*
X17068Y39327D2*
X17128D1*
X18298D2*
X18358D1*
X17068Y39297D2*
X17128D1*
X18298D2*
X18358D1*
X17068Y39267D2*
X17128D1*
X18298D2*
X18358D1*
X17068Y39237D2*
X17223D1*
X17458D2*
X17668D1*
X17818D2*
X18058D1*
X18118D2*
X18358D1*
X18418D2*
X18508D1*
X18658D2*
X18718D1*
X18868D2*
X18958D1*
X19018D2*
X19198D1*
X19348D2*
X19408D1*
X19468D2*
X19588D1*
X19678D2*
X19828D1*
X17068Y39207D2*
X17287D1*
X17428D2*
X17687D1*
X17818D2*
X18358D1*
X18429D2*
X18509D1*
X18643D2*
X18723D1*
X18858D2*
X18943D1*
X19008D2*
X19222D1*
X19348D2*
X19588D1*
X19648D2*
X19866D1*
X17068Y39177D2*
X17333D1*
X17464D2*
X17703D1*
X17818D2*
X18047D1*
X18094D2*
X18358D1*
X18438D2*
X18513D1*
X18631D2*
X18732D1*
X18849D2*
X18931D1*
X19008D2*
X19240D1*
X19348D2*
X19897D1*
X17068Y39147D2*
X17164D1*
X17242D2*
X17350D1*
X17504D2*
X17488D1*
X17638D2*
X17715D1*
X17818D2*
X17970D1*
X18077D2*
X18148D1*
X18262D2*
X18358D1*
X18444D2*
X18521D1*
X18619D2*
X18746D1*
X18842D2*
X18919D1*
X19055D2*
X19048D1*
X19198D2*
X19250D1*
X19348D2*
X19434D1*
X19618D2*
X19708D1*
X19813D2*
X19908D1*
X17068Y39117D2*
X17147D1*
X17260D2*
X17360D1*
X17638D2*
X17722D1*
X17818D2*
X17913D1*
X18067D2*
X18148D1*
X18280D2*
X18358D1*
X18451D2*
X18529D1*
X18608D2*
X18768D1*
X18835D2*
X18908D1*
X19198D2*
X19255D1*
X19348D2*
X19426D1*
X19618D2*
X19678D1*
X19766D2*
X19914D1*
X17068Y39087D2*
X17137D1*
X17270D2*
X17365D1*
X17545D2*
X17726D1*
X17818D2*
X17892D1*
X18062D2*
X18148D1*
X18290D2*
X18358D1*
X18460D2*
X18539D1*
X18598D2*
X18800D1*
X18823D2*
X18899D1*
X18988D2*
X19257D1*
X19348D2*
X19418D1*
X19618D2*
X19917D1*
X17068Y39057D2*
X17132D1*
X17275D2*
X17367D1*
X17473D2*
X17727D1*
X17818D2*
X17884D1*
X18060D2*
X18150D1*
X18295D2*
X18358D1*
X18469D2*
X18553D1*
X18584D2*
X18654D1*
X18718D2*
X18888D1*
X18978D2*
X19258D1*
X19348D2*
X19413D1*
X19618D2*
X19918D1*
X17068Y39027D2*
X17130D1*
X17277D2*
X17368D1*
X17446D2*
X17728D1*
X17818D2*
X17881D1*
X18060D2*
X18153D1*
X18289D2*
X18358D1*
X18478D2*
X18646D1*
X18719D2*
X18878D1*
X18969D2*
X19258D1*
X19348D2*
X19410D1*
X19620D2*
X19918D1*
X17068Y38997D2*
X17129D1*
X17278D2*
X17368D1*
X17435D2*
X17505D1*
X17627D2*
X17728D1*
X17818D2*
X17879D1*
X18065D2*
X18168D1*
X18263D2*
X18358D1*
X18490D2*
X18637D1*
X18723D2*
X18869D1*
X18965D2*
X19035D1*
X19182D2*
X19258D1*
X19348D2*
X19409D1*
X19625D2*
X19708D1*
X17068Y38967D2*
X17128D1*
X17278D2*
X17368D1*
X17437D2*
X17566D1*
X17591D2*
X17728D1*
X17818D2*
X17879D1*
X18077D2*
X18201D1*
X18209D2*
X18358D1*
X18503D2*
X18627D1*
X18731D2*
X18858D1*
X18964D2*
X19096D1*
X19120D2*
X19258D1*
X19348D2*
X19409D1*
X19637D2*
X19766D1*
X19828D2*
X19888D1*
X17068Y38937D2*
X17128D1*
X17278D2*
X17368D1*
X17445D2*
X17728D1*
X17818D2*
X17878D1*
X18096D2*
X18358D1*
X18520D2*
X18614D1*
X18740D2*
X18848D1*
X18975D2*
X19258D1*
X19348D2*
X19408D1*
X19656D2*
X19918D1*
X17068Y38907D2*
X17128D1*
X17278D2*
X17368D1*
X17458D2*
X17728D1*
X17818D2*
X17878D1*
X18118D2*
X18358D1*
X18538D2*
X18598D1*
X18748D2*
X18838D1*
X18988D2*
X19258D1*
X19348D2*
X19408D1*
X19678D2*
X19888D1*
X18298Y42507D2*
Y42477D1*
X18297Y42447D1*
X18293Y42417D1*
X18286Y42387D1*
X18278Y42357D1*
X18273Y42327D1*
X18269Y42297D1*
X18264Y42267D1*
X18256Y42237D1*
X18245Y42207D1*
X18230Y42177D1*
X18191Y42147D1*
X18135Y42117D1*
X18062Y42087D1*
X17974Y42057D1*
X17878Y42027D1*
X18688Y42507D2*
X18702Y42477D1*
X18711Y42447D1*
X18716Y42417D1*
X18722Y42387D1*
X18730Y42357D1*
X18738Y42327D1*
X18743Y42297D1*
X18747Y42267D1*
X18753Y42237D1*
X18764Y42207D1*
X18781Y42177D1*
X18823Y42147D1*
X18880Y42117D1*
X18954Y42087D1*
X19042Y42057D1*
X19138Y42027D1*
X17608Y42237D2*
X17578Y42207D1*
X17548Y42177D1*
X17518Y42147D1*
X17488Y42117D1*
X17458Y42087D1*
X17430Y42057D1*
X17406Y42027D1*
X17388Y41997D1*
X17390Y41967D1*
X17404Y41937D1*
X17421Y41907D1*
X17439Y41877D1*
X17459Y41847D1*
X17478Y41817D1*
X17499Y41787D1*
X17522Y41757D1*
X17543Y41727D1*
X17560Y41697D1*
X17558Y41667D1*
X17550Y41637D1*
X17540Y41607D1*
X17529Y41577D1*
X17519Y41547D1*
X17506Y41517D1*
X17489Y41487D1*
X17438Y41457D1*
X17353Y41427D1*
X17234Y41397D1*
X17098Y41367D1*
Y41337D1*
Y41307D1*
Y41277D1*
Y41247D1*
Y41217D1*
Y41187D1*
Y41157D1*
Y41127D1*
Y41097D1*
X17099Y41067D1*
X17101Y41037D1*
X17106Y41007D1*
X17173Y40977D1*
X17260Y40947D1*
X17347Y40917D1*
X17412Y40887D1*
X17460Y40857D1*
X17480Y40827D1*
X17496Y40797D1*
X17511Y40767D1*
X17526Y40737D1*
X17542Y40707D1*
X17559Y40677D1*
X17578Y40647D1*
X17553Y40617D1*
X17530Y40587D1*
X17508Y40557D1*
X17485Y40527D1*
X17461Y40497D1*
X17440Y40467D1*
X17419Y40437D1*
X17401Y40407D1*
X17387Y40377D1*
X17390Y40347D1*
X17409Y40317D1*
X17433Y40287D1*
X17460Y40257D1*
X17489Y40227D1*
X17519Y40197D1*
X17548Y40167D1*
X17578Y40137D1*
X17608Y40107D1*
X17668Y42237D2*
X17717Y42207D1*
X17764Y42177D1*
X17810Y42147D1*
X17856Y42117D1*
X17902Y42087D1*
X17949Y42057D1*
X17998Y42027D1*
X19348Y42237D2*
X19300Y42207D1*
X19253Y42177D1*
X19207Y42147D1*
X19161Y42117D1*
X19115Y42087D1*
X19067Y42057D1*
X19018Y42027D1*
X19378Y42237D2*
X19422Y42207D1*
X19461Y42177D1*
X19495Y42147D1*
X19527Y42117D1*
X19558Y42087D1*
X19587Y42057D1*
X19611Y42027D1*
X19629Y41997D1*
X19627Y41967D1*
X19613Y41937D1*
X19596Y41907D1*
X19577Y41877D1*
X19554Y41847D1*
X19531Y41817D1*
X19510Y41787D1*
X19489Y41757D1*
X19471Y41727D1*
X19456Y41697D1*
X19457Y41667D1*
X19462Y41637D1*
X19470Y41607D1*
X19480Y41577D1*
X19493Y41547D1*
X19507Y41517D1*
X19523Y41487D1*
X19557Y41457D1*
X19646Y41427D1*
X19772Y41397D1*
X19918Y41367D1*
Y41337D1*
Y41307D1*
Y41277D1*
Y41247D1*
Y41217D1*
Y41187D1*
Y41157D1*
Y41127D1*
Y41097D1*
Y41067D1*
X19915Y41037D1*
X19911Y41007D1*
X19843Y40977D1*
X19756Y40947D1*
X19670Y40917D1*
X19603Y40887D1*
X19559Y40857D1*
X19530Y40827D1*
X19510Y40797D1*
X19493Y40767D1*
X19480Y40737D1*
X19468Y40707D1*
X19454Y40677D1*
X19438Y40647D1*
X19458Y40617D1*
X19479Y40587D1*
X19502Y40557D1*
X19525Y40527D1*
X19547Y40497D1*
X19568Y40467D1*
X19588Y40437D1*
X19608Y40407D1*
X19628Y40377D1*
X19648Y40347D1*
X19618Y40317D1*
X19588Y40287D1*
X19558Y40257D1*
X19528Y40227D1*
X19498Y40197D1*
X19468Y40167D1*
X19438Y40137D1*
X19408Y40107D1*
X18508Y41547D2*
X18425Y41517D1*
X18353Y41487D1*
X18295Y41457D1*
X18250Y41427D1*
X18214Y41397D1*
X18185Y41367D1*
X18162Y41337D1*
X18145Y41307D1*
X18132Y41277D1*
X18125Y41247D1*
X18121Y41217D1*
X18119Y41187D1*
Y41157D1*
X18120Y41127D1*
X18123Y41097D1*
X18132Y41067D1*
X18143Y41037D1*
X18157Y41007D1*
X18172Y40977D1*
X18192Y40947D1*
X18219Y40917D1*
X18253Y40887D1*
X18289Y40857D1*
X18324Y40827D1*
X18358Y40797D1*
X18343Y40767D1*
X18331Y40737D1*
X18318Y40707D1*
X18305Y40677D1*
X18290Y40647D1*
X18276Y40617D1*
X18261Y40587D1*
X18246Y40557D1*
X18231Y40527D1*
X18216Y40497D1*
X18202Y40467D1*
X18190Y40437D1*
X18179Y40407D1*
X18167Y40377D1*
X18154Y40347D1*
X18140Y40317D1*
X18125Y40287D1*
X18107Y40257D1*
X18088Y40227D1*
X18508Y41547D2*
X18591Y41517D1*
X18664Y41487D1*
X18722Y41457D1*
X18766Y41427D1*
X18802Y41397D1*
X18830Y41367D1*
X18850Y41337D1*
X18865Y41307D1*
X18877Y41277D1*
X18887Y41247D1*
X18893Y41217D1*
X18896Y41187D1*
X18897Y41157D1*
Y41127D1*
X18893Y41097D1*
X18885Y41067D1*
X18873Y41037D1*
X18860Y41007D1*
X18843Y40977D1*
X18821Y40947D1*
X18790Y40917D1*
X18756Y40887D1*
X18722Y40857D1*
X18690Y40827D1*
X18658Y40797D1*
X18673Y40767D1*
X18686Y40737D1*
X18698Y40707D1*
X18712Y40677D1*
X18726Y40647D1*
X18741Y40617D1*
X18755Y40587D1*
X18767Y40557D1*
X18778Y40527D1*
X18789Y40497D1*
X18802Y40467D1*
X18816Y40437D1*
X18831Y40407D1*
X18845Y40377D1*
X18857Y40347D1*
X18867Y40317D1*
X18878Y40287D1*
X18889Y40257D1*
X18898Y40227D1*
X17938Y40287D2*
X17904Y40257D1*
X17865Y40227D1*
X17823Y40197D1*
X17781Y40167D1*
X17739Y40137D1*
X17698Y40107D1*
X17908Y40287D2*
X17968Y40257D1*
X18028Y40227D1*
X19108Y40287D2*
X19048Y40257D1*
X18988Y40227D1*
X19078Y40287D2*
X19113Y40257D1*
X19152Y40227D1*
X19193Y40197D1*
X19236Y40167D1*
X19278Y40137D1*
X19318Y40107D1*
X16738Y39807D2*
X16720Y39777D1*
X16704Y39747D1*
X16692Y39717D1*
X16684Y39687D1*
X16681Y39657D1*
X16679Y39627D1*
X16680Y39597D1*
X16685Y39567D1*
X16697Y39537D1*
X16717Y39507D1*
X16741Y39477D1*
X16768Y39447D1*
X16918Y39807D2*
X16942Y39777D1*
X16960Y39747D1*
X16970Y39717D1*
X16975Y39687D1*
X16977Y39657D1*
X16978Y39627D1*
Y39597D1*
X16977Y39567D1*
X16974Y39537D1*
X16959Y39507D1*
X16926Y39477D1*
X16888Y39447D1*
X17068Y39807D2*
Y39777D1*
Y39747D1*
Y39717D1*
Y39687D1*
Y39657D1*
Y39627D1*
Y39597D1*
Y39567D1*
Y39537D1*
Y39507D1*
Y39477D1*
Y39447D1*
Y39417D1*
Y39387D1*
Y39357D1*
Y39327D1*
Y39297D1*
Y39267D1*
Y39237D1*
Y39207D1*
Y39177D1*
Y39147D1*
Y39117D1*
Y39087D1*
Y39057D1*
Y39027D1*
Y38997D1*
Y38967D1*
Y38937D1*
Y38907D1*
X17308Y39807D2*
X17327Y39777D1*
X17343Y39747D1*
X17355Y39717D1*
X17362Y39687D1*
X17366Y39657D1*
Y39627D1*
X17363Y39597D1*
X17355Y39567D1*
X17342Y39537D1*
X17325Y39507D1*
X17303Y39477D1*
X17278Y39447D1*
X17488Y39807D2*
X17464Y39777D1*
X17447Y39747D1*
X17437Y39717D1*
X17432Y39687D1*
X17430Y39657D1*
X17429Y39627D1*
Y39597D1*
X17430Y39567D1*
X17433Y39537D1*
X17448Y39507D1*
X17481Y39477D1*
X17518Y39447D1*
X17638Y39807D2*
X17671Y39777D1*
X17695Y39747D1*
X17712Y39717D1*
X17721Y39687D1*
X17725Y39657D1*
X17727Y39627D1*
X17728Y39597D1*
X17488Y39567D1*
X17560Y39537D1*
X17638Y39507D1*
X17788Y39807D2*
Y39777D1*
Y39747D1*
Y39717D1*
Y39687D1*
Y39657D1*
Y39627D1*
Y39597D1*
Y39567D1*
Y39537D1*
Y39507D1*
Y39477D1*
Y39447D1*
X18028Y39807D2*
X18052Y39777D1*
X18070Y39747D1*
X18080Y39717D1*
X18085Y39687D1*
X18087Y39657D1*
X18088Y39627D1*
Y39597D1*
Y39567D1*
Y39537D1*
Y39507D1*
Y39477D1*
Y39447D1*
X18388Y39807D2*
X18364Y39777D1*
X18347Y39747D1*
X18335Y39717D1*
Y39687D1*
X18350Y39657D1*
X18401Y39627D1*
X18477Y39597D1*
X18568Y39567D1*
X18496Y39537D1*
X18418Y39507D1*
X18568Y39807D2*
X18628Y39777D1*
X18593Y39747D1*
X18552Y39717D1*
X18508Y39687D1*
X18748Y39807D2*
X18724Y39777D1*
X18707Y39747D1*
X18697Y39717D1*
X18692Y39687D1*
X18690Y39657D1*
X18689Y39627D1*
Y39597D1*
X18690Y39567D1*
X18693Y39537D1*
X18708Y39507D1*
X18741Y39477D1*
X18778Y39447D1*
X18928Y39807D2*
X18947Y39777D1*
X18963Y39747D1*
X18975Y39717D1*
X18982Y39687D1*
X18986Y39657D1*
X18987Y39627D1*
Y39597D1*
X18982Y39567D1*
X18970Y39537D1*
X18950Y39507D1*
X18925Y39477D1*
X18898Y39447D1*
X19048Y39807D2*
Y39777D1*
Y39747D1*
Y39717D1*
Y39687D1*
Y39657D1*
Y39627D1*
X19049Y39597D1*
X19054Y39567D1*
X19063Y39537D1*
X19080Y39507D1*
X19106Y39477D1*
X19138Y39447D1*
Y39807D2*
Y39777D1*
Y39747D1*
Y39717D1*
Y39687D1*
Y39657D1*
X19140Y39627D1*
X19143Y39597D1*
X19158Y39567D1*
X19191Y39537D1*
X19228Y39507D1*
X19288Y39807D2*
Y39777D1*
Y39747D1*
Y39717D1*
Y39687D1*
Y39657D1*
X19286Y39627D1*
X19280Y39597D1*
X19247Y39567D1*
X19197Y39537D1*
X19138Y39507D1*
X19348Y39807D2*
Y39777D1*
Y39747D1*
Y39717D1*
Y39687D1*
Y39657D1*
Y39627D1*
Y39597D1*
Y39567D1*
Y39537D1*
Y39507D1*
Y39477D1*
Y39447D1*
X19438Y39807D2*
Y39777D1*
Y39747D1*
Y39717D1*
Y39687D1*
Y39657D1*
Y39627D1*
Y39597D1*
Y39567D1*
Y39537D1*
Y39507D1*
Y39477D1*
Y39447D1*
X19678Y39807D2*
X19708Y39777D1*
X19768Y39807D2*
X19738Y39777D1*
X19948Y39807D2*
X19978Y39777D1*
X20098Y39807D2*
X20068Y39777D1*
X20248Y39807D2*
X20276Y39777D1*
X20297Y39747D1*
X20303Y39717D1*
X20306Y39687D1*
X20307Y39657D1*
X20308Y39627D1*
Y39597D1*
X20098Y39567D1*
X20170Y39537D1*
X20248Y39507D1*
X16768Y39747D2*
X16764Y39717D1*
X16756Y39687D1*
X16750Y39657D1*
X16746Y39627D1*
X16756Y39597D1*
X16782Y39567D1*
X16818Y39537D1*
X16858Y39507D1*
Y39747D2*
X16882Y39717D1*
X16900Y39687D1*
X16910Y39657D1*
X16915Y39627D1*
X16909Y39597D1*
X16883Y39567D1*
X16829Y39537D1*
X16768Y39507D1*
X17188Y39747D2*
X17164Y39717D1*
X17147Y39687D1*
X17137Y39657D1*
X17132Y39627D1*
X17138Y39597D1*
X17164Y39567D1*
X17218Y39537D1*
X17278Y39507D1*
X17218Y39747D2*
X17242Y39717D1*
X17260Y39687D1*
X17270Y39657D1*
X17273Y39627D1*
Y39597D1*
X17258Y39567D1*
X17226Y39537D1*
X17188Y39507D1*
X17548Y39747D2*
X17518Y39717D1*
X17488Y39687D1*
X17578Y39657D1*
X17638Y39747D2*
X17623Y39717D1*
X17576Y39687D1*
X17518Y39657D1*
X17938Y39747D2*
X17914Y39717D1*
X17897Y39687D1*
X17887Y39657D1*
X17882Y39627D1*
X17880Y39597D1*
X17879Y39567D1*
X17878Y39537D1*
Y39507D1*
Y39477D1*
Y39447D1*
X17968Y39747D2*
X17992Y39717D1*
X18010Y39687D1*
X18020Y39657D1*
X18025Y39627D1*
X18027Y39597D1*
X18028Y39567D1*
Y39537D1*
Y39507D1*
Y39477D1*
Y39447D1*
X18418Y39747D2*
Y39717D1*
Y39687D1*
X18512Y39657D1*
X18583Y39627D1*
X18611Y39597D1*
X18622Y39567D1*
Y39537D1*
X18608Y39507D1*
X18575Y39477D1*
X18538Y39447D1*
X18808Y39747D2*
X18784Y39717D1*
X18767Y39687D1*
X18757Y39657D1*
X18752Y39627D1*
X18758Y39597D1*
X18784Y39567D1*
X18838Y39537D1*
X18898Y39507D1*
Y39747D2*
X18903Y39717D1*
X18910Y39687D1*
X18917Y39657D1*
X18920Y39627D1*
X18911Y39597D1*
X18884Y39567D1*
X18849Y39537D1*
X18808Y39507D1*
X19588Y39747D2*
X19564Y39717D1*
X19547Y39687D1*
X19537Y39657D1*
X19532Y39627D1*
X19530Y39597D1*
X19529Y39567D1*
X19528Y39537D1*
Y39507D1*
Y39477D1*
Y39447D1*
X19618Y39747D2*
X19648Y39717D1*
X19708Y39747D2*
Y39717D1*
Y39687D1*
Y39657D1*
Y39627D1*
Y39597D1*
X19710Y39567D1*
X19713Y39537D1*
X19728Y39507D1*
X19761Y39477D1*
X19798Y39447D1*
X19828Y39747D2*
X19804Y39717D1*
X19787Y39687D1*
X19775Y39657D1*
Y39627D1*
X19785Y39597D1*
X19812Y39567D1*
X19848Y39537D1*
X19888Y39507D1*
Y39747D2*
X19918Y39717D1*
X20008Y39747D2*
X19978Y39717D1*
X20038Y39747D2*
Y39717D1*
Y39687D1*
Y39657D1*
Y39627D1*
Y39597D1*
Y39567D1*
Y39537D1*
X20158Y39747D2*
X20128Y39717D1*
X20098Y39687D1*
X20188Y39657D1*
X20248Y39747D2*
X20233Y39717D1*
X20186Y39687D1*
X20128Y39657D1*
X18358Y39567D2*
X18328Y39537D1*
X18298Y39507D1*
X18356Y39477D1*
X18418Y39447D1*
X19948Y39567D2*
X19874Y39537D1*
X19798Y39507D1*
X17638Y39537D2*
X17608Y39507D1*
X17698Y39537D2*
X17691Y39507D1*
X17667Y39477D1*
X17638Y39447D1*
X18418Y39537D2*
X18448Y39507D1*
X19978Y39537D2*
X20248D2*
X20218Y39507D1*
X20308Y39537D2*
X20301Y39507D1*
X20277Y39477D1*
X20248Y39447D1*
X20038Y39507D2*
X19978Y39477D1*
X19918Y39447D1*
X20008Y39507D2*
X20068Y39477D1*
X20128Y39447D1*
X17128Y39477D2*
Y39447D1*
Y39417D1*
Y39387D1*
Y39357D1*
Y39327D1*
Y39297D1*
Y39267D1*
X17223Y39237D1*
X17287Y39207D1*
X17333Y39177D1*
X17350Y39147D1*
X17360Y39117D1*
X17365Y39087D1*
X17367Y39057D1*
X17368Y39027D1*
Y38997D1*
Y38967D1*
Y38937D1*
Y38907D1*
X17158Y39477D2*
X17188Y39447D1*
X19258Y39477D2*
X19228Y39447D1*
X19258Y39477D2*
X19288Y39447D1*
X18298Y39387D2*
Y39357D1*
Y39327D1*
Y39297D1*
Y39267D1*
X18118Y39237D1*
X18358Y39387D2*
Y39357D1*
Y39327D1*
Y39297D1*
Y39267D1*
Y39237D1*
Y39207D1*
Y39177D1*
Y39147D1*
Y39117D1*
Y39087D1*
Y39057D1*
Y39027D1*
Y38997D1*
Y38967D1*
Y38937D1*
Y38907D1*
X17458Y39237D2*
X17428Y39207D1*
X17464Y39177D1*
X17504Y39147D1*
X17548Y39117D1*
X17668Y39237D2*
X17687Y39207D1*
X17703Y39177D1*
X17715Y39147D1*
X17722Y39117D1*
X17726Y39087D1*
X17727Y39057D1*
X17728Y39027D1*
Y38997D1*
Y38967D1*
Y38937D1*
Y38907D1*
X17818Y39237D2*
Y39207D1*
Y39177D1*
Y39147D1*
Y39117D1*
Y39087D1*
Y39057D1*
Y39027D1*
Y38997D1*
Y38967D1*
Y38937D1*
Y38907D1*
X18058Y39237D2*
X18418D2*
X18429Y39207D1*
X18438Y39177D1*
X18444Y39147D1*
X18451Y39117D1*
X18460Y39087D1*
X18469Y39057D1*
X18478Y39027D1*
X18490Y38997D1*
X18503Y38967D1*
X18520Y38937D1*
X18538Y38907D1*
X18508Y39237D2*
X18509Y39207D1*
X18513Y39177D1*
X18521Y39147D1*
X18529Y39117D1*
X18539Y39087D1*
X18553Y39057D1*
X18568Y39027D1*
X18658Y39237D2*
X18643Y39207D1*
X18631Y39177D1*
X18619Y39147D1*
X18608Y39117D1*
X18598Y39087D1*
X18584Y39057D1*
X18568Y39027D1*
X18718Y39237D2*
X18723Y39207D1*
X18732Y39177D1*
X18746Y39147D1*
X18768Y39117D1*
X18800Y39087D1*
X18838Y39057D1*
X18868Y39237D2*
X18858Y39207D1*
X18849Y39177D1*
X18842Y39147D1*
X18835Y39117D1*
X18823Y39087D1*
X18808Y39057D1*
X18958Y39237D2*
X18943Y39207D1*
X18931Y39177D1*
X18919Y39147D1*
X18908Y39117D1*
X18899Y39087D1*
X18888Y39057D1*
X18878Y39027D1*
X18869Y38997D1*
X18858Y38967D1*
X18848Y38937D1*
X18838Y38907D1*
X19018Y39237D2*
X19008Y39207D1*
Y39177D1*
X19055Y39147D1*
X19108Y39117D1*
X19198Y39237D2*
X19222Y39207D1*
X19240Y39177D1*
X19250Y39147D1*
X19255Y39117D1*
X19257Y39087D1*
X19258Y39057D1*
Y39027D1*
Y38997D1*
Y38967D1*
Y38937D1*
Y38907D1*
X19348Y39237D2*
Y39207D1*
Y39177D1*
Y39147D1*
Y39117D1*
Y39087D1*
Y39057D1*
Y39027D1*
Y38997D1*
Y38967D1*
Y38937D1*
Y38907D1*
X19408Y39237D2*
X19438Y39207D1*
X19468Y39237D2*
X19438Y39207D1*
X19588Y39237D2*
Y39207D1*
X19678Y39237D2*
X19648Y39207D1*
X19828Y39237D2*
X19866Y39207D1*
X19897Y39177D1*
X19908Y39147D1*
X19914Y39117D1*
X19917Y39087D1*
X19918Y39057D1*
Y39027D1*
X19708Y38997D1*
X19766Y38967D1*
X19828Y38937D1*
X18148Y39207D2*
X18047Y39177D1*
X17970Y39147D1*
X17913Y39117D1*
X17892Y39087D1*
X17884Y39057D1*
X17881Y39027D1*
X17879Y38997D1*
Y38967D1*
X17878Y38937D1*
Y38907D1*
X18118Y39207D2*
X18094Y39177D1*
X18077Y39147D1*
X18067Y39117D1*
X18062Y39087D1*
X18060Y39057D1*
Y39027D1*
X18065Y38997D1*
X18077Y38967D1*
X18096Y38937D1*
X18118Y38907D1*
X17188Y39177D2*
X17164Y39147D1*
X17147Y39117D1*
X17137Y39087D1*
X17132Y39057D1*
X17130Y39027D1*
X17129Y38997D1*
X17128Y38967D1*
Y38937D1*
Y38907D1*
X17218Y39177D2*
X17242Y39147D1*
X17260Y39117D1*
X17270Y39087D1*
X17275Y39057D1*
X17277Y39027D1*
X17278Y38997D1*
Y38967D1*
Y38937D1*
Y38907D1*
X17638Y39177D2*
Y39147D1*
Y39117D1*
X17545Y39087D1*
X17473Y39057D1*
X17446Y39027D1*
X17435Y38997D1*
X17437Y38967D1*
X17445Y38937D1*
X17458Y38907D1*
X18148Y39177D2*
Y39147D1*
Y39117D1*
Y39087D1*
X18150Y39057D1*
X18153Y39027D1*
X18168Y38997D1*
X18201Y38967D1*
X18238Y38937D1*
Y39177D2*
X18262Y39147D1*
X18280Y39117D1*
X18290Y39087D1*
X18295Y39057D1*
X18289Y39027D1*
X18263Y38997D1*
X18209Y38967D1*
X18148Y38937D1*
X19078Y39177D2*
X19048Y39147D1*
X19198Y39177D2*
Y39147D1*
Y39117D1*
Y39087D1*
X18988D1*
X18978Y39057D1*
X18969Y39027D1*
X18965Y38997D1*
X18964Y38967D1*
X18975Y38937D1*
X18988Y38907D1*
X19438Y39177D2*
X19434Y39147D1*
X19426Y39117D1*
X19418Y39087D1*
X19413Y39057D1*
X19410Y39027D1*
X19409Y38997D1*
Y38967D1*
X19408Y38937D1*
Y38907D1*
X19618Y39177D2*
Y39147D1*
Y39117D1*
Y39087D1*
Y39057D1*
X19620Y39027D1*
X19625Y38997D1*
X19637Y38967D1*
X19656Y38937D1*
X19678Y38907D1*
X19738Y39177D2*
X19708Y39147D1*
X19678Y39117D1*
X19768Y39087D1*
X19828Y39177D2*
X19813Y39147D1*
X19766Y39117D1*
X19708Y39087D1*
X18658D2*
X18654Y39057D1*
X18646Y39027D1*
X18637Y38997D1*
X18627Y38967D1*
X18614Y38937D1*
X18598Y38907D1*
X18718Y39087D2*
Y39057D1*
X18719Y39027D1*
X18723Y38997D1*
X18731Y38967D1*
X18740Y38937D1*
X18748Y38907D1*
X17458Y39027D2*
X17505Y38997D1*
X17566Y38967D1*
X17638Y38937D1*
Y39027D2*
X17627Y38997D1*
X17591Y38967D1*
X17548Y38937D1*
X18988Y39027D2*
X19035Y38997D1*
X19096Y38967D1*
X19168Y38937D1*
X19228Y39027D2*
X19182Y38997D1*
X19120Y38967D1*
X19048Y38937D1*
X19828Y38967D2*
X19798Y38937D1*
X19888Y38967D2*
X19918Y38937D1*
X19888Y38907D1*
X23607Y35857D2*
D65*
Y35455D1*
X23875Y35857D2*
X23607Y35589D1*
X23702Y35685D2*
X23875Y35455D1*
X23998Y35780D2*
X24036Y35799D1*
X24094Y35856D1*
Y35455D1*
X23603Y27190D2*
Y26788D1*
X23871Y27190D2*
X23603Y26922D1*
X23699Y27018D2*
X23871Y26788D1*
X24014Y27094D2*
Y27113D1*
X24033Y27152D1*
X24052Y27171D1*
X24091Y27190D1*
X24167D1*
X24205Y27171D1*
X24224Y27152D1*
X24244Y27113D1*
Y27075D1*
X24224Y27037D1*
X24186Y26980D1*
X23995Y26788D1*
X24263D1*
X23601Y18521D2*
Y18119D1*
X23869Y18521D2*
X23601Y18253D1*
X23696Y18349D2*
X23869Y18119D1*
X24031Y18520D2*
X24241D1*
X24126Y18367D1*
X24184D1*
X24222Y18348D1*
X24241Y18329D1*
X24260Y18272D1*
Y18234D1*
X24241Y18176D1*
X24203Y18138D1*
X24145Y18119D1*
X24088D1*
X24031Y18138D1*
X24012Y18157D1*
X23992Y18195D1*
X12690Y18269D2*
Y17867D1*
X12958Y18269D2*
X12690Y18001D1*
X12785Y18097D2*
X12958Y17867D1*
X13273D2*
Y18268D1*
X13081Y18001D1*
X13368D1*
X22335Y37268D2*
Y36866D1*
X22564D1*
X22936Y37268D2*
X22688D1*
Y36866D1*
X22936D1*
X22688Y37077D2*
X22841D1*
X23060Y37268D2*
Y36866D1*
X23194D1*
X23251Y36886D1*
X23290Y36924D1*
X23309Y36962D1*
X23328Y37019D1*
Y37115D1*
X23309Y37173D1*
X23290Y37211D1*
X23251Y37249D1*
X23194Y37268D1*
X23060D1*
X23451Y37191D2*
X23490Y37211D1*
X23547Y37268D1*
Y36866D1*
X22232Y28554D2*
Y28152D1*
X22461D1*
X22833Y28554D2*
X22585D1*
Y28152D1*
X22833D1*
X22585Y28363D2*
X22738D1*
X22957Y28554D2*
Y28152D1*
X23091D1*
X23148Y28172D1*
X23187Y28210D1*
X23206Y28248D1*
X23225Y28305D1*
Y28401D1*
X23206Y28459D1*
X23187Y28497D1*
X23148Y28535D1*
X23091Y28554D1*
X22957D1*
X23368Y28458D2*
Y28477D1*
X23387Y28516D1*
X23406Y28535D1*
X23444Y28554D1*
X23521D1*
X23559Y28535D1*
X23578Y28516D1*
X23597Y28477D1*
Y28439D1*
X23578Y28401D1*
X23540Y28344D1*
X23348Y28152D1*
X23616D1*
X22186Y19743D2*
Y19341D1*
X22415D1*
X22787Y19743D2*
X22539D1*
Y19341D1*
X22787D1*
X22539Y19552D2*
X22692D1*
X22911Y19743D2*
Y19341D1*
X23045D1*
X23102Y19361D1*
X23141Y19399D1*
X23160Y19437D1*
X23179Y19494D1*
Y19590D1*
X23160Y19648D1*
X23141Y19686D1*
X23102Y19724D1*
X23045Y19743D1*
X22911D1*
X23341D2*
X23551D1*
X23436Y19590D1*
X23494D1*
X23532Y19571D1*
X23551Y19552D1*
X23570Y19494D1*
Y19456D1*
X23551Y19399D1*
X23513Y19360D1*
X23455Y19341D1*
X23398D1*
X23341Y19360D1*
X23322Y19380D1*
X23302Y19418D1*
X15266Y10780D2*
Y10378D1*
X15495D1*
X15867Y10780D2*
X15619D1*
Y10378D1*
X15867D1*
X15619Y10589D2*
X15772D1*
X15991Y10780D2*
Y10378D1*
X16125D1*
X16182Y10398D1*
X16220Y10436D1*
X16240Y10474D1*
X16259Y10531D1*
Y10627D1*
X16240Y10685D1*
X16220Y10723D1*
X16182Y10761D1*
X16125Y10780D1*
X15991D1*
X16573Y10378D2*
Y10780D1*
X16382Y10512D1*
X16669D1*
X8819Y35897D2*
X8780Y35878D1*
X8742Y35839D1*
X8723Y35801D1*
X8704Y35744D1*
Y35648D1*
X8723Y35591D1*
X8742Y35552D1*
X8780Y35514D1*
X8819Y35495D1*
X8895D1*
X8933Y35514D1*
X8972Y35552D1*
X8991Y35591D1*
X9010Y35648D1*
Y35744D1*
X8991Y35801D1*
X8972Y35839D1*
X8933Y35878D1*
X8895Y35897D1*
X8819D1*
X9420Y35801D2*
X9401Y35839D1*
X9363Y35878D1*
X9325Y35897D1*
X9248D1*
X9210Y35878D1*
X9172Y35839D1*
X9152Y35801D1*
X9133Y35744D1*
Y35648D1*
X9152Y35591D1*
X9172Y35552D1*
X9210Y35514D1*
X9248Y35495D1*
X9325D1*
X9363Y35514D1*
X9401Y35552D1*
X9420Y35591D1*
X9544Y35820D2*
X9582Y35839D1*
X9640Y35896D1*
Y35495D1*
X8774Y31654D2*
X8735Y31635D1*
X8697Y31597D1*
X8678Y31559D1*
X8659Y31501D1*
Y31405D1*
X8678Y31348D1*
X8697Y31310D1*
X8735Y31272D1*
X8774Y31252D1*
X8850D1*
X8888Y31272D1*
X8927Y31310D1*
X8946Y31348D1*
X8965Y31405D1*
Y31501D1*
X8946Y31559D1*
X8927Y31597D1*
X8888Y31635D1*
X8850Y31654D1*
X8774D1*
X9375Y31559D2*
X9356Y31597D1*
X9318Y31635D1*
X9280Y31654D1*
X9203D1*
X9165Y31635D1*
X9127Y31597D1*
X9107Y31559D1*
X9088Y31501D1*
Y31405D1*
X9107Y31348D1*
X9127Y31310D1*
X9165Y31272D1*
X9203Y31252D1*
X9280D1*
X9318Y31272D1*
X9356Y31310D1*
X9375Y31348D1*
X9518Y31558D2*
Y31577D1*
X9537Y31616D1*
X9556Y31635D1*
X9595Y31654D1*
X9671D1*
X9709Y31635D1*
X9728Y31616D1*
X9748Y31577D1*
Y31539D1*
X9728Y31501D1*
X9690Y31444D1*
X9499Y31252D1*
X9767D1*
X8780Y27407D2*
X8742Y27388D1*
X8704Y27350D1*
X8684Y27312D1*
X8665Y27254D1*
Y27158D1*
X8684Y27101D1*
X8704Y27063D1*
X8742Y27025D1*
X8780Y27005D1*
X8857D1*
X8895Y27025D1*
X8933Y27063D1*
X8952Y27101D1*
X8971Y27158D1*
Y27254D1*
X8952Y27312D1*
X8933Y27350D1*
X8895Y27388D1*
X8857Y27407D1*
X8780D1*
X9382Y27312D2*
X9363Y27350D1*
X9324Y27388D1*
X9286Y27407D1*
X9210D1*
X9171Y27388D1*
X9133Y27350D1*
X9114Y27312D1*
X9095Y27254D1*
Y27158D1*
X9114Y27101D1*
X9133Y27063D1*
X9171Y27025D1*
X9210Y27005D1*
X9286D1*
X9324Y27025D1*
X9363Y27063D1*
X9382Y27101D1*
X9544Y27407D2*
X9754D1*
X9639Y27254D1*
X9697D1*
X9735Y27235D1*
X9754Y27216D1*
X9773Y27158D1*
Y27120D1*
X9754Y27063D1*
X9716Y27024D1*
X9658Y27005D1*
X9601D1*
X9544Y27024D1*
X9525Y27044D1*
X9505Y27082D1*
X8796Y23141D2*
X8757Y23122D1*
X8719Y23083D1*
X8700Y23045D1*
X8681Y22988D1*
Y22892D1*
X8700Y22835D1*
X8719Y22796D1*
X8757Y22758D1*
X8796Y22739D1*
X8872D1*
X8910Y22758D1*
X8949Y22796D1*
X8968Y22835D1*
X8987Y22892D1*
Y22988D1*
X8968Y23045D1*
X8949Y23083D1*
X8910Y23122D1*
X8872Y23141D1*
X8796D1*
X9397Y23045D2*
X9378Y23083D1*
X9340Y23122D1*
X9302Y23141D1*
X9225D1*
X9187Y23122D1*
X9149Y23083D1*
X9129Y23045D1*
X9110Y22988D1*
Y22892D1*
X9129Y22835D1*
X9149Y22796D1*
X9187Y22758D1*
X9225Y22739D1*
X9302D1*
X9340Y22758D1*
X9378Y22796D1*
X9397Y22835D1*
X9712Y22739D2*
Y23140D1*
X9521Y22873D1*
X9808D1*
X11905Y35183D2*
X11867Y35164D1*
X11828Y35126D1*
X11809Y35087D1*
X11790Y35030D1*
Y34934D1*
X11809Y34877D1*
X11828Y34839D1*
X11867Y34801D1*
X11905Y34781D1*
X11981D1*
X12020Y34801D1*
X12058Y34839D1*
X12077Y34877D1*
X12096Y34934D1*
Y35030D1*
X12077Y35087D1*
X12058Y35126D1*
X12020Y35164D1*
X11981Y35183D1*
X11905D1*
X11962Y34858D2*
X12077Y34743D1*
X12220Y35106D2*
X12258Y35125D1*
X12316Y35183D1*
Y34781D1*
X11852Y31053D2*
X11814Y31034D1*
X11776Y30996D1*
X11757Y30957D1*
X11737Y30900D1*
Y30804D1*
X11757Y30747D1*
X11776Y30709D1*
X11814Y30670D1*
X11852Y30651D1*
X11929D1*
X11967Y30670D1*
X12005Y30709D1*
X12024Y30747D1*
X12044Y30804D1*
Y30900D1*
X12024Y30957D1*
X12005Y30996D1*
X11967Y31034D1*
X11929Y31053D1*
X11852D1*
X11910Y30728D2*
X12024Y30613D1*
X12187Y30957D2*
Y30976D1*
X12206Y31014D1*
X12225Y31033D1*
X12263Y31052D1*
X12340D1*
X12378Y31033D1*
X12397Y31014D1*
X12416Y30976D1*
Y30938D1*
X12397Y30899D1*
X12359Y30842D1*
X12167Y30651D1*
X12435D1*
X11898Y26729D2*
X11859Y26711D1*
X11821Y26672D1*
X11802Y26634D1*
X11783Y26576D1*
Y26481D1*
X11802Y26423D1*
X11821Y26385D1*
X11859Y26347D1*
X11898Y26328D1*
X11974D1*
X12012Y26347D1*
X12051Y26385D1*
X12070Y26423D1*
X12089Y26481D1*
Y26576D1*
X12070Y26634D1*
X12051Y26672D1*
X12012Y26711D1*
X11974Y26729D1*
X11898D1*
X11955Y26404D2*
X12070Y26289D1*
X12251Y26729D2*
X12461D1*
X12346Y26576D1*
X12404D1*
X12442Y26557D1*
X12461Y26538D1*
X12480Y26480D1*
Y26442D1*
X12461Y26385D1*
X12423Y26346D1*
X12365Y26327D1*
X12308D1*
X12251Y26346D1*
X12232Y26366D1*
X12212Y26404D1*
X11693Y22481D2*
X11655Y22462D1*
X11617Y22424D1*
X11598Y22385D1*
X11578Y22328D1*
Y22232D1*
X11598Y22175D1*
X11617Y22137D1*
X11655Y22098D1*
X11693Y22079D1*
X11770D1*
X11808Y22098D1*
X11846Y22137D1*
X11865Y22175D1*
X11885Y22232D1*
Y22328D1*
X11865Y22385D1*
X11846Y22424D1*
X11808Y22462D1*
X11770Y22481D1*
X11693D1*
X11751Y22156D2*
X11865Y22041D1*
X12200Y22079D2*
Y22480D1*
X12008Y22213D1*
X12295D1*
X11793Y37005D2*
X11965D1*
X12023Y37024D1*
X12042Y37043D1*
X12061Y37081D1*
Y37120D1*
X12042Y37158D1*
X12023Y37177D1*
X11965Y37196D1*
X11793D1*
Y36794D1*
X11927Y37005D2*
X12061Y36794D1*
X12185Y37119D2*
X12223Y37139D1*
X12280Y37196D1*
Y36794D1*
X17308Y36861D2*
Y37033D1*
X17288Y37090D1*
X17269Y37110D1*
X17231Y37129D1*
X17193D1*
X17155Y37110D1*
X17135Y37090D1*
X17116Y37033D1*
Y36861D1*
X17518D1*
X17308Y36995D2*
X17518Y37129D1*
X17212Y37272D2*
X17193D1*
X17155Y37291D1*
X17136Y37310D1*
X17117Y37348D1*
Y37424D1*
X17136Y37463D1*
X17155Y37482D1*
X17193Y37501D1*
X17231D1*
X17270Y37482D1*
X17327Y37444D1*
X17518Y37252D1*
Y37520D1*
X13165Y35631D2*
Y35803D1*
X13145Y35860D1*
X13126Y35880D1*
X13088Y35899D1*
X13050D1*
X13012Y35880D1*
X12992Y35860D1*
X12973Y35803D1*
Y35631D1*
X13375D1*
X13165Y35765D2*
X13375Y35899D1*
X12974Y36061D2*
Y36271D1*
X13127Y36156D1*
Y36214D1*
X13146Y36252D1*
X13165Y36271D1*
X13222Y36290D1*
X13260D1*
X13318Y36271D1*
X13356Y36233D1*
X13375Y36175D1*
Y36118D1*
X13356Y36061D1*
X13337Y36042D1*
X13299Y36022D1*
X17372Y27535D2*
Y27707D1*
X17353Y27764D1*
X17334Y27784D1*
X17296Y27803D1*
X17257D1*
X17219Y27784D1*
X17200Y27764D1*
X17181Y27707D1*
Y27535D1*
X17583D1*
X17372Y27669D2*
X17583Y27803D1*
Y28118D2*
X17181D1*
X17449Y27926D1*
Y28213D1*
X15424Y32554D2*
X15596D1*
X15653Y32574D1*
X15673Y32593D1*
X15692Y32631D1*
Y32669D1*
X15673Y32707D1*
X15653Y32727D1*
X15596Y32746D1*
X15424D1*
Y32344D1*
X15558Y32554D2*
X15692Y32344D1*
X16045Y32745D2*
X15854D1*
X15834Y32573D1*
X15854Y32592D1*
X15911Y32612D1*
X15968D1*
X16026Y32592D1*
X16064Y32554D1*
X16083Y32497D1*
Y32459D1*
X16064Y32401D1*
X16026Y32363D1*
X15968Y32344D1*
X15911D1*
X15854Y32363D1*
X15834Y32382D1*
X15815Y32420D1*
X17856Y19091D2*
Y19263D1*
X17837Y19320D1*
X17818Y19340D1*
X17780Y19359D1*
X17741D1*
X17703Y19340D1*
X17684Y19320D1*
X17665Y19263D1*
Y19091D1*
X18067D1*
X17856Y19225D2*
X18067Y19359D1*
X17722Y19712D2*
X17684Y19693D1*
X17665Y19635D1*
Y19597D1*
X17684Y19540D1*
X17742Y19501D1*
X17837Y19482D1*
X17933D1*
X18009Y19501D1*
X18048Y19540D1*
X18067Y19597D1*
Y19616D1*
X18048Y19673D1*
X18009Y19712D1*
X17952Y19731D1*
X17933D1*
X17875Y19712D1*
X17837Y19673D1*
X17818Y19616D1*
Y19597D1*
X17837Y19540D1*
X17875Y19501D1*
X17933Y19482D1*
X15430Y24611D2*
X15602D1*
X15660Y24630D1*
X15679Y24649D1*
X15698Y24687D1*
Y24726D1*
X15679Y24764D1*
X15660Y24783D1*
X15602Y24802D1*
X15430D1*
Y24400D1*
X15564Y24611D2*
X15698Y24400D1*
X15898D2*
X16090Y24802D1*
X15822D1*
X17863Y16656D2*
Y16828D1*
X17843Y16886D1*
X17824Y16905D1*
X17786Y16924D1*
X17748D1*
X17710Y16905D1*
X17690Y16886D1*
X17671Y16828D1*
Y16656D1*
X18073D1*
X17863Y16790D2*
X18073Y16924D1*
X17672Y17143D2*
X17691Y17086D1*
X17729Y17067D1*
X17767D1*
X17805Y17086D1*
X17825Y17124D1*
X17844Y17201D1*
X17863Y17258D1*
X17901Y17296D1*
X17939Y17315D1*
X17997D1*
X18035Y17296D1*
X18054Y17277D1*
X18073Y17220D1*
Y17143D1*
X18054Y17086D1*
X18035Y17067D1*
X17997Y17048D1*
X17939D1*
X17901Y17067D1*
X17863Y17105D1*
X17844Y17162D1*
X17825Y17239D1*
X17805Y17277D1*
X17767Y17296D1*
X17729D1*
X17691Y17277D1*
X17672Y17220D1*
Y17143D1*
X6616Y27199D2*
X6577Y27161D1*
X6558Y27104D1*
Y27027D1*
X6577Y26970D1*
X6616Y26932D1*
X6654D1*
X6692Y26951D1*
X6711Y26970D1*
X6730Y27008D1*
X6769Y27123D1*
X6788Y27161D1*
X6807Y27180D1*
X6845Y27199D1*
X6903D1*
X6941Y27161D1*
X6960Y27104D1*
Y27027D1*
X6941Y26970D1*
X6903Y26932D1*
X6558Y27323D2*
X6960D1*
X6692Y27542D2*
X6711Y27504D1*
X6750Y27466D1*
X6807Y27447D1*
X6845D1*
X6903Y27466D1*
X6941Y27504D1*
X6960Y27542D1*
Y27599D1*
X6941Y27638D1*
X6903Y27676D1*
X6845Y27695D1*
X6807D1*
X6750Y27676D1*
X6711Y27638D1*
X6692Y27599D1*
Y27542D1*
Y27819D2*
X6960Y27895D1*
X6692Y27972D1*
X6960Y28048D1*
X6692Y28125D1*
X6616Y28516D2*
X6577Y28478D1*
X6558Y28421D1*
Y28344D1*
X6577Y28287D1*
X6616Y28248D1*
X6654D1*
X6692Y28268D1*
X6711Y28287D1*
X6730Y28325D1*
X6769Y28440D1*
X6788Y28478D1*
X6807Y28497D1*
X6845Y28516D1*
X6903D1*
X6941Y28478D1*
X6960Y28421D1*
Y28344D1*
X6941Y28287D1*
X6903Y28248D1*
X6692Y28640D2*
X7094D1*
X6750D2*
X6712Y28678D1*
X6692Y28716D1*
Y28774D1*
X6712Y28812D1*
X6750Y28850D1*
X6807Y28870D1*
X6846D1*
X6903Y28850D1*
X6941Y28812D1*
X6960Y28774D1*
Y28716D1*
X6941Y28678D1*
X6903Y28640D1*
X6807Y28993D2*
Y29223D1*
X6769D1*
X6730Y29204D1*
X6711Y29185D1*
X6692Y29146D1*
Y29089D1*
X6711Y29051D1*
X6750Y29012D1*
X6807Y28993D1*
X6845D1*
X6903Y29012D1*
X6941Y29051D1*
X6960Y29089D1*
Y29146D1*
X6941Y29185D1*
X6903Y29223D1*
X6807Y29346D2*
Y29576D1*
X6769D1*
X6730Y29557D1*
X6711Y29538D1*
X6692Y29499D1*
Y29442D1*
X6711Y29404D1*
X6750Y29365D1*
X6807Y29346D1*
X6845D1*
X6903Y29365D1*
X6941Y29404D1*
X6960Y29442D1*
Y29499D1*
X6941Y29538D1*
X6903Y29576D1*
X6558Y29929D2*
X6960D1*
X6750D2*
X6711Y29891D1*
X6692Y29852D1*
Y29795D1*
X6711Y29757D1*
X6750Y29718D1*
X6807Y29699D1*
X6845D1*
X6903Y29718D1*
X6941Y29757D1*
X6960Y29795D1*
Y29852D1*
X6941Y29891D1*
X6903Y29929D1*
X6769Y30052D2*
Y30225D1*
X6750Y30282D1*
X6730Y30301D1*
X6692Y30320D1*
X6635D1*
X6597Y30301D1*
X6577Y30282D1*
X6558Y30225D1*
Y30052D1*
X6960D1*
X6692Y30539D2*
X6711Y30501D1*
X6750Y30463D1*
X6807Y30444D1*
X6845D1*
X6903Y30463D1*
X6941Y30501D1*
X6960Y30539D1*
Y30597D1*
X6941Y30635D1*
X6903Y30673D1*
X6845Y30693D1*
X6807D1*
X6750Y30673D1*
X6711Y30635D1*
X6692Y30597D1*
Y30539D1*
Y30816D2*
X6960D1*
X6807D2*
X6750Y30836D1*
X6711Y30874D1*
X6692Y30912D1*
Y30970D1*
X6558Y31151D2*
X6884D1*
X6941Y31170D1*
X6960Y31208D1*
Y31246D1*
X6692Y31093D2*
Y31227D1*
X6960Y31676D2*
X6558D1*
X6960Y31523D1*
X6558Y31370D1*
X6960D1*
X6558Y31799D2*
X6577Y31818D1*
X6558Y31838D1*
X6539Y31818D1*
X6558Y31799D1*
X6692Y31818D2*
X6960D1*
X6692Y31961D2*
X6960D1*
X6769D2*
X6711Y32019D1*
X6692Y32057D1*
Y32114D1*
X6711Y32153D1*
X6769Y32172D1*
X6960D1*
X6692Y32295D2*
X6960D1*
X6769D2*
X6711Y32353D1*
X6692Y32391D1*
Y32448D1*
X6711Y32487D1*
X6769Y32506D1*
X6960D1*
X6692Y32725D2*
X6711Y32687D1*
X6750Y32648D1*
X6807Y32629D1*
X6845D1*
X6903Y32648D1*
X6941Y32687D1*
X6960Y32725D1*
Y32782D1*
X6941Y32821D1*
X6903Y32859D1*
X6845Y32878D1*
X6807D1*
X6750Y32859D1*
X6711Y32821D1*
X6692Y32782D1*
Y32725D1*
Y33002D2*
X6960Y33078D1*
X6692Y33155D1*
X6960Y33231D1*
X6692Y33308D1*
X6558Y33431D2*
X6960D1*
Y33603D1*
X6941Y33661D1*
X6922Y33680D1*
X6884Y33699D1*
X6826D1*
X6788Y33680D1*
X6769Y33661D1*
X6750Y33603D1*
X6730Y33661D1*
X6711Y33680D1*
X6673Y33699D1*
X6635D1*
X6597Y33680D1*
X6577Y33661D1*
X6558Y33603D1*
Y33431D1*
X6750D2*
Y33603D1*
X6692Y33918D2*
X6711Y33880D1*
X6750Y33841D1*
X6807Y33822D1*
X6845D1*
X6903Y33841D1*
X6941Y33880D1*
X6960Y33918D1*
Y33975D1*
X6941Y34014D1*
X6903Y34052D1*
X6845Y34071D1*
X6807D1*
X6750Y34052D1*
X6711Y34014D1*
X6692Y33975D1*
Y33918D1*
Y34424D2*
X6960D1*
X6750D2*
X6711Y34386D1*
X6692Y34348D1*
Y34291D1*
X6711Y34252D1*
X6750Y34214D1*
X6807Y34195D1*
X6845D1*
X6903Y34214D1*
X6941Y34252D1*
X6960Y34291D1*
Y34348D1*
X6941Y34386D1*
X6903Y34424D1*
X6692Y34548D2*
X6960D1*
X6807D2*
X6750Y34567D1*
X6711Y34605D1*
X6692Y34644D1*
Y34701D1*
X6558Y35054D2*
X6960D1*
X6750D2*
X6711Y35016D1*
X6692Y34978D1*
Y34920D1*
X6711Y34882D1*
X6750Y34844D1*
X6807Y34825D1*
X6845D1*
X6903Y34844D1*
X6941Y34882D1*
X6960Y34920D1*
Y34978D1*
X6941Y35016D1*
X6903Y35054D1*
X6960Y35484D2*
X6558D1*
X6960Y35331D1*
X6558Y35178D1*
X6960D1*
Y35914D2*
X6558Y35760D1*
X6960Y35607D1*
X6826Y35665D2*
Y35856D1*
X6558Y36037D2*
X6960Y36305D1*
X6558D2*
X6960Y36037D1*
X19630Y37973D2*
Y37686D1*
X19649Y37628D1*
X19688Y37590D1*
X19745Y37571D1*
X19783D1*
X19841Y37590D1*
X19879Y37628D1*
X19898Y37686D1*
Y37973D1*
X20022Y37896D2*
X20060Y37915D1*
X20118Y37972D1*
Y37571D1*
X20214Y28691D2*
Y28404D1*
X20233Y28346D1*
X20271Y28308D1*
X20329Y28289D1*
X20367D1*
X20424Y28308D1*
X20463Y28346D1*
X20482Y28404D1*
Y28691D1*
X20625Y28595D2*
Y28614D1*
X20644Y28652D1*
X20663Y28671D1*
X20701Y28690D1*
X20778D1*
X20816Y28671D1*
X20835Y28652D1*
X20854Y28614D1*
Y28576D1*
X20835Y28537D1*
X20797Y28480D1*
X20605Y28289D1*
X20873D1*
X20128Y20154D2*
Y19867D1*
X20147Y19810D1*
X20186Y19772D1*
X20243Y19752D1*
X20281D1*
X20339Y19772D1*
X20377Y19810D1*
X20396Y19867D1*
Y20154D1*
X20558D2*
X20768D1*
X20654Y20001D1*
X20711D1*
X20749Y19982D1*
X20768Y19963D1*
X20788Y19905D1*
Y19867D1*
X20768Y19810D1*
X20730Y19771D1*
X20673Y19752D1*
X20615D1*
X20558Y19771D1*
X20539Y19791D1*
X20520Y19829D1*
X15463Y20403D2*
Y20116D1*
X15482Y20059D1*
X15520Y20021D1*
X15578Y20001D1*
X15616D1*
X15673Y20021D1*
X15712Y20059D1*
X15731Y20116D1*
Y20403D1*
X16046Y20001D2*
Y20403D1*
X15854Y20135D1*
X16141D1*
X9249Y39658D2*
Y39371D1*
X9268Y39314D1*
X9307Y39276D1*
X9364Y39256D1*
X9402D1*
X9460Y39276D1*
X9498Y39314D1*
X9517Y39371D1*
Y39658D1*
X9870D2*
X9679D1*
X9660Y39486D1*
X9679Y39505D1*
X9736Y39524D1*
X9793D1*
X9851Y39505D1*
X9889Y39467D1*
X9908Y39409D1*
Y39371D1*
X9889Y39314D1*
X9851Y39275D1*
X9793Y39256D1*
X9736D1*
X9679Y39275D1*
X9660Y39295D1*
X9640Y39333D1*
X14110Y7581D2*
D66*
X14540D1*
X14684Y7630D1*
X14733Y7677D1*
X14780Y7772D1*
Y7868D1*
X14733Y7963D1*
X14684Y8012D1*
X14540Y8060D1*
X14110D1*
Y7055D1*
X14445Y7581D2*
X14780Y7055D1*
X15089Y7437D2*
X15663D1*
Y7533D1*
X15615Y7630D1*
X15568Y7677D1*
X15471Y7725D1*
X15328D1*
X15233Y7677D1*
X15136Y7581D1*
X15089Y7437D1*
Y7342D1*
X15136Y7198D1*
X15233Y7103D1*
X15328Y7055D1*
X15471D1*
X15568Y7103D1*
X15663Y7198D1*
X15971Y8060D2*
Y7055D1*
X16854Y7725D2*
Y7055D1*
Y7581D2*
X16759Y7677D1*
X16663Y7725D1*
X16520D1*
X16424Y7677D1*
X16329Y7581D1*
X16280Y7437D1*
Y7342D1*
X16329Y7198D1*
X16424Y7103D1*
X16520Y7055D1*
X16663D1*
X16759Y7103D1*
X16854Y7198D1*
X17211Y7725D2*
X17498Y7055D1*
X17403Y6864D1*
X17306Y6767D1*
X17211Y6720D1*
X17163D1*
X17785Y7725D2*
X17498Y7055D1*
X19066Y8060D2*
Y7055D1*
X19639D1*
X19948Y7725D2*
Y7246D1*
X19996Y7103D1*
X20092Y7055D1*
X20236D1*
X20331Y7103D1*
X20474Y7246D1*
Y7725D2*
Y7055D1*
X20783Y7725D2*
Y7055D1*
Y7437D2*
X20832Y7581D1*
X20927Y7677D1*
X21023Y7725D1*
X21167D1*
X21476Y7437D2*
X22049D1*
Y7533D1*
X22002Y7630D1*
X21954Y7677D1*
X21858Y7725D1*
X21714D1*
X21619Y7677D1*
X21523Y7581D1*
X21476Y7437D1*
Y7342D1*
X21523Y7198D1*
X21619Y7103D1*
X21714Y7055D1*
X21858D1*
X21954Y7103D1*
X22049Y7198D1*
X32562Y33067D2*
D67*
X32864D1*
X32562Y32866D1*
X32864D1*
X32634Y33375D2*
X32606Y33361D1*
X32577Y33332D1*
X32562Y33304D1*
Y33246D1*
X32577Y33217D1*
X32606Y33189D1*
X32634Y33174D1*
X32677Y33160D1*
X32749D1*
X32792Y33174D1*
X32821Y33189D1*
X32849Y33217D1*
X32864Y33246D1*
Y33304D1*
X32849Y33332D1*
X32821Y33361D1*
X32792Y33375D1*
X32599Y30917D2*
X32901D1*
X32599Y30716D1*
X32901D1*
X32599Y31096D2*
X32613Y31067D1*
X32642Y31038D1*
X32671Y31024D1*
X32714Y31010D1*
X32786D1*
X32829Y31024D1*
X32857Y31038D1*
X32886Y31067D1*
X32901Y31096D1*
Y31153D1*
X32886Y31182D1*
X32857Y31211D1*
X32829Y31225D1*
X32786Y31239D1*
X32714D1*
X32671Y31225D1*
X32642Y31211D1*
X32613Y31182D1*
X32599Y31153D1*
Y31096D1*
X32646Y24392D2*
X32948D1*
X32646Y24191D1*
X32948D1*
X32718Y24699D2*
X32689Y24685D1*
X32661Y24656D1*
X32646Y24628D1*
Y24570D1*
X32661Y24542D1*
X32689Y24513D1*
X32718Y24498D1*
X32761Y24484D1*
X32833D1*
X32876Y24498D1*
X32905Y24513D1*
X32933Y24542D1*
X32948Y24570D1*
Y24628D1*
X32933Y24656D1*
X32905Y24685D1*
X32876Y24699D1*
X32683Y22241D2*
X32985D1*
X32683Y22040D1*
X32985D1*
X32683Y22420D2*
X32697Y22391D1*
X32726Y22363D1*
X32755Y22348D1*
X32798Y22334D1*
X32870D1*
X32913Y22348D1*
X32941Y22363D1*
X32970Y22391D1*
X32985Y22420D1*
Y22477D1*
X32970Y22506D1*
X32941Y22535D1*
X32913Y22549D1*
X32870Y22563D1*
X32798D1*
X32755Y22549D1*
X32726Y22535D1*
X32697Y22506D1*
X32683Y22477D1*
Y22420D1*
X32682Y15802D2*
X32983D1*
X32682Y15601D1*
X32983D1*
X32753Y16110D2*
X32725Y16096D1*
X32696Y16067D1*
X32682Y16039D1*
Y15981D1*
X32696Y15952D1*
X32725Y15924D1*
X32753Y15909D1*
X32797Y15895D1*
X32869D1*
X32911Y15909D1*
X32940Y15924D1*
X32969Y15952D1*
X32983Y15981D1*
Y16039D1*
X32969Y16067D1*
X32940Y16096D1*
X32911Y16110D1*
X32719Y13652D2*
X33020D1*
X32718Y13451D1*
X33020D1*
X32719Y13831D2*
X32733Y13802D1*
X32762Y13773D1*
X32790Y13759D1*
X32833Y13744D1*
X32905D1*
X32948Y13759D1*
X32977Y13773D1*
X33005Y13802D1*
X33020Y13831D1*
Y13888D1*
X33005Y13917D1*
X32977Y13945D1*
X32948Y13960D1*
X32905Y13974D1*
X32833D1*
X32790Y13960D1*
X32762Y13945D1*
X32733Y13917D1*
X32719Y13888D1*
Y13831D1*
X4299Y13343D2*
X3997D1*
X4299Y13544D1*
X3997D1*
X4227Y13035D2*
X4256Y13050D1*
X4285Y13079D1*
X4299Y13107D1*
Y13164D1*
X4285Y13193D1*
X4256Y13222D1*
X4227Y13236D1*
X4184Y13251D1*
X4112D1*
X4069Y13236D1*
X4041Y13222D1*
X4012Y13193D1*
X3997Y13164D1*
Y13107D1*
X4012Y13079D1*
X4041Y13050D1*
X4069Y13035D1*
X4262Y15494D2*
X3961D1*
X4262Y15695D1*
X3961D1*
X4262Y15315D2*
X4248Y15344D1*
X4219Y15372D1*
X4191Y15387D1*
X4147Y15401D1*
X4075D1*
X4033Y15387D1*
X4004Y15372D1*
X3975Y15344D1*
X3961Y15315D1*
Y15258D1*
X3975Y15229D1*
X4004Y15200D1*
X4033Y15186D1*
X4075Y15172D1*
X4147D1*
X4191Y15186D1*
X4219Y15200D1*
X4248Y15229D1*
X4262Y15258D1*
Y15315D1*
X31437Y34034D2*
X31452Y34005D1*
X31495Y33962D1*
X31194D1*
X31430Y32106D2*
X31444D1*
X31473Y32092D1*
X31487Y32078D1*
X31502Y32049D1*
Y31992D1*
X31487Y31963D1*
X31473Y31949D1*
X31444Y31934D1*
X31416D1*
X31387Y31949D1*
X31344Y31977D1*
X31201Y32121D1*
Y31920D1*
X31479Y30098D2*
Y29940D1*
X31364Y30026D1*
Y29983D1*
X31350Y29954D1*
X31336Y29940D1*
X31293Y29926D1*
X31264D1*
X31221Y29940D1*
X31192Y29969D1*
X31178Y30012D1*
Y30055D1*
X31192Y30098D1*
X31207Y30112D1*
X31235Y30127D1*
X31511Y25394D2*
X31526Y25366D1*
X31568Y25323D1*
X31267D1*
X31504Y23467D2*
X31518D1*
X31547Y23453D1*
X31561Y23439D1*
X31575Y23410D1*
Y23352D1*
X31561Y23324D1*
X31547Y23310D1*
X31518Y23295D1*
X31489D1*
X31461Y23310D1*
X31418Y23338D1*
X31274Y23482D1*
Y23281D1*
X31553Y21458D2*
Y21301D1*
X31438Y21387D1*
Y21344D1*
X31424Y21315D1*
X31409Y21301D1*
X31366Y21286D1*
X31338D1*
X31295Y21301D1*
X31266Y21329D1*
X31252Y21372D1*
Y21416D1*
X31266Y21458D1*
X31280Y21473D1*
X31309Y21487D1*
X31520Y16756D2*
X31535Y16727D1*
X31577Y16684D1*
X31276D1*
X31513Y14828D2*
X31527D1*
X31556Y14814D1*
X31570Y14800D1*
X31584Y14771D1*
Y14713D1*
X31570Y14685D1*
X31556Y14671D1*
X31527Y14656D1*
X31498D1*
X31470Y14671D1*
X31427Y14699D1*
X31283Y14843D1*
Y14642D1*
X31562Y12820D2*
Y12662D1*
X31447Y12748D1*
Y12705D1*
X31433Y12676D1*
X31419Y12662D1*
X31375Y12647D1*
X31347D1*
X31304Y12662D1*
X31275Y12691D1*
X31261Y12734D1*
Y12777D1*
X31275Y12820D1*
X31290Y12834D1*
X31318Y12848D1*
X5433Y12352D2*
X5418Y12381D1*
X5375Y12424D1*
X5676D1*
X5440Y14280D2*
X5426D1*
X5397Y14294D1*
X5383Y14308D1*
X5368Y14337D1*
Y14395D1*
X5383Y14423D1*
X5397Y14437D1*
X5426Y14452D1*
X5454D1*
X5483Y14437D1*
X5526Y14409D1*
X5669Y14265D1*
Y14466D1*
X5391Y16288D2*
Y16446D1*
X5506Y16360D1*
Y16403D1*
X5520Y16432D1*
X5534Y16446D1*
X5577Y16461D1*
X5606D1*
X5649Y16446D1*
X5678Y16417D1*
X5692Y16374D1*
Y16331D1*
X5678Y16288D1*
X5663Y16274D1*
X5635Y16260D1*
M02*
